<svg xmlns="http://www.w3.org/2000/svg" xmlns:xlink="http://www.w3.org/1999/xlink" width="130" zoomAndPan="magnify" viewBox="0 0 97.5 100.499998" height="134" preserveAspectRatio="xMidYMid meet" version="1.0"><defs><g/><clipPath id="8fc5ca5463"><path d="M 34 58 L 40 58 L 40 65.671875 L 34 65.671875 Z M 34 58 " clip-rule="nonzero"/></clipPath><clipPath id="b7683dc98e"><path d="M 36 0.0078125 L 45 0.0078125 L 45 7 L 36 7 Z M 36 0.0078125 " clip-rule="nonzero"/></clipPath><clipPath id="2ee5c4cf0f"><path d="M 22.5 17 L 25 17 L 25 24 L 22.5 24 Z M 22.5 17 " clip-rule="nonzero"/></clipPath><clipPath id="43c1d625b9"><path d="M 35 0.0078125 L 37 0.0078125 L 37 6 L 35 6 Z M 35 0.0078125 " clip-rule="nonzero"/></clipPath><clipPath id="c5d013a215"><path d="M 71 33 L 73.988281 33 L 73.988281 38 L 71 38 Z M 71 33 " clip-rule="nonzero"/></clipPath></defs><path fill="#fae1cc" d="M 41.355469 17.078125 C 41.210938 17.730469 41.136719 18.386719 40.847656 18.964844 C 40.628906 19.472656 40.339844 19.980469 40.121094 20.414062 C 39.90625 20.851562 39.6875 21.359375 39.398438 21.792969 C 39.035156 22.375 38.453125 22.734375 37.875 23.097656 C 37.222656 22.664062 36.640625 22.226562 36.132812 21.574219 C 35.773438 21.066406 35.480469 20.414062 35.335938 19.835938 C 34.902344 18.386719 34.828125 16.933594 34.757812 15.410156 C 34.683594 13.816406 34.683594 12.222656 34.683594 10.625 C 34.683594 10.046875 34.609375 9.320312 35.117188 8.738281 C 35.554688 8.160156 36.277344 8.085938 36.714844 8.015625 C 36.785156 8.378906 36.859375 8.886719 37.222656 9.394531 C 37.367188 9.609375 37.65625 9.902344 38.238281 10.335938 C 38.382812 10.480469 38.527344 10.554688 38.746094 10.625 C 39.035156 10.699219 39.46875 10.335938 39.761719 10.261719 C 40.195312 10.046875 40.628906 9.972656 41.066406 9.828125 C 41.136719 10.117188 41.210938 10.480469 41.28125 10.769531 C 41.28125 10.84375 41.28125 10.914062 41.355469 10.988281 C 41.71875 13.019531 41.71875 15.050781 41.355469 17.078125 Z M 41.355469 17.078125 " fill-opacity="1" fill-rule="nonzero"/><path fill="#ac9882" d="M 36.132812 8.160156 C 36.132812 8.59375 36.207031 9.03125 36.207031 9.464844 C 36.277344 10.261719 36.425781 11.132812 36.714844 11.859375 C 37.367188 11.496094 37.875 11.0625 38.453125 10.554688 C 38.527344 10.480469 38.671875 10.625 38.601562 10.699219 C 38.09375 11.277344 37.4375 11.714844 36.714844 12.074219 C 36.640625 12.074219 36.640625 12.074219 36.570312 12.003906 C 36.425781 11.570312 36.277344 11.132812 36.207031 10.699219 C 36.132812 10.335938 36.0625 9.902344 35.988281 9.539062 C 35.917969 9.101562 35.917969 8.667969 35.917969 8.234375 Z M 36.132812 8.160156 " fill-opacity="1" fill-rule="nonzero"/><path fill="#ac9882" d="M 41.355469 10.988281 C 41.136719 11.207031 40.921875 11.496094 40.773438 11.714844 C 40.773438 11.785156 40.703125 11.785156 40.628906 11.714844 C 40.121094 11.496094 39.542969 11.0625 39.324219 10.554688 C 39.324219 10.480469 39.324219 10.480469 39.398438 10.480469 C 39.613281 10.625 39.832031 10.84375 40.050781 11.0625 C 40.269531 11.207031 40.484375 11.351562 40.703125 11.496094 C 40.921875 11.207031 41.136719 10.914062 41.355469 10.699219 C 41.355469 10.84375 41.355469 10.914062 41.355469 10.988281 Z M 41.355469 10.988281 " fill-opacity="1" fill-rule="nonzero"/><path fill="#fae1cc" d="M 58.398438 52.976562 C 58.46875 53.265625 58.46875 53.628906 58.398438 53.917969 C 58.324219 54.207031 58.25 54.570312 58.25 54.859375 C 58.25 55.367188 58.542969 55.804688 58.6875 56.238281 C 58.90625 56.820312 59.050781 57.472656 59.050781 58.050781 C 59.050781 58.414062 58.976562 58.851562 58.6875 59.140625 C 58.46875 59.355469 58.179688 59.429688 57.890625 59.429688 C 57.597656 59.429688 57.308594 59.503906 57.019531 59.355469 C 56.585938 59.140625 56.367188 58.703125 56.367188 58.269531 C 56.292969 57.835938 56.4375 57.398438 56.511719 56.890625 C 56.585938 56.09375 56.585938 55.296875 56.65625 54.5 C 56.730469 53.917969 56.945312 53.339844 57.238281 52.832031 C 57.382812 52.6875 57.597656 52.324219 57.816406 52.324219 C 58.105469 52.394531 58.324219 52.757812 58.398438 52.976562 Z M 58.398438 52.976562 " fill-opacity="1" fill-rule="nonzero"/><path fill="#fae1cc" d="M 54.335938 59.210938 C 54.335938 59.71875 54.117188 59.9375 53.828125 60.664062 C 53.539062 61.386719 53.394531 62.113281 53.394531 62.839844 C 53.394531 63.199219 53.394531 63.636719 53.175781 64 C 52.957031 64.359375 52.523438 64.578125 52.089844 64.722656 C 51.507812 64.867188 50.925781 64.941406 50.273438 64.941406 C 49.839844 64.941406 49.695312 64.796875 49.621094 64.722656 C 49.257812 64.359375 49.550781 63.636719 49.621094 63.492188 C 49.765625 63.636719 50.492188 64.214844 51.433594 64.144531 C 51.582031 64.144531 52.449219 64.070312 52.8125 63.417969 C 52.957031 63.199219 52.957031 62.910156 53.03125 62.546875 C 53.320312 60.808594 53.320312 60.226562 53.539062 59.355469 C 53.609375 59.066406 53.753906 58.703125 53.972656 58.269531 C 54.191406 58.414062 54.335938 58.777344 54.335938 59.210938 Z M 54.335938 59.210938 " fill-opacity="1" fill-rule="nonzero"/><path fill="#f2be70" d="M 54.191406 58.34375 C 54.335938 58.921875 54.117188 59.574219 53.902344 60.082031 C 53.683594 60.664062 53.320312 61.171875 53.320312 61.75 C 53.25 62.257812 53.394531 62.765625 53.25 63.199219 C 53.175781 63.347656 53.175781 63.417969 53.03125 63.492188 C 52.957031 63.636719 52.8125 63.78125 52.667969 63.851562 C 52.449219 64 52.234375 64.070312 52.015625 64.144531 C 51.507812 64.214844 50.925781 64.144531 50.421875 64.070312 C 50.058594 64 49.839844 63.851562 49.765625 63.636719 C 49.695312 63.417969 49.765625 63.273438 49.914062 62.984375 C 49.984375 62.839844 50.058594 62.765625 50.203125 62.621094 C 50.347656 62.402344 50.566406 62.113281 50.710938 61.75 C 51.074219 61.023438 50.855469 60.953125 51.289062 58.851562 C 51.433594 58.125 51.507812 58.125 51.652344 57.253906 C 51.652344 57.253906 51.652344 57.183594 51.652344 57.183594 C 51.652344 57.035156 51.726562 56.890625 51.726562 56.746094 C 51.941406 55.730469 52.089844 55.222656 52.089844 54.714844 C 52.234375 52.976562 51.871094 52.25 52.304688 50.726562 C 52.449219 50.292969 52.523438 50.074219 52.742188 49.859375 C 53.03125 49.566406 55.640625 49.496094 55.570312 49.785156 C 54.988281 51.816406 54.410156 53.917969 53.753906 55.949219 C 53.683594 56.3125 53.539062 56.675781 53.609375 57.035156 C 53.609375 57.109375 53.609375 57.109375 53.609375 57.183594 C 53.683594 57.328125 53.753906 57.472656 53.828125 57.617188 C 53.972656 57.90625 54.117188 58.125 54.191406 58.34375 Z M 54.191406 58.34375 " fill-opacity="1" fill-rule="nonzero"/><path fill="#fae1cc" d="M 53.03125 63.5625 C 52.957031 63.707031 52.8125 63.851562 52.667969 63.925781 C 51.871094 63.347656 50.855469 63.054688 49.839844 63.054688 C 49.914062 62.910156 49.984375 62.839844 50.128906 62.691406 C 50.203125 62.691406 50.273438 62.691406 50.347656 62.691406 C 50.925781 62.621094 51.507812 62.765625 52.089844 62.984375 C 52.378906 63.128906 52.59375 63.273438 52.886719 63.417969 C 52.957031 63.417969 53.03125 63.492188 53.03125 63.5625 Z M 53.03125 63.5625 " fill-opacity="1" fill-rule="nonzero"/><path fill="#fae1cc" d="M 53.902344 57.617188 C 53.539062 57.6875 52.886719 57.761719 52.160156 57.542969 C 51.941406 57.472656 51.796875 57.398438 51.652344 57.328125 C 51.652344 57.328125 51.652344 57.253906 51.652344 57.253906 C 51.652344 57.109375 51.726562 56.964844 51.726562 56.820312 C 52.015625 56.964844 52.449219 57.183594 53.03125 57.253906 C 53.25 57.253906 53.464844 57.253906 53.683594 57.253906 C 53.753906 57.328125 53.828125 57.472656 53.902344 57.617188 Z M 53.902344 57.617188 " fill-opacity="1" fill-rule="nonzero"/><path fill="#f2be70" d="M 58.6875 57.472656 C 58.6875 57.6875 58.613281 57.90625 58.542969 58.050781 C 58.46875 58.269531 58.398438 58.488281 58.324219 58.632812 C 58.179688 58.851562 58.035156 58.996094 57.816406 58.996094 C 57.597656 59.066406 57.382812 58.996094 57.089844 58.851562 C 56.945312 58.777344 56.875 58.703125 56.800781 58.703125 C 56.800781 58.703125 56.65625 58.558594 56.585938 58.414062 C 56.511719 58.269531 56.511719 58.195312 56.511719 58.050781 C 56.511719 57.835938 56.511719 57.542969 56.511719 57.328125 C 56.511719 57.253906 56.511719 57.109375 56.511719 57.035156 C 56.585938 56.527344 56.511719 56.167969 56.367188 55.441406 C 56.222656 54.859375 56.003906 54.28125 55.785156 53.699219 C 55.496094 52.976562 55.277344 52.324219 54.988281 51.597656 C 54.84375 51.308594 54.625 50.945312 54.554688 50.582031 C 54.554688 50.4375 54.625 50.363281 54.699219 50.292969 C 54.699219 50.292969 55.0625 50.003906 55.132812 50.003906 C 55.929688 50.582031 56.800781 51.234375 57.597656 51.886719 C 57.671875 51.960938 57.816406 52.03125 57.890625 52.179688 C 58.035156 52.46875 57.960938 52.757812 57.816406 53.121094 C 57.597656 53.992188 57.746094 54.859375 58.105469 55.660156 C 58.25 55.949219 58.46875 56.238281 58.542969 56.601562 C 58.757812 56.890625 58.757812 57.183594 58.6875 57.472656 Z M 58.6875 57.472656 " fill-opacity="1" fill-rule="nonzero"/><path fill="#f2be70" d="M 39.6875 57.761719 C 39.613281 58.195312 39.542969 58.632812 39.542969 58.996094 C 39.542969 59.210938 39.613281 59.429688 39.46875 59.648438 C 39.398438 59.71875 39.253906 59.792969 39.179688 59.792969 C 38.527344 60.011719 37.800781 60.226562 37.148438 60.445312 C 36.714844 59.429688 36.859375 58.269531 37.003906 57.109375 C 37.003906 56.964844 37.003906 56.890625 37.078125 56.746094 C 37.148438 56.601562 37.367188 56.527344 37.511719 56.457031 C 37.875 56.382812 38.164062 56.238281 38.527344 56.167969 C 38.746094 56.09375 39.105469 55.875 39.324219 56.023438 C 39.46875 56.167969 39.613281 56.527344 39.613281 56.746094 C 39.6875 57.183594 39.6875 57.472656 39.6875 57.761719 Z M 39.6875 57.761719 " fill-opacity="1" fill-rule="nonzero"/><path fill="#ac9882" d="M 37.148438 60.589844 C 37.148438 60.589844 37.078125 60.589844 37.078125 60.519531 C 36.640625 59.429688 36.785156 58.195312 36.933594 57.183594 C 36.933594 57.035156 36.933594 56.890625 37.078125 56.820312 C 37.222656 56.675781 37.367188 56.601562 37.585938 56.527344 L 38.601562 56.238281 C 38.671875 56.238281 38.671875 56.238281 38.746094 56.167969 C 38.960938 56.09375 39.253906 55.949219 39.46875 56.09375 C 39.613281 56.238281 39.761719 56.527344 39.761719 56.820312 L 39.761719 56.890625 C 39.832031 57.183594 39.832031 57.472656 39.832031 57.6875 L 39.832031 57.761719 C 39.832031 57.90625 39.761719 58.050781 39.761719 58.195312 C 39.6875 58.488281 39.6875 58.703125 39.6875 58.996094 C 39.6875 58.996094 39.6875 59.066406 39.6875 59.066406 C 39.6875 59.285156 39.761719 59.503906 39.613281 59.648438 C 39.46875 59.863281 39.324219 59.9375 39.179688 59.9375 Z M 39.179688 56.167969 C 39.035156 56.167969 38.890625 56.238281 38.746094 56.3125 C 38.671875 56.3125 38.601562 56.382812 38.601562 56.382812 L 37.585938 56.675781 C 37.4375 56.746094 37.292969 56.746094 37.222656 56.890625 C 37.148438 56.964844 37.148438 57.109375 37.148438 57.183594 C 37.003906 58.195312 36.933594 59.355469 37.292969 60.371094 L 39.253906 59.71875 C 39.398438 59.648438 39.46875 59.648438 39.542969 59.574219 C 39.613281 59.429688 39.613281 59.285156 39.613281 59.140625 C 39.613281 59.066406 39.613281 59.066406 39.613281 59.066406 C 39.613281 58.777344 39.613281 58.488281 39.6875 58.195312 C 39.6875 58.050781 39.761719 57.90625 39.761719 57.761719 L 39.761719 57.691406 C 39.761719 57.398438 39.761719 57.183594 39.6875 56.890625 L 39.6875 56.820312 C 39.613281 56.601562 39.542969 56.3125 39.46875 56.167969 C 39.253906 56.167969 39.179688 56.167969 39.179688 56.167969 Z M 39.6875 57.761719 Z M 39.6875 57.761719 " fill-opacity="1" fill-rule="nonzero"/><g clip-path="url(#8fc5ca5463)"><path fill="#ac9882" d="M 37.800781 58.851562 C 38.09375 58.921875 38.238281 58.996094 38.382812 59.066406 C 38.671875 59.140625 38.890625 59.210938 38.960938 59.355469 C 38.960938 59.429688 38.960938 59.503906 39.035156 59.574219 C 39.105469 59.648438 39.324219 59.648438 39.46875 59.574219 C 39.613281 59.429688 39.613281 59.210938 39.6875 59.210938 C 39.761719 59.210938 39.761719 59.355469 39.761719 59.503906 C 39.832031 60.226562 39.105469 61.097656 38.960938 62.113281 C 38.890625 62.621094 38.890625 63.199219 38.746094 63.707031 C 38.527344 64.433594 37.800781 65.015625 37.078125 65.160156 C 36.351562 65.304688 35.554688 65.085938 34.902344 64.722656 C 34.683594 64.578125 34.464844 64.433594 34.394531 64.214844 C 34.320312 64 34.320312 63.707031 34.320312 63.492188 C 34.394531 62.984375 34.609375 62.476562 34.902344 62.039062 C 35.191406 61.605469 35.625 61.242188 35.917969 60.808594 C 36.207031 60.371094 36.277344 59.792969 36.425781 59.285156 C 36.496094 59.140625 36.496094 58.996094 36.640625 58.921875 C 36.785156 58.777344 37.003906 58.777344 37.148438 58.851562 C 37.292969 58.632812 37.367188 58.703125 37.800781 58.851562 Z M 37.800781 58.851562 " fill-opacity="1" fill-rule="nonzero"/></g><path fill="#ac9882" d="M 34.394531 56.527344 C 34.394531 56.820312 34.464844 57.398438 34.828125 57.542969 C 35.191406 57.6875 35.699219 57.328125 35.773438 57.253906 C 36.207031 56.890625 36.277344 56.382812 36.351562 56.167969 C 36.425781 55.730469 36.351562 55.222656 36.351562 54.789062 C 36.351562 54.570312 36.351562 54.355469 36.351562 54.136719 C 36.351562 53.992188 36.425781 53.773438 36.425781 53.628906 C 36.425781 53.339844 36.132812 53.195312 35.84375 52.976562 C 35.335938 53.699219 34.320312 55.152344 34.394531 56.527344 Z M 34.394531 56.527344 " fill-opacity="1" fill-rule="nonzero"/><path fill="#c8b39c" d="M 42.082031 26.941406 C 41.933594 30.351562 41.863281 33.757812 40.703125 36.949219 C 40.339844 38.039062 39.613281 39.050781 39.6875 40.648438 C 39.6875 41.589844 39.976562 42.316406 40.050781 42.75 C 40.921875 45.578125 40.628906 48.699219 39.90625 54.933594 C 39.832031 55.730469 39.761719 56.3125 39.6875 56.746094 C 39.398438 56.964844 38.746094 57.398438 37.800781 57.617188 C 36.933594 57.835938 36.132812 57.6875 35.773438 57.617188 C 35.773438 56.023438 35.699219 54.355469 35.625 52.613281 C 35.625 51.742188 35.554688 50.800781 35.480469 49.929688 C 35.335938 49.496094 35.117188 49.058594 34.972656 48.625 C 35.046875 48.480469 34.972656 48.335938 34.972656 48.191406 C 34.320312 46.375 33.886719 44.855469 33.597656 43.546875 C 32.871094 40.648438 33.160156 40.648438 32.289062 36.730469 C 31.347656 32.164062 30.839844 31.726562 31.277344 30.351562 C 31.421875 29.914062 31.058594 29.84375 34.757812 25.855469 C 35.988281 24.550781 36.714844 23.894531 38.527344 24.332031 C 39.46875 24.550781 41.210938 24.839844 41.789062 25.710938 C 42.152344 26 42.082031 26.507812 42.082031 26.941406 Z M 42.082031 26.941406 " fill-opacity="1" fill-rule="nonzero"/><path fill="#ac9882" d="M 35.773438 37.890625 C 35.480469 39.707031 34.539062 41.589844 35.046875 43.402344 C 35.480469 44.855469 35.699219 46.160156 35.335938 47.683594 C 35.265625 47.972656 35.191406 48.335938 35.117188 48.625 C 35.046875 48.480469 34.972656 48.335938 34.972656 48.191406 C 35.046875 47.898438 35.117188 47.535156 35.191406 47.246094 C 35.335938 46.304688 35.335938 45.289062 35.117188 44.273438 C 34.972656 43.621094 34.683594 43.039062 34.683594 42.316406 C 34.683594 40.9375 35.335938 39.488281 35.554688 38.109375 C 35.917969 36.222656 35.988281 34.339844 36.207031 32.453125 C 36.351562 34.265625 36.0625 36.152344 35.773438 37.890625 Z M 35.773438 37.890625 " fill-opacity="1" fill-rule="nonzero"/><path fill="#ac9882" d="M 38.816406 10.554688 C 39.105469 10.554688 39.324219 10.625 39.398438 10.625 C 39.253906 10.84375 39.179688 10.988281 39.105469 11.0625 C 39.035156 11.277344 38.960938 11.351562 38.960938 11.351562 C 38.890625 11.496094 38.960938 11.640625 38.960938 11.785156 C 39.035156 12.367188 39.253906 12.875 39.324219 13.453125 C 39.324219 13.816406 39.324219 14.25 39.253906 14.613281 C 39.179688 15.484375 39.105469 16.355469 39.105469 17.226562 C 39.105469 17.585938 39.105469 18.023438 39.035156 18.386719 C 38.960938 18.746094 38.890625 19.039062 38.816406 19.109375 C 38.601562 19.617188 38.238281 20.707031 37.585938 23.027344 C 36.859375 21.722656 36.785156 20.707031 36.859375 20.054688 C 36.933594 19.617188 37.003906 19.472656 37.222656 18.601562 C 37.4375 17.878906 37.511719 17.152344 37.585938 16.425781 C 37.730469 15.050781 37.875 13.671875 38.019531 12.292969 C 38.019531 12.222656 38.019531 12.074219 38.09375 12.003906 C 38.164062 11.859375 38.238281 11.714844 38.308594 11.714844 C 38.453125 11.570312 38.527344 11.277344 38.238281 10.480469 C 38.453125 10.625 38.601562 10.554688 38.816406 10.554688 Z M 38.816406 10.554688 " fill-opacity="1" fill-rule="nonzero"/><path fill="#c8b39c" d="M 47.375 17.949219 C 46.867188 16.28125 46.140625 14.6875 45.707031 12.945312 C 45.5625 12.367188 45.417969 11.785156 45.054688 11.421875 C 45.054688 11.351562 44.980469 11.351562 44.980469 11.351562 C 44.546875 10.988281 44.183594 10.988281 43.386719 10.769531 C 42.878906 10.625 42.082031 10.335938 41.136719 9.902344 C 40.484375 17.007812 39.542969 19.761719 38.671875 20.777344 C 38.527344 20.996094 37.800781 21.792969 37.511719 22.953125 C 37.292969 23.824219 37.4375 24.476562 37.585938 25.128906 C 38.09375 27.8125 38.671875 30.277344 39.90625 32.453125 C 40.121094 32.816406 40.414062 33.324219 40.992188 33.46875 C 41.5 33.613281 42.007812 33.324219 42.441406 32.960938 C 43.097656 32.527344 44.109375 31.726562 45.34375 30.207031 C 45.632812 30.132812 45.925781 30.058594 46.214844 29.988281 C 46.214844 27.59375 47.664062 25.492188 48.027344 23.171875 C 48.246094 21.429688 47.882812 19.617188 47.375 17.949219 Z M 44.183594 24.765625 C 43.894531 25.203125 43.53125 25.5625 43.097656 25.925781 C 42.589844 24.910156 42.515625 24.042969 42.515625 23.390625 C 42.515625 23.027344 42.515625 22.808594 42.878906 20.996094 C 43.242188 18.964844 43.3125 18.53125 43.457031 18.457031 C 43.53125 18.457031 43.601562 18.601562 43.675781 18.820312 C 43.820312 19.253906 43.964844 19.980469 43.964844 20.488281 C 44.039062 21.285156 43.964844 21.359375 44.109375 21.9375 C 44.328125 22.734375 44.546875 22.808594 44.617188 23.316406 C 44.617188 23.824219 44.472656 24.332031 44.183594 24.765625 Z M 44.183594 24.765625 " fill-opacity="1" fill-rule="nonzero"/><path fill="#c8b39c" d="M 37.65625 21.722656 C 37.65625 21.503906 37.585938 21.285156 37.511719 21.066406 C 37.511719 21.066406 37.511719 20.996094 37.511719 20.996094 C 37.367188 20.414062 37.078125 19.90625 36.933594 19.328125 C 36.785156 18.746094 36.714844 18.238281 36.640625 17.660156 C 36.570312 16.71875 36.496094 15.703125 36.425781 14.757812 C 36.351562 11.496094 35.117188 10.40625 35.84375 8.957031 C 36.132812 8.449219 36.496094 8.160156 36.785156 7.941406 C 36.496094 7.941406 36.132812 7.941406 35.773438 8.160156 C 35.554688 8.304688 35.410156 8.449219 35.410156 8.449219 C 35.335938 8.523438 35.265625 8.59375 35.191406 8.59375 C 35.046875 8.667969 34.902344 8.738281 34.757812 8.8125 C 34.320312 9.03125 33.886719 9.175781 33.523438 9.246094 C 33.015625 9.394531 31.78125 9.609375 30.839844 9.753906 C 30.621094 9.753906 30.476562 9.828125 30.332031 9.902344 C 30.1875 9.972656 30.113281 10.117188 30.042969 10.191406 C 30.042969 10.261719 29.96875 10.261719 29.96875 10.335938 C 29.898438 10.480469 29.824219 10.625 29.753906 10.769531 C 28.59375 13.816406 25.980469 16.136719 24.605469 19.183594 C 24.386719 19.691406 24.167969 20.199219 24.242188 20.777344 C 24.3125 21.722656 24.894531 22.375 25.328125 22.953125 C 26.125 23.894531 26.632812 23.96875 27.578125 24.910156 C 28.230469 25.5625 28.664062 26.21875 28.953125 26.652344 C 28.882812 27.160156 28.738281 27.738281 28.664062 28.320312 C 28.519531 28.828125 28.375 29.335938 28.230469 29.84375 C 28.230469 29.84375 28.230469 29.914062 28.230469 29.914062 C 29.898438 31.21875 31.78125 32.234375 33.8125 32.816406 C 34.03125 32.886719 34.25 32.960938 34.539062 33.035156 C 34.683594 33.035156 34.757812 33.105469 34.902344 33.035156 C 35.046875 32.960938 35.117188 32.816406 35.191406 32.742188 C 35.191406 32.742188 35.265625 32.671875 35.265625 32.597656 C 35.265625 32.527344 35.335938 32.453125 35.335938 32.382812 C 35.699219 31.511719 36.0625 30.566406 36.425781 29.699219 C 36.785156 28.898438 37.148438 28.03125 37.292969 27.160156 C 37.292969 27.015625 37.367188 26.871094 37.367188 26.722656 C 37.4375 26.433594 37.4375 26.144531 37.511719 25.855469 C 37.585938 25.054688 37.65625 24.1875 37.65625 23.390625 C 37.65625 22.882812 37.65625 22.300781 37.65625 21.722656 Z M 28.738281 21.214844 C 28.59375 21.066406 28.375 20.921875 28.375 20.707031 C 28.375 20.632812 28.445312 20.488281 28.445312 20.414062 C 28.738281 19.835938 29.101562 19.253906 29.390625 18.675781 C 29.679688 18.238281 30.042969 17.804688 30.476562 17.515625 C 30.550781 17.515625 30.550781 17.515625 30.621094 17.515625 C 30.695312 17.585938 30.839844 17.660156 30.839844 17.804688 C 30.839844 17.804688 30.839844 17.878906 30.839844 17.878906 C 30.914062 18.09375 30.839844 18.3125 30.839844 18.457031 C 30.769531 19.183594 30.984375 19.835938 31.128906 20.488281 C 31.277344 21.140625 31.347656 21.9375 30.984375 22.519531 C 30.914062 22.664062 30.695312 22.664062 30.550781 22.589844 C 30.40625 22.519531 30.261719 22.445312 30.1875 22.300781 C 29.753906 22.011719 29.246094 21.648438 28.738281 21.214844 Z M 28.738281 21.214844 " fill-opacity="1" fill-rule="nonzero"/><path fill="#f2be70" d="M 30.621094 23.535156 C 30.839844 23.460938 31.058594 23.605469 31.277344 23.679688 C 31.636719 23.824219 32.074219 23.824219 32.4375 23.75 C 32.871094 23.679688 33.304688 23.535156 33.742188 23.75 C 34.105469 23.96875 34.320312 24.476562 34.757812 24.476562 C 34.902344 24.476562 34.972656 24.476562 35.117188 24.476562 C 35.265625 24.476562 35.335938 24.476562 35.410156 24.621094 C 35.480469 24.765625 35.335938 24.984375 35.335938 25.054688 C 35.265625 25.203125 35.191406 25.203125 35.117188 25.273438 C 35.191406 25.347656 35.335938 25.5625 35.410156 25.78125 C 35.480469 25.925781 35.554688 26.289062 35.335938 26.433594 C 35.117188 26.578125 34.757812 26.433594 34.757812 26.433594 C 34.757812 26.507812 34.683594 26.722656 34.464844 26.796875 C 34.25 26.941406 33.957031 26.871094 33.957031 26.871094 C 33.957031 27.160156 33.667969 27.304688 33.378906 27.304688 C 33.523438 27.304688 33.597656 27.523438 33.523438 27.667969 C 33.449219 27.8125 33.304688 27.886719 33.160156 27.886719 C 32.941406 27.886719 32.796875 27.8125 32.726562 27.738281 C 31.78125 27.160156 31.277344 26.871094 30.769531 26.433594 C 29.609375 25.5625 28.953125 25.5625 28.882812 25.128906 C 28.882812 24.910156 29.101562 24.621094 29.535156 24.1875 C 29.96875 23.824219 30.261719 23.605469 30.621094 23.535156 Z M 30.621094 23.535156 " fill-opacity="1" fill-rule="nonzero"/><path fill="#f2be70" d="M 65.722656 29.84375 C 65.648438 29.914062 65.503906 30.058594 65.429688 29.988281 C 65.359375 29.988281 65.359375 29.914062 65.359375 29.84375 C 65.214844 29.335938 64.921875 28.898438 64.632812 28.464844 C 64.269531 27.957031 63.761719 27.59375 63.253906 27.160156 C 62.894531 26.871094 62.53125 26.433594 62.167969 26.070312 C 62.023438 25.925781 61.804688 25.78125 61.585938 25.636719 C 59.992188 24.695312 59.121094 22.953125 58.398438 21.285156 C 57.960938 20.34375 57.527344 19.398438 57.089844 18.457031 C 56.65625 20.34375 56.4375 22.226562 56.222656 24.113281 C 54.699219 24.1875 53.25 24.476562 51.726562 24.476562 C 50.78125 24.476562 49.839844 24.402344 48.898438 24.1875 C 48.535156 22.953125 48.246094 21.792969 47.953125 20.558594 C 47.882812 20.414062 47.882812 20.199219 47.808594 20.054688 C 47.59375 20.632812 47.230469 21.140625 47.230469 21.722656 C 47.15625 22.808594 46.648438 23.824219 45.996094 24.695312 C 45.34375 25.5625 44.546875 26.289062 43.820312 27.085938 C 43.53125 27.449219 43.242188 27.738281 43.167969 28.175781 C 43.097656 28.683594 43.097656 29.191406 43.097656 29.625 C 43.167969 30.058594 43.242188 30.421875 43.167969 30.859375 C 43.167969 31.292969 43.023438 31.726562 42.660156 31.945312 C 42.226562 32.527344 41.5 32.382812 41.066406 31.945312 C 40.703125 31.511719 40.558594 30.859375 40.703125 30.277344 C 40.847656 29.699219 41.136719 29.191406 41.429688 28.683594 C 42.152344 27.449219 42.515625 26.144531 43.023438 24.839844 C 43.601562 23.316406 44.328125 21.9375 44.980469 20.414062 C 45.632812 18.964844 46.070312 17.441406 46.140625 15.847656 C 46.140625 15.410156 46.214844 14.902344 46.359375 14.542969 C 46.503906 14.105469 46.792969 13.742188 47.230469 13.527344 C 47.519531 13.382812 47.808594 13.308594 48.171875 13.308594 C 48.390625 13.308594 48.605469 13.308594 48.824219 13.308594 C 49.042969 13.308594 49.257812 13.308594 49.476562 13.308594 C 50.058594 13.234375 50.636719 12.875 50.78125 12.292969 C 50.855469 12.003906 50.710938 11.640625 50.566406 11.351562 C 50.421875 11.0625 50.203125 10.769531 49.984375 10.480469 C 49.550781 9.753906 49.332031 8.8125 49.40625 7.941406 C 49.40625 7.074219 49.695312 6.203125 50.203125 5.550781 C 51 4.535156 52.59375 4.027344 53.539062 5.1875 C 53.902344 5.695312 54.261719 6.273438 54.480469 6.855469 C 54.699219 7.433594 54.769531 8.160156 54.554688 8.738281 C 54.554688 8.738281 54.554688 8.738281 54.480469 9.03125 C 53.972656 10.554688 53.902344 10.769531 53.902344 11.0625 C 53.828125 11.496094 53.828125 11.859375 53.972656 12.148438 C 53.972656 12.148438 54.046875 12.222656 54.046875 12.292969 C 54.191406 12.511719 54.410156 12.582031 54.480469 12.582031 C 54.988281 12.800781 55.496094 12.945312 55.859375 13.019531 C 56.148438 13.089844 56.4375 13.089844 56.585938 13.164062 C 56.945312 13.164062 57.089844 13.164062 57.089844 13.164062 C 57.453125 13.164062 57.671875 13.089844 57.960938 13.234375 C 58.324219 13.382812 58.542969 13.671875 58.6875 13.890625 C 59.265625 14.757812 59.339844 16.210938 59.558594 17.296875 C 59.773438 18.3125 60.28125 19.253906 60.644531 20.632812 C 60.863281 21.359375 61.585938 21.867188 62.023438 22.519531 C 62.53125 23.242188 62.675781 24.113281 63.109375 24.839844 C 63.546875 25.5625 64.269531 26.144531 64.5625 26.941406 C 64.632812 27.230469 64.707031 27.523438 64.851562 27.8125 C 64.851562 27.8125 64.851562 27.8125 64.851562 27.886719 C 64.996094 28.101562 65.285156 28.246094 65.503906 28.464844 C 65.9375 28.828125 66.011719 29.40625 65.722656 29.84375 Z M 65.722656 29.84375 " fill-opacity="1" fill-rule="nonzero"/><path fill="#fae1cc" d="M 72.609375 37.601562 C 71.59375 37.746094 71.160156 38.980469 71.015625 40.066406 C 70.941406 41.15625 70.941406 42.316406 70.070312 42.96875 C 69.417969 43.402344 68.550781 43.402344 67.898438 43.910156 C 67.824219 43.984375 67.75 43.984375 67.75 44.054688 C 67.75 44.054688 67.75 44.054688 67.679688 44.128906 C 67.171875 44.707031 67.242188 45.507812 67.316406 46.230469 C 67.390625 47.753906 67.097656 49.351562 66.230469 50.65625 C 65.359375 51.886719 63.835938 52.757812 62.3125 52.539062 C 61.804688 52.46875 61.371094 52.324219 60.863281 52.324219 C 60.066406 52.394531 59.484375 53.121094 58.757812 53.554688 C 57.746094 54.207031 56.585938 54.207031 55.351562 54.136719 C 55.277344 54.136719 55.207031 54.136719 55.132812 54.136719 C 54.84375 54.136719 54.554688 54.0625 54.335938 54.0625 C 52.304688 53.847656 50.273438 53.554688 48.316406 53.339844 C 46.648438 53.121094 45.996094 53.121094 45.054688 52.6875 C 44.765625 52.539062 44.472656 52.324219 44.183594 52.179688 C 44.109375 52.179688 44.109375 52.105469 44.039062 52.03125 C 43.386719 51.527344 42.949219 50.945312 42.589844 50.511719 C 42.515625 48.84375 42.589844 47.535156 42.589844 46.738281 C 43.097656 38.183594 46.9375 28.683594 47.59375 26.652344 C 47.882812 25.855469 48.097656 25.054688 48.171875 24.257812 C 48.171875 24.1875 48.171875 24.113281 48.171875 24.042969 L 48.171875 23.96875 C 48.171875 23.097656 48.027344 22.300781 47.882812 21.503906 C 47.808594 21.285156 47.808594 21.066406 47.738281 20.777344 C 47.519531 19.328125 47.230469 17.078125 47.59375 14.832031 C 47.664062 14.25 47.808594 13.742188 47.953125 13.382812 C 48.171875 13.382812 48.390625 13.382812 48.605469 13.382812 C 48.535156 13.742188 48.316406 14.46875 48.171875 15.339844 C 48.027344 16.28125 47.953125 17.078125 47.953125 17.585938 C 48.316406 17.515625 48.753906 17.441406 49.257812 17.441406 C 50.273438 17.515625 51 17.804688 51.363281 18.09375 C 51.726562 17.804688 52.378906 17.441406 53.25 17.226562 C 54.261719 17.007812 55.0625 17.078125 55.496094 17.226562 C 55.570312 15.847656 55.640625 14.542969 55.785156 13.164062 C 56.078125 13.234375 56.367188 13.234375 56.511719 13.308594 C 56.4375 14.6875 56.292969 16.0625 56.222656 17.515625 C 56.367188 17.730469 56.585938 18.023438 56.730469 18.386719 C 56.800781 18.53125 56.800781 18.601562 56.875 18.746094 C 57.089844 19.398438 57.019531 19.980469 57.019531 20.34375 C 56.945312 21.503906 56.800781 22.882812 56.585938 24.402344 C 56.585938 24.476562 56.585938 24.550781 56.585938 24.621094 C 57.890625 24.839844 59.558594 25.347656 61.515625 26.144531 C 61.660156 26.21875 61.804688 26.289062 62.023438 26.363281 C 63.039062 26.796875 63.980469 27.304688 64.777344 27.957031 C 65.140625 28.246094 65.429688 28.539062 65.792969 28.828125 C 67.097656 30.132812 67.96875 31.726562 69.347656 32.960938 C 70.144531 33.613281 71.015625 34.195312 71.738281 34.992188 C 72.539062 35.5 73.046875 36.660156 72.609375 37.601562 Z M 72.609375 37.601562 " fill-opacity="1" fill-rule="nonzero"/><path fill="#f2be70" d="M 42.589844 28.539062 C 41.789062 28.753906 40.921875 28.898438 40.269531 29.40625 C 40.121094 29.480469 39.976562 29.699219 39.976562 29.84375 C 40.050781 29.988281 40.269531 30.132812 40.414062 30.132812 C 40.628906 30.207031 40.847656 30.132812 41.066406 30.058594 C 41.210938 29.988281 41.28125 30.058594 41.28125 30.058594 C 41.355469 30.132812 41.210938 30.351562 41.136719 30.421875 C 40.992188 30.640625 40.921875 30.640625 40.921875 30.714844 C 40.921875 30.785156 40.921875 30.929688 41.136719 31.074219 C 41.136719 31.074219 41.066406 31.21875 41.136719 31.367188 C 41.210938 31.511719 41.355469 31.582031 41.429688 31.582031 C 41.429688 31.582031 41.355469 31.800781 41.429688 31.945312 C 41.5 32.089844 41.644531 32.164062 41.644531 32.164062 C 41.644531 32.234375 41.71875 32.308594 41.789062 32.308594 C 42.226562 32.527344 43.023438 31.800781 43.386719 31.4375 C 43.75 31.003906 44.039062 30.566406 44.472656 30.207031 C 44.835938 29.914062 45.269531 29.699219 45.5625 29.261719 C 45.632812 29.117188 45.632812 29.046875 45.632812 28.972656 C 45.632812 28.828125 45.707031 28.539062 45.488281 27.886719 C 45.269531 27.378906 45.125 27.015625 44.910156 26.941406 C 44.691406 26.941406 44.546875 27.160156 44.257812 27.378906 C 43.820312 28.101562 43.457031 28.320312 42.589844 28.539062 Z M 42.589844 28.539062 " fill-opacity="1" fill-rule="nonzero"/><path fill="#fae1cc" d="M 58.6875 57.472656 C 58.6875 57.6875 58.613281 57.90625 58.542969 58.050781 C 58.25 57.980469 57.960938 57.980469 57.597656 57.980469 C 57.164062 57.980469 56.800781 57.980469 56.4375 57.980469 C 56.4375 57.761719 56.4375 57.472656 56.4375 57.253906 C 56.945312 57.253906 57.453125 57.253906 58.035156 57.328125 C 58.324219 57.398438 58.46875 57.398438 58.6875 57.472656 Z M 58.6875 57.472656 " fill-opacity="1" fill-rule="nonzero"/><path fill="#c8b39c" d="M 31.058594 23.316406 C 30.113281 23.894531 29.390625 24.765625 28.953125 25.710938 C 28.738281 25.492188 28.519531 25.273438 28.375 24.984375 C 28.300781 24.910156 28.300781 24.839844 28.300781 24.765625 C 28.300781 24.695312 28.375 24.621094 28.445312 24.550781 C 28.882812 24.113281 29.316406 23.679688 29.753906 23.242188 C 29.898438 23.097656 30.042969 23.027344 30.1875 23.027344 C 30.40625 23.097656 30.984375 23.390625 31.058594 23.316406 Z M 31.058594 23.316406 " fill-opacity="1" fill-rule="nonzero"/><path fill="#c8b39c" d="M 45.777344 29.625 C 45.996094 29.191406 46.214844 28.390625 45.996094 27.59375 C 45.925781 27.160156 45.5625 26.363281 45.199219 26.363281 C 44.910156 26.363281 44.765625 26.796875 44.691406 26.941406 C 44.765625 27.230469 44.765625 27.523438 44.910156 27.8125 C 45.054688 28.609375 45.417969 29.191406 45.777344 29.625 Z M 45.777344 29.625 " fill-opacity="1" fill-rule="nonzero"/><path fill="#ac9882" d="M 38.308594 20.921875 C 36.714844 23.171875 37.292969 25.78125 37.945312 28.246094 C 38.453125 30.058594 40.050781 35.355469 42.734375 32.960938 C 42.804688 32.886719 42.734375 32.816406 42.660156 32.886719 C 41.933594 33.46875 40.992188 33.6875 40.339844 32.960938 C 39.90625 32.453125 39.542969 31.875 39.253906 31.292969 C 38.671875 30.132812 38.308594 28.828125 37.945312 27.59375 C 37.730469 26.507812 37.4375 25.417969 37.367188 24.332031 C 37.367188 23.097656 37.800781 22.011719 38.308594 20.921875 C 38.382812 20.921875 38.382812 20.921875 38.308594 20.921875 Z M 38.308594 20.921875 " fill-opacity="1" fill-rule="nonzero"/><path fill="#ac9882" d="M 37.292969 28.464844 C 36.933594 29.699219 36.496094 31.003906 35.84375 32.089844 C 35.625 32.382812 35.410156 32.597656 35.191406 32.742188 C 34.902344 32.886719 34.609375 32.960938 34.25 32.886719 C 34.105469 32.886719 33.957031 32.886719 33.8125 32.816406 C 31.78125 32.234375 29.898438 31.21875 28.230469 29.914062 C 28.230469 29.914062 28.230469 29.84375 28.230469 29.84375 C 29.027344 30.351562 29.753906 30.859375 30.550781 31.367188 C 31.636719 32.019531 33.089844 32.742188 34.394531 32.671875 C 34.757812 32.671875 34.972656 32.527344 35.191406 32.382812 C 35.480469 32.164062 35.699219 31.875 35.84375 31.4375 C 36.425781 30.351562 36.859375 29.046875 37.148438 27.8125 C 37.222656 27.449219 37.292969 27.015625 37.292969 26.652344 C 37.292969 26.289062 37.292969 25.925781 37.292969 25.5625 C 37.292969 25.492188 37.367188 25.492188 37.367188 25.5625 C 37.367188 25.636719 37.367188 25.710938 37.4375 25.78125 C 37.65625 26.796875 37.511719 27.667969 37.292969 28.464844 Z M 37.292969 28.464844 " fill-opacity="1" fill-rule="nonzero"/><path fill="#ac9882" d="M 38.382812 24.113281 C 38.382812 24.214844 38.347656 24.300781 38.277344 24.371094 C 38.207031 24.441406 38.121094 24.476562 38.019531 24.476562 C 37.917969 24.476562 37.832031 24.441406 37.761719 24.371094 C 37.691406 24.300781 37.65625 24.214844 37.65625 24.113281 C 37.65625 24.015625 37.691406 23.929688 37.761719 23.859375 C 37.832031 23.785156 37.917969 23.75 38.019531 23.75 C 38.121094 23.75 38.207031 23.785156 38.277344 23.859375 C 38.347656 23.929688 38.382812 24.015625 38.382812 24.113281 Z M 38.382812 24.113281 " fill-opacity="1" fill-rule="nonzero"/><path fill="#ac9882" d="M 24.894531 21.9375 C 25.980469 23.242188 27.214844 24.476562 28.59375 25.492188 C 28.59375 25.492188 28.664062 25.492188 28.59375 25.417969 C 27.285156 24.332031 25.980469 23.242188 24.894531 21.9375 C 24.894531 21.867188 24.820312 21.9375 24.894531 21.9375 Z M 24.894531 21.9375 " fill-opacity="1" fill-rule="nonzero"/><path fill="#ac9882" d="M 28.738281 25.636719 C 29.390625 24.839844 30.042969 24.113281 30.769531 23.390625 C 30.769531 23.390625 30.769531 23.316406 30.695312 23.316406 C 29.898438 23.894531 29.171875 24.695312 28.738281 25.636719 C 28.59375 25.636719 28.664062 25.636719 28.738281 25.636719 Z M 28.738281 25.636719 " fill-opacity="1" fill-rule="nonzero"/><path fill="#ac9882" d="M 30.839844 17.878906 C 30.839844 17.730469 30.695312 17.660156 30.621094 17.585938 C 30.621094 16.5 30.621094 15.410156 30.476562 14.25 C 30.332031 12.945312 30.1875 11.714844 29.898438 10.480469 C 29.898438 10.40625 29.96875 10.40625 29.96875 10.335938 C 30.621094 12.800781 30.914062 15.339844 30.839844 17.878906 Z M 30.839844 17.878906 " fill-opacity="1" fill-rule="nonzero"/><path fill="#ac9882" d="M 37.65625 21.867188 C 37.511719 21.722656 37.367188 21.574219 37.222656 21.429688 C 36.496094 20.558594 36.132812 19.398438 35.773438 18.3125 C 35.191406 16.644531 34.683594 15.050781 34.394531 13.308594 C 34.320312 12.800781 34.105469 11.859375 34.25 11.421875 C 34.320312 11.207031 34.539062 11.207031 34.539062 10.914062 C 34.539062 10.84375 34.320312 10.699219 34.320312 10.625 C 34.25 10.335938 34.464844 9.902344 34.539062 9.609375 C 34.609375 9.394531 34.609375 9.175781 34.683594 8.957031 C 34.828125 8.886719 34.972656 8.8125 35.046875 8.738281 C 34.972656 8.8125 34.902344 8.957031 34.902344 9.03125 C 34.757812 9.320312 34.609375 9.828125 34.609375 10.191406 C 34.609375 10.554688 34.757812 10.769531 34.902344 11.0625 C 34.902344 11.132812 34.902344 11.207031 34.902344 11.207031 C 34.828125 11.277344 34.757812 11.351562 34.683594 11.421875 C 34.464844 11.714844 34.539062 11.929688 34.539062 12.292969 C 34.609375 12.875 34.683594 13.453125 34.757812 13.960938 C 34.972656 14.902344 35.191406 15.917969 35.554688 16.789062 C 35.988281 18.167969 36.425781 19.617188 37.148438 20.851562 C 37.367188 21.214844 37.585938 21.503906 37.800781 21.792969 C 37.875 21.792969 37.730469 22.011719 37.65625 21.867188 Z M 37.65625 21.867188 " fill-opacity="1" fill-rule="nonzero"/><path fill="#ac9882" d="M 42.082031 12.65625 C 42.152344 12.65625 42.226562 12.65625 42.296875 12.65625 C 42.371094 12.65625 42.441406 12.582031 42.441406 12.511719 C 42.296875 11.714844 41.933594 10.84375 41.355469 10.335938 C 41.28125 10.261719 41.210938 10.335938 41.210938 10.40625 C 41.644531 11.0625 42.007812 11.640625 42.152344 12.4375 C 42.082031 12.4375 41.933594 12.4375 41.863281 12.4375 C 41.789062 12.4375 41.71875 12.511719 41.71875 12.65625 C 41.863281 12.945312 42.226562 13.453125 42.152344 13.742188 C 42.082031 13.816406 42.007812 13.960938 41.933594 14.035156 C 41.71875 14.398438 41.5 14.832031 41.28125 15.265625 C 41.136719 15.628906 40.921875 15.992188 40.703125 16.355469 C 39.6875 18.238281 38.601562 20.054688 37.511719 21.867188 C 37.4375 22.011719 37.65625 22.15625 37.730469 22.011719 C 38.816406 20.125 39.976562 18.238281 40.992188 16.355469 C 41.210938 15.917969 41.429688 15.484375 41.644531 15.050781 C 41.863281 14.6875 42.082031 14.324219 42.296875 13.960938 C 42.660156 13.453125 42.296875 13.019531 42.082031 12.65625 Z M 42.082031 12.65625 " fill-opacity="1" fill-rule="nonzero"/><path fill="#f2be70" d="M 43.167969 4.097656 C 43.023438 3.519531 42.878906 2.867188 42.296875 2.359375 C 41.863281 1.921875 41.28125 1.777344 40.050781 1.632812 C 39.613281 1.5625 39.179688 1.5625 38.746094 1.5625 C 38.308594 1.632812 37.875 1.777344 37.585938 2.140625 C 37.292969 2.429688 37.222656 2.722656 37.148438 2.9375 C 36.714844 4.316406 37.003906 5.332031 36.933594 7.507812 C 36.933594 8.015625 36.859375 8.59375 37.222656 9.175781 C 37.367188 9.394531 37.511719 9.539062 37.875 9.828125 C 38.382812 10.335938 38.671875 10.554688 39.035156 10.554688 C 39.105469 10.554688 39.324219 10.480469 39.761719 10.335938 C 40.484375 10.117188 40.414062 10.046875 40.628906 10.117188 C 40.921875 10.191406 41.210938 10.261719 41.574219 10.261719 C 41.644531 10.261719 41.789062 10.261719 41.863281 10.191406 C 41.933594 10.117188 41.933594 10.046875 42.007812 9.972656 C 42.082031 9.683594 42.082031 9.464844 42.082031 9.175781 C 42.226562 9.175781 42.296875 8.957031 42.296875 8.8125 C 42.371094 8.523438 42.371094 8.304688 42.441406 8.015625 C 42.660156 7.871094 42.949219 8.085938 43.167969 8.015625 C 43.3125 7.941406 43.386719 7.726562 43.386719 7.578125 C 43.386719 7.433594 43.242188 7.289062 43.167969 7.144531 C 43.023438 6.855469 42.878906 6.417969 43.167969 6.203125 C 43.242188 6.128906 43.3125 6.128906 43.386719 6.058594 C 43.457031 5.984375 43.457031 5.839844 43.457031 5.765625 C 43.242188 4.460938 43.167969 4.097656 43.167969 4.097656 Z M 43.167969 4.097656 " fill-opacity="1" fill-rule="nonzero"/><g clip-path="url(#b7683dc98e)"><path fill="#ac9882" d="M 42.296875 3.300781 C 42.007812 3.230469 41.644531 3.011719 41.136719 2.578125 C 41.066406 2.867188 40.992188 3.15625 40.847656 3.445312 C 40.558594 3.953125 40.050781 4.242188 39.90625 4.75 C 39.832031 4.96875 39.832031 5.1875 39.832031 5.40625 C 39.832031 5.839844 39.6875 6.273438 39.542969 6.636719 C 39.398438 6.636719 39.324219 6.636719 39.179688 6.636719 C 39.179688 6.636719 39.105469 6.636719 39.105469 6.636719 C 39.105469 6.636719 39.105469 6.566406 39.105469 6.566406 C 39.105469 6.203125 39.105469 5.910156 39.035156 5.550781 C 38.960938 5.1875 38.816406 4.898438 38.601562 4.679688 C 38.382812 4.460938 37.945312 4.390625 37.65625 4.535156 C 37.511719 4.605469 37.367188 4.824219 37.292969 4.96875 C 37.148438 5.332031 37.148438 5.476562 37.148438 5.695312 C 37.148438 5.984375 37.078125 6.347656 36.933594 6.78125 C 36.859375 6.492188 36.785156 6.128906 36.640625 5.621094 C 36.425781 4.460938 36.277344 3.589844 36.714844 2.648438 C 36.785156 2.429688 37.078125 1.777344 37.730469 1.269531 C 38.308594 0.835938 38.960938 0.691406 39.253906 0.691406 C 40.050781 0.472656 40.703125 0.691406 40.992188 0.835938 C 41.210938 0.910156 41.355469 0.980469 41.644531 1.125 C 42.152344 1.34375 42.660156 1.632812 43.097656 1.921875 C 43.3125 2.140625 43.601562 2.285156 43.820312 2.578125 C 43.894531 2.648438 43.964844 2.722656 44.039062 2.867188 C 44.183594 3.082031 44.109375 3.445312 43.894531 3.664062 C 43.75 3.808594 43.386719 4.097656 43.097656 4.027344 C 42.949219 3.953125 42.949219 3.882812 42.804688 3.664062 C 42.589844 3.375 42.441406 3.375 42.296875 3.300781 Z M 42.296875 3.300781 " fill-opacity="1" fill-rule="nonzero"/></g><path fill="#ac9882" d="M 44.617188 26.578125 C 44.691406 27.015625 44.980469 27.449219 45.199219 27.8125 C 45.34375 28.03125 45.417969 28.246094 45.5625 28.464844 C 45.707031 28.683594 45.777344 28.898438 45.925781 29.117188 C 45.925781 29.117188 45.996094 29.117188 45.996094 29.117188 C 45.851562 28.683594 45.5625 28.246094 45.269531 27.8125 C 45.125 27.378906 44.835938 27.015625 44.617188 26.578125 C 44.691406 26.507812 44.617188 26.507812 44.617188 26.578125 Z M 44.617188 26.578125 " fill-opacity="1" fill-rule="nonzero"/><path fill="#ac9882" d="M 45.054688 11.421875 C 44.617188 12.800781 44.257812 14.179688 43.964844 15.558594 C 43.75 16.644531 43.675781 17.660156 43.675781 18.746094 C 43.601562 18.53125 43.53125 18.386719 43.457031 18.386719 C 43.457031 15.992188 44.183594 13.527344 44.980469 11.277344 C 44.980469 11.351562 45.054688 11.351562 45.054688 11.421875 Z M 45.054688 11.421875 " fill-opacity="1" fill-rule="nonzero"/><path fill="#ac9882" d="M 38.671875 25.855469 C 38.960938 25.78125 39.253906 25.710938 39.542969 25.5625 C 39.832031 25.492188 40.050781 25.417969 40.339844 25.273438 C 40.847656 25.128906 41.429688 24.984375 41.933594 24.765625 C 42.007812 24.765625 41.933594 24.695312 41.933594 24.695312 C 41.355469 24.765625 40.773438 24.984375 40.269531 25.203125 C 39.6875 25.417969 39.105469 25.5625 38.671875 25.855469 C 38.601562 25.855469 38.601562 25.855469 38.671875 25.855469 Z M 38.671875 25.855469 " fill-opacity="1" fill-rule="nonzero"/><path fill="#ac9882" d="M 56.800781 24.476562 C 55.277344 24.839844 53.753906 24.910156 52.160156 24.910156 C 51.21875 24.910156 50.203125 24.839844 49.332031 24.621094 C 48.96875 24.550781 48.679688 24.402344 48.316406 24.257812 C 48.316406 24.1875 48.316406 24.113281 48.316406 24.042969 C 48.753906 24.257812 49.1875 24.402344 49.621094 24.550781 C 50.492188 24.765625 51.507812 24.765625 52.449219 24.765625 C 53.902344 24.839844 55.351562 24.621094 56.730469 24.332031 C 56.730469 24.332031 56.730469 24.402344 56.800781 24.476562 C 56.730469 24.476562 56.730469 24.476562 56.800781 24.476562 Z M 56.800781 24.476562 " fill-opacity="1" fill-rule="nonzero"/><path fill="#ac9882" d="M 49.984375 29.261719 C 49.621094 37.09375 47.738281 45 44.257812 52.105469 C 44.183594 52.105469 44.183594 52.03125 44.109375 51.960938 C 47.375 44.707031 49.332031 37.167969 49.914062 29.191406 C 49.914062 29.191406 49.984375 29.191406 49.984375 29.261719 Z M 49.984375 29.261719 " fill-opacity="1" fill-rule="nonzero"/><path fill="#ac9882" d="M 52.378906 40.574219 C 52.234375 44.347656 52.449219 48.261719 53.394531 51.960938 C 53.394531 52.03125 53.464844 51.960938 53.464844 51.960938 C 52.742188 48.191406 52.304688 44.417969 52.449219 40.574219 C 52.523438 40.503906 52.378906 40.503906 52.378906 40.574219 Z M 52.378906 40.574219 " fill-opacity="1" fill-rule="nonzero"/><path fill="#ac9882" d="M 55.421875 54.136719 C 55.351562 54.136719 55.277344 54.136719 55.207031 54.136719 C 58.179688 47.683594 59.265625 40.71875 58.179688 33.613281 C 58.179688 33.542969 58.25 33.542969 58.25 33.613281 C 59.558594 40.429688 58.542969 47.828125 55.421875 54.136719 Z M 55.421875 54.136719 " fill-opacity="1" fill-rule="nonzero"/><path fill="#ac9882" d="M 67.898438 43.910156 C 67.824219 43.984375 67.75 43.984375 67.75 44.054688 C 65.359375 41.445312 63.691406 38.109375 62.242188 34.992188 C 62.167969 34.917969 62.3125 34.847656 62.386719 34.917969 C 63.980469 38.109375 65.648438 41.226562 67.898438 43.910156 Z M 67.898438 43.910156 " fill-opacity="1" fill-rule="nonzero"/><path fill="#ce6706" d="M 50.925781 5.476562 C 50.855469 5.695312 50.925781 5.910156 50.925781 6.128906 C 50.925781 6.492188 50.710938 6.78125 50.347656 6.925781 C 49.914062 7.144531 49.695312 7.578125 49.695312 8.015625 C 49.695312 8.449219 49.839844 8.886719 49.984375 9.320312 C 50.128906 9.753906 50.273438 10.191406 50.128906 10.625 C 50.058594 10.988281 49.839844 11.277344 49.765625 11.640625 C 49.621094 12.003906 49.695312 12.4375 49.621094 12.875 C 49.550781 13.308594 49.476562 13.671875 49.1875 13.960938 C 48.898438 14.25 48.390625 14.324219 48.097656 14.105469 C 48.027344 14.035156 47.953125 13.960938 47.882812 13.890625 C 47.59375 13.671875 47.230469 13.890625 46.867188 14.035156 C 46.722656 14.105469 46.578125 14.035156 46.503906 13.960938 C 46.429688 13.890625 46.578125 13.742188 46.578125 13.671875 C 46.503906 12.875 46.503906 12.003906 46.9375 11.277344 C 47.59375 10.261719 47.664062 8.957031 47.953125 7.726562 C 48.246094 6.347656 48.824219 5.042969 49.695312 3.882812 C 50.058594 3.230469 50.636719 2.648438 51.363281 2.648438 C 51.652344 2.648438 51.796875 2.792969 51.796875 2.792969 C 51.941406 2.867188 52.015625 3.011719 52.015625 3.082031 C 51.941406 3.664062 51.871094 4.316406 51.726562 4.898438 C 51.652344 4.898438 51.433594 4.898438 51.144531 5.042969 C 51.21875 5.113281 50.925781 5.257812 50.925781 5.476562 Z M 50.925781 5.476562 " fill-opacity="1" fill-rule="nonzero"/><path fill="#ce6706" d="M 52.667969 4.75 C 52.886719 4.824219 53.101562 4.96875 53.25 5.257812 C 53.394531 5.476562 53.539062 5.695312 53.683594 5.910156 C 53.828125 6.058594 53.972656 6.203125 54.046875 6.347656 C 54.117188 6.492188 54.191406 6.710938 54.191406 6.855469 C 54.335938 7.433594 54.410156 8.015625 54.191406 8.523438 C 54.046875 8.957031 53.753906 9.246094 53.683594 9.683594 C 53.609375 10.117188 53.753906 10.554688 53.753906 11.0625 C 53.753906 11.277344 53.683594 11.496094 53.683594 11.714844 C 53.609375 12.367188 53.609375 13.019531 53.683594 13.597656 C 53.683594 13.742188 53.753906 13.960938 53.828125 14.105469 C 53.902344 14.25 54.046875 14.398438 54.261719 14.398438 C 54.554688 14.398438 54.699219 14.179688 54.917969 14.035156 C 55.351562 13.890625 55.929688 14.25 56.292969 14.035156 C 56.511719 13.890625 56.511719 13.597656 56.730469 13.453125 C 56.875 13.308594 57.089844 13.234375 57.238281 13.089844 C 57.453125 12.875 57.527344 12.4375 57.308594 12.222656 C 57.238281 12.148438 57.164062 12.003906 57.019531 11.929688 C 56.585938 11.496094 56.4375 10.84375 56.367188 10.191406 C 56.292969 9.539062 56.367188 8.886719 56.222656 8.304688 C 56.148438 8.015625 56.078125 7.796875 56.003906 7.578125 C 55.785156 7 55.640625 6.417969 55.421875 5.910156 C 55.207031 5.1875 54.917969 4.460938 54.480469 3.882812 C 54.046875 3.300781 53.25 2.867188 52.523438 2.9375 C 52.378906 2.9375 52.160156 3.011719 52.089844 3.15625 C 52.015625 3.230469 52.015625 3.300781 52.015625 3.300781 C 52.015625 3.519531 51.941406 4.097656 51.796875 4.96875 C 51.941406 4.824219 52.304688 4.605469 52.667969 4.75 Z M 52.667969 4.75 " fill-opacity="1" fill-rule="nonzero"/><g clip-path="url(#2ee5c4cf0f)"><path fill="#ac9882" d="M 23.660156 17.730469 C 22.5 19.691406 23.007812 22.011719 23.878906 23.96875 C 23.878906 24.042969 24.023438 23.96875 24.023438 23.894531 C 23.371094 21.9375 22.71875 19.691406 23.804688 17.730469 C 23.804688 17.730469 23.660156 17.660156 23.660156 17.730469 Z M 23.660156 17.730469 " fill-opacity="1" fill-rule="nonzero"/></g><g clip-path="url(#43c1d625b9)"><path fill="#ac9882" d="M 36.714844 0.402344 C 35.625 1.777344 35.117188 3.738281 35.480469 5.476562 C 35.480469 5.550781 35.554688 5.550781 35.554688 5.476562 C 35.410156 3.664062 35.699219 1.921875 36.785156 0.472656 C 36.859375 0.402344 36.714844 0.328125 36.714844 0.402344 Z M 36.714844 0.402344 " fill-opacity="1" fill-rule="nonzero"/></g><path fill="#ac9882" d="M 55.785156 4.171875 C 56.078125 4.898438 56.292969 5.621094 56.511719 6.417969 C 56.730469 7.144531 56.875 7.941406 57.019531 8.667969 C 57.019531 8.738281 57.089844 8.738281 57.089844 8.667969 C 57.019531 7.871094 56.800781 7.144531 56.585938 6.347656 C 56.367188 5.621094 56.148438 4.824219 55.785156 4.097656 C 55.859375 4.097656 55.714844 4.171875 55.785156 4.171875 Z M 55.785156 4.171875 " fill-opacity="1" fill-rule="nonzero"/><path fill="#ac9882" d="M 60.574219 17.371094 C 60.355469 18.3125 61.007812 19.253906 61.515625 19.980469 C 62.023438 20.777344 62.675781 21.503906 63.472656 22.082031 C 63.546875 22.082031 63.546875 22.082031 63.546875 22.011719 C 62.894531 21.429688 62.3125 20.707031 61.804688 19.980469 C 61.585938 19.617188 61.371094 19.253906 61.152344 18.894531 C 60.933594 18.386719 60.71875 17.878906 60.789062 17.371094 C 60.71875 17.296875 60.574219 17.296875 60.574219 17.371094 Z M 60.574219 17.371094 " fill-opacity="1" fill-rule="nonzero"/><g clip-path="url(#c5d013a215)"><path fill="#ac9882" d="M 71.59375 33.46875 C 72.753906 34.628906 74.0625 36.078125 73.699219 37.890625 C 73.699219 37.964844 73.769531 37.964844 73.769531 37.890625 C 74.277344 36.078125 72.828125 34.554688 71.667969 33.394531 C 71.59375 33.324219 71.523438 33.394531 71.59375 33.46875 Z M 71.59375 33.46875 " fill-opacity="1" fill-rule="nonzero"/></g><path fill="#ac9882" d="M 62.964844 54.0625 C 65.214844 53.410156 67.242188 51.886719 68.332031 49.785156 C 68.332031 49.710938 68.332031 49.710938 68.257812 49.785156 C 67.027344 51.742188 65.214844 53.265625 62.964844 53.992188 C 62.894531 53.992188 62.894531 54.136719 62.964844 54.0625 Z M 62.964844 54.0625 " fill-opacity="1" fill-rule="nonzero"/><path fill="#ac9882" d="M 50.492188 56.382812 C 50.78125 57.6875 50.636719 58.921875 50.347656 60.226562 C 50.347656 60.300781 50.421875 60.300781 50.421875 60.226562 C 50.855469 58.996094 50.855469 57.617188 50.566406 56.382812 C 50.566406 56.3125 50.492188 56.3125 50.492188 56.382812 Z M 50.492188 56.382812 " fill-opacity="1" fill-rule="nonzero"/><path fill="#ac9882" d="M 40.921875 39.050781 C 40.414062 39.851562 40.269531 40.792969 40.558594 41.664062 C 40.558594 41.734375 40.628906 41.664062 40.628906 41.664062 C 40.414062 40.792969 40.558594 39.851562 40.992188 39.125 C 41.066406 39.050781 40.992188 38.980469 40.921875 39.050781 Z M 40.921875 39.050781 " fill-opacity="1" fill-rule="nonzero"/><path fill="#ac9882" d="M 40.773438 51.234375 C 40.921875 52.902344 40.921875 54.570312 40.921875 56.238281 C 40.921875 56.3125 40.992188 56.3125 41.066406 56.238281 C 41.210938 54.570312 41.136719 52.902344 40.921875 51.234375 C 40.847656 51.164062 40.773438 51.164062 40.773438 51.234375 Z M 40.773438 51.234375 " fill-opacity="1" fill-rule="nonzero"/><path fill="#ac9882" d="M 43.75 53.339844 C 44.980469 54.0625 46.429688 54.5 47.882812 54.425781 C 47.953125 54.425781 47.953125 54.355469 47.882812 54.355469 C 47.15625 54.28125 46.503906 54.207031 45.777344 54.0625 C 45.125 53.847656 44.472656 53.628906 43.820312 53.265625 C 43.75 53.191406 43.675781 53.339844 43.75 53.339844 Z M 43.75 53.339844 " fill-opacity="1" fill-rule="nonzero"/><path fill="#ac9882" d="M 30.769531 34.703125 C 31.277344 37.3125 31.78125 39.921875 32.4375 42.535156 C 32.4375 42.605469 32.507812 42.535156 32.507812 42.535156 C 32.074219 39.921875 31.492188 37.3125 30.914062 34.703125 C 30.914062 34.628906 30.769531 34.628906 30.769531 34.703125 Z M 30.769531 34.703125 " fill-opacity="1" fill-rule="nonzero"/><g fill="#ffffff" fill-opacity="1"><g transform="translate(25.057249, 78.467609)"><g><path d="M 2.984375 -6.59375 L 2.984375 0 L 2.359375 0 L 2.359375 -6.40625 L 0.78125 -6.046875 L 0.765625 -6.234375 L 2.359375 -6.59375 Z M 2.984375 -6.59375 "/></g></g></g><g fill="#ffffff" fill-opacity="1"><g transform="translate(31.502272, 78.467609)"><g><path d="M 1.890625 -3.328125 L 1.890625 -3.46875 C 2.253906 -3.46875 2.53125 -3.46875 2.71875 -3.46875 C 2.925781 -3.5 3.175781 -3.609375 3.46875 -3.796875 C 3.644531 -3.921875 3.789062 -4.09375 3.90625 -4.3125 C 4.019531 -4.539062 4.078125 -4.820312 4.078125 -5.15625 C 4.078125 -5.488281 3.988281 -5.789062 3.8125 -6.0625 C 3.632812 -6.332031 3.347656 -6.46875 2.953125 -6.46875 C 2.691406 -6.46875 2.414062 -6.429688 2.125 -6.359375 C 1.84375 -6.285156 1.625 -6.210938 1.46875 -6.140625 L 1.25 -6.03125 L 1.171875 -6.125 C 1.378906 -6.25 1.660156 -6.363281 2.015625 -6.46875 C 2.378906 -6.570312 2.707031 -6.625 3 -6.625 C 3.507812 -6.625 3.925781 -6.5 4.25 -6.25 C 4.582031 -6.007812 4.75 -5.660156 4.75 -5.203125 C 4.75 -4.503906 4.40625 -3.984375 3.71875 -3.640625 C 3.550781 -3.554688 3.382812 -3.488281 3.21875 -3.4375 C 4.257812 -3.3125 4.78125 -2.832031 4.78125 -2 C 4.78125 -1.3125 4.546875 -0.800781 4.078125 -0.46875 C 3.609375 -0.132812 2.953125 0.03125 2.109375 0.03125 C 1.671875 0.03125 1.253906 -0.0195312 0.859375 -0.125 L 0.9375 -0.25 C 1.195312 -0.164062 1.566406 -0.125 2.046875 -0.125 C 3.421875 -0.125 4.109375 -0.738281 4.109375 -1.96875 C 4.109375 -2.425781 3.988281 -2.742188 3.75 -2.921875 C 3.613281 -3.015625 3.484375 -3.09375 3.359375 -3.15625 C 3.242188 -3.21875 3.085938 -3.257812 2.890625 -3.28125 C 2.546875 -3.3125 2.210938 -3.328125 1.890625 -3.328125 Z M 1.890625 -3.328125 "/></g></g></g><g fill="#ffffff" fill-opacity="1"><g transform="translate(38.663341, 78.467609)"><g/></g></g><g fill="#ffffff" fill-opacity="1"><g transform="translate(43.228743, 78.467609)"><g><path d="M 6.3125 -6.96875 C 6.3125 -6.957031 6.3125 -6.90625 6.3125 -6.8125 L 5.6875 -6.75 L 5.6875 -0.1875 L 6.421875 -0.15625 C 6.421875 -0.144531 6.414062 -0.09375 6.40625 0 L 4.421875 0.015625 C 4.421875 -0.046875 4.421875 -0.09375 4.421875 -0.125 L 4.953125 -0.203125 C 5.015625 -0.203125 5.050781 -0.242188 5.0625 -0.328125 L 5.0625 -3.359375 L 1.671875 -3.359375 L 1.671875 -0.1875 L 2.40625 -0.15625 C 2.40625 -0.144531 2.40625 -0.09375 2.40625 0 L 0.390625 0.015625 L 0.40625 -0.125 L 0.921875 -0.203125 C 0.992188 -0.203125 1.035156 -0.238281 1.046875 -0.3125 L 1.046875 -6.625 C 1.035156 -6.707031 0.992188 -6.753906 0.921875 -6.765625 L 0.40625 -6.8125 L 0.390625 -6.953125 L 2.40625 -6.96875 C 2.40625 -6.957031 2.40625 -6.90625 2.40625 -6.8125 L 1.671875 -6.75 L 1.671875 -3.546875 L 5.0625 -3.546875 L 5.0625 -6.625 C 5.050781 -6.707031 5.015625 -6.753906 4.953125 -6.765625 L 4.421875 -6.8125 C 4.421875 -6.851562 4.421875 -6.898438 4.421875 -6.953125 Z M 6.3125 -6.96875 "/></g></g></g><g fill="#ffffff" fill-opacity="1"><g transform="translate(51.632938, 78.467609)"><g/></g></g><g fill="#ffffff" fill-opacity="1"><g transform="translate(56.19834, 78.467609)"><g><path d="M 3.484375 -6.703125 C 2.941406 -6.703125 2.476562 -6.398438 2.09375 -5.796875 C 1.707031 -5.203125 1.515625 -4.375 1.515625 -3.3125 C 1.515625 -2.257812 1.703125 -1.460938 2.078125 -0.921875 C 2.453125 -0.378906 2.914062 -0.109375 3.46875 -0.109375 C 4.019531 -0.109375 4.484375 -0.40625 4.859375 -1 C 5.242188 -1.59375 5.4375 -2.410156 5.4375 -3.453125 C 5.4375 -4.503906 5.25 -5.304688 4.875 -5.859375 C 4.5 -6.421875 4.035156 -6.703125 3.484375 -6.703125 Z M 3.46875 0.046875 C 2.71875 0.046875 2.09375 -0.234375 1.59375 -0.796875 C 1.09375 -1.367188 0.84375 -2.207031 0.84375 -3.3125 C 0.84375 -4.425781 1.097656 -5.289062 1.609375 -5.90625 C 2.117188 -6.53125 2.75 -6.84375 3.5 -6.84375 C 4.25 -6.84375 4.875 -6.550781 5.375 -5.96875 C 5.875 -5.394531 6.125 -4.5625 6.125 -3.46875 C 6.125 -2.375 5.867188 -1.515625 5.359375 -0.890625 C 4.847656 -0.265625 4.21875 0.046875 3.46875 0.046875 Z M 3.46875 0.046875 "/></g></g></g><g fill="#ffffff" fill-opacity="1"><g transform="translate(64.75171, 78.467609)"><g><path d="M 3.484375 -6.703125 C 2.941406 -6.703125 2.476562 -6.398438 2.09375 -5.796875 C 1.707031 -5.203125 1.515625 -4.375 1.515625 -3.3125 C 1.515625 -2.257812 1.703125 -1.460938 2.078125 -0.921875 C 2.453125 -0.378906 2.914062 -0.109375 3.46875 -0.109375 C 4.019531 -0.109375 4.484375 -0.40625 4.859375 -1 C 5.242188 -1.59375 5.4375 -2.410156 5.4375 -3.453125 C 5.4375 -4.503906 5.25 -5.304688 4.875 -5.859375 C 4.5 -6.421875 4.035156 -6.703125 3.484375 -6.703125 Z M 3.46875 0.046875 C 2.71875 0.046875 2.09375 -0.234375 1.59375 -0.796875 C 1.09375 -1.367188 0.84375 -2.207031 0.84375 -3.3125 C 0.84375 -4.425781 1.097656 -5.289062 1.609375 -5.90625 C 2.117188 -6.53125 2.75 -6.84375 3.5 -6.84375 C 4.25 -6.84375 4.875 -6.550781 5.375 -5.96875 C 5.875 -5.394531 6.125 -4.5625 6.125 -3.46875 C 6.125 -2.375 5.867188 -1.515625 5.359375 -0.890625 C 4.847656 -0.265625 4.21875 0.046875 3.46875 0.046875 Z M 3.46875 0.046875 "/></g></g></g><g fill="#ffffff" fill-opacity="1"><g transform="translate(9.684719, 95.132138)"><g><path d="M 3.515625 -6.828125 C 2.765625 -6.828125 2.171875 -6.515625 1.734375 -5.890625 C 1.296875 -5.265625 1.078125 -4.363281 1.078125 -3.1875 C 1.078125 -1.75 1.40625 -0.820312 2.0625 -0.40625 C 2.257812 -0.28125 2.441406 -0.195312 2.609375 -0.15625 C 2.773438 -0.125 2.960938 -0.109375 3.171875 -0.109375 C 3.828125 -0.109375 4.515625 -0.1875 5.234375 -0.34375 L 5.265625 -0.203125 C 5.148438 -0.171875 4.847656 -0.117188 4.359375 -0.046875 C 3.878906 0.015625 3.484375 0.046875 3.171875 0.046875 C 2.867188 0.046875 2.601562 0.0234375 2.375 -0.015625 C 2.15625 -0.0664062 1.914062 -0.160156 1.65625 -0.296875 C 1.40625 -0.429688 1.191406 -0.613281 1.015625 -0.84375 C 0.835938 -1.070312 0.6875 -1.382812 0.5625 -1.78125 C 0.445312 -2.1875 0.390625 -2.65625 0.390625 -3.1875 C 0.390625 -4.363281 0.660156 -5.28125 1.203125 -5.9375 C 1.765625 -6.625 2.535156 -6.96875 3.515625 -6.96875 C 3.816406 -6.96875 4.140625 -6.9375 4.484375 -6.875 C 4.828125 -6.820312 5.070312 -6.769531 5.21875 -6.71875 L 5.34375 -5.28125 L 5.15625 -5.21875 L 5.03125 -6.28125 C 4.488281 -6.644531 3.984375 -6.828125 3.515625 -6.828125 Z M 3.515625 -6.828125 "/></g></g></g><g fill="#ffffff" fill-opacity="1"><g transform="translate(15.273836, 95.132138)"><g><path d="M 1.09375 -2.296875 C 1.09375 -0.859375 1.648438 -0.140625 2.765625 -0.140625 C 3.054688 -0.140625 3.367188 -0.171875 3.703125 -0.234375 C 4.035156 -0.296875 4.25 -0.351562 4.34375 -0.40625 L 4.40625 -0.3125 C 4.257812 -0.207031 4.007812 -0.117188 3.65625 -0.046875 C 3.3125 0.015625 2.992188 0.046875 2.703125 0.046875 C 2.410156 0.046875 2.148438 0.015625 1.921875 -0.046875 C 1.691406 -0.109375 1.457031 -0.210938 1.21875 -0.359375 C 0.976562 -0.515625 0.789062 -0.753906 0.65625 -1.078125 C 0.519531 -1.410156 0.453125 -1.8125 0.453125 -2.28125 C 0.453125 -3.15625 0.675781 -3.828125 1.125 -4.296875 C 1.59375 -4.773438 2.140625 -5.015625 2.765625 -5.015625 C 3.390625 -5.015625 3.863281 -4.84375 4.1875 -4.5 C 4.519531 -4.15625 4.6875 -3.671875 4.6875 -3.046875 C 4.6875 -2.910156 4.675781 -2.769531 4.65625 -2.625 L 1.109375 -2.625 C 1.097656 -2.550781 1.09375 -2.441406 1.09375 -2.296875 Z M 4.09375 -3.109375 C 4.09375 -3.609375 3.984375 -4.015625 3.765625 -4.328125 C 3.546875 -4.648438 3.25 -4.8125 2.875 -4.8125 C 2.382812 -4.8125 1.96875 -4.59375 1.625 -4.15625 C 1.351562 -3.820312 1.1875 -3.375 1.125 -2.8125 L 4.09375 -2.8125 C 4.09375 -2.882812 4.09375 -2.984375 4.09375 -3.109375 Z M 4.15625 -7.46875 L 4.453125 -7.390625 L 3.265625 -5.921875 L 3.109375 -6 Z M 4.15625 -7.46875 "/></g></g></g><g fill="#ffffff" fill-opacity="1"><g transform="translate(20.306032, 95.132138)"><g><path d="M 1.796875 -4.5625 L 1.796875 -3.765625 C 2.328125 -4.535156 2.84375 -4.929688 3.34375 -4.953125 C 3.382812 -4.953125 3.425781 -4.953125 3.46875 -4.953125 L 4.015625 -4.875 L 3.765625 -4.28125 C 3.640625 -4.40625 3.476562 -4.46875 3.28125 -4.46875 C 2.789062 -4.457031 2.296875 -4.132812 1.796875 -3.5 L 1.796875 -0.203125 L 2.640625 -0.15625 C 2.640625 -0.144531 2.640625 -0.09375 2.640625 0 L 0.546875 0.015625 C 0.546875 -0.046875 0.550781 -0.09375 0.5625 -0.125 L 1.078125 -0.203125 C 1.128906 -0.203125 1.15625 -0.25 1.15625 -0.34375 L 1.15625 -4.65625 C 1.144531 -4.707031 1.125 -4.734375 1.09375 -4.734375 L 0.5 -4.75 L 0.5 -4.890625 C 0.863281 -4.941406 1.140625 -4.96875 1.328125 -4.96875 C 1.515625 -4.96875 1.640625 -4.925781 1.703125 -4.84375 C 1.765625 -4.757812 1.796875 -4.664062 1.796875 -4.5625 Z M 1.796875 -4.5625 "/></g></g></g><g fill="#ffffff" fill-opacity="1"><g transform="translate(24.721635, 95.132138)"><g><path d="M 1.09375 -2.296875 C 1.09375 -0.859375 1.648438 -0.140625 2.765625 -0.140625 C 3.054688 -0.140625 3.367188 -0.171875 3.703125 -0.234375 C 4.035156 -0.296875 4.25 -0.351562 4.34375 -0.40625 L 4.40625 -0.3125 C 4.257812 -0.207031 4.007812 -0.117188 3.65625 -0.046875 C 3.3125 0.015625 2.992188 0.046875 2.703125 0.046875 C 2.410156 0.046875 2.148438 0.015625 1.921875 -0.046875 C 1.691406 -0.109375 1.457031 -0.210938 1.21875 -0.359375 C 0.976562 -0.515625 0.789062 -0.753906 0.65625 -1.078125 C 0.519531 -1.410156 0.453125 -1.8125 0.453125 -2.28125 C 0.453125 -3.15625 0.675781 -3.828125 1.125 -4.296875 C 1.59375 -4.773438 2.140625 -5.015625 2.765625 -5.015625 C 3.390625 -5.015625 3.863281 -4.84375 4.1875 -4.5 C 4.519531 -4.15625 4.6875 -3.671875 4.6875 -3.046875 C 4.6875 -2.910156 4.675781 -2.769531 4.65625 -2.625 L 1.109375 -2.625 C 1.097656 -2.550781 1.09375 -2.441406 1.09375 -2.296875 Z M 4.09375 -3.109375 C 4.09375 -3.609375 3.984375 -4.015625 3.765625 -4.328125 C 3.546875 -4.648438 3.25 -4.8125 2.875 -4.8125 C 2.382812 -4.8125 1.96875 -4.59375 1.625 -4.15625 C 1.351562 -3.820312 1.1875 -3.375 1.125 -2.8125 L 4.09375 -2.8125 C 4.09375 -2.882812 4.09375 -2.984375 4.09375 -3.109375 Z M 4.15625 -7.46875 L 4.453125 -7.390625 L 3.265625 -5.921875 L 3.109375 -6 Z M 4.15625 -7.46875 "/></g></g></g><g fill="#ffffff" fill-opacity="1"><g transform="translate(29.753831, 95.132138)"><g><path d="M 3.09375 -4.78125 C 2.695312 -4.78125 2.265625 -4.632812 1.796875 -4.34375 L 1.796875 -0.203125 L 2.546875 -0.15625 C 2.546875 -0.144531 2.539062 -0.09375 2.53125 0 L 0.546875 0.015625 C 0.546875 -0.046875 0.550781 -0.09375 0.5625 -0.125 L 1.078125 -0.203125 C 1.117188 -0.203125 1.144531 -0.226562 1.15625 -0.28125 L 1.15625 -4.65625 C 1.144531 -4.707031 1.125 -4.734375 1.09375 -4.734375 L 0.5 -4.75 L 0.5 -4.890625 C 0.863281 -4.941406 1.140625 -4.96875 1.328125 -4.96875 C 1.515625 -4.96875 1.640625 -4.925781 1.703125 -4.84375 C 1.765625 -4.757812 1.796875 -4.664062 1.796875 -4.5625 L 1.796875 -4.453125 C 2.347656 -4.796875 2.851562 -4.976562 3.3125 -5 C 3.945312 -5 4.375 -4.820312 4.59375 -4.46875 C 5.175781 -4.800781 5.722656 -4.976562 6.234375 -5 C 6.691406 -5 7.039062 -4.90625 7.28125 -4.71875 C 7.394531 -4.632812 7.492188 -4.5 7.578125 -4.3125 C 7.660156 -4.132812 7.703125 -3.914062 7.703125 -3.65625 L 7.703125 -0.203125 L 8.453125 -0.15625 C 8.453125 -0.144531 8.445312 -0.09375 8.4375 0 L 6.453125 0.015625 C 6.453125 -0.046875 6.453125 -0.09375 6.453125 -0.125 L 6.984375 -0.203125 C 7.015625 -0.203125 7.039062 -0.226562 7.0625 -0.28125 L 7.0625 -3.40625 C 7.0625 -3.675781 7.023438 -3.90625 6.953125 -4.09375 C 6.890625 -4.28125 6.816406 -4.414062 6.734375 -4.5 C 6.660156 -4.59375 6.5625 -4.660156 6.4375 -4.703125 C 6.300781 -4.753906 6.160156 -4.78125 6.015625 -4.78125 C 5.597656 -4.78125 5.148438 -4.625 4.671875 -4.3125 C 4.753906 -4.132812 4.796875 -3.914062 4.796875 -3.65625 L 4.796875 -0.203125 L 5.546875 -0.15625 C 5.546875 -0.144531 5.539062 -0.09375 5.53125 0 L 3.53125 0.015625 L 3.546875 -0.125 L 4.0625 -0.203125 C 4.101562 -0.203125 4.132812 -0.234375 4.15625 -0.296875 L 4.15625 -3.421875 C 4.15625 -3.742188 4.109375 -4.007812 4.015625 -4.21875 C 3.929688 -4.425781 3.816406 -4.566406 3.671875 -4.640625 C 3.472656 -4.734375 3.28125 -4.78125 3.09375 -4.78125 Z M 3.09375 -4.78125 "/></g></g></g><g fill="#ffffff" fill-opacity="1"><g transform="translate(38.793886, 95.132138)"><g><path d="M 2.765625 0.046875 C 2.078125 0.046875 1.519531 -0.148438 1.09375 -0.546875 C 0.664062 -0.953125 0.453125 -1.5625 0.453125 -2.375 C 0.453125 -3.195312 0.675781 -3.84375 1.125 -4.3125 C 1.582031 -4.78125 2.15625 -5.015625 2.84375 -5.015625 C 3.53125 -5.015625 4.085938 -4.816406 4.515625 -4.421875 C 4.953125 -4.023438 5.171875 -3.414062 5.171875 -2.59375 C 5.171875 -1.769531 4.941406 -1.125 4.484375 -0.65625 C 4.035156 -0.1875 3.460938 0.046875 2.765625 0.046875 Z M 2.828125 -4.84375 C 2.335938 -4.84375 1.925781 -4.625 1.59375 -4.1875 C 1.257812 -3.757812 1.09375 -3.175781 1.09375 -2.4375 C 1.09375 -1.695312 1.25 -1.128906 1.5625 -0.734375 C 1.882812 -0.335938 2.289062 -0.140625 2.78125 -0.140625 C 3.28125 -0.140625 3.695312 -0.351562 4.03125 -0.78125 C 4.363281 -1.21875 4.53125 -1.800781 4.53125 -2.53125 C 4.53125 -3.269531 4.367188 -3.835938 4.046875 -4.234375 C 3.734375 -4.640625 3.328125 -4.84375 2.828125 -4.84375 Z M 2.828125 -4.84375 "/></g></g></g><g fill="#ffffff" fill-opacity="1"><g transform="translate(44.412844, 95.132138)"><g><path d="M 0.546875 0.015625 L 0.5625 -0.125 L 1.078125 -0.203125 C 1.140625 -0.203125 1.171875 -0.25 1.171875 -0.34375 L 1.171875 -4.640625 C 1.148438 -4.703125 1.128906 -4.734375 1.109375 -4.734375 L 0.5 -4.75 L 0.5 -4.890625 C 0.925781 -4.941406 1.210938 -4.96875 1.359375 -4.96875 C 1.617188 -4.96875 1.765625 -4.851562 1.796875 -4.625 L 1.8125 -4.625 L 1.8125 -4.421875 C 2.351562 -4.785156 2.875 -4.976562 3.375 -5 C 3.851562 -5 4.222656 -4.90625 4.484375 -4.71875 C 4.585938 -4.632812 4.6875 -4.5 4.78125 -4.3125 C 4.875 -4.132812 4.921875 -3.914062 4.921875 -3.65625 L 4.921875 -0.203125 L 5.65625 -0.15625 C 5.65625 -0.144531 5.65625 -0.09375 5.65625 0 L 3.65625 0.015625 C 3.65625 -0.046875 3.660156 -0.09375 3.671875 -0.125 L 4.1875 -0.203125 C 4.238281 -0.203125 4.265625 -0.25 4.265625 -0.34375 L 4.265625 -3.40625 C 4.265625 -3.675781 4.226562 -3.90625 4.15625 -4.09375 C 4.09375 -4.28125 4.015625 -4.414062 3.921875 -4.5 C 3.835938 -4.582031 3.734375 -4.648438 3.609375 -4.703125 C 3.460938 -4.753906 3.3125 -4.78125 3.15625 -4.78125 C 2.757812 -4.769531 2.3125 -4.613281 1.8125 -4.3125 L 1.8125 -0.203125 L 2.5625 -0.15625 C 2.5625 -0.144531 2.554688 -0.09375 2.546875 0 Z M 0.546875 0.015625 "/></g></g></g><g fill="#ffffff" fill-opacity="1"><g transform="translate(50.678226, 95.132138)"><g><path d="M 1.90625 -4.5625 L 1.90625 -0.203125 L 2.640625 -0.15625 C 2.640625 -0.144531 2.640625 -0.09375 2.640625 0 L 0.640625 0.015625 C 0.640625 -0.046875 0.644531 -0.09375 0.65625 -0.125 L 1.171875 -0.203125 C 1.210938 -0.203125 1.238281 -0.226562 1.25 -0.28125 L 1.25 -4.65625 C 1.238281 -4.707031 1.21875 -4.734375 1.1875 -4.734375 L 0.59375 -4.75 L 0.609375 -4.890625 C 0.960938 -4.941406 1.234375 -4.96875 1.421875 -4.96875 C 1.609375 -4.96875 1.734375 -4.925781 1.796875 -4.84375 C 1.867188 -4.757812 1.90625 -4.664062 1.90625 -4.5625 Z M 1.5625 -6.3125 C 1.425781 -6.3125 1.320312 -6.351562 1.25 -6.4375 C 1.175781 -6.519531 1.140625 -6.628906 1.140625 -6.765625 C 1.140625 -6.898438 1.175781 -7.007812 1.25 -7.09375 C 1.332031 -7.175781 1.4375 -7.21875 1.5625 -7.21875 C 1.695312 -7.21875 1.804688 -7.175781 1.890625 -7.09375 C 1.972656 -7.007812 2.015625 -6.894531 2.015625 -6.75 C 2.015625 -6.613281 1.972656 -6.503906 1.890625 -6.421875 C 1.804688 -6.347656 1.695312 -6.3125 1.5625 -6.3125 Z M 1.5625 -6.3125 "/></g></g></g><g fill="#ffffff" fill-opacity="1"><g transform="translate(53.820862, 95.132138)"><g><path d="M 1.09375 -2.296875 C 1.09375 -0.859375 1.648438 -0.140625 2.765625 -0.140625 C 3.054688 -0.140625 3.367188 -0.171875 3.703125 -0.234375 C 4.035156 -0.296875 4.25 -0.351562 4.34375 -0.40625 L 4.40625 -0.3125 C 4.257812 -0.207031 4.007812 -0.117188 3.65625 -0.046875 C 3.3125 0.015625 2.992188 0.046875 2.703125 0.046875 C 2.410156 0.046875 2.148438 0.015625 1.921875 -0.046875 C 1.691406 -0.109375 1.457031 -0.210938 1.21875 -0.359375 C 0.976562 -0.515625 0.789062 -0.753906 0.65625 -1.078125 C 0.519531 -1.410156 0.453125 -1.8125 0.453125 -2.28125 C 0.453125 -3.15625 0.675781 -3.828125 1.125 -4.296875 C 1.59375 -4.773438 2.140625 -5.015625 2.765625 -5.015625 C 3.390625 -5.015625 3.863281 -4.84375 4.1875 -4.5 C 4.519531 -4.15625 4.6875 -3.671875 4.6875 -3.046875 C 4.6875 -2.910156 4.675781 -2.769531 4.65625 -2.625 L 1.109375 -2.625 C 1.097656 -2.550781 1.09375 -2.441406 1.09375 -2.296875 Z M 4.09375 -3.109375 C 4.09375 -3.609375 3.984375 -4.015625 3.765625 -4.328125 C 3.546875 -4.648438 3.25 -4.8125 2.875 -4.8125 C 2.382812 -4.8125 1.96875 -4.59375 1.625 -4.15625 C 1.351562 -3.820312 1.1875 -3.375 1.125 -2.8125 L 4.09375 -2.8125 C 4.09375 -2.882812 4.09375 -2.984375 4.09375 -3.109375 Z M 4.09375 -3.109375 "/></g></g></g><g fill="#ffffff" fill-opacity="1"><g transform="translate(58.853058, 95.132138)"><g/></g></g><g fill="#ffffff" fill-opacity="1"><g transform="translate(61.826628, 95.132138)"><g><path d="M 2.984375 -4.84375 C 2.421875 -4.84375 1.960938 -4.617188 1.609375 -4.171875 C 1.265625 -3.734375 1.09375 -3.109375 1.09375 -2.296875 C 1.09375 -0.859375 1.640625 -0.140625 2.734375 -0.140625 C 3.171875 -0.140625 3.539062 -0.179688 3.84375 -0.265625 C 4.144531 -0.347656 4.3125 -0.398438 4.34375 -0.421875 L 4.40625 -0.3125 C 4.257812 -0.207031 4.007812 -0.117188 3.65625 -0.046875 C 3.300781 0.015625 2.976562 0.046875 2.6875 0.046875 C 2.40625 0.046875 2.148438 0.015625 1.921875 -0.046875 C 1.691406 -0.109375 1.457031 -0.210938 1.21875 -0.359375 C 0.976562 -0.515625 0.789062 -0.753906 0.65625 -1.078125 C 0.519531 -1.410156 0.453125 -1.816406 0.453125 -2.296875 C 0.453125 -3.160156 0.671875 -3.816406 1.109375 -4.265625 C 1.609375 -4.773438 2.238281 -5.03125 3 -5.03125 C 3.238281 -5.03125 3.488281 -5 3.75 -4.9375 C 4.019531 -4.875 4.226562 -4.773438 4.375 -4.640625 L 4.375 -3.328125 L 4.1875 -3.265625 L 4.140625 -4.3125 C 3.992188 -4.457031 3.816406 -4.582031 3.609375 -4.6875 C 3.398438 -4.789062 3.191406 -4.84375 2.984375 -4.84375 Z M 2.984375 -4.84375 "/></g></g></g><g fill="#ffffff" fill-opacity="1"><g transform="translate(66.580364, 95.132138)"><g><path d="M 1.90625 -4.5625 L 1.90625 -0.203125 L 2.640625 -0.15625 C 2.640625 -0.144531 2.640625 -0.09375 2.640625 0 L 0.640625 0.015625 C 0.640625 -0.046875 0.644531 -0.09375 0.65625 -0.125 L 1.171875 -0.203125 C 1.210938 -0.203125 1.238281 -0.226562 1.25 -0.28125 L 1.25 -4.65625 C 1.238281 -4.707031 1.21875 -4.734375 1.1875 -4.734375 L 0.59375 -4.75 L 0.609375 -4.890625 C 0.960938 -4.941406 1.234375 -4.96875 1.421875 -4.96875 C 1.609375 -4.96875 1.734375 -4.925781 1.796875 -4.84375 C 1.867188 -4.757812 1.90625 -4.664062 1.90625 -4.5625 Z M 1.5625 -6.3125 C 1.425781 -6.3125 1.320312 -6.351562 1.25 -6.4375 C 1.175781 -6.519531 1.140625 -6.628906 1.140625 -6.765625 C 1.140625 -6.898438 1.175781 -7.007812 1.25 -7.09375 C 1.332031 -7.175781 1.4375 -7.21875 1.5625 -7.21875 C 1.695312 -7.21875 1.804688 -7.175781 1.890625 -7.09375 C 1.972656 -7.007812 2.015625 -6.894531 2.015625 -6.75 C 2.015625 -6.613281 1.972656 -6.503906 1.890625 -6.421875 C 1.804688 -6.347656 1.695312 -6.3125 1.5625 -6.3125 Z M 1.5625 -6.3125 "/></g></g></g><g fill="#ffffff" fill-opacity="1"><g transform="translate(69.723001, 95.132138)"><g><path d="M 6.03125 -4.96875 C 6.03125 -4.96875 6.035156 -4.921875 6.046875 -4.828125 L 5.25 -4.734375 L 3.328125 0 L 2.734375 0 L 1 -4.65625 C 0.96875 -4.71875 0.921875 -4.753906 0.859375 -4.765625 L 0.34375 -4.8125 L 0.328125 -4.96875 L 2.421875 -4.96875 C 2.421875 -4.96875 2.425781 -4.921875 2.4375 -4.828125 L 1.703125 -4.78125 L 3.265625 -0.203125 L 4.890625 -4.625 C 4.910156 -4.65625 4.898438 -4.679688 4.859375 -4.703125 C 4.816406 -4.734375 4.773438 -4.753906 4.734375 -4.765625 L 4.203125 -4.8125 L 4.203125 -4.96875 Z M 6.03125 -4.96875 "/></g></g></g><g fill="#ffffff" fill-opacity="1"><g transform="translate(75.849158, 95.132138)"><g><path d="M 1.90625 -4.5625 L 1.90625 -0.203125 L 2.640625 -0.15625 C 2.640625 -0.144531 2.640625 -0.09375 2.640625 0 L 0.640625 0.015625 C 0.640625 -0.046875 0.644531 -0.09375 0.65625 -0.125 L 1.171875 -0.203125 C 1.210938 -0.203125 1.238281 -0.226562 1.25 -0.28125 L 1.25 -4.65625 C 1.238281 -4.707031 1.21875 -4.734375 1.1875 -4.734375 L 0.59375 -4.75 L 0.609375 -4.890625 C 0.960938 -4.941406 1.234375 -4.96875 1.421875 -4.96875 C 1.609375 -4.96875 1.734375 -4.925781 1.796875 -4.84375 C 1.867188 -4.757812 1.90625 -4.664062 1.90625 -4.5625 Z M 1.5625 -6.3125 C 1.425781 -6.3125 1.320312 -6.351562 1.25 -6.4375 C 1.175781 -6.519531 1.140625 -6.628906 1.140625 -6.765625 C 1.140625 -6.898438 1.175781 -7.007812 1.25 -7.09375 C 1.332031 -7.175781 1.4375 -7.21875 1.5625 -7.21875 C 1.695312 -7.21875 1.804688 -7.175781 1.890625 -7.09375 C 1.972656 -7.007812 2.015625 -6.894531 2.015625 -6.75 C 2.015625 -6.613281 1.972656 -6.503906 1.890625 -6.421875 C 1.804688 -6.347656 1.695312 -6.3125 1.5625 -6.3125 Z M 1.5625 -6.3125 "/></g></g></g><g fill="#ffffff" fill-opacity="1"><g transform="translate(78.991794, 95.132138)"><g><path d="M 0.640625 0.015625 L 0.65625 -0.125 L 1.171875 -0.203125 C 1.222656 -0.203125 1.253906 -0.234375 1.265625 -0.296875 L 1.265625 -7.109375 C 1.265625 -7.179688 1.242188 -7.21875 1.203125 -7.21875 L 0.59375 -7.234375 L 0.609375 -7.375 C 1.023438 -7.4375 1.3125 -7.46875 1.46875 -7.46875 C 1.625 -7.46875 1.734375 -7.421875 1.796875 -7.328125 C 1.867188 -7.242188 1.90625 -7.15625 1.90625 -7.0625 L 1.90625 -0.203125 L 2.65625 -0.15625 C 2.65625 -0.144531 2.648438 -0.09375 2.640625 0 Z M 0.640625 0.015625 "/></g></g></g><g fill="#ffffff" fill-opacity="1"><g transform="translate(82.044927, 95.132138)"><g><path d="M 1.09375 -2.296875 C 1.09375 -0.859375 1.648438 -0.140625 2.765625 -0.140625 C 3.054688 -0.140625 3.367188 -0.171875 3.703125 -0.234375 C 4.035156 -0.296875 4.25 -0.351562 4.34375 -0.40625 L 4.40625 -0.3125 C 4.257812 -0.207031 4.007812 -0.117188 3.65625 -0.046875 C 3.3125 0.015625 2.992188 0.046875 2.703125 0.046875 C 2.410156 0.046875 2.148438 0.015625 1.921875 -0.046875 C 1.691406 -0.109375 1.457031 -0.210938 1.21875 -0.359375 C 0.976562 -0.515625 0.789062 -0.753906 0.65625 -1.078125 C 0.519531 -1.410156 0.453125 -1.8125 0.453125 -2.28125 C 0.453125 -3.15625 0.675781 -3.828125 1.125 -4.296875 C 1.59375 -4.773438 2.140625 -5.015625 2.765625 -5.015625 C 3.390625 -5.015625 3.863281 -4.84375 4.1875 -4.5 C 4.519531 -4.15625 4.6875 -3.671875 4.6875 -3.046875 C 4.6875 -2.910156 4.675781 -2.769531 4.65625 -2.625 L 1.109375 -2.625 C 1.097656 -2.550781 1.09375 -2.441406 1.09375 -2.296875 Z M 4.09375 -3.109375 C 4.09375 -3.609375 3.984375 -4.015625 3.765625 -4.328125 C 3.546875 -4.648438 3.25 -4.8125 2.875 -4.8125 C 2.382812 -4.8125 1.96875 -4.59375 1.625 -4.15625 C 1.351562 -3.820312 1.1875 -3.375 1.125 -2.8125 L 4.09375 -2.8125 C 4.09375 -2.882812 4.09375 -2.984375 4.09375 -3.109375 Z M 4.09375 -3.109375 "/></g></g></g></svg>