<svg xmlns="http://www.w3.org/2000/svg" xmlns:xlink="http://www.w3.org/1999/xlink" width="75" zoomAndPan="magnify" viewBox="0 0 56.25 98.999997" height="132" preserveAspectRatio="xMidYMid meet" version="1.0"><defs><g/><clipPath id="8195fafc53"><path d="M 27 8 L 49.042969 8 L 49.042969 61 L 27 61 Z M 27 8 " clip-rule="nonzero"/></clipPath><clipPath id="6ece644fc3"><path d="M 6.117188 13 L 29 13 L 29 65.78125 L 6.117188 65.78125 Z M 6.117188 13 " clip-rule="nonzero"/></clipPath><clipPath id="3731a9c30c"><path d="M 22 0.652344 L 32 0.652344 L 32 11 L 22 11 Z M 22 0.652344 " clip-rule="nonzero"/></clipPath></defs><g clip-path="url(#8195fafc53)"><path fill="#fae1cc" d="M 44.347656 56.179688 C 43.6875 56.121094 42.871094 55.644531 42.652344 54.394531 L 39.84375 39.535156 C 40.773438 38.679688 42.152344 37.261719 42.980469 35.722656 C 43.421875 34.992188 43.671875 34.199219 43.679688 33.40625 C 43.683594 33.265625 43.679688 33.128906 43.664062 32.992188 C 43.65625 32.90625 43.644531 32.820312 43.628906 32.734375 C 43.21875 30.269531 36.878906 10.507812 36.265625 8.59375 C 36.296875 8.558594 36.316406 8.535156 36.320312 8.527344 C 36.367188 8.46875 36.355469 8.386719 36.300781 8.34375 C 36.246094 8.296875 36.164062 8.304688 36.117188 8.363281 C 36.113281 8.367188 36.078125 8.414062 36.007812 8.492188 L 31.855469 9.433594 L 31.734375 9.460938 L 27.59375 10.402344 C 27.59375 10.402344 27.59375 10.402344 27.589844 10.402344 C 27.496094 10.363281 27.441406 10.335938 27.4375 10.335938 C 27.371094 10.304688 27.292969 10.332031 27.261719 10.394531 C 27.230469 10.460938 27.257812 10.539062 27.324219 10.570312 C 27.332031 10.574219 27.355469 10.585938 27.394531 10.601562 C 27.394531 10.601562 27.398438 10.605469 27.398438 10.605469 C 27.398438 10.605469 27.394531 10.605469 27.394531 10.605469 C 27.664062 12.566406 30.488281 33.160156 31.183594 35.5625 C 31.207031 35.644531 31.234375 35.726562 31.265625 35.808594 C 31.308594 35.9375 31.363281 36.066406 31.425781 36.191406 C 31.777344 36.902344 32.34375 37.511719 33.058594 37.976562 C 34.480469 39.011719 36.355469 39.699219 37.558594 40.070312 L 41.445312 54.667969 C 41.714844 55.640625 41.433594 56.332031 41.019531 56.746094 C 39.378906 57.648438 36.65625 59.332031 36.753906 60.5 L 49.179688 57.679688 C 48.808594 56.699219 46.230469 56.324219 44.347656 56.179688 Z M 44.347656 56.179688 " fill-opacity="1" fill-rule="nonzero"/></g><g clip-path="url(#6ece644fc3)"><path fill="#fae1cc" d="M 28.035156 15.582031 C 28.003906 15.519531 27.925781 15.492188 27.859375 15.523438 C 27.855469 15.523438 27.800781 15.550781 27.703125 15.589844 L 23.558594 14.648438 L 23.4375 14.621094 L 19.289062 13.679688 C 19.25 13.632812 19.179688 13.550781 19.179688 13.550781 C 19.132812 13.492188 19.050781 13.484375 18.996094 13.53125 C 18.9375 13.574219 18.929688 13.65625 18.972656 13.710938 C 18.980469 13.722656 19 13.746094 19.03125 13.78125 C 19.019531 13.824219 19 13.875 18.980469 13.933594 C 18.144531 16.546875 12.066406 35.511719 11.664062 37.921875 C 11.652344 38.007812 11.640625 38.09375 11.632812 38.179688 C 11.617188 38.316406 11.613281 38.453125 11.613281 38.59375 C 11.621094 39.386719 11.871094 40.179688 12.316406 40.910156 C 13.144531 42.449219 14.523438 43.867188 15.449219 44.722656 L 12.644531 59.582031 C 12.421875 60.832031 11.609375 61.308594 10.945312 61.367188 C 9.066406 61.511719 6.484375 61.886719 6.117188 62.867188 L 18.542969 65.6875 C 18.640625 64.519531 15.917969 62.835938 14.273438 61.933594 C 13.863281 61.519531 13.582031 60.828125 13.851562 59.855469 L 17.738281 45.253906 C 18.941406 44.886719 20.816406 44.199219 22.234375 43.164062 C 22.949219 42.699219 23.519531 42.089844 23.867188 41.378906 C 23.929688 41.253906 23.984375 41.125 24.03125 40.996094 C 24.0625 40.914062 24.089844 40.832031 24.113281 40.75 C 24.777344 38.445312 27.402344 19.421875 27.851562 16.128906 L 27.855469 16.125 C 27.871094 15.984375 27.886719 15.871094 27.898438 15.792969 C 27.9375 15.773438 27.964844 15.761719 27.972656 15.757812 C 28.039062 15.726562 28.066406 15.648438 28.035156 15.582031 Z M 28.035156 15.582031 " fill-opacity="1" fill-rule="nonzero"/></g><path fill="#ff9038" d="M 23.320312 23.453125 C 20.914062 23.515625 17.589844 21.53125 17.3125 21.363281 C 14.285156 30.929688 12.515625 36.84375 12.316406 38.03125 C 12.304688 38.101562 12.296875 38.171875 12.289062 38.257812 C 12.277344 38.359375 12.273438 38.472656 12.273438 38.597656 C 12.28125 39.257812 12.492188 39.953125 12.886719 40.597656 L 12.894531 40.613281 L 12.902344 40.625 C 13.675781 42.0625 14.964844 43.402344 15.917969 44.28125 C 16.128906 44.484375 16.414062 44.632812 16.722656 44.703125 C 17.019531 44.769531 17.324219 44.757812 17.59375 44.671875 C 18.832031 44.292969 20.585938 43.636719 21.910156 42.671875 L 21.921875 42.664062 L 21.9375 42.65625 C 22.570312 42.242188 23.058594 41.707031 23.355469 41.105469 C 23.40625 41.003906 23.453125 40.898438 23.488281 40.792969 C 23.515625 40.71875 23.539062 40.652344 23.558594 40.585938 C 23.890625 39.429688 25.144531 31.332031 26.546875 21.421875 C 26.363281 21.769531 25.390625 23.398438 23.320312 23.453125 Z M 15.257812 35.855469 C 14.882812 35.855469 14.882812 35.269531 15.257812 35.269531 C 15.636719 35.269531 15.636719 35.855469 15.257812 35.855469 Z M 15.609375 34.535156 C 15.230469 34.535156 15.230469 33.949219 15.609375 33.949219 C 15.988281 33.949219 15.988281 34.535156 15.609375 34.535156 Z M 16.289062 31.664062 C 15.910156 31.664062 15.910156 31.078125 16.289062 31.078125 C 16.667969 31.078125 16.667969 31.664062 16.289062 31.664062 Z M 17.171875 39.953125 C 16.796875 39.953125 16.796875 39.367188 17.171875 39.367188 C 17.550781 39.367188 17.550781 39.953125 17.171875 39.953125 Z M 17.476562 38.882812 C 17.097656 38.882812 17.097656 38.292969 17.476562 38.292969 C 17.855469 38.292969 17.855469 38.882812 17.476562 38.882812 Z M 23.660156 28.804688 L 20.890625 41.175781 C 20.878906 41.234375 20.824219 41.277344 20.765625 41.277344 C 20.753906 41.277344 20.746094 41.273438 20.734375 41.273438 C 20.664062 41.257812 20.621094 41.1875 20.636719 41.117188 L 23.40625 28.746094 C 23.421875 28.675781 23.492188 28.632812 23.5625 28.648438 C 23.632812 28.664062 23.679688 28.734375 23.660156 28.804688 Z M 26.558594 21.351562 C 26.558594 21.355469 26.554688 21.355469 26.554688 21.355469 L 21.929688 21.351562 Z M 42.394531 35.4375 L 42.402344 35.425781 L 42.410156 35.410156 C 42.800781 34.765625 43.011719 34.070312 43.019531 33.410156 C 43.023438 33.285156 43.019531 33.171875 43.007812 33.070312 C 43 32.984375 42.988281 32.914062 42.976562 32.84375 C 42.78125 31.65625 41.007812 25.746094 37.984375 16.175781 C 37.707031 16.34375 34.382812 18.328125 31.976562 18.265625 C 29.902344 18.210938 28.933594 16.582031 28.75 16.234375 C 30.152344 26.144531 31.402344 34.242188 31.738281 35.398438 C 31.757812 35.464844 31.78125 35.53125 31.804688 35.605469 C 31.84375 35.710938 31.886719 35.816406 31.941406 35.917969 C 32.234375 36.519531 32.726562 37.054688 33.359375 37.46875 L 33.382812 37.484375 C 34.710938 38.453125 36.460938 39.105469 37.699219 39.484375 C 37.96875 39.574219 38.277344 39.582031 38.574219 39.515625 C 38.878906 39.445312 39.164062 39.296875 39.378906 39.09375 C 40.332031 38.214844 41.621094 36.875 42.394531 35.4375 Z M 32.1875 26.277344 C 31.808594 26.277344 31.808594 25.6875 32.1875 25.6875 C 32.566406 25.6875 32.566406 26.277344 32.1875 26.277344 Z M 32.839844 28.660156 C 33.21875 28.660156 33.21875 29.246094 32.839844 29.246094 C 32.460938 29.246094 32.464844 28.660156 32.839844 28.660156 Z M 33.105469 30.625 C 32.726562 30.625 32.730469 30.039062 33.105469 30.039062 C 33.484375 30.039062 33.484375 30.625 33.105469 30.625 Z M 36.503906 31.867188 C 36.882812 31.867188 36.882812 32.453125 36.503906 32.453125 C 36.125 32.453125 36.125 31.867188 36.503906 31.867188 Z M 36.703125 33.582031 C 36.324219 33.582031 36.324219 32.996094 36.703125 32.996094 C 37.082031 32.996094 37.082031 33.582031 36.703125 33.582031 Z M 37.597656 20.386719 C 37.582031 20.316406 37.625 20.246094 37.695312 20.230469 C 37.765625 20.214844 37.835938 20.257812 37.851562 20.328125 L 40.808594 33.046875 C 40.824219 33.117188 40.78125 33.1875 40.710938 33.203125 C 40.703125 33.207031 40.691406 33.207031 40.679688 33.207031 C 40.621094 33.207031 40.570312 33.167969 40.554688 33.105469 Z M 33.371094 16.164062 L 28.738281 16.167969 C 28.738281 16.167969 28.738281 16.167969 28.738281 16.164062 Z M 33.371094 16.164062 " fill-opacity="1" fill-rule="nonzero"/><path fill="#c8b39c" d="M 21.929688 21.351562 L 26.554688 21.355469 L 26.582031 21.355469 C 26.582031 21.355469 26.570312 21.382812 26.546875 21.421875 C 26.363281 21.769531 25.390625 23.398438 23.320312 23.453125 C 20.914062 23.515625 17.589844 21.53125 17.3125 21.363281 C 17.296875 21.355469 17.289062 21.347656 17.289062 21.347656 Z M 27.859375 15.523438 C 27.855469 15.523438 27.800781 15.550781 27.703125 15.589844 C 27.121094 15.84375 24.980469 16.671875 23.128906 16.253906 C 21.277344 15.832031 19.707031 14.160156 19.289062 13.679688 C 19.21875 13.601562 19.179688 13.554688 19.179688 13.550781 C 19.132812 13.492188 19.050781 13.484375 18.996094 13.53125 C 18.9375 13.574219 18.929688 13.65625 18.972656 13.710938 C 18.980469 13.722656 19 13.746094 19.03125 13.78125 C 19.355469 14.167969 21.015625 16.039062 23.070312 16.507812 C 23.460938 16.59375 23.859375 16.632812 24.253906 16.632812 C 25.945312 16.632812 27.539062 15.957031 27.898438 15.789062 C 27.9375 15.773438 27.964844 15.761719 27.972656 15.757812 C 28.039062 15.726562 28.066406 15.648438 28.035156 15.582031 C 28.003906 15.519531 27.925781 15.492188 27.859375 15.523438 Z M 31.976562 18.265625 C 34.382812 18.328125 37.707031 16.34375 37.984375 16.175781 C 37.996094 16.167969 38.007812 16.160156 38.007812 16.160156 L 33.371094 16.164062 L 28.738281 16.167969 L 28.714844 16.167969 C 28.714844 16.167969 28.726562 16.195312 28.75 16.234375 C 28.933594 16.582031 29.902344 18.210938 31.976562 18.265625 Z M 32.222656 11.320312 C 34.277344 10.851562 35.9375 8.980469 36.265625 8.59375 C 36.296875 8.558594 36.316406 8.535156 36.320312 8.527344 C 36.367188 8.46875 36.355469 8.386719 36.300781 8.34375 C 36.246094 8.296875 36.164062 8.304688 36.117188 8.363281 C 36.113281 8.367188 36.078125 8.414062 36.007812 8.492188 C 35.589844 8.972656 34.019531 10.644531 32.167969 11.066406 C 30.316406 11.484375 28.175781 10.65625 27.589844 10.402344 C 27.496094 10.363281 27.441406 10.335938 27.4375 10.335938 C 27.371094 10.304688 27.292969 10.332031 27.261719 10.394531 C 27.230469 10.460938 27.257812 10.539062 27.324219 10.570312 C 27.332031 10.574219 27.355469 10.585938 27.394531 10.601562 C 27.757812 10.769531 29.351562 11.445312 31.042969 11.445312 C 31.4375 11.445312 31.835938 11.40625 32.222656 11.320312 Z M 32.222656 11.320312 " fill-opacity="1" fill-rule="nonzero"/><g clip-path="url(#3731a9c30c)"><path fill="#c8b39c" d="M 24.101562 8.78125 L 22.296875 8.445312 L 24.101562 8.105469 L 24.4375 6.300781 L 24.777344 8.105469 L 26.582031 8.445312 L 24.777344 8.78125 L 24.4375 10.585938 Z M 28.195312 7.394531 L 28.722656 4.574219 L 31.539062 4.046875 L 28.722656 3.519531 L 28.195312 0.703125 L 27.667969 3.519531 L 24.847656 4.046875 L 27.667969 4.574219 Z M 28.195312 7.394531 " fill-opacity="1" fill-rule="nonzero"/></g><g fill="#ffffff" fill-opacity="1"><g transform="translate(4.937287, 79.552684)"><g><path d="M 2.953125 -6.53125 L 2.953125 0 L 2.34375 0 L 2.34375 -6.34375 L 0.765625 -5.984375 L 0.765625 -6.171875 L 2.34375 -6.53125 Z M 2.953125 -6.53125 "/></g></g></g><g fill="#ffffff" fill-opacity="1"><g transform="translate(11.330123, 79.552684)"><g><path d="M 5.25 -1.875 C 5.25 -1.675781 5.222656 -1.488281 5.171875 -1.3125 C 5.128906 -1.144531 5.039062 -0.945312 4.90625 -0.71875 C 4.78125 -0.488281 4.554688 -0.300781 4.234375 -0.15625 C 3.910156 -0.0195312 3.535156 0.046875 3.109375 0.046875 C 2.679688 0.046875 2.320312 0 2.03125 -0.09375 C 1.75 -0.195312 1.535156 -0.316406 1.390625 -0.453125 C 1.242188 -0.585938 1.128906 -0.742188 1.046875 -0.921875 C 0.910156 -1.203125 0.84375 -1.492188 0.84375 -1.796875 C 0.84375 -2.566406 1.234375 -3.238281 2.015625 -3.8125 C 1.484375 -4.03125 1.21875 -4.445312 1.21875 -5.0625 C 1.21875 -6.0625 1.851562 -6.5625 3.125 -6.5625 C 3.625 -6.5625 4.035156 -6.453125 4.359375 -6.234375 C 4.492188 -6.148438 4.613281 -6.007812 4.71875 -5.8125 C 4.820312 -5.613281 4.875 -5.378906 4.875 -5.109375 C 4.875 -4.460938 4.578125 -3.9375 3.984375 -3.53125 C 4.378906 -3.414062 4.6875 -3.234375 4.90625 -2.984375 C 5.132812 -2.742188 5.25 -2.375 5.25 -1.875 Z M 1.484375 -1.828125 C 1.484375 -1.503906 1.523438 -1.222656 1.609375 -0.984375 C 1.703125 -0.742188 1.800781 -0.566406 1.90625 -0.453125 C 2.019531 -0.347656 2.15625 -0.265625 2.3125 -0.203125 C 2.5 -0.128906 2.6875 -0.09375 2.875 -0.09375 C 4.03125 -0.09375 4.609375 -0.65625 4.609375 -1.78125 C 4.609375 -2.351562 4.460938 -2.769531 4.171875 -3.03125 C 3.910156 -3.257812 3.582031 -3.421875 3.1875 -3.515625 C 3.101562 -3.535156 2.976562 -3.5625 2.8125 -3.59375 C 2.644531 -3.632812 2.519531 -3.664062 2.4375 -3.6875 C 1.800781 -3.164062 1.484375 -2.546875 1.484375 -1.828125 Z M 3 -6.4375 C 2.75 -6.4375 2.539062 -6.382812 2.375 -6.28125 C 2.21875 -6.175781 2.101562 -6.046875 2.03125 -5.890625 C 1.914062 -5.609375 1.859375 -5.335938 1.859375 -5.078125 C 1.859375 -4.828125 1.894531 -4.617188 1.96875 -4.453125 C 2.039062 -4.285156 2.171875 -4.148438 2.359375 -4.046875 C 2.546875 -3.953125 2.691406 -3.882812 2.796875 -3.84375 C 3.066406 -3.757812 3.316406 -3.691406 3.546875 -3.640625 C 3.753906 -3.804688 3.910156 -4.007812 4.015625 -4.25 C 4.128906 -4.488281 4.1875 -4.726562 4.1875 -4.96875 C 4.1875 -5.382812 4.085938 -5.734375 3.890625 -6.015625 C 3.703125 -6.296875 3.40625 -6.4375 3 -6.4375 Z M 3 -6.4375 "/></g></g></g><g fill="#ffffff" fill-opacity="1"><g transform="translate(18.956018, 79.552684)"><g/></g></g><g fill="#ffffff" fill-opacity="1"><g transform="translate(23.484454, 79.552684)"><g><path d="M 6.25 -6.90625 C 6.25 -6.894531 6.253906 -6.84375 6.265625 -6.75 L 5.640625 -6.6875 L 5.640625 -0.1875 L 6.359375 -0.140625 C 6.359375 -0.140625 6.351562 -0.09375 6.34375 0 L 4.375 0.015625 C 4.375 -0.046875 4.378906 -0.09375 4.390625 -0.125 L 4.90625 -0.203125 C 4.96875 -0.203125 5.003906 -0.242188 5.015625 -0.328125 L 5.015625 -3.328125 L 1.65625 -3.328125 L 1.65625 -0.1875 L 2.390625 -0.140625 C 2.390625 -0.140625 2.382812 -0.09375 2.375 0 L 0.390625 0.015625 L 0.40625 -0.125 L 0.921875 -0.203125 C 0.984375 -0.203125 1.019531 -0.238281 1.03125 -0.3125 L 1.03125 -6.5625 C 1.019531 -6.644531 0.984375 -6.6875 0.921875 -6.6875 L 0.40625 -6.75 L 0.390625 -6.890625 L 2.375 -6.90625 C 2.375 -6.894531 2.378906 -6.84375 2.390625 -6.75 L 1.65625 -6.6875 L 1.65625 -3.515625 L 5.015625 -3.515625 L 5.015625 -6.5625 C 5.003906 -6.644531 4.96875 -6.6875 4.90625 -6.6875 L 4.390625 -6.75 C 4.378906 -6.78125 4.375 -6.828125 4.375 -6.890625 Z M 6.25 -6.90625 "/></g></g></g><g fill="#ffffff" fill-opacity="1"><g transform="translate(31.820598, 79.552684)"><g/></g></g><g fill="#ffffff" fill-opacity="1"><g transform="translate(36.349034, 79.552684)"><g><path d="M 1.875 -3.296875 L 1.875 -3.4375 C 2.238281 -3.4375 2.507812 -3.4375 2.6875 -3.4375 C 2.894531 -3.46875 3.144531 -3.578125 3.4375 -3.765625 C 3.613281 -3.878906 3.753906 -4.046875 3.859375 -4.265625 C 3.972656 -4.492188 4.03125 -4.769531 4.03125 -5.09375 C 4.03125 -5.425781 3.941406 -5.726562 3.765625 -6 C 3.597656 -6.269531 3.316406 -6.40625 2.921875 -6.40625 C 2.660156 -6.40625 2.390625 -6.367188 2.109375 -6.296875 C 1.828125 -6.222656 1.609375 -6.148438 1.453125 -6.078125 L 1.234375 -5.96875 L 1.15625 -6.078125 C 1.363281 -6.191406 1.644531 -6.300781 2 -6.40625 C 2.363281 -6.507812 2.691406 -6.5625 2.984375 -6.5625 C 3.484375 -6.5625 3.894531 -6.441406 4.21875 -6.203125 C 4.539062 -5.960938 4.703125 -5.609375 4.703125 -5.140625 C 4.703125 -4.453125 4.359375 -3.9375 3.671875 -3.59375 C 3.515625 -3.519531 3.351562 -3.457031 3.1875 -3.40625 C 4.226562 -3.28125 4.75 -2.804688 4.75 -1.984375 C 4.75 -1.296875 4.515625 -0.785156 4.046875 -0.453125 C 3.578125 -0.128906 2.925781 0.03125 2.09375 0.03125 C 1.65625 0.03125 1.242188 -0.0195312 0.859375 -0.125 L 0.921875 -0.25 C 1.191406 -0.164062 1.5625 -0.125 2.03125 -0.125 C 3.394531 -0.125 4.078125 -0.734375 4.078125 -1.953125 C 4.078125 -2.398438 3.953125 -2.71875 3.703125 -2.90625 C 3.578125 -2.988281 3.457031 -3.0625 3.34375 -3.125 C 3.226562 -3.1875 3.066406 -3.226562 2.859375 -3.25 C 2.515625 -3.28125 2.1875 -3.296875 1.875 -3.296875 Z M 1.875 -3.296875 "/></g></g></g><g fill="#ffffff" fill-opacity="1"><g transform="translate(43.452118, 79.552684)"><g><path d="M 3.46875 -6.640625 C 2.925781 -6.640625 2.460938 -6.34375 2.078125 -5.75 C 1.703125 -5.15625 1.515625 -4.332031 1.515625 -3.28125 C 1.515625 -2.238281 1.695312 -1.445312 2.0625 -0.90625 C 2.425781 -0.375 2.878906 -0.109375 3.421875 -0.109375 C 3.972656 -0.109375 4.4375 -0.398438 4.8125 -0.984375 C 5.195312 -1.578125 5.390625 -2.390625 5.390625 -3.421875 C 5.390625 -4.460938 5.203125 -5.257812 4.828125 -5.8125 C 4.460938 -6.363281 4.007812 -6.640625 3.46875 -6.640625 Z M 3.421875 0.046875 C 2.679688 0.046875 2.066406 -0.234375 1.578125 -0.796875 C 1.085938 -1.359375 0.84375 -2.1875 0.84375 -3.28125 C 0.84375 -4.382812 1.09375 -5.242188 1.59375 -5.859375 C 2.101562 -6.472656 2.726562 -6.78125 3.46875 -6.78125 C 4.207031 -6.78125 4.820312 -6.492188 5.3125 -5.921875 C 5.8125 -5.347656 6.0625 -4.515625 6.0625 -3.421875 C 6.0625 -2.335938 5.804688 -1.488281 5.296875 -0.875 C 4.796875 -0.257812 4.171875 0.046875 3.421875 0.046875 Z M 3.421875 0.046875 "/></g></g></g><g fill="#ffffff" fill-opacity="1"><g transform="translate(9.398124, 93.870305)"><g><path d="M 3.484375 -6.765625 C 2.734375 -6.765625 2.140625 -6.453125 1.703125 -5.828125 C 1.273438 -5.210938 1.0625 -4.320312 1.0625 -3.15625 C 1.0625 -1.738281 1.390625 -0.820312 2.046875 -0.40625 C 2.242188 -0.28125 2.425781 -0.195312 2.59375 -0.15625 C 2.757812 -0.125 2.941406 -0.109375 3.140625 -0.109375 C 3.796875 -0.109375 4.476562 -0.1875 5.1875 -0.34375 L 5.21875 -0.203125 C 5.101562 -0.160156 4.800781 -0.109375 4.3125 -0.046875 C 3.832031 0.015625 3.441406 0.046875 3.140625 0.046875 C 2.835938 0.046875 2.570312 0.0234375 2.34375 -0.015625 C 2.125 -0.0664062 1.890625 -0.160156 1.640625 -0.296875 C 1.390625 -0.429688 1.175781 -0.613281 1 -0.84375 C 0.832031 -1.070312 0.6875 -1.378906 0.5625 -1.765625 C 0.445312 -2.160156 0.390625 -2.625 0.390625 -3.15625 C 0.390625 -4.320312 0.65625 -5.226562 1.1875 -5.875 C 1.75 -6.5625 2.515625 -6.90625 3.484375 -6.90625 C 3.773438 -6.90625 4.09375 -6.875 4.4375 -6.8125 C 4.78125 -6.757812 5.023438 -6.707031 5.171875 -6.65625 L 5.296875 -5.234375 L 5.109375 -5.171875 L 4.984375 -6.21875 C 4.453125 -6.582031 3.953125 -6.765625 3.484375 -6.765625 Z M 3.484375 -6.765625 "/></g></g></g><g fill="#ffffff" fill-opacity="1"><g transform="translate(14.941984, 93.870305)"><g><path d="M 2.75 0.046875 C 2.0625 0.046875 1.503906 -0.148438 1.078125 -0.546875 C 0.648438 -0.941406 0.4375 -1.546875 0.4375 -2.359375 C 0.4375 -3.171875 0.660156 -3.804688 1.109375 -4.265625 C 1.566406 -4.734375 2.132812 -4.96875 2.8125 -4.96875 C 3.5 -4.96875 4.054688 -4.769531 4.484375 -4.375 C 4.910156 -3.976562 5.125 -3.375 5.125 -2.5625 C 5.125 -1.75 4.898438 -1.109375 4.453125 -0.640625 C 4.003906 -0.179688 3.4375 0.046875 2.75 0.046875 Z M 2.8125 -4.796875 C 2.320312 -4.796875 1.910156 -4.582031 1.578125 -4.15625 C 1.242188 -3.726562 1.078125 -3.144531 1.078125 -2.40625 C 1.078125 -1.675781 1.234375 -1.113281 1.546875 -0.71875 C 1.859375 -0.332031 2.257812 -0.140625 2.75 -0.140625 C 3.25 -0.140625 3.660156 -0.351562 3.984375 -0.78125 C 4.316406 -1.207031 4.484375 -1.785156 4.484375 -2.515625 C 4.484375 -3.242188 4.328125 -3.804688 4.015625 -4.203125 C 3.703125 -4.597656 3.300781 -4.796875 2.8125 -4.796875 Z M 2.8125 -4.796875 "/></g></g></g><g fill="#ffffff" fill-opacity="1"><g transform="translate(20.515445, 93.870305)"><g><path d="M 2.953125 -4.796875 C 2.398438 -4.796875 1.945312 -4.578125 1.59375 -4.140625 C 1.25 -3.703125 1.078125 -3.082031 1.078125 -2.28125 C 1.078125 -0.851562 1.625 -0.140625 2.71875 -0.140625 C 3.144531 -0.140625 3.507812 -0.179688 3.8125 -0.265625 C 4.113281 -0.347656 4.273438 -0.398438 4.296875 -0.421875 L 4.375 -0.3125 C 4.21875 -0.207031 3.960938 -0.117188 3.609375 -0.046875 C 3.265625 0.015625 2.953125 0.046875 2.671875 0.046875 C 2.390625 0.046875 2.132812 0.015625 1.90625 -0.046875 C 1.675781 -0.109375 1.441406 -0.210938 1.203125 -0.359375 C 0.972656 -0.515625 0.785156 -0.753906 0.640625 -1.078125 C 0.503906 -1.398438 0.4375 -1.796875 0.4375 -2.265625 C 0.4375 -3.128906 0.660156 -3.78125 1.109375 -4.21875 C 1.597656 -4.726562 2.21875 -4.984375 2.96875 -4.984375 C 3.207031 -4.984375 3.457031 -4.953125 3.71875 -4.890625 C 3.988281 -4.828125 4.195312 -4.726562 4.34375 -4.59375 L 4.34375 -3.296875 L 4.15625 -3.234375 L 4.09375 -4.265625 C 3.957031 -4.421875 3.785156 -4.546875 3.578125 -4.640625 C 3.367188 -4.742188 3.160156 -4.796875 2.953125 -4.796875 Z M 2.953125 -4.796875 "/></g></g></g><g fill="#ffffff" fill-opacity="1"><g transform="translate(25.230689, 93.870305)"><g><path d="M 0.640625 0.015625 L 0.65625 -0.125 L 1.15625 -0.203125 C 1.207031 -0.203125 1.238281 -0.234375 1.25 -0.296875 L 1.25 -7.046875 C 1.25 -7.109375 1.226562 -7.140625 1.1875 -7.140625 L 0.59375 -7.171875 L 0.59375 -7.3125 C 1.007812 -7.363281 1.296875 -7.390625 1.453125 -7.390625 C 1.609375 -7.390625 1.71875 -7.347656 1.78125 -7.265625 C 1.851562 -7.179688 1.890625 -7.085938 1.890625 -6.984375 L 1.890625 -0.203125 L 2.625 -0.140625 C 2.625 -0.140625 2.625 -0.09375 2.625 0 Z M 5.34375 -0.140625 C 5.34375 -0.140625 5.335938 -0.09375 5.328125 0 L 4.09375 0 L 1.890625 -2.625 L 3.59375 -4.578125 C 3.59375 -4.671875 3.566406 -4.71875 3.515625 -4.71875 L 3 -4.796875 C 2.988281 -4.828125 2.984375 -4.867188 2.984375 -4.921875 L 5.0625 -4.921875 C 5.0625 -4.910156 5.0625 -4.859375 5.0625 -4.765625 L 3.9375 -4.703125 L 2.28125 -2.90625 L 4.65625 -0.203125 Z M 5.34375 -0.140625 "/></g></g></g><g fill="#ffffff" fill-opacity="1"><g transform="translate(30.971847, 93.870305)"><g><path d="M 2.640625 -0.1875 L 3.03125 -0.203125 L 3.0625 -0.109375 C 3.050781 -0.109375 3.003906 -0.0976562 2.921875 -0.078125 C 2.722656 -0.0351562 2.5 -0.015625 2.25 -0.015625 C 2.03125 -0.0234375 1.828125 -0.0625 1.640625 -0.125 C 1.460938 -0.1875 1.289062 -0.316406 1.125 -0.515625 C 0.96875 -0.710938 0.890625 -0.972656 0.890625 -1.296875 L 0.890625 -4.75 L 0.390625 -4.75 L 0.46875 -4.828125 L 0.90625 -4.921875 L 0.984375 -5.859375 L 1.53125 -5.921875 L 1.53125 -4.921875 L 2.734375 -4.921875 L 2.734375 -4.75 L 1.53125 -4.75 L 1.53125 -1.453125 C 1.53125 -0.953125 1.632812 -0.613281 1.84375 -0.4375 C 2.0625 -0.269531 2.328125 -0.1875 2.640625 -0.1875 Z M 2.640625 -0.1875 "/></g></g></g><g fill="#ffffff" fill-opacity="1"><g transform="translate(34.424431, 93.870305)"><g><path d="M 3.546875 -0.375 L 3.515625 -0.375 C 2.921875 -0.09375 2.347656 0.046875 1.796875 0.046875 C 0.921875 0.046875 0.457031 -0.300781 0.40625 -1 C 0.394531 -1.039062 0.390625 -1.082031 0.390625 -1.125 C 0.390625 -1.632812 0.722656 -1.972656 1.390625 -2.140625 C 1.785156 -2.222656 2.492188 -2.320312 3.515625 -2.4375 L 3.515625 -3.3125 C 3.515625 -3.59375 3.484375 -3.828125 3.421875 -4.015625 C 3.359375 -4.210938 3.285156 -4.359375 3.203125 -4.453125 C 3.128906 -4.554688 3.03125 -4.632812 2.90625 -4.6875 C 2.738281 -4.75 2.554688 -4.78125 2.359375 -4.78125 C 2.171875 -4.78125 1.953125 -4.734375 1.703125 -4.640625 C 1.335938 -4.484375 1.015625 -4.289062 0.734375 -4.0625 L 0.703125 -3.296875 L 0.515625 -3.25 L 0.515625 -4.4375 L 0.609375 -4.46875 C 1.117188 -4.695312 1.507812 -4.832031 1.78125 -4.875 C 2.050781 -4.925781 2.25 -4.953125 2.375 -4.953125 C 2.5 -4.953125 2.617188 -4.945312 2.734375 -4.9375 C 2.847656 -4.9375 2.992188 -4.910156 3.171875 -4.859375 C 3.359375 -4.804688 3.519531 -4.734375 3.65625 -4.640625 C 3.789062 -4.546875 3.90625 -4.398438 4 -4.203125 C 4.101562 -4.015625 4.15625 -3.789062 4.15625 -3.53125 L 4.15625 -0.515625 C 4.15625 -0.304688 4.207031 -0.203125 4.3125 -0.203125 L 4.921875 -0.171875 L 4.90625 -0.03125 C 4.539062 0.0195312 4.210938 0.046875 3.921875 0.046875 C 3.847656 0.046875 3.765625 0.0078125 3.671875 -0.0625 C 3.585938 -0.144531 3.546875 -0.25 3.546875 -0.375 Z M 1.96875 -0.125 C 2.457031 -0.125 2.972656 -0.289062 3.515625 -0.625 L 3.515625 -2.25 C 2.535156 -2.21875 1.914062 -2.160156 1.65625 -2.078125 C 1.40625 -2.003906 1.234375 -1.878906 1.140625 -1.703125 C 1.046875 -1.523438 1 -1.351562 1 -1.1875 C 1 -1.15625 1 -1.117188 1 -1.078125 C 1.019531 -0.742188 1.117188 -0.5 1.296875 -0.34375 C 1.484375 -0.195312 1.707031 -0.125 1.96875 -0.125 Z M 1.96875 -0.125 "/></g></g></g><g fill="#ffffff" fill-opacity="1"><g transform="translate(39.741416, 93.870305)"><g><path d="M 1.890625 -4.53125 L 1.890625 -0.203125 L 2.625 -0.140625 C 2.625 -0.140625 2.617188 -0.09375 2.609375 0 L 0.640625 0.015625 C 0.640625 -0.046875 0.644531 -0.09375 0.65625 -0.125 L 1.15625 -0.203125 C 1.195312 -0.203125 1.226562 -0.226562 1.25 -0.28125 L 1.25 -4.609375 C 1.226562 -4.660156 1.207031 -4.6875 1.1875 -4.6875 L 0.59375 -4.703125 L 0.59375 -4.84375 C 0.957031 -4.894531 1.226562 -4.921875 1.40625 -4.921875 C 1.59375 -4.921875 1.71875 -4.878906 1.78125 -4.796875 C 1.851562 -4.710938 1.890625 -4.625 1.890625 -4.53125 Z M 1.546875 -6.25 C 1.410156 -6.25 1.304688 -6.289062 1.234375 -6.375 C 1.171875 -6.457031 1.140625 -6.566406 1.140625 -6.703125 C 1.140625 -6.835938 1.175781 -6.941406 1.25 -7.015625 C 1.320312 -7.097656 1.421875 -7.140625 1.546875 -7.140625 C 1.679688 -7.140625 1.789062 -7.097656 1.875 -7.015625 C 1.957031 -6.941406 2 -6.832031 2 -6.6875 C 2 -6.550781 1.957031 -6.441406 1.875 -6.359375 C 1.789062 -6.285156 1.679688 -6.25 1.546875 -6.25 Z M 1.546875 -6.25 "/></g></g></g><g fill="#ffffff" fill-opacity="1"><g transform="translate(42.858606, 93.870305)"><g><path d="M 0.640625 0.015625 L 0.65625 -0.125 L 1.15625 -0.203125 C 1.207031 -0.203125 1.238281 -0.234375 1.25 -0.296875 L 1.25 -7.046875 C 1.25 -7.109375 1.226562 -7.140625 1.1875 -7.140625 L 0.59375 -7.171875 L 0.59375 -7.3125 C 1.007812 -7.363281 1.296875 -7.390625 1.453125 -7.390625 C 1.609375 -7.390625 1.71875 -7.347656 1.78125 -7.265625 C 1.851562 -7.179688 1.890625 -7.085938 1.890625 -6.984375 L 1.890625 -0.203125 L 2.625 -0.140625 C 2.625 -0.140625 2.625 -0.09375 2.625 0 Z M 0.640625 0.015625 "/></g></g></g></svg>