<svg xmlns="http://www.w3.org/2000/svg" xmlns:xlink="http://www.w3.org/1999/xlink" width="53" zoomAndPan="magnify" viewBox="0 0 39.75 33.749998" height="45" preserveAspectRatio="xMidYMid meet" version="1.0"><defs><clipPath id="e87f2325cd"><path d="M 0.03125 0 L 37.992188 0 L 37.992188 32.757812 L 0.03125 32.757812 Z M 0.03125 0 " clip-rule="nonzero"/></clipPath><clipPath id="ed3f0b02e3"><path d="M 0.0234375 0 L 36 0 L 36 25 L 0.0234375 25 Z M 0.0234375 0 " clip-rule="nonzero"/></clipPath><clipPath id="8ab45c8118"><path d="M 0.03125 0 L 37.992188 0 L 37.992188 32.757812 L 0.03125 32.757812 Z M 0.03125 0 " clip-rule="nonzero"/></clipPath></defs><g clip-path="url(#e87f2325cd)"><path fill="#c8b39c" d="M 6.726562 5.117188 C 5.898438 5.632812 5.304688 6.460938 4.945312 7.609375 C 4.945312 7.617188 4.945312 7.628906 4.945312 7.636719 C 4.953125 7.675781 4.984375 7.695312 5.046875 7.695312 C 5.058594 7.691406 5.074219 7.691406 5.089844 7.6875 C 5.320312 7.601562 5.566406 7.511719 5.820312 7.421875 C 6.554688 7.171875 7.3125 6.992188 8.027344 6.695312 C 8.203125 6.621094 8.378906 6.539062 8.550781 6.449219 C 8.699219 6.367188 8.84375 6.28125 8.984375 6.1875 C 8.441406 6.714844 8.082031 7.417969 7.898438 8.300781 C 7.890625 8.332031 7.882812 8.363281 7.878906 8.398438 C 7.890625 8.40625 7.914062 8.410156 7.949219 8.40625 C 8.316406 8.367188 9.828125 7.589844 10.398438 7.191406 C 10.511719 7.109375 10.617188 7.03125 10.71875 6.949219 C 10.9375 6.769531 11.117188 6.585938 11.265625 6.394531 C 11.050781 6.925781 10.976562 7.554688 11.042969 8.289062 C 11.046875 8.398438 11.050781 8.496094 11.050781 8.578125 C 11.050781 8.691406 10.984375 8.980469 11.015625 9.105469 C 11.023438 9.136719 11.035156 9.15625 11.054688 9.164062 C 11.070312 9.167969 11.085938 9.171875 11.109375 9.167969 C 11.421875 9.125 12.347656 8.179688 12.523438 7.972656 C 12.578125 7.910156 12.628906 7.847656 12.675781 7.785156 C 12.910156 8.792969 13.136719 9.78125 13.347656 10.757812 C 12.632812 10.902344 11.851562 11.230469 11.207031 11.617188 C 10.191406 11.949219 9.3125 12.691406 8.570312 13.847656 C 8.449219 13.988281 8.328125 14.140625 8.210938 14.296875 C 8.199219 14.066406 8.1875 13.832031 8.167969 13.601562 C 8.546875 12.1875 8.601562 11.011719 8.332031 10.074219 C 8.136719 9.394531 7.167969 8.132812 6.496094 7.933594 C 6.472656 7.925781 6.453125 7.921875 6.433594 7.917969 C 6.421875 7.945312 6.414062 7.972656 6.402344 8 C 5.632812 10.191406 6.085938 12.167969 7.753906 13.933594 C 7.769531 14.125 7.777344 14.316406 7.78125 14.507812 C 7.578125 14.347656 7.371094 14.191406 7.164062 14.042969 C 6.429688 13.363281 5.753906 12.710938 5.132812 12.085938 C 4.5 11.425781 3.347656 11.222656 1.671875 11.480469 C 0.734375 11.828125 0.214844 12.097656 0.113281 12.289062 C 0.101562 12.308594 0.0976562 12.328125 0.09375 12.34375 C 0.101562 12.363281 0.109375 12.382812 0.121094 12.40625 C 0.257812 12.699219 0.777344 13.175781 1.671875 13.832031 C 3.128906 14.578125 4.828125 14.738281 6.765625 14.3125 C 6.976562 14.460938 7.1875 14.613281 7.394531 14.773438 C 7.074219 14.792969 6.753906 14.820312 6.441406 14.863281 C 2.769531 14.332031 0.632812 15.589844 0.0351562 18.632812 C 0.0273438 18.6875 0.0273438 18.730469 0.0351562 18.761719 C 0.046875 18.808594 0.0742188 18.835938 0.113281 18.847656 C 0.152344 18.859375 0.207031 18.851562 0.277344 18.828125 C 0.8125 18.648438 1.238281 18.542969 1.550781 18.503906 C 3.277344 18.167969 4.800781 17.125 6.113281 15.371094 C 6.484375 15.3125 6.859375 15.269531 7.246094 15.242188 C 7.03125 15.410156 6.824219 15.589844 6.625 15.78125 C 4.570312 16.875 3.242188 18.230469 2.628906 19.855469 C 2.085938 21.300781 2.351562 21.914062 2.394531 23.339844 C 2.410156 23.78125 2.398438 24.160156 2.359375 24.484375 C 2.351562 24.578125 2.367188 24.644531 2.398438 24.679688 C 2.421875 24.707031 2.457031 24.71875 2.503906 24.707031 C 2.546875 24.699219 2.601562 24.675781 2.664062 24.632812 C 3.382812 24.046875 3.964844 23.492188 4.410156 22.976562 C 6.230469 20.871094 5.746094 17.660156 7.011719 16.03125 C 7.242188 15.816406 7.488281 15.613281 7.746094 15.429688 C 7.726562 15.632812 7.710938 15.832031 7.695312 16.035156 C 5.648438 18.972656 5.683594 21.832031 7.804688 24.613281 C 7.851562 24.675781 7.894531 24.71875 7.9375 24.746094 C 7.976562 24.769531 8.015625 24.777344 8.050781 24.773438 C 8.117188 24.757812 8.179688 24.695312 8.234375 24.578125 C 9.132812 22.503906 9.492188 21.128906 9.371094 20.347656 C 9.199219 18.425781 8.785156 16.988281 8.132812 16.03125 C 8.148438 15.8125 8.167969 15.59375 8.191406 15.375 C 8.296875 15.453125 8.402344 15.53125 8.507812 15.609375 C 8.917969 18.277344 10.171875 20.023438 12.265625 20.851562 C 12.328125 20.871094 12.382812 20.859375 12.429688 20.816406 C 12.4375 20.808594 12.445312 20.800781 12.457031 20.789062 C 12.015625 21.535156 11.8125 22.398438 11.863281 23.457031 C 11.890625 24.070312 11.992188 24.449219 12.160156 24.601562 C 12.207031 24.640625 12.257812 24.664062 12.3125 24.671875 C 12.347656 24.675781 12.386719 24.671875 12.429688 24.664062 C 12.8125 24.359375 13.003906 24.210938 13.003906 24.210938 C 13.460938 23.820312 14.058594 23.640625 14.804688 23.671875 C 14.882812 23.671875 14.957031 23.671875 15.035156 23.667969 C 15.28125 24.355469 15.511719 25.082031 15.730469 25.851562 C 15.75 25.957031 15.84375 26.019531 15.945312 25.996094 C 15.988281 25.984375 16.023438 25.964844 16.050781 25.9375 C 17.308594 24.867188 18.558594 23.582031 19.800781 22.082031 C 20.921875 20.726562 22.03125 19.199219 23.136719 17.496094 C 23.132812 17.796875 23.128906 18.09375 23.125 18.394531 C 20.714844 23.117188 19.867188 26.523438 20.589844 28.609375 C 20.964844 29.6875 21.585938 29.941406 21.824219 31.328125 C 21.878906 31.660156 21.910156 32.023438 21.910156 32.40625 C 21.945312 32.542969 22.003906 32.644531 22.085938 32.703125 C 22.128906 32.738281 22.179688 32.757812 22.234375 32.769531 C 22.324219 32.78125 22.425781 32.769531 22.542969 32.730469 C 22.933594 32.328125 23.273438 31.96875 23.574219 31.660156 C 24.691406 30.5 25.492188 30 25.957031 28.304688 C 26.425781 26.601562 26.15625 24.570312 25.15625 22.207031 C 24.546875 20.800781 24.050781 19.554688 23.664062 18.808594 C 23.671875 18.195312 23.675781 17.757812 23.683594 17.144531 C 24.09375 17.289062 24.5 17.453125 24.898438 17.636719 C 25.097656 17.726562 25.28125 17.816406 25.460938 17.90625 C 27.058594 19.070312 26.777344 22.371094 29.535156 24.621094 C 30.136719 25.113281 30.828125 25.542969 31.617188 25.910156 C 33.007812 26.496094 32.625 27.800781 33.058594 28.035156 C 33.058594 28.035156 33.0625 28.035156 33.0625 28.035156 C 33.582031 28.308594 34.296875 25.679688 34.332031 25.199219 C 34.363281 24.734375 34.300781 24.3125 34.144531 23.929688 C 33.734375 23 33.078125 22.03125 32.167969 21.023438 C 31.363281 20.230469 30.707031 19.59375 30.046875 19.074219 C 28.84375 18.132812 27.632812 17.59375 25.511719 17.296875 C 25.382812 17.234375 25.25 17.171875 25.113281 17.109375 C 24.839844 16.984375 24.558594 16.867188 24.28125 16.757812 C 25.0625 16.496094 25.804688 16.242188 26.515625 16 C 26.582031 16.007812 26.652344 16.011719 26.722656 16.019531 C 26.804688 16.09375 26.886719 16.171875 26.976562 16.25 C 27.402344 16.632812 27.589844 17.113281 28.011719 17.476562 C 28.046875 17.507812 28.085938 17.539062 28.125 17.570312 C 28.136719 17.523438 28.148438 17.46875 28.167969 17.410156 C 28.226562 17.199219 28.320312 16.921875 28.453125 16.578125 C 28.511719 16.414062 28.5625 16.25 28.609375 16.089844 C 33.03125 16.011719 37.894531 14.285156 38.109375 11.089844 C 38.046875 11.09375 37.984375 11.09375 37.921875 11.09375 C 36.132812 11.078125 35.113281 10.574219 33.425781 11.050781 C 33.035156 11.160156 32.632812 11.300781 32.222656 11.472656 C 32.09375 11.367188 31.96875 11.265625 31.847656 11.160156 C 31.78125 11.105469 31.71875 11.054688 31.65625 11 C 32.488281 10.332031 33.054688 9.6875 33.355469 9.066406 C 33.441406 8.847656 33.527344 8.640625 33.617188 8.453125 C 34.617188 8.273438 35.824219 7.96875 35.753906 7.605469 C 35.695312 7.554688 35.636719 7.503906 35.582031 7.453125 C 35.253906 7.164062 34.96875 6.890625 34.675781 6.632812 C 34.675781 6.613281 34.667969 6.59375 34.664062 6.578125 C 34.644531 6.523438 34.613281 6.472656 34.566406 6.429688 C 34.492188 6.363281 34.386719 6.3125 34.242188 6.277344 C 33.921875 6.03125 33.570312 5.804688 33.132812 5.605469 C 32.601562 5.351562 32.015625 5.234375 31.371094 5.257812 C 30.078125 5.296875 28.550781 5.886719 26.796875 7.03125 C 26.40625 7.136719 26.015625 7.257812 25.621094 7.390625 C 25.820312 7.121094 26.019531 6.859375 26.214844 6.609375 C 27.464844 6.308594 28.496094 5.855469 29.3125 5.246094 C 29.773438 4.898438 30.167969 4.503906 30.488281 4.054688 C 30.828125 3.589844 30.839844 3.453125 31.027344 2.949219 C 31.066406 2.84375 31.113281 2.730469 31.167969 2.609375 C 31.269531 2.351562 31.316406 2.160156 31.304688 2.042969 C 31.296875 1.976562 31.273438 1.929688 31.230469 1.910156 C 31.191406 1.910156 31.152344 1.914062 31.113281 1.917969 C 30.0625 1.996094 29.164062 2.21875 28.421875 2.585938 C 26.988281 3.296875 26.132812 4.554688 25.851562 6.355469 C 25.601562 6.671875 25.351562 7.007812 25.09375 7.359375 C 25.027344 7.125 24.960938 6.898438 24.890625 6.675781 C 24.683594 5.035156 25.082031 3.695312 24.144531 2.203125 C 23.78125 1.628906 22.429688 0.609375 21.699219 0.710938 C 21.644531 0.71875 21.59375 0.730469 21.546875 0.75 C 21.542969 0.765625 21.539062 0.777344 21.535156 0.789062 C 21.398438 1.148438 21.316406 1.527344 21.289062 1.921875 C 21.191406 3.289062 21.511719 3.925781 22.367188 4.863281 C 22.777344 5.3125 23.242188 5.738281 23.761719 6.136719 L 24.441406 6.699219 C 24.503906 6.902344 24.566406 7.113281 24.628906 7.328125 C 24.480469 7.230469 24.332031 7.140625 24.179688 7.054688 C 23.410156 6.113281 22.621094 5.597656 21.816406 5.5 C 21.605469 5.472656 21.265625 5.503906 20.917969 5.585938 C 20.382812 5.355469 19.78125 5.304688 19.105469 5.492188 C 19.089844 5.527344 19.078125 5.5625 19.066406 5.601562 C 18.679688 6.796875 18.785156 8.125 19.382812 9.578125 C 18.898438 10.207031 18.542969 11.035156 18.527344 11.851562 C 18.523438 12.046875 18.546875 12.183594 18.589844 12.257812 C 18.617188 12.304688 18.652344 12.324219 18.695312 12.324219 C 18.714844 12.316406 18.734375 12.304688 18.757812 12.292969 C 18.898438 12.214844 19.101562 12.082031 19.363281 11.894531 C 19.679688 11.683594 19.964844 11.503906 20.222656 11.355469 C 20.246094 11.339844 20.269531 11.324219 20.292969 11.3125 C 20.59375 11.785156 20.9375 12.269531 21.324219 12.769531 C 21.355469 13.523438 21.613281 14.058594 21.773438 14.726562 C 21.699219 14.875 21.628906 15.019531 21.558594 15.167969 C 21.507812 15.144531 21.457031 15.117188 21.410156 15.09375 C 21.410156 15.09375 20.871094 14.648438 19.800781 13.761719 C 18.058594 12.28125 16.214844 10.914062 14.355469 10.691406 C 14.171875 10.667969 13.96875 10.671875 13.757812 10.691406 C 13.515625 9.582031 13.261719 8.449219 12.988281 7.296875 C 13.40625 6.476562 13.238281 5.730469 12.476562 5.058594 C 12.464844 5.023438 12.453125 4.988281 12.441406 4.949219 C 12.613281 4.914062 12.78125 4.878906 12.945312 4.851562 C 13.382812 4.890625 13.804688 5.140625 14.246094 5.410156 C 15.441406 6.144531 15.902344 6.203125 17.285156 6.125 C 17.652344 6.105469 17.992188 6.0625 18.3125 5.996094 C 18.316406 5.992188 18.320312 5.992188 18.324219 5.992188 C 18.359375 5.972656 18.355469 5.925781 18.308594 5.847656 C 18.292969 5.8125 18.265625 5.777344 18.234375 5.738281 C 17.121094 4.152344 15.425781 3.730469 13.144531 4.476562 C 13.019531 4.492188 12.890625 4.511719 12.765625 4.535156 C 12.957031 4.355469 13.148438 4.1875 13.339844 4.027344 C 14.6875 3.960938 15.730469 3.777344 16.476562 3.480469 C 17.28125 3.152344 17.390625 2.820312 17.984375 2.324219 C 18.0625 2.257812 18.140625 2.195312 18.21875 2.140625 C 18.347656 2.039062 18.433594 1.960938 18.476562 1.90625 C 18.523438 1.84375 18.515625 1.808594 18.449219 1.800781 C 18.429688 1.792969 18.410156 1.789062 18.390625 1.78125 C 16.058594 1.113281 14.285156 1.785156 13.082031 3.804688 C 12.832031 4.015625 12.582031 4.242188 12.332031 4.484375 C 12.269531 4.132812 12.183594 3.800781 12.070312 3.480469 C 12.042969 0.957031 10.867188 -0.28125 8.75 0.0546875 C 8.71875 0.0585938 8.691406 0.0625 8.660156 0.0664062 C 8.660156 0.0898438 8.65625 0.113281 8.65625 0.132812 C 8.570312 1.300781 9.085938 1.867188 9.722656 2.5 C 10.347656 3.117188 11.617188 3.492188 11.851562 3.875 C 11.914062 4.089844 11.96875 4.308594 12.007812 4.539062 C 11.554688 4.328125 11.097656 4.148438 10.636719 4 C 7.773438 2.636719 5.566406 2.820312 4.019531 4.546875 C 3.992188 4.582031 3.960938 4.617188 3.929688 4.652344 C 3.929688 4.667969 3.949219 4.683594 3.980469 4.695312 C 4.117188 4.742188 4.53125 4.730469 4.816406 4.808594 C 5.203125 4.917969 5.582031 5 5.964844 5.050781 C 6.21875 5.085938 6.472656 5.109375 6.726562 5.117188 Z M 25.507812 8.226562 C 25.617188 8.40625 25.726562 8.59375 25.832031 8.789062 C 26.152344 9.015625 26.449219 9.25 26.722656 9.492188 C 26.878906 9.3125 27.042969 9.136719 27.210938 8.972656 C 27.195312 8.9375 27.179688 8.90625 27.164062 8.875 C 26.632812 8.605469 26.078125 8.390625 25.507812 8.226562 Z M 25.019531 8.277344 C 25.175781 8.523438 25.324219 8.78125 25.46875 9.050781 C 25.363281 9.347656 25.269531 9.636719 25.1875 9.921875 C 25.160156 9.769531 25.125 9.617188 25.082031 9.464844 C 25.011719 9.199219 24.917969 8.933594 24.808594 8.660156 C 24.875 8.527344 24.949219 8.402344 25.019531 8.277344 Z M 24.445312 8.402344 C 24.0625 8.773438 23.683594 8.984375 23.328125 9.175781 C 23.316406 9.121094 23.300781 9.070312 23.289062 9.015625 C 23.316406 8.96875 23.347656 8.917969 23.375 8.867188 C 23.480469 8.675781 23.578125 8.46875 23.667969 8.234375 C 23.960938 8.175781 24.265625 8.132812 24.578125 8.109375 C 24.5625 8.152344 24.550781 8.195312 24.535156 8.238281 C 24.503906 8.292969 24.472656 8.347656 24.445312 8.402344 Z M 24.332031 7.671875 C 23.984375 7.707031 23.652344 7.761719 23.332031 7.839844 C 23.183594 7.847656 23.035156 7.859375 22.898438 7.875 C 22.84375 7.742188 22.78125 7.613281 22.722656 7.492188 C 23.167969 7.472656 23.574219 7.433594 23.851562 7.386719 C 24.011719 7.476562 24.171875 7.570312 24.332031 7.671875 Z M 28.792969 12.84375 C 29.179688 12.632812 29.539062 12.429688 29.878906 12.222656 C 30.007812 12.316406 30.136719 12.398438 30.265625 12.476562 C 29.808594 12.75 29.34375 13.050781 28.882812 13.382812 C 28.863281 13.199219 28.832031 13.019531 28.792969 12.84375 Z M 25.445312 14.460938 C 25.320312 14.515625 25.191406 14.570312 25.058594 14.625 C 24.957031 14.792969 24.859375 14.964844 24.753906 15.148438 C 24.550781 15.507812 24.34375 15.863281 24.117188 16.210938 C 24.839844 15.96875 25.53125 15.734375 26.195312 15.503906 C 25.898438 15.1875 25.652344 14.859375 25.445312 14.460938 Z M 24.914062 12.625 C 24.65625 13.3125 24.449219 14.054688 24.289062 14.855469 C 24.074219 15.230469 23.859375 15.601562 23.625 15.960938 C 23.570312 15.40625 23.511719 14.875 23.441406 14.363281 C 23.457031 14.289062 23.472656 14.214844 23.484375 14.140625 C 23.914062 13.738281 24.28125 13.460938 24.574219 13.09375 C 24.699219 12.9375 24.808594 12.765625 24.90625 12.5625 C 24.910156 12.582031 24.910156 12.605469 24.914062 12.625 Z M 22.945312 14.757812 C 22.726562 15.050781 22.535156 15.320312 22.132812 15.484375 C 22.460938 15.679688 22.785156 15.890625 23.089844 16.121094 C 23.046875 15.652344 23 15.195312 22.945312 14.757812 Z M 19.386719 20.992188 C 18.996094 21.550781 18.582031 22.019531 18.140625 22.402344 C 17.699219 23.175781 17.238281 23.964844 16.761719 24.765625 C 17.6875 23.898438 18.601562 22.914062 19.515625 21.808594 C 20.679688 20.402344 21.839844 18.800781 22.988281 17.003906 C 22.652344 16.988281 22.355469 16.984375 22.082031 17 C 20.980469 17.230469 20.175781 19.875 19.386719 20.992188 Z M 22.539062 16.417969 C 22.078125 16.410156 21.683594 16.445312 21.316406 16.527344 C 21.378906 16.402344 21.441406 16.28125 21.5 16.160156 C 21.550781 16.058594 21.601562 15.960938 21.648438 15.863281 C 21.953125 16.03125 22.253906 16.214844 22.539062 16.417969 Z M 21.152344 15.984375 C 21.203125 15.882812 21.253906 15.785156 21.304688 15.683594 C 20.601562 15.445312 19.640625 15.429688 18.421875 15.632812 C 17.070312 15.828125 15.84375 15.851562 14.753906 15.699219 C 14.769531 15.792969 14.785156 15.882812 14.800781 15.976562 C 14.945312 16.78125 15.082031 17.574219 15.207031 18.355469 C 16.882812 17.433594 19.207031 16.632812 20.859375 16.570312 C 20.957031 16.371094 21.058594 16.179688 21.152344 15.984375 Z M 15.914062 23.5625 C 16.421875 23.449219 16.902344 23.253906 17.363281 22.976562 C 16.949219 23.691406 16.519531 24.417969 16.078125 25.15625 C 16.027344 24.628906 15.972656 24.097656 15.914062 23.5625 Z M 14.070312 19.074219 C 13.898438 19.203125 13.734375 19.332031 13.582031 19.46875 C 13.304688 19 13.019531 18.566406 12.71875 18.164062 C 12.234375 17.511719 11.71875 16.941406 11.171875 16.464844 C 10.863281 16.144531 10.503906 15.875 10.09375 15.652344 C 9.542969 15.304688 8.96875 15.03125 8.367188 14.839844 C 8.527344 14.609375 8.6875 14.394531 8.859375 14.195312 C 9.652344 14.273438 10.367188 14.242188 11.011719 14.101562 C 11.917969 14.875 13.019531 15.382812 14.320312 15.628906 C 14.347656 15.789062 14.378906 15.949219 14.40625 16.109375 C 14.554688 16.945312 14.695312 17.765625 14.824219 18.574219 C 14.546875 18.738281 14.292969 18.90625 14.070312 19.074219 Z M 11.375 5.117188 C 11.472656 5.054688 11.574219 4.992188 11.675781 4.9375 C 11.207031 4.894531 10.757812 4.898438 10.316406 4.941406 C 10.214844 5.078125 10.101562 5.210938 9.988281 5.339844 C 9.871094 5.46875 9.746094 5.589844 9.617188 5.707031 C 10.105469 5.414062 10.691406 5.214844 11.375 5.117188 Z M 11.691406 5.515625 C 11.707031 5.445312 11.71875 5.371094 11.726562 5.300781 C 11.828125 5.238281 11.929688 5.179688 12.03125 5.125 C 12.046875 5.183594 12.0625 5.238281 12.078125 5.296875 C 11.902344 5.441406 11.75 5.597656 11.617188 5.773438 C 11.648438 5.6875 11.675781 5.601562 11.691406 5.515625 Z M 11.203125 4.566406 C 10.921875 4.558594 10.640625 4.566406 10.367188 4.589844 C 10.207031 4.566406 10.050781 4.546875 9.894531 4.535156 C 10.054688 4.46875 10.210938 4.394531 10.367188 4.316406 C 10.386719 4.308594 10.402344 4.300781 10.421875 4.289062 C 10.683594 4.371094 10.945312 4.460938 11.203125 4.566406 Z M 25.761719 7.828125 C 26.230469 7.664062 26.695312 7.523438 27.160156 7.410156 C 27.558594 7.644531 27.96875 7.84375 28.378906 8.011719 C 28.132812 8.179688 27.898438 8.359375 27.671875 8.550781 C 27.550781 8.511719 27.425781 8.46875 27.289062 8.429688 C 26.796875 8.1875 26.285156 7.984375 25.761719 7.828125 Z M 25.761719 7.828125 " fill-opacity="1" fill-rule="evenodd"/></g><g clip-path="url(#ed3f0b02e3)"><path fill="#f2be70" d="M 23.667969 8.234375 C 23.507812 8.65625 23.316406 9 23.101562 9.296875 C 23.523438 9.070312 23.980469 8.855469 24.445312 8.402344 C 24.5 8.300781 24.550781 8.203125 24.609375 8.109375 C 24.28125 8.132812 23.96875 8.171875 23.667969 8.234375 Z M 25.1875 9.921875 C 25.113281 9.515625 24.984375 9.09375 24.808594 8.660156 C 24.875 8.527344 24.949219 8.402344 25.019531 8.277344 C 25.175781 8.523438 25.324219 8.78125 25.46875 9.050781 C 25.363281 9.347656 25.269531 9.636719 25.1875 9.921875 Z M 21.695312 0.710938 C 21.6875 0.710938 21.683594 0.714844 21.675781 0.714844 C 21.683594 0.714844 21.6875 0.710938 21.695312 0.710938 Z M 31.113281 1.917969 C 30.261719 2.167969 29.339844 2.777344 28.359375 3.707031 C 27.324219 4.6875 26.214844 6.027344 25.042969 7.671875 C 24.523438 5.832031 23.96875 4.316406 23.375 3.125 C 22.847656 2.066406 22.289062 1.257812 21.699219 0.710938 C 22.429688 0.609375 23.78125 1.628906 24.144531 2.203125 C 25.082031 3.695312 24.683594 5.035156 24.890625 6.675781 C 24.960938 6.898438 25.027344 7.125 25.09375 7.359375 C 25.351562 7.007812 25.601562 6.671875 25.851562 6.355469 C 26.132812 4.554688 26.988281 3.296875 28.421875 2.585938 C 29.164062 2.21875 30.0625 1.996094 31.113281 1.917969 Z M 35.582031 7.453125 C 35.207031 7.121094 34.886719 6.808594 34.546875 6.523438 C 34.144531 6.179688 33.714844 5.871094 33.132812 5.605469 C 32.601562 5.351562 32.015625 5.234375 31.371094 5.257812 C 30.078125 5.296875 28.550781 5.886719 26.796875 7.03125 C 26.40625 7.136719 26.015625 7.257812 25.621094 7.390625 C 25.820312 7.121094 26.019531 6.859375 26.214844 6.609375 C 27.464844 6.308594 28.496094 5.855469 29.3125 5.246094 C 29.773438 4.898438 30.167969 4.503906 30.488281 4.054688 C 30.828125 3.589844 30.839844 3.453125 31.027344 2.949219 C 31.066406 2.84375 31.113281 2.730469 31.167969 2.609375 C 31.269531 2.351562 31.316406 2.160156 31.304688 2.042969 C 30.4375 2.257812 29.488281 2.871094 28.46875 3.835938 C 27.460938 4.789062 26.382812 6.085938 25.238281 7.679688 C 27.0625 6.996094 28.871094 6.625 30.636719 6.589844 C 32.335938 6.558594 33.992188 6.835938 35.582031 7.453125 Z M 35.746094 7.695312 C 35.746094 7.691406 35.75 7.683594 35.75 7.679688 C 35.75 7.683594 35.746094 7.691406 35.746094 7.695312 Z M 33.351562 14.570312 C 33.113281 13.839844 32.855469 13.300781 32.519531 12.824219 C 32.136719 12.28125 31.65625 11.832031 30.988281 11.292969 C 30.800781 11.140625 30.605469 10.980469 30.40625 10.8125 C 29.5625 10.117188 28.617188 9.335938 27.777344 8.851562 C 27.359375 8.609375 26.921875 8.398438 26.464844 8.21875 C 26.089844 8.074219 25.699219 7.949219 25.296875 7.84375 C 27.105469 7.164062 28.894531 6.796875 30.640625 6.761719 C 32.394531 6.730469 34.105469 7.03125 35.742188 7.703125 C 35.527344 8.222656 32.808594 8.601562 32.378906 8.632812 C 30.539062 8.773438 28.800781 8.367188 27.160156 7.410156 C 26.695312 7.523438 26.230469 7.664062 25.761719 7.828125 C 26.285156 7.984375 26.796875 8.1875 27.289062 8.429688 C 29.539062 9.105469 30.167969 9.742188 31.847656 11.160156 C 32.148438 11.417969 32.472656 11.679688 32.816406 11.949219 C 33.011719 12.074219 33.15625 12.277344 33.261719 12.550781 C 33.53125 13.28125 33.382812 13.875 33.351562 14.570312 Z M 33.347656 14.800781 L 33.347656 14.796875 Z M 28.167969 17.410156 C 27.898438 15.414062 27.523438 13.640625 27.042969 12.097656 C 26.542969 10.484375 25.929688 9.117188 25.199219 7.992188 C 25.617188 8.101562 26.019531 8.230469 26.40625 8.382812 C 26.855469 8.558594 27.289062 8.765625 27.699219 9.003906 C 28.527344 9.480469 29.46875 10.257812 30.304688 10.949219 C 30.507812 11.117188 30.707031 11.28125 30.890625 11.429688 C 31.542969 11.957031 32.015625 12.398438 32.386719 12.925781 C 32.726562 13.410156 32.988281 13.964844 33.234375 14.734375 L 33.257812 14.753906 C 32.78125 14.320312 32.632812 13.871094 32.074219 13.480469 C 31.359375 12.976562 30.578125 12.746094 29.800781 12.164062 C 28.6875 11.335938 27.808594 10.238281 27.164062 8.875 C 26.632812 8.605469 26.078125 8.390625 25.507812 8.226562 C 25.617188 8.40625 25.726562 8.59375 25.832031 8.789062 C 27.398438 9.898438 28.371094 11.179688 28.746094 12.636719 C 29.050781 13.832031 28.957031 15.148438 28.453125 16.578125 C 28.320312 16.921875 28.226562 17.199219 28.167969 17.410156 Z M 21.992188 15.535156 C 22.742188 15.296875 22.847656 14.753906 23.355469 14.261719 C 24.027344 13.609375 24.558594 13.300781 24.90625 12.5625 C 24.9375 12.894531 24.996094 13.21875 25.085938 13.527344 C 25.449219 14.808594 26.054688 15.425781 26.976562 16.25 C 27.40625 16.632812 27.589844 17.121094 28.019531 17.488281 L 28.011719 17.476562 C 27.742188 15.472656 27.367188 13.699219 26.890625 12.152344 C 26.382812 10.515625 25.757812 9.136719 25.011719 8.015625 C 24.382812 9.070312 23.792969 10.25 23.257812 11.59375 C 22.785156 12.773438 22.359375 14.078125 21.992188 15.535156 Z M 21.882812 15.492188 C 21.882812 15.515625 21.886719 15.542969 21.886719 15.566406 C 21.886719 15.542969 21.882812 15.515625 21.882812 15.492188 Z M 21.878906 15.421875 C 21.878906 15.445312 21.882812 15.46875 21.882812 15.492188 C 21.882812 15.46875 21.878906 15.445312 21.878906 15.421875 Z M 21.871094 15.351562 C 21.875 15.371094 21.875 15.394531 21.878906 15.417969 C 21.875 15.394531 21.875 15.371094 21.871094 15.351562 Z M 18.757812 12.292969 C 18.898438 12.214844 19.101562 12.082031 19.363281 11.894531 C 19.679688 11.683594 19.964844 11.503906 20.222656 11.355469 C 20.496094 11.195312 20.761719 11.050781 21.023438 10.90625 C 21.328125 10.738281 21.625 10.574219 21.902344 10.394531 C 21.785156 10.601562 21.679688 10.84375 21.585938 11.140625 C 20.910156 13.261719 21.742188 13.898438 21.871094 15.339844 C 22.234375 13.933594 22.648438 12.671875 23.105469 11.527344 C 23.625 10.21875 24.203125 9.066406 24.8125 8.027344 L 24.777344 8.042969 L 24.84375 7.953125 C 23.460938 8.007812 22.28125 8.40625 21.273438 9.132812 C 20.273438 9.855469 19.441406 10.910156 18.757812 12.292969 Z M 19.59375 6.492188 C 20.460938 6.378906 21.339844 6.417969 22.210938 6.628906 C 23.074219 6.839844 23.929688 7.21875 24.753906 7.785156 C 23.378906 7.855469 22.195312 8.257812 21.179688 8.988281 C 20.144531 9.738281 19.289062 10.832031 18.589844 12.257812 C 18.546875 12.183594 18.523438 12.046875 18.527344 11.851562 C 18.542969 11.007812 18.925781 10.148438 19.4375 9.507812 C 19.96875 8.84375 20.699219 8.367188 21.625 8.082031 C 22.042969 7.96875 22.613281 7.886719 23.332031 7.839844 C 23.652344 7.761719 23.984375 7.707031 24.332031 7.671875 C 24.171875 7.570312 24.011719 7.476562 23.851562 7.386719 C 23.042969 7.519531 21.097656 7.601562 20.347656 7.261719 C 19.984375 7.097656 19.734375 6.839844 19.59375 6.492188 Z M 19.589844 6.351562 C 19.585938 6.355469 19.585938 6.359375 19.585938 6.363281 Z M 19.601562 6.320312 C 19.597656 6.328125 19.597656 6.332031 19.59375 6.339844 C 19.597656 6.332031 19.597656 6.328125 19.601562 6.320312 Z M 13.90625 11.582031 C 12.894531 11.570312 11.804688 11.867188 10.800781 12.394531 C 9.71875 12.960938 8.738281 13.796875 8.0625 14.800781 C 8.042969 13.410156 7.898438 12.097656 7.609375 10.882812 C 7.355469 9.824219 6.988281 8.835938 6.492188 7.933594 C 7.167969 8.132812 8.136719 9.394531 8.332031 10.074219 C 8.601562 11.011719 8.546875 12.1875 8.167969 13.601562 C 8.1875 13.832031 8.199219 14.066406 8.210938 14.296875 C 8.328125 14.140625 8.449219 13.988281 8.570312 13.847656 C 9.769531 11.976562 11.332031 11.183594 13.25 11.472656 Z M 12.503906 20.714844 C 11.914062 19.433594 11.257812 18.289062 10.527344 17.320312 C 9.792969 16.347656 8.980469 15.550781 8.085938 14.964844 C 8.75 13.933594 9.746094 13.074219 10.851562 12.496094 C 11.917969 11.9375 13.085938 11.640625 14.148438 11.703125 C 14.023438 12.039062 13.015625 13.203125 12.34375 13.59375 C 11.414062 14.128906 10.25 14.332031 8.859375 14.195312 C 8.671875 14.417969 8.492188 14.65625 8.316406 14.914062 C 8.402344 14.972656 8.488281 15.035156 8.574219 15.09375 C 11.21875 15.695312 12.546875 17.523438 12.554688 20.582031 C 12.539062 20.632812 12.523438 20.675781 12.503906 20.714844 Z M 8.050781 24.773438 C 8.117188 24.761719 8.179688 24.695312 8.234375 24.578125 C 9.132812 22.503906 9.492188 21.128906 9.371094 20.347656 C 9.199219 18.425781 8.785156 16.988281 8.132812 16.03125 C 8.148438 15.8125 8.167969 15.59375 8.191406 15.375 C 8.296875 15.453125 8.402344 15.53125 8.507812 15.609375 C 8.917969 18.277344 10.171875 20.023438 12.265625 20.851562 C 12.328125 20.871094 12.382812 20.859375 12.429688 20.816406 C 11.839844 19.523438 11.179688 18.367188 10.441406 17.390625 C 9.722656 16.4375 8.929688 15.65625 8.054688 15.078125 C 7.871094 16.898438 7.773438 18.699219 7.78125 20.441406 C 7.789062 21.941406 7.875 23.394531 8.050781 24.769531 Z M 2.503906 24.707031 C 2.546875 24.699219 2.601562 24.675781 2.664062 24.632812 C 3.382812 24.046875 3.964844 23.492188 4.410156 22.976562 C 6.230469 20.871094 5.746094 17.660156 7.011719 16.03125 C 7.242188 15.816406 7.488281 15.613281 7.746094 15.429688 C 7.726562 15.632812 7.710938 15.832031 7.695312 16.035156 C 5.648438 18.972656 5.683594 21.832031 7.804688 24.613281 C 7.851562 24.675781 7.898438 24.71875 7.941406 24.746094 L 7.9375 24.746094 C 7.765625 23.378906 7.679688 21.933594 7.671875 20.441406 C 7.664062 18.703125 7.761719 16.902344 7.945312 15.089844 C 6.695312 15.894531 5.5625 17.136719 4.621094 18.800781 C 3.722656 20.386719 2.996094 22.359375 2.503906 24.707031 Z M 0.113281 18.847656 C 0.152344 18.859375 0.207031 18.851562 0.277344 18.828125 C 0.8125 18.648438 1.238281 18.542969 1.550781 18.503906 C 3.277344 18.167969 4.800781 17.125 6.113281 15.371094 C 6.484375 15.3125 6.859375 15.269531 7.246094 15.242188 C 7.03125 15.410156 6.824219 15.589844 6.625 15.78125 C 4.570312 16.875 3.242188 18.230469 2.628906 19.855469 C 2.085938 21.300781 2.351562 21.914062 2.394531 23.339844 C 2.410156 23.78125 2.398438 24.160156 2.359375 24.484375 C 2.351562 24.585938 2.367188 24.652344 2.40625 24.6875 C 2.402344 24.683594 2.398438 24.683594 2.398438 24.679688 C 2.894531 22.320312 3.621094 20.339844 4.527344 18.742188 C 5.460938 17.09375 6.578125 15.859375 7.808594 15.042969 C 6.085938 15.089844 4.5625 15.433594 3.265625 16.074219 C 1.984375 16.703125 0.929688 17.628906 0.113281 18.847656 Z M 0.121094 12.40625 C 1.390625 12.226562 2.640625 12.3125 3.882812 12.691406 C 5.203125 13.097656 6.523438 13.832031 7.855469 14.929688 C 6.09375 14.972656 4.542969 15.316406 3.21875 15.96875 C 1.929688 16.605469 0.859375 17.535156 0.0351562 18.761719 C 0.0273438 18.730469 0.0273438 18.6875 0.0351562 18.632812 C 0.632812 15.589844 2.769531 14.332031 6.441406 14.863281 C 6.753906 14.820312 7.074219 14.792969 7.394531 14.773438 C 7.1875 14.613281 6.976562 14.460938 6.765625 14.3125 C 4.828125 14.738281 3.128906 14.578125 1.671875 13.832031 C 0.777344 13.175781 0.257812 12.699219 0.121094 12.40625 Z M 7.753906 13.933594 C 7.769531 14.125 7.777344 14.316406 7.78125 14.507812 C 7.578125 14.347656 7.371094 14.191406 7.164062 14.042969 C 6.429688 13.363281 5.753906 12.710938 5.132812 12.085938 C 4.5 11.425781 3.347656 11.222656 1.671875 11.480469 C 0.734375 11.828125 0.214844 12.097656 0.113281 12.289062 C 1.398438 12.109375 2.65625 12.199219 3.910156 12.582031 C 5.257812 12.996094 6.597656 13.746094 7.953125 14.863281 C 7.9375 13.460938 7.796875 12.136719 7.5 10.910156 C 7.25 9.863281 6.890625 8.890625 6.402344 8 C 5.636719 10.191406 6.085938 12.167969 7.753906 13.933594 Z M 24.441406 6.699219 C 24.503906 6.902344 24.566406 7.113281 24.628906 7.328125 C 24.480469 7.230469 24.332031 7.140625 24.179688 7.054688 C 23.410156 6.113281 22.621094 5.597656 21.816406 5.5 C 21.273438 5.433594 19.882812 5.742188 19.601562 6.320312 C 20.480469 6.203125 21.367188 6.246094 22.25 6.460938 C 23.136719 6.679688 24.019531 7.070312 24.867188 7.65625 C 24.355469 5.855469 23.8125 4.371094 23.230469 3.207031 C 22.695312 2.128906 22.128906 1.324219 21.535156 0.789062 L 21.546875 0.75 C 21.40625 1.125 21.316406 1.515625 21.289062 1.921875 C 21.191406 3.289062 21.511719 3.925781 22.367188 4.863281 C 22.777344 5.3125 23.242188 5.738281 23.761719 6.136719 L 24.441406 6.699219 " fill-opacity="1" fill-rule="evenodd"/></g><g clip-path="url(#8ab45c8118)"><path fill="#d07841" d="M 28.882812 14.746094 C 28.875 14.8125 28.867188 14.875 28.859375 14.9375 C 30.03125 14.511719 31.148438 14.09375 32.175781 13.699219 C 32.214844 13.683594 32.253906 13.667969 32.292969 13.652344 C 32.246094 13.609375 32.195312 13.570312 32.140625 13.527344 C 32.132812 13.53125 32.125 13.535156 32.117188 13.535156 C 31.113281 13.921875 30.027344 14.332031 28.882812 14.746094 Z M 27.445312 13.539062 C 27.320312 13.039062 27.1875 12.558594 27.042969 12.097656 C 27.03125 12.058594 27.019531 12.023438 27.007812 11.988281 C 26.992188 11.925781 26.972656 11.867188 26.953125 11.804688 C 26.746094 11.179688 26.527344 10.589844 26.285156 10.039062 C 25.957031 9.285156 25.59375 8.601562 25.199219 7.992188 C 25.617188 8.101562 26.019531 8.230469 26.40625 8.382812 C 26.738281 8.511719 27.058594 8.65625 27.367188 8.820312 C 27.480469 8.878906 27.589844 8.941406 27.699219 9.003906 C 28.101562 9.234375 28.527344 9.539062 28.960938 9.867188 C 29.003906 9.902344 29.050781 9.9375 29.09375 9.972656 C 29.507812 10.289062 29.917969 10.628906 30.304688 10.949219 C 30.507812 11.117188 30.707031 11.28125 30.890625 11.429688 C 30.921875 11.453125 30.953125 11.480469 30.984375 11.503906 C 31.128906 11.625 31.265625 11.738281 31.394531 11.851562 C 31.796875 12.210938 32.117188 12.546875 32.386719 12.925781 C 32.480469 13.054688 32.5625 13.191406 32.644531 13.332031 C 32.671875 13.382812 32.699219 13.433594 32.726562 13.484375 C 32.914062 13.835938 33.078125 14.242188 33.234375 14.734375 C 33.269531 14.765625 33.308594 14.800781 33.347656 14.835938 C 33.347656 14.742188 33.351562 14.65625 33.351562 14.570312 C 33.207031 14.128906 33.054688 13.753906 32.882812 13.421875 C 32.855469 13.371094 32.828125 13.320312 32.800781 13.273438 C 32.710938 13.113281 32.621094 12.964844 32.519531 12.824219 C 32.253906 12.449219 31.945312 12.121094 31.558594 11.773438 C 31.421875 11.652344 31.28125 11.53125 31.125 11.402344 C 31.082031 11.367188 31.035156 11.332031 30.988281 11.292969 C 30.800781 11.140625 30.605469 10.980469 30.40625 10.8125 C 30.027344 10.5 29.628906 10.171875 29.226562 9.859375 C 29.183594 9.824219 29.136719 9.789062 29.089844 9.753906 C 28.644531 9.410156 28.195312 9.09375 27.777344 8.851562 C 27.6875 8.800781 27.59375 8.746094 27.503906 8.699219 C 27.167969 8.519531 26.824219 8.359375 26.464844 8.21875 C 26.089844 8.074219 25.699219 7.949219 25.296875 7.84375 C 27.105469 7.164062 28.894531 6.796875 30.640625 6.761719 C 30.777344 6.757812 30.917969 6.757812 31.054688 6.761719 C 31.804688 6.769531 32.546875 6.839844 33.277344 6.976562 C 33.367188 6.992188 33.460938 7.011719 33.550781 7.03125 C 33.84375 7.09375 34.136719 7.164062 34.425781 7.246094 C 34.871094 7.375 35.308594 7.527344 35.742188 7.703125 C 35.753906 7.671875 35.761719 7.640625 35.753906 7.605469 C 35.695312 7.554688 35.636719 7.503906 35.582031 7.453125 C 35.234375 7.320312 34.882812 7.203125 34.53125 7.097656 C 34.292969 7.027344 34.050781 6.96875 33.808594 6.910156 C 33.71875 6.890625 33.625 6.871094 33.53125 6.851562 C 32.902344 6.722656 32.265625 6.640625 31.621094 6.605469 C 31.296875 6.589844 30.96875 6.585938 30.636719 6.589844 C 28.871094 6.625 27.0625 6.996094 25.238281 7.679688 C 26.382812 6.085938 27.460938 4.789062 28.46875 3.835938 C 29.488281 2.871094 30.4375 2.257812 31.304688 2.042969 C 31.296875 1.976562 31.273438 1.929688 31.230469 1.910156 C 31.191406 1.910156 31.152344 1.914062 31.113281 1.917969 C 30.261719 2.167969 29.339844 2.777344 28.359375 3.707031 C 27.324219 4.6875 26.214844 6.027344 25.042969 7.671875 C 24.523438 5.832031 23.96875 4.316406 23.375 3.125 C 22.847656 2.066406 22.289062 1.257812 21.699219 0.710938 C 21.644531 0.71875 21.59375 0.730469 21.546875 0.75 L 21.535156 0.789062 C 22.128906 1.324219 22.695312 2.128906 23.230469 3.207031 C 23.8125 4.371094 24.355469 5.855469 24.867188 7.65625 C 24.019531 7.070312 23.136719 6.679688 22.25 6.460938 C 22.167969 6.441406 22.085938 6.421875 22.007812 6.40625 C 21.410156 6.28125 20.8125 6.238281 20.214844 6.265625 C 20.140625 6.269531 20.066406 6.273438 19.988281 6.277344 C 19.859375 6.289062 19.730469 6.300781 19.601562 6.320312 C 19.585938 6.351562 19.574219 6.382812 19.566406 6.417969 C 19.574219 6.441406 19.585938 6.46875 19.59375 6.492188 C 19.78125 6.46875 19.96875 6.449219 20.15625 6.441406 C 20.226562 6.4375 20.300781 6.433594 20.375 6.429688 C 20.976562 6.417969 21.582031 6.476562 22.183594 6.621094 C 22.191406 6.625 22.203125 6.625 22.210938 6.628906 C 23.070312 6.835938 23.921875 7.214844 24.742188 7.773438 C 24.746094 7.777344 24.75 7.78125 24.753906 7.785156 C 24.746094 7.785156 24.738281 7.785156 24.730469 7.785156 C 24.109375 7.820312 23.53125 7.921875 22.984375 8.089844 C 22.558594 8.222656 22.152344 8.394531 21.769531 8.613281 C 21.722656 8.640625 21.675781 8.667969 21.628906 8.695312 C 21.476562 8.785156 21.328125 8.882812 21.179688 8.988281 C 20.660156 9.367188 20.1875 9.828125 19.753906 10.375 C 19.324219 10.917969 18.9375 11.546875 18.589844 12.257812 C 18.617188 12.304688 18.652344 12.324219 18.695312 12.324219 C 18.714844 12.316406 18.734375 12.304688 18.757812 12.292969 C 19.085938 11.632812 19.445312 11.046875 19.839844 10.535156 C 20.273438 9.976562 20.75 9.511719 21.273438 9.132812 C 21.410156 9.03125 21.554688 8.9375 21.699219 8.851562 C 21.746094 8.824219 21.792969 8.796875 21.839844 8.769531 C 22.21875 8.554688 22.621094 8.378906 23.046875 8.25 C 23.542969 8.097656 24.070312 8 24.632812 7.964844 C 24.703125 7.957031 24.773438 7.953125 24.84375 7.953125 L 24.777344 8.042969 L 24.8125 8.027344 C 24.605469 8.375 24.40625 8.738281 24.210938 9.113281 C 23.988281 9.535156 23.773438 9.976562 23.566406 10.441406 C 23.40625 10.789062 23.253906 11.152344 23.105469 11.527344 C 23.027344 11.726562 22.949219 11.925781 22.871094 12.132812 C 22.835938 12.230469 22.800781 12.328125 22.765625 12.425781 C 22.679688 12.660156 22.597656 12.898438 22.515625 13.140625 C 22.433594 13.390625 22.351562 13.644531 22.273438 13.902344 C 22.136719 14.363281 22 14.839844 21.875 15.335938 C 21.871094 15.339844 21.871094 15.339844 21.871094 15.339844 C 21.875 15.359375 21.875 15.378906 21.875 15.402344 C 21.882812 15.453125 21.882812 15.511719 21.886719 15.566406 C 21.921875 15.558594 21.957031 15.546875 21.992188 15.535156 C 22 15.496094 22.011719 15.460938 22.019531 15.421875 C 22.082031 15.179688 22.144531 14.945312 22.207031 14.714844 C 22.273438 14.488281 22.335938 14.265625 22.402344 14.042969 C 22.539062 13.59375 22.679688 13.160156 22.824219 12.742188 C 22.863281 12.640625 22.898438 12.539062 22.933594 12.441406 C 23.039062 12.152344 23.144531 11.867188 23.257812 11.59375 C 23.367188 11.308594 23.484375 11.03125 23.601562 10.765625 C 24.042969 9.757812 24.515625 8.847656 25.011719 8.015625 C 25.015625 8.019531 25.019531 8.023438 25.023438 8.03125 C 25.445312 8.667969 25.828125 9.390625 26.175781 10.195312 C 26.40625 10.738281 26.625 11.320312 26.824219 11.941406 C 26.84375 12 26.863281 12.0625 26.878906 12.125 C 26.882812 12.132812 26.886719 12.140625 26.890625 12.152344 C 27.035156 12.617188 27.167969 13.105469 27.292969 13.609375 C 27.363281 13.886719 27.425781 14.167969 27.488281 14.453125 C 27.542969 14.695312 27.59375 14.945312 27.640625 15.195312 C 27.652344 15.253906 27.664062 15.308594 27.671875 15.367188 C 27.71875 15.601562 27.761719 15.84375 27.800781 16.085938 C 27.878906 16.535156 27.945312 17 28.011719 17.476562 C 28.046875 17.507812 28.085938 17.539062 28.125 17.570312 C 28.136719 17.523438 28.148438 17.46875 28.167969 17.410156 C 28.105469 16.960938 28.039062 16.519531 27.96875 16.089844 C 27.921875 15.824219 27.878906 15.566406 27.828125 15.308594 C 27.816406 15.253906 27.808594 15.195312 27.796875 15.140625 C 27.742188 14.867188 27.6875 14.601562 27.632812 14.335938 C 27.570312 14.066406 27.507812 13.796875 27.445312 13.539062 Z M 28.289062 10.703125 C 28.199219 10.789062 28.105469 10.878906 28.011719 10.972656 C 27.980469 10.925781 27.949219 10.878906 27.914062 10.832031 C 28.007812 10.742188 28.097656 10.652344 28.1875 10.570312 C 28.222656 10.613281 28.257812 10.65625 28.289062 10.703125 Z M 30.855469 8.621094 C 30.464844 8.890625 30.078125 9.175781 29.707031 9.46875 C 29.65625 9.4375 29.605469 9.40625 29.554688 9.375 C 29.894531 9.105469 30.246094 8.84375 30.601562 8.59375 C 30.6875 8.605469 30.769531 8.613281 30.855469 8.621094 Z M 33.386719 13.042969 C 33.398438 13.101562 33.402344 13.160156 33.410156 13.214844 C 35.589844 12.355469 37.261719 11.632812 38.097656 11.191406 C 38.101562 11.160156 38.105469 11.125 38.109375 11.089844 C 38.046875 11.09375 37.984375 11.09375 37.921875 11.09375 C 37.066406 11.53125 35.460938 12.222656 33.386719 13.042969 Z M 21.527344 8.113281 C 21.476562 8.128906 21.421875 8.148438 21.371094 8.164062 C 21.234375 7.898438 21.085938 7.652344 20.9375 7.421875 C 21.003906 7.429688 21.074219 7.441406 21.148438 7.449219 C 21.28125 7.65625 21.40625 7.878906 21.527344 8.113281 Z M 19.914062 5.988281 C 19.867188 6.023438 19.820312 6.058594 19.78125 6.09375 C 19.554688 5.902344 19.316406 5.738281 19.066406 5.601562 C 19.078125 5.5625 19.089844 5.527344 19.105469 5.492188 C 19.132812 5.484375 19.15625 5.476562 19.183594 5.472656 C 19.4375 5.617188 19.683594 5.789062 19.914062 5.988281 Z M 12.195312 4.90625 C 12.339844 5.273438 12.375 5.703125 12.296875 6.195312 C 12.269531 6.359375 12.230469 6.53125 12.179688 6.710938 C 11.980469 7.40625 11.59375 8.203125 11.015625 9.105469 C 10.984375 8.980469 11.050781 8.691406 11.050781 8.578125 C 11.050781 8.496094 11.046875 8.398438 11.042969 8.289062 C 10.976562 7.554688 11.050781 6.925781 11.265625 6.394531 C 11.359375 6.167969 11.476562 5.960938 11.617188 5.773438 C 11.75 5.597656 11.902344 5.441406 12.078125 5.296875 C 12.109375 5.273438 12.144531 5.246094 12.175781 5.21875 C 12.164062 5.167969 12.152344 5.117188 12.136719 5.066406 C 12.101562 5.085938 12.066406 5.105469 12.03125 5.125 C 11.929688 5.179688 11.828125 5.238281 11.726562 5.300781 C 11.71875 5.371094 11.707031 5.445312 11.691406 5.515625 C 11.292969 5.902344 10.96875 6.378906 10.71875 6.949219 C 10.617188 7.03125 10.511719 7.109375 10.398438 7.191406 C 9.828125 7.589844 8.316406 8.367188 7.949219 8.40625 C 8.699219 7.664062 9.40625 6.984375 10.085938 6.402344 C 10.738281 5.84375 11.367188 5.375 12.003906 5.011719 C 12.066406 4.976562 12.128906 4.941406 12.195312 4.90625 Z M 12.359375 6.453125 C 12.496094 5.839844 12.472656 5.3125 12.296875 4.867188 C 12.328125 4.859375 12.359375 4.851562 12.390625 4.84375 C 13.417969 4.605469 14.441406 4.582031 15.429688 4.765625 C 16.441406 4.957031 17.417969 5.363281 18.324219 5.992188 C 18.320312 5.992188 18.316406 5.992188 18.3125 5.996094 C 17.992188 6.0625 17.652344 6.105469 17.285156 6.125 C 15.902344 6.203125 15.441406 6.144531 14.246094 5.410156 C 13.804688 5.140625 13.382812 4.890625 12.945312 4.851562 C 12.78125 4.878906 12.613281 4.914062 12.441406 4.949219 C 12.453125 4.988281 12.464844 5.023438 12.476562 5.058594 C 13.238281 5.730469 13.40625 6.476562 12.988281 7.296875 C 12.90625 7.457031 12.804688 7.621094 12.675781 7.785156 C 12.628906 7.847656 12.578125 7.910156 12.523438 7.972656 C 12.347656 8.179688 11.421875 9.125 11.109375 9.167969 C 11.6875 8.253906 12.082031 7.449219 12.285156 6.746094 C 12.3125 6.644531 12.335938 6.546875 12.359375 6.453125 Z M 18.308594 5.847656 C 17.414062 5.238281 16.449219 4.839844 15.449219 4.652344 C 14.457031 4.46875 13.433594 4.492188 12.402344 4.726562 C 13.457031 3.695312 14.515625 2.933594 15.550781 2.457031 C 16.558594 1.996094 17.542969 1.804688 18.476562 1.90625 C 18.433594 1.960938 18.347656 2.039062 18.21875 2.140625 C 18.140625 2.195312 18.0625 2.257812 17.984375 2.324219 C 17.390625 2.820312 17.28125 3.152344 16.476562 3.480469 C 15.730469 3.777344 14.6875 3.960938 13.339844 4.027344 C 13.148438 4.1875 12.957031 4.355469 12.765625 4.535156 C 12.890625 4.511719 13.019531 4.492188 13.144531 4.476562 C 15.425781 3.730469 17.121094 4.152344 18.234375 5.738281 C 18.265625 5.777344 18.292969 5.8125 18.308594 5.847656 Z M 15.507812 2.351562 C 16.5 1.898438 17.46875 1.703125 18.390625 1.785156 C 16.058594 1.113281 14.285156 1.785156 13.082031 3.804688 C 12.832031 4.015625 12.582031 4.242188 12.332031 4.484375 C 12.269531 4.132812 12.183594 3.800781 12.070312 3.480469 C 12.042969 0.957031 10.867188 -0.28125 8.75 0.0546875 C 9.679688 0.570312 10.441406 1.175781 11.019531 1.886719 C 11.675781 2.6875 12.09375 3.617188 12.253906 4.691406 C 12.257812 4.699219 12.257812 4.707031 12.257812 4.710938 C 12.261719 4.707031 12.269531 4.703125 12.273438 4.695312 C 13.355469 3.628906 14.445312 2.84375 15.507812 2.351562 Z M 10.9375 1.960938 C 10.359375 1.253906 9.59375 0.648438 8.65625 0.132812 C 8.570312 1.300781 9.085938 1.867188 9.722656 2.5 C 10.347656 3.117188 11.617188 3.492188 11.851562 3.875 C 11.914062 4.089844 11.96875 4.308594 12.007812 4.539062 C 11.554688 4.328125 11.097656 4.148438 10.636719 4 C 7.773438 2.636719 5.566406 2.820312 4.019531 4.546875 C 5.324219 3.941406 6.640625 3.644531 7.972656 3.667969 C 9.328125 3.6875 10.703125 4.035156 12.117188 4.714844 C 12.128906 4.722656 12.140625 4.726562 12.152344 4.730469 C 12.148438 4.722656 12.148438 4.710938 12.148438 4.703125 C 11.984375 3.652344 11.578125 2.742188 10.9375 1.960938 Z M 7.972656 3.78125 C 6.625 3.757812 5.296875 4.066406 3.980469 4.695312 C 4.117188 4.742188 4.53125 4.730469 4.816406 4.808594 C 5.203125 4.917969 5.582031 5 5.964844 5.050781 C 7.265625 4.265625 8.734375 4.019531 10.367188 4.316406 C 10.386719 4.308594 10.402344 4.300781 10.421875 4.289062 C 10.683594 4.371094 10.945312 4.460938 11.203125 4.566406 C 10.921875 4.558594 10.640625 4.566406 10.367188 4.589844 C 10.207031 4.566406 10.050781 4.546875 9.894531 4.535156 C 8.609375 4.414062 7.550781 4.609375 6.726562 5.117188 C 5.898438 5.632812 5.304688 6.460938 4.945312 7.609375 C 4.945312 7.617188 4.945312 7.628906 4.945312 7.636719 C 6.042969 6.515625 7.183594 5.703125 8.375 5.214844 C 9.492188 4.761719 10.652344 4.59375 11.871094 4.726562 C 10.542969 4.113281 9.246094 3.800781 7.972656 3.78125 Z M 8.414062 5.324219 C 9.558594 4.855469 10.75 4.695312 12.003906 4.855469 C 12.015625 4.859375 12.027344 4.859375 12.039062 4.859375 C 12.027344 4.867188 12.011719 4.878906 11.996094 4.886719 C 11.339844 5.253906 10.6875 5.738281 10.019531 6.3125 C 9.339844 6.894531 8.640625 7.5625 7.898438 8.300781 C 8.082031 7.417969 8.441406 6.714844 8.984375 6.1875 C 9.171875 6.007812 9.382812 5.84375 9.617188 5.707031 C 10.105469 5.414062 10.691406 5.214844 11.375 5.117188 C 11.472656 5.054688 11.574219 4.992188 11.675781 4.9375 C 11.207031 4.894531 10.757812 4.898438 10.316406 4.941406 C 10.214844 5.078125 10.101562 5.210938 9.988281 5.339844 C 9.25 5.527344 8.597656 5.980469 8.027344 6.695312 C 7.3125 6.992188 6.554688 7.171875 5.820312 7.421875 C 5.566406 7.511719 5.320312 7.601562 5.089844 7.6875 C 5.074219 7.691406 5.058594 7.691406 5.046875 7.695312 C 6.125 6.597656 7.246094 5.800781 8.414062 5.324219 Z M 24.90625 12.5625 L 24.902344 12.523438 L 24.898438 12.445312 L 24.894531 12.410156 L 24.894531 12.371094 L 24.890625 12.332031 L 24.890625 12.292969 L 24.886719 12.253906 L 24.886719 12.214844 L 24.882812 12.175781 L 24.882812 11.863281 L 24.886719 11.820312 L 24.886719 11.742188 L 24.890625 11.703125 L 24.890625 11.660156 L 24.898438 11.582031 L 24.898438 11.539062 L 24.902344 11.5 L 24.90625 11.457031 L 24.910156 11.417969 L 24.914062 11.375 L 24.917969 11.335938 L 24.925781 11.253906 L 24.929688 11.210938 L 24.941406 11.128906 L 24.945312 11.085938 L 24.957031 11.003906 L 24.972656 10.917969 L 24.976562 10.878906 L 25.039062 10.535156 L 25.050781 10.492188 L 25.058594 10.449219 L 25.078125 10.363281 L 25.089844 10.320312 L 25.097656 10.273438 L 25.121094 10.1875 L 25.128906 10.144531 L 25.140625 10.097656 L 25.175781 9.96875 L 25.1875 9.921875 C 25.160156 9.769531 25.125 9.617188 25.082031 9.464844 C 24.589844 10.78125 24.417969 11.992188 24.574219 13.09375 L 24.582031 13.085938 L 24.59375 13.070312 L 24.597656 13.0625 L 24.605469 13.058594 L 24.613281 13.042969 L 24.621094 13.035156 L 24.644531 13.003906 L 24.648438 12.996094 L 24.65625 12.988281 L 24.660156 12.980469 L 24.683594 12.949219 L 24.691406 12.933594 L 24.699219 12.925781 L 24.707031 12.910156 L 24.726562 12.886719 L 24.734375 12.871094 L 24.75 12.847656 C 24.757812 12.835938 24.765625 12.824219 24.773438 12.8125 C 24.796875 12.773438 24.820312 12.734375 24.839844 12.691406 C 24.863281 12.648438 24.886719 12.605469 24.90625 12.5625 Z M 21.480469 10.652344 C 21.625 10.566406 21.765625 10.484375 21.902344 10.394531 C 22.234375 9.804688 22.644531 9.542969 23.101562 9.296875 C 23.195312 9.164062 23.289062 9.023438 23.375 8.867188 C 22.398438 9.28125 21.769531 9.878906 21.480469 10.652344 Z M 12.503906 20.714844 C 12.34375 20.371094 12.183594 20.035156 12.011719 19.710938 C 11.558594 18.832031 11.0625 18.027344 10.527344 17.320312 C 9.984375 16.605469 9.402344 15.984375 8.777344 15.472656 C 8.550781 15.289062 8.324219 15.121094 8.085938 14.964844 C 8.125 14.90625 8.164062 14.847656 8.203125 14.789062 C 8.679688 14.109375 9.296875 13.503906 9.992188 13.019531 C 10.035156 12.992188 10.074219 12.960938 10.117188 12.9375 C 10.21875 12.867188 10.324219 12.796875 10.429688 12.734375 C 10.570312 12.648438 10.710938 12.570312 10.851562 12.496094 C 11.722656 12.039062 12.65625 11.757812 13.546875 11.707031 C 13.691406 11.695312 13.832031 11.695312 13.96875 11.699219 C 14.027344 11.699219 14.085938 11.703125 14.148438 11.703125 C 14.160156 11.664062 14.164062 11.636719 14.148438 11.621094 L 13.945312 11.589844 C 13.933594 11.585938 13.921875 11.585938 13.90625 11.582031 C 13.78125 11.582031 13.652344 11.585938 13.523438 11.59375 C 12.625 11.648438 11.679688 11.933594 10.800781 12.394531 C 10.589844 12.503906 10.382812 12.625 10.183594 12.757812 C 10.097656 12.8125 10.011719 12.867188 9.925781 12.929688 C 9.210938 13.429688 8.574219 14.050781 8.089844 14.757812 C 8.082031 14.773438 8.070312 14.785156 8.0625 14.800781 C 8.0625 14.785156 8.0625 14.765625 8.0625 14.75 C 8.039062 13.378906 7.894531 12.082031 7.609375 10.882812 C 7.355469 9.824219 6.988281 8.835938 6.492188 7.933594 C 6.472656 7.925781 6.453125 7.921875 6.433594 7.917969 C 6.421875 7.945312 6.414062 7.972656 6.402344 8 C 6.890625 8.890625 7.25 9.863281 7.5 10.910156 C 7.785156 12.09375 7.925781 13.371094 7.953125 14.722656 C 7.953125 14.769531 7.953125 14.816406 7.953125 14.863281 C 7.898438 14.820312 7.847656 14.773438 7.792969 14.730469 C 6.492188 13.6875 5.203125 12.980469 3.910156 12.582031 C 2.65625 12.199219 1.398438 12.109375 0.113281 12.289062 C 0.101562 12.308594 0.0976562 12.328125 0.09375 12.34375 C 0.101562 12.363281 0.109375 12.382812 0.121094 12.40625 C 1.390625 12.226562 2.640625 12.3125 3.882812 12.691406 C 5.15625 13.082031 6.421875 13.777344 7.703125 14.804688 C 7.753906 14.847656 7.804688 14.886719 7.855469 14.929688 C 7.789062 14.929688 7.722656 14.933594 7.65625 14.933594 C 5.976562 14.996094 4.492188 15.339844 3.21875 15.96875 C 1.929688 16.605469 0.859375 17.535156 0.0351562 18.761719 C 0.046875 18.808594 0.0742188 18.835938 0.113281 18.847656 C 0.929688 17.628906 1.984375 16.703125 3.265625 16.074219 C 4.527344 15.449219 6.003906 15.109375 7.675781 15.046875 C 7.71875 15.046875 7.765625 15.046875 7.808594 15.042969 C 7.78125 15.0625 7.75 15.085938 7.71875 15.105469 C 6.523438 15.921875 5.4375 17.136719 4.527344 18.742188 C 3.621094 20.339844 2.894531 22.320312 2.398438 24.679688 C 2.421875 24.707031 2.457031 24.71875 2.503906 24.707031 C 2.996094 22.359375 3.722656 20.386719 4.621094 18.800781 C 5.539062 17.179688 6.632812 15.960938 7.84375 15.15625 C 7.878906 15.136719 7.910156 15.113281 7.945312 15.089844 C 7.941406 15.121094 7.9375 15.152344 7.933594 15.179688 C 7.757812 16.964844 7.664062 18.730469 7.671875 20.441406 C 7.679688 21.933594 7.765625 23.378906 7.9375 24.746094 C 7.976562 24.769531 8.015625 24.777344 8.050781 24.773438 C 7.875 23.394531 7.789062 21.941406 7.78125 20.441406 C 7.773438 18.742188 7.863281 16.984375 8.042969 15.210938 C 8.046875 15.167969 8.050781 15.125 8.054688 15.078125 C 8.175781 15.160156 8.296875 15.242188 8.414062 15.332031 C 9.148438 15.875 9.820312 16.570312 10.441406 17.390625 C 10.976562 18.101562 11.472656 18.902344 11.929688 19.785156 C 12.101562 20.117188 12.265625 20.460938 12.429688 20.816406 C 12.453125 20.773438 12.476562 20.742188 12.503906 20.714844 Z M 13.058594 13.027344 C 13.109375 12.980469 13.15625 12.933594 13.203125 12.882812 C 13.3125 12.90625 13.421875 12.929688 13.53125 12.957031 L 13.535156 12.957031 C 13.632812 12.984375 13.726562 13.007812 13.820312 13.035156 C 13.976562 13.074219 14.125 13.113281 14.265625 13.152344 C 14.390625 13.183594 14.507812 13.214844 14.621094 13.242188 C 14.953125 13.328125 15.265625 13.410156 15.558594 13.480469 C 15.945312 13.578125 16.296875 13.660156 16.644531 13.742188 C 17.925781 14.042969 19.136719 14.328125 20.4375 14.867188 C 20.800781 15.019531 21.144531 15.179688 21.46875 15.347656 C 21.585938 15.40625 21.703125 15.46875 21.8125 15.53125 C 21.917969 15.589844 22.015625 15.648438 22.117188 15.707031 C 22.558594 15.972656 22.960938 16.253906 23.320312 16.550781 C 23.261719 15.847656 23.191406 15.175781 23.109375 14.539062 C 23.152344 14.480469 23.199219 14.425781 23.25 14.371094 C 23.34375 15.046875 23.417969 15.765625 23.480469 16.515625 C 23.554688 16.410156 23.628906 16.304688 23.699219 16.199219 C 23.8125 16.027344 23.921875 15.851562 24.03125 15.671875 C 24.195312 15.40625 24.328125 15.171875 24.449219 14.957031 C 24.683594 14.546875 24.878906 14.207031 25.175781 13.8125 C 25.195312 13.875 25.21875 13.9375 25.242188 14 C 24.984375 14.355469 24.804688 14.671875 24.589844 15.046875 C 24.46875 15.257812 24.335938 15.492188 24.167969 15.765625 C 24.058594 15.945312 23.945312 16.125 23.832031 16.296875 C 23.765625 16.394531 23.703125 16.488281 23.636719 16.585938 C 24.550781 16.277344 25.457031 15.964844 26.339844 15.65625 C 26.386719 15.699219 26.429688 15.746094 26.476562 15.789062 C 25.5625 16.109375 24.628906 16.429688 23.683594 16.75 C 23.878906 16.816406 24.070312 16.890625 24.261719 16.964844 C 24.53125 17.070312 24.789062 17.179688 25.035156 17.292969 C 27.363281 18.351562 28.203125 19.300781 29.460938 20.71875 C 29.789062 21.089844 30.144531 21.492188 30.558594 21.933594 C 30.914062 22.3125 31.25 22.609375 31.550781 22.882812 C 32.429688 23.664062 33.0625 24.234375 33.34375 25.890625 C 33.453125 26.554688 33.355469 27.1875 33.242188 27.9375 L 33.226562 28.03125 C 33.171875 28.058594 33.113281 28.0625 33.0625 28.035156 L 33.082031 27.910156 C 33.195312 27.175781 33.289062 26.554688 33.179688 25.917969 C 32.914062 24.324219 32.296875 23.773438 31.445312 23.011719 C 31.140625 22.738281 30.804688 22.4375 30.441406 22.054688 C 30.023438 21.609375 29.667969 21.207031 29.339844 20.835938 C 28.097656 19.433594 27.265625 18.492188 24.972656 17.449219 C 24.71875 17.335938 24.464844 17.226562 24.203125 17.125 C 23.984375 17.039062 23.757812 16.957031 23.523438 16.875 C 23.515625 16.871094 23.503906 16.867188 23.496094 16.867188 L 23.496094 16.933594 L 23.449219 21.121094 C 23.410156 24.929688 23.363281 29.222656 22.234375 32.769531 C 22.179688 32.757812 22.128906 32.738281 22.085938 32.703125 C 23.199219 29.1875 23.246094 24.910156 23.285156 21.117188 L 23.328125 17.195312 L 23.335938 16.828125 C 23.257812 16.820312 23.183594 16.816406 23.113281 16.8125 C 22.261719 16.757812 21.65625 16.796875 21.09375 16.96875 C 21.058594 16.980469 21.019531 16.992188 20.984375 17.003906 C 20.835938 17.054688 20.691406 17.113281 20.542969 17.183594 L 20.496094 17.207031 L 20.472656 17.222656 L 20.449219 17.234375 L 20.421875 17.246094 L 20.375 17.269531 L 20.324219 17.296875 L 20.300781 17.308594 L 20.25 17.335938 L 20.175781 17.378906 L 20.152344 17.394531 L 20.125 17.410156 L 20.101562 17.421875 L 20.074219 17.4375 L 20.050781 17.453125 L 20.023438 17.46875 L 20 17.484375 L 19.949219 17.515625 L 19.921875 17.535156 L 19.894531 17.550781 L 19.871094 17.566406 L 19.84375 17.585938 L 19.789062 17.617188 L 19.761719 17.636719 L 19.734375 17.652344 L 19.679688 17.691406 L 19.652344 17.707031 L 19.515625 17.804688 L 19.484375 17.824219 L 19.457031 17.84375 L 19.398438 17.882812 L 19.371094 17.90625 L 19.339844 17.925781 L 19.3125 17.945312 L 19.222656 18.011719 L 19.191406 18.035156 L 19.160156 18.054688 L 19.003906 18.171875 L 18.9375 18.21875 L 18.875 18.265625 L 18.839844 18.289062 L 18.808594 18.316406 L 18.773438 18.339844 C 18.421875 18.601562 17.988281 18.882812 17.511719 19.195312 C 16.898438 19.59375 16.207031 20.042969 15.535156 20.550781 C 15.410156 20.644531 15.285156 20.742188 15.160156 20.84375 C 14.957031 21.003906 14.753906 21.175781 14.558594 21.351562 C 14.445312 21.449219 14.335938 21.554688 14.230469 21.65625 C 13.347656 22.511719 12.621094 23.503906 12.3125 24.671875 L 12.296875 24.667969 L 12.289062 24.667969 L 12.285156 24.664062 L 12.277344 24.664062 L 12.273438 24.660156 L 12.261719 24.660156 L 12.257812 24.65625 L 12.25 24.65625 L 12.246094 24.652344 L 12.242188 24.652344 L 12.238281 24.648438 L 12.234375 24.648438 L 12.230469 24.644531 L 12.222656 24.644531 L 12.222656 24.640625 L 12.21875 24.640625 L 12.210938 24.636719 L 12.207031 24.632812 L 12.203125 24.632812 L 12.195312 24.625 C 12.183594 24.617188 12.171875 24.609375 12.160156 24.601562 C 12.15625 24.59375 12.148438 24.585938 12.140625 24.582031 C 12.476562 23.386719 13.226562 22.375 14.128906 21.511719 C 14.238281 21.40625 14.347656 21.304688 14.460938 21.207031 C 14.671875 21.015625 14.890625 20.835938 15.109375 20.660156 C 15.234375 20.5625 15.359375 20.46875 15.484375 20.375 C 16.144531 19.882812 16.8125 19.445312 17.410156 19.058594 C 17.886719 18.746094 18.320312 18.460938 18.667969 18.207031 C 19.488281 17.59375 20.074219 17.191406 20.664062 16.941406 C 20.75 16.90625 20.839844 16.871094 20.929688 16.839844 C 21.015625 16.8125 21.105469 16.785156 21.195312 16.761719 C 21.746094 16.617188 22.34375 16.589844 23.164062 16.644531 C 22.824219 16.363281 22.449219 16.101562 22.035156 15.855469 C 21.9375 15.796875 21.835938 15.738281 21.734375 15.679688 C 21.621094 15.617188 21.507812 15.558594 21.390625 15.496094 C 21.070312 15.332031 20.730469 15.175781 20.371094 15.023438 C 19.074219 14.484375 17.867188 14.203125 16.589844 13.902344 C 16.226562 13.816406 15.855469 13.730469 15.5 13.640625 C 15.21875 13.570312 14.902344 13.492188 14.558594 13.402344 C 14.464844 13.378906 14.371094 13.351562 14.277344 13.328125 C 14.132812 13.289062 13.984375 13.25 13.832031 13.210938 C 13.710938 13.179688 13.589844 13.148438 13.464844 13.113281 C 13.328125 13.082031 13.191406 13.050781 13.058594 13.027344 " fill-opacity="1" fill-rule="evenodd"/></g></svg>