<svg xmlns="http://www.w3.org/2000/svg" xmlns:xlink="http://www.w3.org/1999/xlink" width="99" zoomAndPan="magnify" viewBox="0 0 74.25 36.75" height="49" preserveAspectRatio="xMidYMid meet" version="1.0"><defs><clipPath id="bbb6a5e951"><path d="M 0 0.0585938 L 73.148438 0.0585938 L 73.148438 36.070312 L 0 36.070312 Z M 0 0.0585938 " clip-rule="nonzero"/></clipPath><clipPath id="3acf1a155a"><path d="M 36.558594 0.0585938 C 16.367188 0.0585938 0 8.121094 0 18.066406 C 0 28.007812 16.367188 36.070312 36.558594 36.070312 C 56.75 36.070312 73.117188 28.007812 73.117188 18.066406 C 73.117188 8.121094 56.75 0.0585938 36.558594 0.0585938 Z M 36.558594 0.0585938 " clip-rule="nonzero"/></clipPath><clipPath id="7cb88a6d9c"><path d="M 0 0.0585938 L 72.765625 0.0585938 L 72.765625 35.699219 L 0 35.699219 Z M 0 0.0585938 " clip-rule="nonzero"/></clipPath></defs><g clip-path="url(#bbb6a5e951)"><g clip-path="url(#3acf1a155a)"><path fill="#ffffff" d="M 0 0.0585938 L 73.148438 0.0585938 L 73.148438 36.070312 L 0 36.070312 Z M 0 0.0585938 " fill-opacity="1" fill-rule="nonzero"/></g></g><g clip-path="url(#7cb88a6d9c)"><path fill="#000000" d="M 72.597656 26.246094 C 72.464844 25.03125 72.144531 23.84375 71.644531 22.722656 C 71.4375 22.253906 71.238281 21.710938 70.835938 21.367188 C 70.089844 20.726562 69.355469 20.066406 68.632812 19.398438 C 66.066406 17.019531 63.519531 14.5 61.511719 11.628906 C 61.058594 10.980469 60.632812 10.304688 60.28125 9.59375 C 60.054688 9.136719 59.878906 8.660156 59.628906 8.214844 C 59.332031 7.691406 58.933594 7.273438 58.433594 6.9375 C 57.863281 6.558594 57.242188 6.253906 56.644531 5.921875 C 56.007812 5.566406 55.371094 5.214844 54.734375 4.859375 C 53.488281 4.171875 52.246094 3.484375 51.003906 2.796875 C 49.753906 2.101562 48.515625 1.371094 47.242188 0.714844 C 46.695312 0.433594 46.117188 0.1875 45.5 0.125 C 44.90625 0.0585938 44.34375 0.210938 43.816406 0.476562 C 43.210938 0.78125 42.640625 1.167969 42.070312 1.53125 C 41.484375 1.910156 40.898438 2.292969 40.320312 2.683594 C 39.761719 3.0625 39.199219 3.445312 38.65625 3.84375 C 38.230469 4.160156 37.8125 4.5 37.488281 4.921875 C 37.195312 5.300781 37.003906 5.71875 36.957031 6.1875 C 36.824219 6.410156 36.734375 6.660156 36.664062 6.910156 C 36.453125 7.667969 36.269531 8.433594 36.078125 9.199219 C 36.03125 8.542969 35.960938 7.890625 35.859375 7.246094 C 35.773438 6.707031 35.683594 6.125 35.351562 5.671875 C 35.015625 5.207031 34.496094 4.90625 34.027344 4.589844 C 32.886719 3.820312 31.742188 3.046875 30.601562 2.273438 C 30.03125 1.886719 29.460938 1.5 28.886719 1.113281 C 28.421875 0.800781 27.925781 0.484375 27.351562 0.445312 C 26.777344 0.402344 26.269531 0.695312 25.800781 0.984375 C 25.214844 1.347656 24.625 1.710938 24.039062 2.074219 C 22.871094 2.796875 21.707031 3.535156 20.527344 4.238281 C 19.96875 4.574219 19.402344 4.894531 18.820312 5.183594 C 18.210938 5.480469 17.585938 5.75 16.980469 6.058594 C 15.925781 6.601562 14.957031 7.308594 14.136719 8.164062 C 13.261719 9.074219 12.605469 10.152344 11.894531 11.1875 C 11.460938 11.820312 10.976562 12.417969 10.472656 13 C 9.308594 14.347656 8.042969 15.609375 6.753906 16.839844 C 5.605469 17.933594 4.429688 19.003906 3.234375 20.050781 C 2.851562 20.386719 2.46875 20.71875 2.082031 21.046875 C 1.929688 21.175781 1.738281 21.300781 1.605469 21.449219 C 1.488281 21.578125 1.417969 21.792969 1.347656 21.949219 C 1.222656 22.214844 1.109375 22.488281 1.003906 22.761719 C 0.792969 23.300781 0.617188 23.855469 0.480469 24.414062 C 0.199219 25.546875 0.0625 26.714844 0.0664062 27.875 C 0.0703125 30.125 0.585938 32.503906 1.730469 34.460938 C 2.003906 34.925781 2.339844 35.339844 2.777344 35.660156 C 2.835938 35.703125 2.941406 35.699219 3 35.660156 C 4.828125 34.375 6.75 33.179688 8.746094 32.171875 C 9.421875 31.828125 10.109375 31.507812 10.820312 31.253906 C 11.6875 30.945312 12.601562 30.785156 13.507812 30.625 C 14.660156 30.421875 15.808594 30.210938 16.90625 29.785156 C 17.953125 29.382812 18.960938 28.894531 20.035156 28.558594 C 24.0625 27.308594 28.625 27.660156 32.042969 30.273438 C 32.828125 30.871094 33.535156 31.578125 34.113281 32.375 C 34.429688 32.816406 34.964844 33.628906 35.625 33.28125 C 35.917969 33.128906 36.074219 32.804688 36.164062 32.480469 C 36.417969 33.027344 36.925781 33.507812 37.578125 33.351562 C 37.972656 33.257812 38.207031 32.917969 38.429688 32.613281 C 38.695312 32.25 38.984375 31.902344 39.285156 31.570312 C 41.832031 28.769531 45.515625 27.179688 49.308594 27.25 C 51.347656 27.289062 53.253906 27.863281 55.128906 28.621094 C 56.058594 29 56.976562 29.402344 57.917969 29.75 C 58.863281 30.105469 59.828125 30.355469 60.804688 30.601562 C 62.347656 30.996094 63.898438 31.386719 65.292969 32.171875 C 66.429688 32.808594 67.53125 33.527344 68.570312 34.3125 C 68.746094 34.441406 68.921875 34.578125 69.085938 34.71875 C 69.144531 34.769531 69.203125 34.824219 69.261719 34.878906 C 69.292969 34.90625 69.378906 35.003906 69.367188 34.988281 C 69.464844 35.121094 69.652344 35.132812 69.746094 34.988281 C 70.390625 33.988281 70.964844 32.9375 71.480469 31.871094 C 71.863281 31.066406 72.21875 30.238281 72.445312 29.378906 C 72.710938 28.363281 72.707031 27.28125 72.597656 26.246094 Z M 35.925781 30.9375 C 35.921875 31 35.921875 31.0625 35.921875 31.125 C 35.90625 31.433594 35.871094 31.738281 35.8125 32.042969 C 35.757812 32.316406 35.632812 33.027344 35.210938 32.898438 C 34.789062 32.769531 34.539062 32.207031 34.289062 31.882812 C 34.015625 31.53125 33.722656 31.195312 33.40625 30.878906 C 30.546875 28.03125 26.386719 27.003906 22.449219 27.566406 C 21.359375 27.722656 20.289062 27.992188 19.253906 28.359375 C 18.191406 28.738281 17.183594 29.265625 16.109375 29.605469 C 14.222656 30.199219 12.207031 30.242188 10.355469 30.960938 C 7.828125 31.949219 5.476562 33.449219 3.238281 34.964844 C 3.125 35.042969 3.011719 35.121094 2.894531 35.199219 C 2.066406 34.527344 1.625 33.367188 1.28125 32.394531 C 0.90625 31.335938 0.664062 30.226562 0.5625 29.109375 C 0.359375 26.855469 0.695312 24.546875 1.597656 22.464844 C 1.691406 22.242188 1.785156 21.917969 1.945312 21.738281 C 2 21.671875 2.085938 21.621094 2.152344 21.5625 C 2.453125 21.308594 2.753906 21.046875 3.054688 20.789062 C 4.113281 19.871094 5.15625 18.9375 6.183594 17.984375 C 7.445312 16.804688 8.6875 15.601562 9.863281 14.335938 C 10.40625 13.753906 10.933594 13.160156 11.429688 12.539062 C 12.003906 11.824219 12.5 11.0625 13.015625 10.304688 C 13.691406 9.308594 14.4375 8.386719 15.375 7.621094 C 16.328125 6.84375 17.417969 6.328125 18.523438 5.808594 C 19.679688 5.269531 20.765625 4.617188 21.84375 3.949219 C 22.972656 3.25 24.105469 2.550781 25.234375 1.851562 C 25.746094 1.535156 26.28125 1.105469 26.867188 0.9375 C 27.472656 0.761719 28.019531 1.066406 28.507812 1.390625 C 29.621094 2.121094 30.71875 2.882812 31.820312 3.628906 C 32.363281 3.992188 32.902344 4.359375 33.445312 4.726562 C 33.921875 5.046875 34.476562 5.34375 34.871094 5.769531 C 35.265625 6.199219 35.347656 6.808594 35.433594 7.363281 C 35.523438 7.914062 35.578125 8.46875 35.621094 9.027344 C 35.660156 9.535156 35.6875 10.042969 35.699219 10.554688 C 35.699219 10.574219 35.703125 10.59375 35.707031 10.613281 C 35.625 10.925781 35.539062 11.238281 35.457031 11.550781 C 35.425781 11.339844 35.394531 11.128906 35.367188 10.917969 C 35.246094 9.878906 35.292969 8.824219 35.175781 7.785156 C 35.121094 7.339844 35.03125 6.878906 34.785156 6.492188 C 34.511719 6.0625 34.085938 5.800781 33.652344 5.554688 C 32.675781 5 31.75 4.359375 30.808594 3.734375 C 30.328125 3.414062 29.84375 3.097656 29.34375 2.804688 C 28.882812 2.53125 28.398438 2.234375 27.875 2.097656 C 26.855469 1.832031 25.933594 2.488281 25.105469 2.992188 C 23.324219 4.085938 21.667969 5.375 19.859375 6.425781 C 18.992188 6.925781 18.09375 7.367188 17.144531 7.691406 C 16.878906 7.78125 16.992188 8.203125 17.261719 8.113281 C 19.179688 7.460938 20.882812 6.351562 22.542969 5.21875 C 23.390625 4.640625 24.226562 4.058594 25.09375 3.515625 C 25.523438 3.246094 25.957031 2.984375 26.40625 2.75 C 26.945312 2.46875 27.457031 2.386719 28.035156 2.609375 C 28.554688 2.808594 29.042969 3.125 29.511719 3.417969 C 29.992188 3.714844 30.464844 4.027344 30.933594 4.34375 C 31.863281 4.964844 32.8125 5.535156 33.757812 6.121094 C 34.21875 6.410156 34.515625 6.777344 34.648438 7.304688 C 34.773438 7.792969 34.777344 8.300781 34.804688 8.800781 C 34.859375 9.757812 34.894531 10.707031 35.035156 11.652344 C 35.066406 11.855469 35.160156 12.292969 35.152344 12.671875 C 35.128906 12.773438 35.113281 12.875 35.097656 12.976562 C 35.097656 13.007812 35.09375 13.03125 35.09375 13.058594 C 35.03125 13.230469 34.917969 13.355469 34.722656 13.375 C 34.144531 13.4375 33.492188 12.863281 33.101562 12.507812 C 31.761719 11.28125 31.554688 9.289062 30.382812 7.925781 C 29.8125 7.265625 28.996094 6.726562 28.089844 6.738281 C 27.582031 6.746094 27.1875 6.988281 26.769531 7.246094 C 26.253906 7.566406 25.738281 7.882812 25.222656 8.203125 C 24.351562 8.746094 23.441406 9.253906 22.652344 9.914062 C 21.898438 10.542969 21.34375 11.332031 21.058594 12.273438 C 20.777344 13.210938 20.746094 14.214844 20.828125 15.183594 C 20.914062 16.226562 21.105469 17.273438 21.449219 18.261719 C 22.078125 20.070312 23.257812 21.742188 24.988281 22.648438 C 25.929688 23.144531 26.972656 23.339844 28.011719 23.503906 C 29.023438 23.667969 30.023438 23.84375 30.980469 24.214844 C 32.792969 24.914062 34.421875 26.214844 35.28125 27.976562 C 35.722656 28.882812 35.945312 29.914062 35.925781 30.9375 Z M 33.988281 25.554688 C 32.53125 24.226562 30.695312 23.511719 28.769531 23.1875 C 27.660156 23 26.511719 22.875 25.476562 22.40625 C 24.605469 22.007812 23.851562 21.382812 23.242188 20.648438 C 21.886719 19 21.316406 16.78125 21.238281 14.6875 C 21.199219 13.664062 21.300781 12.589844 21.773438 11.664062 C 22.242188 10.738281 23.0625 10.09375 23.917969 9.535156 C 24.898438 8.898438 25.90625 8.296875 26.898438 7.679688 C 27.402344 7.367188 27.835938 7.089844 28.453125 7.207031 C 28.90625 7.292969 29.320312 7.523438 29.664062 7.824219 C 31.117188 9.101562 31.238281 11.222656 32.550781 12.589844 C 33.085938 13.144531 34.742188 14.453125 35.371094 13.46875 C 35.410156 13.480469 35.449219 13.492188 35.496094 13.503906 C 35.929688 13.605469 36.40625 13.585938 36.84375 13.507812 C 37.40625 13.414062 37.953125 13.183594 38.421875 12.851562 C 39.460938 12.949219 40.375 12.320312 40.957031 11.488281 C 41.28125 11.019531 41.511719 10.492188 41.726562 9.964844 C 41.976562 9.359375 42.222656 8.75 42.320312 8.097656 C 42.324219 8.066406 42.320312 8.039062 42.316406 8.015625 C 42.402344 7.984375 42.492188 7.953125 42.578125 7.921875 C 43.042969 7.753906 43.546875 7.507812 44.054688 7.558594 C 44.546875 7.605469 44.980469 7.914062 45.375 8.183594 C 46.226562 8.761719 47.054688 9.367188 47.890625 9.957031 C 48.292969 10.242188 48.65625 10.542969 48.945312 10.9375 C 49.222656 11.308594 49.4375 11.726562 49.621094 12.148438 C 49.820312 12.605469 49.984375 13.078125 50.144531 13.550781 C 50.316406 14.050781 50.488281 14.5625 50.519531 15.09375 C 50.578125 16.113281 50.234375 17.171875 49.855469 18.113281 C 49.511719 18.976562 49.039062 19.910156 48.359375 20.558594 C 47.757812 21.128906 46.984375 21.445312 46.207031 21.699219 C 44.421875 22.285156 42.585938 22.789062 40.984375 23.800781 C 39.492188 24.746094 38.230469 26.027344 37.246094 27.488281 C 36.851562 28.074219 36.484375 28.746094 36.238281 29.453125 C 35.941406 27.957031 35.117188 26.585938 33.988281 25.554688 Z M 38.929688 12.410156 C 38.992188 12.34375 39.054688 12.277344 39.113281 12.207031 C 39.714844 11.464844 39.988281 10.503906 40.3125 9.625 C 40.394531 9.398438 40.476562 9.175781 40.5625 8.949219 C 40.671875 8.667969 40.824219 8.550781 41.101562 8.449219 C 41.355469 8.355469 41.609375 8.265625 41.863281 8.175781 C 41.773438 8.644531 41.605469 9.09375 41.429688 9.539062 C 41.234375 10.023438 41.039062 10.507812 40.773438 10.957031 C 40.375 11.632812 39.722656 12.289062 38.929688 12.410156 Z M 72.191406 28.234375 C 72.128906 29.070312 71.859375 29.871094 71.546875 30.648438 C 70.996094 31.992188 70.285156 33.28125 69.523438 34.519531 C 69.339844 34.34375 69.132812 34.195312 68.9375 34.042969 C 68.464844 33.683594 67.976562 33.339844 67.484375 33.011719 C 66.480469 32.339844 65.433594 31.648438 64.3125 31.191406 C 62.527344 30.46875 60.59375 30.203125 58.777344 29.59375 C 56.921875 28.972656 55.171875 28.082031 53.304688 27.488281 C 49.660156 26.324219 45.628906 26.695312 42.300781 28.597656 C 40.792969 29.457031 39.449219 30.605469 38.378906 31.964844 C 38.140625 32.261719 37.882812 32.808594 37.496094 32.921875 C 37.082031 33.042969 36.722656 32.664062 36.570312 32.324219 C 36.25 31.613281 36.359375 30.738281 36.539062 30.007812 C 36.75 29.140625 37.175781 28.371094 37.675781 27.636719 C 38.171875 26.910156 38.742188 26.230469 39.378906 25.617188 C 40.761719 24.289062 42.398438 23.433594 44.203125 22.8125 C 45.046875 22.519531 45.90625 22.28125 46.742188 21.976562 C 47.457031 21.71875 48.148438 21.375 48.699219 20.839844 C 49.339844 20.214844 49.792969 19.363281 50.148438 18.550781 C 50.535156 17.660156 50.859375 16.683594 50.945312 15.710938 C 51.035156 14.707031 50.699219 13.78125 50.363281 12.851562 C 50.066406 12.015625 49.71875 11.183594 49.152344 10.488281 C 48.570312 9.773438 47.695312 9.285156 46.953125 8.753906 C 46.519531 8.441406 46.082031 8.136719 45.640625 7.835938 C 45.285156 7.589844 44.921875 7.347656 44.503906 7.210938 C 43.574219 6.910156 42.582031 7.457031 41.722656 7.761719 C 41.324219 7.90625 40.828125 8.003906 40.492188 8.269531 C 40.160156 8.53125 40.0625 9.035156 39.921875 9.410156 C 39.585938 10.324219 39.316406 11.375 38.625 12.097656 C 38.511719 12.214844 38.390625 12.320312 38.261719 12.421875 C 38.222656 12.4375 38.1875 12.460938 38.160156 12.496094 C 37.5625 12.921875 36.824219 13.148438 36.085938 13.128906 C 35.980469 13.128906 35.875 13.125 35.773438 13.113281 C 35.742188 13.109375 35.617188 13.066406 35.539062 13.050781 C 35.554688 12.96875 35.566406 12.886719 35.570312 12.804688 C 35.585938 12.738281 35.601562 12.671875 35.621094 12.605469 C 35.753906 12.113281 35.894531 11.625 36.023438 11.132812 C 36.300781 10.085938 36.582031 9.042969 36.847656 7.996094 C 36.960938 7.546875 37.039062 7.070312 37.21875 6.640625 C 37.246094 6.570312 37.28125 6.507812 37.316406 6.449219 C 37.34375 6.421875 37.367188 6.390625 37.378906 6.351562 C 37.578125 6.070312 37.855469 5.875 38.164062 5.6875 C 39.070312 5.136719 39.980469 4.585938 40.886719 4.039062 C 41.347656 3.757812 41.8125 3.476562 42.273438 3.199219 C 42.710938 2.933594 43.144531 2.628906 43.609375 2.410156 C 44.140625 2.160156 44.570312 2.363281 45.046875 2.621094 C 45.515625 2.871094 45.984375 3.121094 46.453125 3.371094 C 48.375 4.398438 50.296875 5.425781 52.21875 6.453125 C 53.152344 6.953125 54.089844 7.453125 55.027344 7.953125 C 55.277344 8.085938 55.5 7.707031 55.25 7.574219 C 53.292969 6.53125 51.339844 5.488281 49.386719 4.441406 C 48.417969 3.925781 47.449219 3.40625 46.480469 2.886719 C 46.003906 2.632812 45.53125 2.375 45.050781 2.125 C 44.652344 1.917969 44.238281 1.773438 43.785156 1.878906 C 43.324219 1.992188 42.914062 2.296875 42.515625 2.539062 C 42.054688 2.820312 41.589844 3.101562 41.128906 3.378906 C 40.203125 3.941406 39.277344 4.5 38.351562 5.0625 C 38.109375 5.207031 37.851562 5.347656 37.617188 5.511719 C 38.007812 4.785156 38.820312 4.257812 39.464844 3.804688 C 40.566406 3.03125 41.6875 2.289062 42.824219 1.574219 C 43.363281 1.238281 43.910156 0.847656 44.523438 0.652344 C 45.140625 0.457031 45.769531 0.5625 46.363281 0.792969 C 46.972656 1.027344 47.535156 1.375 48.105469 1.6875 C 48.710938 2.023438 49.316406 2.359375 49.921875 2.695312 C 52.359375 4.046875 54.796875 5.398438 57.234375 6.75 C 57.777344 7.050781 58.351562 7.339844 58.785156 7.792969 C 59.199219 8.226562 59.433594 8.792969 59.675781 9.335938 C 59.984375 10.027344 60.355469 10.6875 60.773438 11.324219 C 62.644531 14.183594 65.113281 16.675781 67.585938 19.023438 C 68.433594 19.828125 69.300781 20.613281 70.179688 21.382812 C 70.335938 21.519531 70.535156 21.648438 70.671875 21.804688 C 70.722656 21.863281 70.753906 21.949219 70.792969 22.015625 C 70.949219 22.292969 71.09375 22.574219 71.226562 22.859375 C 71.484375 23.429688 71.695312 24.027344 71.855469 24.632812 C 72.164062 25.804688 72.277344 27.023438 72.191406 28.234375 Z M 72.191406 28.234375 " fill-opacity="1" fill-rule="nonzero"/></g></svg>