<svg xmlns="http://www.w3.org/2000/svg" xmlns:xlink="http://www.w3.org/1999/xlink" width="141" zoomAndPan="magnify" viewBox="0 0 105.75 98.249997" height="131" preserveAspectRatio="xMidYMid meet" version="1.0"><defs><g/><clipPath id="22c6de542b"><path d="M 23.113281 0 L 81.914062 0 L 81.914062 58.800781 L 23.113281 58.800781 Z M 23.113281 0 " clip-rule="nonzero"/></clipPath></defs><g clip-path="url(#22c6de542b)"><path fill="#fae1cc" d="M 81.765625 29.324219 C 81.765625 30.285156 81.71875 31.242188 81.621094 32.199219 C 81.527344 33.15625 81.386719 34.105469 81.199219 35.046875 C 81.011719 35.988281 80.78125 36.917969 80.5 37.835938 C 80.222656 38.757812 79.898438 39.660156 79.53125 40.546875 C 79.164062 41.433594 78.753906 42.300781 78.300781 43.148438 C 77.847656 43.996094 77.355469 44.820312 76.820312 45.617188 C 76.289062 46.414062 75.71875 47.1875 75.109375 47.929688 C 74.5 48.671875 73.855469 49.382812 73.175781 50.0625 C 72.496094 50.738281 71.785156 51.382812 71.042969 51.992188 C 70.300781 52.601562 69.53125 53.175781 68.730469 53.707031 C 67.933594 54.242188 67.109375 54.734375 66.261719 55.1875 C 65.414062 55.640625 64.546875 56.050781 63.660156 56.417969 C 62.773438 56.785156 61.871094 57.109375 60.953125 57.386719 C 60.03125 57.664062 59.101562 57.898438 58.160156 58.085938 C 57.21875 58.273438 56.269531 58.414062 55.3125 58.507812 C 54.359375 58.601562 53.398438 58.648438 52.4375 58.648438 C 51.480469 58.648438 50.519531 58.601562 49.566406 58.507812 C 48.609375 58.414062 47.660156 58.273438 46.71875 58.085938 C 45.777344 57.898438 44.84375 57.664062 43.925781 57.386719 C 43.007812 57.109375 42.105469 56.785156 41.21875 56.417969 C 40.328125 56.050781 39.460938 55.640625 38.617188 55.1875 C 37.769531 54.734375 36.945312 54.242188 36.148438 53.707031 C 35.347656 53.175781 34.578125 52.601562 33.835938 51.992188 C 33.09375 51.382812 32.382812 50.738281 31.703125 50.0625 C 31.023438 49.382812 30.378906 48.671875 29.769531 47.929688 C 29.160156 47.1875 28.589844 46.414062 28.054688 45.617188 C 27.523438 44.820312 27.03125 43.996094 26.578125 43.148438 C 26.125 42.300781 25.714844 41.433594 25.347656 40.546875 C 24.980469 39.660156 24.65625 38.757812 24.375 37.835938 C 24.097656 36.917969 23.863281 35.988281 23.675781 35.046875 C 23.492188 34.105469 23.347656 33.15625 23.253906 32.199219 C 23.160156 31.242188 23.113281 30.285156 23.113281 29.324219 C 23.113281 28.363281 23.160156 27.40625 23.253906 26.449219 C 23.347656 25.496094 23.492188 24.546875 23.675781 23.605469 C 23.863281 22.660156 24.097656 21.730469 24.375 20.8125 C 24.65625 19.894531 24.980469 18.988281 25.347656 18.101562 C 25.714844 17.214844 26.125 16.347656 26.578125 15.5 C 27.03125 14.652344 27.523438 13.832031 28.054688 13.03125 C 28.589844 12.234375 29.160156 11.464844 29.769531 10.722656 C 30.378906 9.980469 31.023438 9.269531 31.703125 8.589844 C 32.382812 7.910156 33.09375 7.265625 33.835938 6.65625 C 34.578125 6.046875 35.347656 5.476562 36.148438 4.941406 C 36.945312 4.410156 37.769531 3.914062 38.617188 3.460938 C 39.460938 3.011719 40.328125 2.601562 41.21875 2.230469 C 42.105469 1.863281 43.007812 1.542969 43.925781 1.261719 C 44.84375 0.984375 45.777344 0.75 46.71875 0.5625 C 47.660156 0.375 48.609375 0.234375 49.566406 0.140625 C 50.519531 0.046875 51.480469 0 52.4375 0 C 53.398438 0 54.359375 0.046875 55.3125 0.140625 C 56.269531 0.234375 57.21875 0.375 58.160156 0.5625 C 59.101562 0.75 60.03125 0.984375 60.953125 1.261719 C 61.871094 1.542969 62.773438 1.863281 63.660156 2.230469 C 64.546875 2.601562 65.414062 3.011719 66.261719 3.460938 C 67.109375 3.914062 67.933594 4.410156 68.730469 4.941406 C 69.53125 5.476562 70.300781 6.046875 71.042969 6.65625 C 71.785156 7.265625 72.496094 7.910156 73.175781 8.589844 C 73.855469 9.269531 74.5 9.980469 75.109375 10.722656 C 75.71875 11.464844 76.289062 12.234375 76.820312 13.03125 C 77.355469 13.832031 77.847656 14.652344 78.300781 15.5 C 78.753906 16.347656 79.164062 17.214844 79.53125 18.101562 C 79.898438 18.988281 80.222656 19.894531 80.5 20.8125 C 80.78125 21.730469 81.011719 22.660156 81.199219 23.605469 C 81.386719 24.546875 81.527344 25.496094 81.621094 26.449219 C 81.71875 27.40625 81.765625 28.363281 81.765625 29.324219 Z M 81.765625 29.324219 " fill-opacity="1" fill-rule="nonzero"/></g><path fill="#b64809" d="M 38.476562 19.542969 L 40.367188 19.542969 L 40.367188 29.851562 L 38.476562 29.851562 Z M 38.476562 19.542969 " fill-opacity="1" fill-rule="evenodd"/><path fill="#b64809" d="M 64.511719 19.542969 L 66.414062 19.542969 L 66.414062 29.863281 L 64.511719 29.863281 Z M 64.511719 19.542969 " fill-opacity="1" fill-rule="evenodd"/><path fill="#b64809" d="M 46.917969 32.394531 C 48.855469 32.394531 50.605469 33.644531 52.449219 33.644531 C 54.292969 33.644531 56.046875 32.394531 57.984375 32.394531 C 59.917969 32.394531 61.671875 33.644531 63.515625 33.644531 C 65.222656 33.644531 66.90625 32.554688 68.683594 32.417969 C 68.625 31.421875 67.800781 30.621094 66.792969 30.621094 L 38.109375 30.621094 C 37.089844 30.621094 36.277344 31.421875 36.21875 32.417969 C 37.984375 32.554688 39.667969 33.644531 41.386719 33.644531 C 43.230469 33.621094 44.980469 32.394531 46.917969 32.394531 Z M 46.917969 32.394531 " fill-opacity="1" fill-rule="evenodd"/><path fill="#b64809" d="M 37.84375 43.140625 C 37.84375 43.347656 38.015625 43.519531 38.222656 43.519531 L 39.359375 43.519531 C 39.5625 43.519531 39.734375 43.347656 39.734375 43.140625 L 39.734375 40.527344 L 37.832031 40.527344 Z M 37.84375 43.140625 " fill-opacity="1" fill-rule="evenodd"/><path fill="#b64809" d="M 65.132812 43.140625 C 65.132812 43.347656 65.304688 43.519531 65.507812 43.519531 L 66.644531 43.519531 C 66.851562 43.519531 67.019531 43.347656 67.019531 43.140625 L 67.019531 40.527344 L 65.121094 40.527344 L 65.121094 43.140625 Z M 65.132812 43.140625 " fill-opacity="1" fill-rule="evenodd"/><path fill="#b64809" d="M 55.429688 19.542969 C 55.429688 18.820312 54.84375 18.226562 54.113281 18.226562 C 53.480469 18.226562 53.160156 18.488281 52.761719 19.277344 C 52.621094 19.554688 52.234375 19.554688 52.09375 19.277344 C 51.695312 18.476562 51.375 18.226562 50.753906 18.226562 C 50.035156 18.226562 49.4375 18.808594 49.4375 19.542969 C 49.4375 20.984375 50.914062 22.542969 52.425781 24.066406 C 53.953125 22.554688 55.429688 20.984375 55.429688 19.542969 Z M 55.429688 19.542969 " fill-opacity="1" fill-rule="evenodd"/><path fill="#b64809" d="M 44.695312 27.402344 C 44.019531 27.402344 43.46875 27.949219 43.46875 28.625 L 43.46875 29.851562 L 49.691406 29.851562 L 49.691406 28.625 C 49.691406 27.949219 49.140625 27.402344 48.464844 27.402344 Z M 44.695312 27.402344 " fill-opacity="1" fill-rule="evenodd"/><path fill="#b64809" d="M 56.4375 27.402344 C 55.761719 27.402344 55.210938 27.949219 55.210938 28.625 L 55.210938 29.851562 L 61.429688 29.851562 L 61.429688 28.625 C 61.429688 27.949219 60.882812 27.402344 60.207031 27.402344 Z M 56.4375 27.402344 " fill-opacity="1" fill-rule="evenodd"/><path fill="#b64809" d="M 63.503906 34.363281 C 61.570312 34.363281 59.816406 33.117188 57.972656 33.117188 C 56.117188 33.117188 54.375 34.363281 52.4375 34.363281 C 50.503906 34.363281 48.75 33.117188 46.90625 33.117188 C 45.050781 33.117188 43.308594 34.363281 41.375 34.363281 C 39.550781 34.363281 37.960938 33.289062 36.207031 33.140625 L 36.195312 37.273438 L 68.648438 37.273438 L 68.648438 33.140625 C 66.917969 33.3125 65.324219 34.363281 63.503906 34.363281 Z M 63.503906 34.363281 " fill-opacity="1" fill-rule="evenodd"/><path fill="#b64809" d="M 36.207031 38.03125 L 68.648438 38.03125 L 68.648438 39.804688 L 36.207031 39.804688 Z M 36.207031 38.03125 " fill-opacity="1" fill-rule="evenodd"/><path fill="#b64809" d="M 47.386719 24.535156 C 47.433594 23.515625 47.332031 23.839844 47.890625 22.980469 C 46.941406 22.625 47.203125 22.820312 46.574219 22.015625 C 45.933594 22.820312 46.207031 22.625 45.246094 22.980469 C 45.808594 23.828125 45.703125 23.503906 45.75 24.535156 C 46.734375 24.273438 46.414062 24.273438 47.386719 24.535156 Z M 47.386719 24.535156 " fill-opacity="1" fill-rule="evenodd"/><path fill="#b64809" d="M 59.128906 24.535156 C 59.175781 23.515625 59.070312 23.839844 59.632812 22.980469 C 58.683594 22.625 58.945312 22.820312 58.316406 22.015625 C 57.675781 22.820312 57.949219 22.625 57 22.980469 C 57.558594 23.828125 57.457031 23.503906 57.503906 24.535156 C 58.488281 24.273438 58.121094 24.273438 59.128906 24.535156 Z M 59.128906 24.535156 " fill-opacity="1" fill-rule="evenodd"/><path fill="#b64809" d="M 42.714844 28.625 C 42.714844 27.539062 43.597656 26.667969 44.671875 26.667969 L 48.429688 26.667969 C 49.519531 26.667969 50.390625 27.550781 50.390625 28.625 L 50.390625 29.851562 L 54.421875 29.851562 L 54.421875 28.636719 C 54.421875 27.550781 55.304688 26.679688 56.378906 26.679688 L 60.136719 26.679688 C 61.226562 26.679688 62.097656 27.5625 62.097656 28.636719 L 62.097656 29.863281 L 63.710938 29.863281 L 63.710938 21.375 C 63.242188 21.535156 62.773438 21.695312 62.289062 21.695312 C 61.535156 21.695312 60.742188 21.316406 59.746094 20.011719 C 57.59375 17.183594 55.050781 15.683594 52.40625 15.683594 C 49.757812 15.683594 47.214844 17.183594 45.0625 20.011719 C 43.433594 22.144531 42.335938 21.800781 41.085938 21.363281 L 41.085938 29.851562 L 42.691406 29.851562 L 42.691406 28.625 Z M 57.34375 22.0625 L 58.027344 21.191406 C 58.179688 21.007812 58.464844 21.007812 58.613281 21.191406 L 59.300781 22.0625 L 60.332031 22.453125 C 60.550781 22.542969 60.640625 22.808594 60.515625 23 L 59.90625 23.929688 L 59.851562 25.03125 C 59.851562 25.257812 59.621094 25.429688 59.390625 25.371094 L 58.328125 25.074219 L 57.261719 25.371094 C 57.03125 25.429688 56.804688 25.269531 56.792969 25.03125 L 56.746094 23.929688 L 56.140625 23 C 56 22.808594 56.09375 22.53125 56.324219 22.453125 Z M 50.742188 17.503906 C 51.558594 17.503906 52.039062 17.847656 52.425781 18.398438 C 52.804688 17.847656 53.296875 17.503906 54.113281 17.503906 C 55.246094 17.503906 56.160156 18.429688 56.160156 19.554688 C 56.160156 21.386719 54.398438 23.152344 52.691406 24.859375 C 52.554688 24.996094 52.324219 24.996094 52.175781 24.859375 C 50.46875 23.152344 48.703125 21.386719 48.703125 19.554688 C 48.703125 18.417969 49.621094 17.503906 50.742188 17.503906 Z M 44.558594 22.464844 L 45.601562 22.074219 L 46.289062 21.203125 C 46.4375 21.019531 46.722656 21.019531 46.871094 21.203125 L 47.558594 22.074219 L 48.601562 22.464844 C 48.820312 22.554688 48.910156 22.820312 48.785156 23.011719 L 48.179688 23.941406 L 48.132812 25.039062 C 48.121094 25.269531 47.890625 25.441406 47.664062 25.382812 L 46.597656 25.085938 L 45.53125 25.382812 C 45.292969 25.441406 45.050781 25.28125 45.050781 25.039062 L 45.003906 23.941406 L 44.398438 23.011719 C 44.238281 22.808594 44.351562 22.542969 44.558594 22.464844 Z M 44.558594 22.464844 " fill-opacity="1" fill-rule="evenodd"/><g fill="#ffffff" fill-opacity="1"><g transform="translate(27.90686, 77.520719)"><g><path d="M 3.484375 -6.671875 C 2.941406 -6.671875 2.476562 -6.375 2.09375 -5.78125 C 1.707031 -5.1875 1.515625 -4.363281 1.515625 -3.3125 C 1.515625 -2.257812 1.695312 -1.460938 2.0625 -0.921875 C 2.4375 -0.378906 2.898438 -0.109375 3.453125 -0.109375 C 4.003906 -0.109375 4.46875 -0.40625 4.84375 -1 C 5.226562 -1.59375 5.421875 -2.410156 5.421875 -3.453125 C 5.421875 -4.492188 5.234375 -5.289062 4.859375 -5.84375 C 4.492188 -6.394531 4.035156 -6.671875 3.484375 -6.671875 Z M 3.453125 0.046875 C 2.703125 0.046875 2.078125 -0.234375 1.578125 -0.796875 C 1.085938 -1.367188 0.84375 -2.207031 0.84375 -3.3125 C 0.84375 -4.414062 1.097656 -5.273438 1.609375 -5.890625 C 2.117188 -6.515625 2.742188 -6.828125 3.484375 -6.828125 C 4.234375 -6.828125 4.859375 -6.535156 5.359375 -5.953125 C 5.859375 -5.378906 6.109375 -4.546875 6.109375 -3.453125 C 6.109375 -2.359375 5.851562 -1.5 5.34375 -0.875 C 4.832031 -0.257812 4.203125 0.046875 3.453125 0.046875 Z M 3.453125 0.046875 "/></g></g></g><g fill="#ffffff" fill-opacity="1"><g transform="translate(36.438962, 77.520719)"><g><path d="M 3.984375 -1.390625 L 1.015625 -1.390625 L 0.84375 -1.53125 L 3.984375 -6.5625 L 4.65625 -6.5625 L 4.65625 -1.53125 L 5.125 -1.53125 L 5.125 -1.390625 L 4.65625 -1.390625 L 4.65625 -0.1875 L 5.34375 -0.15625 C 5.34375 -0.144531 5.335938 -0.09375 5.328125 0 L 3.34375 0.015625 C 3.34375 -0.046875 3.347656 -0.09375 3.359375 -0.125 L 3.875 -0.203125 C 3.9375 -0.203125 3.972656 -0.242188 3.984375 -0.328125 Z M 3.984375 -1.53125 L 3.984375 -6.28125 L 1.015625 -1.53125 Z M 3.984375 -1.53125 "/></g></g></g><g fill="#ffffff" fill-opacity="1"><g transform="translate(43.988957, 77.520719)"><g/></g></g><g fill="#ffffff" fill-opacity="1"><g transform="translate(48.543007, 77.520719)"><g><path d="M 6.296875 -6.9375 C 6.296875 -6.9375 6.296875 -6.890625 6.296875 -6.796875 L 5.671875 -6.734375 L 5.671875 -0.1875 L 6.40625 -0.15625 C 6.40625 -0.144531 6.398438 -0.09375 6.390625 0 L 4.40625 0.015625 C 4.40625 -0.046875 4.410156 -0.09375 4.421875 -0.125 L 4.9375 -0.203125 C 5 -0.203125 5.035156 -0.242188 5.046875 -0.328125 L 5.046875 -3.34375 L 1.671875 -3.34375 L 1.671875 -0.1875 L 2.40625 -0.15625 C 2.40625 -0.144531 2.398438 -0.09375 2.390625 0 L 0.390625 0.015625 L 0.40625 -0.125 L 0.921875 -0.203125 C 0.984375 -0.203125 1.023438 -0.238281 1.046875 -0.3125 L 1.046875 -6.609375 C 1.023438 -6.691406 0.984375 -6.734375 0.921875 -6.734375 L 0.40625 -6.78125 L 0.390625 -6.9375 L 2.390625 -6.9375 C 2.390625 -6.9375 2.394531 -6.890625 2.40625 -6.796875 L 1.671875 -6.734375 L 1.671875 -3.546875 L 5.046875 -3.546875 L 5.046875 -6.59375 C 5.035156 -6.6875 5 -6.734375 4.9375 -6.734375 L 4.421875 -6.78125 C 4.410156 -6.820312 4.40625 -6.875 4.40625 -6.9375 Z M 6.296875 -6.9375 "/></g></g></g><g fill="#ffffff" fill-opacity="1"><g transform="translate(56.926306, 77.520719)"><g/></g></g><g fill="#ffffff" fill-opacity="1"><g transform="translate(61.480356, 77.520719)"><g><path d="M 3.484375 -6.671875 C 2.941406 -6.671875 2.476562 -6.375 2.09375 -5.78125 C 1.707031 -5.1875 1.515625 -4.363281 1.515625 -3.3125 C 1.515625 -2.257812 1.695312 -1.460938 2.0625 -0.921875 C 2.4375 -0.378906 2.898438 -0.109375 3.453125 -0.109375 C 4.003906 -0.109375 4.46875 -0.40625 4.84375 -1 C 5.226562 -1.59375 5.421875 -2.410156 5.421875 -3.453125 C 5.421875 -4.492188 5.234375 -5.289062 4.859375 -5.84375 C 4.492188 -6.394531 4.035156 -6.671875 3.484375 -6.671875 Z M 3.453125 0.046875 C 2.703125 0.046875 2.078125 -0.234375 1.578125 -0.796875 C 1.085938 -1.367188 0.84375 -2.207031 0.84375 -3.3125 C 0.84375 -4.414062 1.097656 -5.273438 1.609375 -5.890625 C 2.117188 -6.515625 2.742188 -6.828125 3.484375 -6.828125 C 4.234375 -6.828125 4.859375 -6.535156 5.359375 -5.953125 C 5.859375 -5.378906 6.109375 -4.546875 6.109375 -3.453125 C 6.109375 -2.359375 5.851562 -1.5 5.34375 -0.875 C 4.832031 -0.257812 4.203125 0.046875 3.453125 0.046875 Z M 3.453125 0.046875 "/></g></g></g><g fill="#ffffff" fill-opacity="1"><g transform="translate(70.012459, 77.520719)"><g><path d="M 3.484375 -6.671875 C 2.941406 -6.671875 2.476562 -6.375 2.09375 -5.78125 C 1.707031 -5.1875 1.515625 -4.363281 1.515625 -3.3125 C 1.515625 -2.257812 1.695312 -1.460938 2.0625 -0.921875 C 2.4375 -0.378906 2.898438 -0.109375 3.453125 -0.109375 C 4.003906 -0.109375 4.46875 -0.40625 4.84375 -1 C 5.226562 -1.59375 5.421875 -2.410156 5.421875 -3.453125 C 5.421875 -4.492188 5.234375 -5.289062 4.859375 -5.84375 C 4.492188 -6.394531 4.035156 -6.671875 3.484375 -6.671875 Z M 3.453125 0.046875 C 2.703125 0.046875 2.078125 -0.234375 1.578125 -0.796875 C 1.085938 -1.367188 0.84375 -2.207031 0.84375 -3.3125 C 0.84375 -4.414062 1.097656 -5.273438 1.609375 -5.890625 C 2.117188 -6.515625 2.742188 -6.828125 3.484375 -6.828125 C 4.234375 -6.828125 4.859375 -6.535156 5.359375 -5.953125 C 5.859375 -5.378906 6.109375 -4.546875 6.109375 -3.453125 C 6.109375 -2.359375 5.851562 -1.5 5.34375 -0.875 C 4.832031 -0.257812 4.203125 0.046875 3.453125 0.046875 Z M 3.453125 0.046875 "/></g></g></g><g fill="#ffffff" fill-opacity="1"><g transform="translate(7.994936, 92.637915)"><g><path d="M 0.453125 -6.796875 L 0.46875 -6.9375 L 4.71875 -6.9375 L 4.703125 -6.921875 L 4.828125 -5.515625 L 4.640625 -5.4375 L 4.46875 -6.75 L 1.78125 -6.75 L 1.78125 -3.546875 L 4.140625 -3.546875 C 4.179688 -3.535156 4.210938 -3.539062 4.234375 -3.5625 C 4.265625 -3.59375 4.28125 -3.625 4.28125 -3.65625 L 4.3125 -4.34375 L 4.46875 -4.359375 L 4.46875 -2.671875 C 4.46875 -2.671875 4.421875 -2.664062 4.328125 -2.65625 L 4.28125 -3.34375 L 1.78125 -3.34375 L 1.78125 -0.203125 L 4.75 -0.203125 L 4.9375 -1.78125 L 5.125 -1.734375 L 4.96875 0 L 2.453125 0 L 0.453125 0.015625 L 0.46875 -0.125 L 0.984375 -0.203125 C 1.046875 -0.203125 1.082031 -0.242188 1.09375 -0.328125 L 1.09375 -6.609375 C 1.082031 -6.691406 1.046875 -6.734375 0.984375 -6.734375 Z M 0.453125 -6.796875 "/></g></g></g><g fill="#ffffff" fill-opacity="1"><g transform="translate(13.361838, 92.637915)"><g><path d="M 5.1875 -4.953125 C 5.1875 -4.953125 5.191406 -4.90625 5.203125 -4.8125 L 4.765625 -4.765625 L 3.265625 -2.484375 L 4.84375 -0.171875 L 5.375 -0.15625 C 5.375 -0.144531 5.375 -0.09375 5.375 0 L 3.234375 0.015625 C 3.234375 -0.046875 3.238281 -0.09375 3.25 -0.125 L 3.875 -0.203125 C 3.90625 -0.210938 3.929688 -0.234375 3.953125 -0.265625 C 3.972656 -0.296875 3.972656 -0.320312 3.953125 -0.34375 L 2.765625 -2.1875 L 1.359375 0 L 0.40625 0.015625 L 0.390625 -0.140625 L 1.15625 -0.203125 L 2.59375 -2.421875 L 2.484375 -2.625 L 0.9375 -4.90625 L 1.734375 -4.90625 L 1.828125 -4.75 L 1.15625 -4.609375 C 1.082031 -4.703125 1.023438 -4.75 0.984375 -4.75 L 0.59375 -4.796875 C 0.582031 -4.835938 0.578125 -4.890625 0.578125 -4.953125 L 2.671875 -4.953125 C 2.671875 -4.953125 2.671875 -4.90625 2.671875 -4.8125 L 1.828125 -4.75 L 3.109375 -2.71875 L 4.53125 -4.953125 Z M 5.1875 -4.953125 "/></g></g></g><g fill="#ffffff" fill-opacity="1"><g transform="translate(19.135471, 92.637915)"><g><path d="M 2.65625 -0.1875 L 3.046875 -0.203125 L 3.078125 -0.109375 C 3.066406 -0.109375 3.019531 -0.0976562 2.9375 -0.078125 C 2.738281 -0.0351562 2.515625 -0.015625 2.265625 -0.015625 C 2.046875 -0.0234375 1.84375 -0.0625 1.65625 -0.125 C 1.46875 -0.1875 1.296875 -0.316406 1.140625 -0.515625 C 0.984375 -0.722656 0.90625 -0.984375 0.90625 -1.296875 L 0.90625 -4.78125 L 0.390625 -4.78125 L 0.46875 -4.859375 L 0.90625 -4.953125 L 0.984375 -5.90625 L 1.546875 -5.953125 L 1.546875 -4.953125 L 2.75 -4.953125 L 2.75 -4.78125 L 1.546875 -4.78125 L 1.546875 -1.46875 C 1.546875 -0.96875 1.648438 -0.628906 1.859375 -0.453125 C 2.078125 -0.273438 2.34375 -0.1875 2.65625 -0.1875 Z M 2.65625 -0.1875 "/></g></g></g><g fill="#ffffff" fill-opacity="1"><g transform="translate(22.607585, 92.637915)"><g><path d="M 1.890625 -4.546875 L 1.890625 -0.203125 L 2.640625 -0.15625 C 2.640625 -0.144531 2.632812 -0.09375 2.625 0 L 0.640625 0.015625 C 0.640625 -0.046875 0.644531 -0.09375 0.65625 -0.125 L 1.171875 -0.203125 C 1.210938 -0.203125 1.238281 -0.226562 1.25 -0.28125 L 1.25 -4.640625 C 1.238281 -4.691406 1.21875 -4.71875 1.1875 -4.71875 L 0.59375 -4.734375 L 0.609375 -4.875 C 0.960938 -4.925781 1.234375 -4.953125 1.421875 -4.953125 C 1.609375 -4.953125 1.734375 -4.910156 1.796875 -4.828125 C 1.859375 -4.742188 1.890625 -4.648438 1.890625 -4.546875 Z M 1.546875 -6.296875 C 1.421875 -6.296875 1.320312 -6.332031 1.25 -6.40625 C 1.175781 -6.488281 1.140625 -6.597656 1.140625 -6.734375 C 1.140625 -6.867188 1.175781 -6.976562 1.25 -7.0625 C 1.332031 -7.144531 1.4375 -7.1875 1.5625 -7.1875 C 1.695312 -7.1875 1.804688 -7.144531 1.890625 -7.0625 C 1.972656 -6.976562 2.015625 -6.863281 2.015625 -6.71875 C 2.015625 -6.582031 1.96875 -6.476562 1.875 -6.40625 C 1.789062 -6.332031 1.679688 -6.296875 1.546875 -6.296875 Z M 1.546875 -6.296875 "/></g></g></g><g fill="#ffffff" fill-opacity="1"><g transform="translate(25.742407, 92.637915)"><g><path d="M 0.546875 0.015625 L 0.5625 -0.125 L 1.078125 -0.203125 C 1.128906 -0.203125 1.15625 -0.25 1.15625 -0.34375 L 1.15625 -4.640625 C 1.144531 -4.691406 1.125 -4.71875 1.09375 -4.71875 L 0.5 -4.734375 L 0.5 -4.875 C 0.914062 -4.925781 1.195312 -4.953125 1.34375 -4.953125 C 1.613281 -4.953125 1.765625 -4.835938 1.796875 -4.609375 L 1.8125 -4.609375 L 1.8125 -4.40625 C 2.351562 -4.769531 2.867188 -4.960938 3.359375 -4.984375 C 3.847656 -4.984375 4.21875 -4.890625 4.46875 -4.703125 C 4.582031 -4.617188 4.679688 -4.484375 4.765625 -4.296875 C 4.859375 -4.117188 4.90625 -3.90625 4.90625 -3.65625 L 4.90625 -0.203125 L 5.640625 -0.15625 C 5.640625 -0.144531 5.640625 -0.09375 5.640625 0 L 3.65625 0.015625 C 3.65625 -0.046875 3.65625 -0.09375 3.65625 -0.125 L 4.171875 -0.203125 C 4.222656 -0.203125 4.25 -0.25 4.25 -0.34375 L 4.25 -3.40625 C 4.25 -3.664062 4.210938 -3.890625 4.140625 -4.078125 C 4.078125 -4.265625 4.003906 -4.398438 3.921875 -4.484375 C 3.835938 -4.566406 3.734375 -4.632812 3.609375 -4.6875 C 3.460938 -4.738281 3.304688 -4.765625 3.140625 -4.765625 C 2.742188 -4.753906 2.300781 -4.597656 1.8125 -4.296875 L 1.8125 -0.203125 L 2.546875 -0.15625 C 2.546875 -0.144531 2.546875 -0.09375 2.546875 0 Z M 0.546875 0.015625 "/></g></g></g><g fill="#ffffff" fill-opacity="1"><g transform="translate(31.992211, 92.637915)"><g><path d="M 2.96875 -4.828125 C 2.414062 -4.828125 1.960938 -4.601562 1.609375 -4.15625 C 1.265625 -3.71875 1.09375 -3.097656 1.09375 -2.296875 C 1.09375 -0.859375 1.640625 -0.140625 2.734375 -0.140625 C 3.160156 -0.140625 3.523438 -0.179688 3.828125 -0.265625 C 4.128906 -0.347656 4.296875 -0.398438 4.328125 -0.421875 L 4.390625 -0.3125 C 4.242188 -0.207031 3.992188 -0.117188 3.640625 -0.046875 C 3.285156 0.015625 2.96875 0.046875 2.6875 0.046875 C 2.40625 0.046875 2.144531 0.015625 1.90625 -0.046875 C 1.675781 -0.109375 1.441406 -0.210938 1.203125 -0.359375 C 0.972656 -0.515625 0.789062 -0.753906 0.65625 -1.078125 C 0.519531 -1.410156 0.453125 -1.8125 0.453125 -2.28125 C 0.453125 -3.144531 0.671875 -3.800781 1.109375 -4.25 C 1.609375 -4.757812 2.234375 -5.015625 2.984375 -5.015625 C 3.222656 -5.015625 3.472656 -4.984375 3.734375 -4.921875 C 4.003906 -4.859375 4.210938 -4.757812 4.359375 -4.625 L 4.359375 -3.328125 L 4.171875 -3.25 L 4.125 -4.296875 C 3.976562 -4.453125 3.800781 -4.578125 3.59375 -4.671875 C 3.382812 -4.773438 3.175781 -4.828125 2.96875 -4.828125 Z M 2.96875 -4.828125 "/></g></g></g><g fill="#ffffff" fill-opacity="1"><g transform="translate(36.734127, 92.637915)"><g><path d="M 2.65625 -0.1875 L 3.046875 -0.203125 L 3.078125 -0.109375 C 3.066406 -0.109375 3.019531 -0.0976562 2.9375 -0.078125 C 2.738281 -0.0351562 2.515625 -0.015625 2.265625 -0.015625 C 2.046875 -0.0234375 1.84375 -0.0625 1.65625 -0.125 C 1.46875 -0.1875 1.296875 -0.316406 1.140625 -0.515625 C 0.984375 -0.722656 0.90625 -0.984375 0.90625 -1.296875 L 0.90625 -4.78125 L 0.390625 -4.78125 L 0.46875 -4.859375 L 0.90625 -4.953125 L 0.984375 -5.90625 L 1.546875 -5.953125 L 1.546875 -4.953125 L 2.75 -4.953125 L 2.75 -4.78125 L 1.546875 -4.78125 L 1.546875 -1.46875 C 1.546875 -0.96875 1.648438 -0.628906 1.859375 -0.453125 C 2.078125 -0.273438 2.34375 -0.1875 2.65625 -0.1875 Z M 2.65625 -0.1875 "/></g></g></g><g fill="#ffffff" fill-opacity="1"><g transform="translate(40.206241, 92.637915)"><g><path d="M 1.890625 -4.546875 L 1.890625 -0.203125 L 2.640625 -0.15625 C 2.640625 -0.144531 2.632812 -0.09375 2.625 0 L 0.640625 0.015625 C 0.640625 -0.046875 0.644531 -0.09375 0.65625 -0.125 L 1.171875 -0.203125 C 1.210938 -0.203125 1.238281 -0.226562 1.25 -0.28125 L 1.25 -4.640625 C 1.238281 -4.691406 1.21875 -4.71875 1.1875 -4.71875 L 0.59375 -4.734375 L 0.609375 -4.875 C 0.960938 -4.925781 1.234375 -4.953125 1.421875 -4.953125 C 1.609375 -4.953125 1.734375 -4.910156 1.796875 -4.828125 C 1.859375 -4.742188 1.890625 -4.648438 1.890625 -4.546875 Z M 1.546875 -6.296875 C 1.421875 -6.296875 1.320312 -6.332031 1.25 -6.40625 C 1.175781 -6.488281 1.140625 -6.597656 1.140625 -6.734375 C 1.140625 -6.867188 1.175781 -6.976562 1.25 -7.0625 C 1.332031 -7.144531 1.4375 -7.1875 1.5625 -7.1875 C 1.695312 -7.1875 1.804688 -7.144531 1.890625 -7.0625 C 1.972656 -6.976562 2.015625 -6.863281 2.015625 -6.71875 C 2.015625 -6.582031 1.96875 -6.476562 1.875 -6.40625 C 1.789062 -6.332031 1.679688 -6.296875 1.546875 -6.296875 Z M 1.546875 -6.296875 "/></g></g></g><g fill="#ffffff" fill-opacity="1"><g transform="translate(43.341063, 92.637915)"><g><path d="M 2.75 0.046875 C 2.0625 0.046875 1.503906 -0.148438 1.078125 -0.546875 C 0.660156 -0.953125 0.453125 -1.5625 0.453125 -2.375 C 0.453125 -3.195312 0.675781 -3.835938 1.125 -4.296875 C 1.582031 -4.765625 2.15625 -5 2.84375 -5 C 3.53125 -5 4.085938 -4.800781 4.515625 -4.40625 C 4.941406 -4.007812 5.15625 -3.398438 5.15625 -2.578125 C 5.15625 -1.765625 4.925781 -1.125 4.46875 -0.65625 C 4.019531 -0.1875 3.445312 0.046875 2.75 0.046875 Z M 2.828125 -4.828125 C 2.328125 -4.828125 1.910156 -4.609375 1.578125 -4.171875 C 1.253906 -3.742188 1.09375 -3.160156 1.09375 -2.421875 C 1.09375 -1.679688 1.25 -1.113281 1.5625 -0.71875 C 1.875 -0.332031 2.273438 -0.140625 2.765625 -0.140625 C 3.265625 -0.140625 3.679688 -0.351562 4.015625 -0.78125 C 4.347656 -1.207031 4.515625 -1.785156 4.515625 -2.515625 C 4.515625 -3.253906 4.359375 -3.820312 4.046875 -4.21875 C 3.734375 -4.625 3.328125 -4.828125 2.828125 -4.828125 Z M 2.828125 -4.828125 "/></g></g></g><g fill="#ffffff" fill-opacity="1"><g transform="translate(48.94605, 92.637915)"><g><path d="M 0.546875 0.015625 L 0.5625 -0.125 L 1.078125 -0.203125 C 1.128906 -0.203125 1.15625 -0.25 1.15625 -0.34375 L 1.15625 -4.640625 C 1.144531 -4.691406 1.125 -4.71875 1.09375 -4.71875 L 0.5 -4.734375 L 0.5 -4.875 C 0.914062 -4.925781 1.195312 -4.953125 1.34375 -4.953125 C 1.613281 -4.953125 1.765625 -4.835938 1.796875 -4.609375 L 1.8125 -4.609375 L 1.8125 -4.40625 C 2.351562 -4.769531 2.867188 -4.960938 3.359375 -4.984375 C 3.847656 -4.984375 4.21875 -4.890625 4.46875 -4.703125 C 4.582031 -4.617188 4.679688 -4.484375 4.765625 -4.296875 C 4.859375 -4.117188 4.90625 -3.90625 4.90625 -3.65625 L 4.90625 -0.203125 L 5.640625 -0.15625 C 5.640625 -0.144531 5.640625 -0.09375 5.640625 0 L 3.65625 0.015625 C 3.65625 -0.046875 3.65625 -0.09375 3.65625 -0.125 L 4.171875 -0.203125 C 4.222656 -0.203125 4.25 -0.25 4.25 -0.34375 L 4.25 -3.40625 C 4.25 -3.664062 4.210938 -3.890625 4.140625 -4.078125 C 4.078125 -4.265625 4.003906 -4.398438 3.921875 -4.484375 C 3.835938 -4.566406 3.734375 -4.632812 3.609375 -4.6875 C 3.460938 -4.738281 3.304688 -4.765625 3.140625 -4.765625 C 2.742188 -4.753906 2.300781 -4.597656 1.8125 -4.296875 L 1.8125 -0.203125 L 2.546875 -0.15625 C 2.546875 -0.144531 2.546875 -0.09375 2.546875 0 Z M 0.546875 0.015625 "/></g></g></g><g fill="#ffffff" fill-opacity="1"><g transform="translate(55.195853, 92.637915)"><g/></g></g><g fill="#ffffff" fill-opacity="1"><g transform="translate(58.16203, 92.637915)"><g><path d="M 4.5 -7.03125 L 4.5 -0.515625 C 4.5 -0.304688 4.550781 -0.203125 4.65625 -0.203125 L 5.25 -0.171875 L 5.234375 -0.03125 C 4.921875 0.0195312 4.59375 0.046875 4.25 0.046875 C 4.175781 0.046875 4.097656 0.015625 4.015625 -0.046875 C 3.929688 -0.117188 3.882812 -0.207031 3.875 -0.3125 C 3.488281 -0.0703125 3.050781 0.046875 2.5625 0.046875 C 2.070312 0.046875 1.625 -0.0859375 1.21875 -0.359375 C 0.988281 -0.515625 0.800781 -0.753906 0.65625 -1.078125 C 0.519531 -1.410156 0.453125 -1.8125 0.453125 -2.28125 C 0.453125 -3.144531 0.671875 -3.804688 1.109375 -4.265625 C 1.578125 -4.753906 2.113281 -5 2.71875 -5 C 3.09375 -5 3.46875 -4.90625 3.84375 -4.71875 L 3.84375 -7.078125 C 3.84375 -7.148438 3.828125 -7.1875 3.796875 -7.1875 L 3.1875 -7.21875 L 3.1875 -7.359375 C 3.601562 -7.410156 3.890625 -7.4375 4.046875 -7.4375 C 4.203125 -7.4375 4.316406 -7.394531 4.390625 -7.3125 C 4.460938 -7.226562 4.5 -7.132812 4.5 -7.03125 Z M 2.6875 -0.140625 C 3.09375 -0.140625 3.476562 -0.226562 3.84375 -0.40625 L 3.84375 -4.546875 C 3.550781 -4.734375 3.265625 -4.828125 2.984375 -4.828125 C 2.421875 -4.828125 1.960938 -4.609375 1.609375 -4.171875 C 1.265625 -3.734375 1.09375 -3.109375 1.09375 -2.296875 C 1.09375 -0.859375 1.625 -0.140625 2.6875 -0.140625 Z M 2.6875 -0.140625 "/></g></g></g><g fill="#ffffff" fill-opacity="1"><g transform="translate(63.905895, 92.637915)"><g><path d="M 1.09375 -2.28125 C 1.09375 -0.851562 1.648438 -0.140625 2.765625 -0.140625 C 3.046875 -0.140625 3.351562 -0.171875 3.6875 -0.234375 C 4.019531 -0.296875 4.234375 -0.351562 4.328125 -0.40625 L 4.390625 -0.3125 C 4.242188 -0.207031 3.992188 -0.117188 3.640625 -0.046875 C 3.296875 0.015625 2.976562 0.046875 2.6875 0.046875 C 2.40625 0.046875 2.148438 0.015625 1.921875 -0.046875 C 1.691406 -0.109375 1.457031 -0.210938 1.21875 -0.359375 C 0.976562 -0.515625 0.789062 -0.753906 0.65625 -1.078125 C 0.519531 -1.398438 0.453125 -1.796875 0.453125 -2.265625 C 0.453125 -3.140625 0.675781 -3.8125 1.125 -4.28125 C 1.59375 -4.757812 2.132812 -5 2.75 -5 C 3.375 -5 3.847656 -4.828125 4.171875 -4.484375 C 4.503906 -4.140625 4.671875 -3.65625 4.671875 -3.03125 C 4.671875 -2.90625 4.660156 -2.765625 4.640625 -2.609375 L 1.09375 -2.609375 C 1.09375 -2.535156 1.09375 -2.425781 1.09375 -2.28125 Z M 4.09375 -3.109375 C 4.09375 -3.597656 3.984375 -4 3.765625 -4.3125 C 3.546875 -4.632812 3.25 -4.796875 2.875 -4.796875 C 2.382812 -4.796875 1.96875 -4.578125 1.625 -4.140625 C 1.351562 -3.804688 1.1875 -3.359375 1.125 -2.796875 L 4.078125 -2.796875 C 4.085938 -2.867188 4.09375 -2.972656 4.09375 -3.109375 Z M 4.09375 -3.109375 "/></g></g></g><g fill="#ffffff" fill-opacity="1"><g transform="translate(68.925579, 92.637915)"><g><path d="M 1.8125 -0.125 C 1.84375 -0.125 1.878906 -0.125 1.921875 -0.125 C 2.265625 -0.132812 2.550781 -0.242188 2.78125 -0.453125 C 3.019531 -0.660156 3.140625 -0.96875 3.140625 -1.375 C 3.140625 -1.769531 2.828125 -2.054688 2.203125 -2.234375 C 1.941406 -2.304688 1.679688 -2.382812 1.421875 -2.46875 C 1.171875 -2.550781 0.953125 -2.6875 0.765625 -2.875 C 0.585938 -3.0625 0.5 -3.304688 0.5 -3.609375 C 0.5 -4.023438 0.660156 -4.359375 0.984375 -4.609375 C 1.304688 -4.867188 1.71875 -5 2.21875 -5 C 2.582031 -5 2.953125 -4.929688 3.328125 -4.796875 L 3.515625 -4.734375 L 3.515625 -3.59375 L 3.328125 -3.515625 L 3.28125 -4.359375 C 2.894531 -4.671875 2.578125 -4.828125 2.328125 -4.828125 C 1.960938 -4.828125 1.671875 -4.71875 1.453125 -4.5 C 1.242188 -4.28125 1.140625 -3.992188 1.140625 -3.640625 C 1.140625 -3.429688 1.226562 -3.265625 1.40625 -3.140625 C 1.59375 -3.015625 1.8125 -2.914062 2.0625 -2.84375 C 2.320312 -2.769531 2.582031 -2.6875 2.84375 -2.59375 C 3.101562 -2.507812 3.320312 -2.363281 3.5 -2.15625 C 3.6875 -1.957031 3.78125 -1.695312 3.78125 -1.375 C 3.78125 -0.9375 3.613281 -0.585938 3.28125 -0.328125 C 2.957031 -0.078125 2.492188 0.046875 1.890625 0.046875 C 1.285156 0.046875 0.785156 -0.0976562 0.390625 -0.390625 L 0.390625 -1.53125 L 0.578125 -1.59375 L 0.625 -0.75 C 0.71875 -0.582031 0.882812 -0.4375 1.125 -0.3125 C 1.363281 -0.1875 1.59375 -0.125 1.8125 -0.125 Z M 1.8125 -0.125 "/></g></g></g><g fill="#ffffff" fill-opacity="1"><g transform="translate(73.102033, 92.637915)"><g/></g></g><g fill="#ffffff" fill-opacity="1"><g transform="translate(76.06821, 92.637915)"><g><path d="M 0.390625 0.015625 L 0.40625 -0.125 L 0.921875 -0.203125 C 0.984375 -0.203125 1.015625 -0.25 1.015625 -0.34375 L 1.015625 -4.78125 L 0.5 -4.78125 L 0.578125 -4.859375 L 1.015625 -4.953125 L 1.015625 -6.15625 C 1.015625 -6.613281 1.160156 -6.941406 1.453125 -7.140625 C 1.753906 -7.347656 2.101562 -7.453125 2.5 -7.453125 C 2.757812 -7.453125 2.984375 -7.414062 3.171875 -7.34375 L 3.140625 -7.265625 C 2.984375 -7.285156 2.847656 -7.296875 2.734375 -7.296875 C 2.617188 -7.296875 2.503906 -7.28125 2.390625 -7.25 C 2.285156 -7.21875 2.171875 -7.160156 2.046875 -7.078125 C 1.785156 -6.878906 1.65625 -6.5 1.65625 -5.9375 L 1.65625 -4.953125 L 2.859375 -4.953125 L 2.859375 -4.78125 L 1.65625 -4.78125 L 1.65625 -0.203125 L 2.5 -0.15625 C 2.5 -0.144531 2.492188 -0.09375 2.484375 0 Z M 0.390625 0.015625 "/></g></g></g><g fill="#ffffff" fill-opacity="1"><g transform="translate(79.639531, 92.637915)"><g><path d="M 1.09375 -2.28125 C 1.09375 -0.851562 1.648438 -0.140625 2.765625 -0.140625 C 3.046875 -0.140625 3.351562 -0.171875 3.6875 -0.234375 C 4.019531 -0.296875 4.234375 -0.351562 4.328125 -0.40625 L 4.390625 -0.3125 C 4.242188 -0.207031 3.992188 -0.117188 3.640625 -0.046875 C 3.296875 0.015625 2.976562 0.046875 2.6875 0.046875 C 2.40625 0.046875 2.148438 0.015625 1.921875 -0.046875 C 1.691406 -0.109375 1.457031 -0.210938 1.21875 -0.359375 C 0.976562 -0.515625 0.789062 -0.753906 0.65625 -1.078125 C 0.519531 -1.398438 0.453125 -1.796875 0.453125 -2.265625 C 0.453125 -3.140625 0.675781 -3.8125 1.125 -4.28125 C 1.59375 -4.757812 2.132812 -5 2.75 -5 C 3.375 -5 3.847656 -4.828125 4.171875 -4.484375 C 4.503906 -4.140625 4.671875 -3.65625 4.671875 -3.03125 C 4.671875 -2.90625 4.660156 -2.765625 4.640625 -2.609375 L 1.09375 -2.609375 C 1.09375 -2.535156 1.09375 -2.425781 1.09375 -2.28125 Z M 4.09375 -3.109375 C 4.09375 -3.597656 3.984375 -4 3.765625 -4.3125 C 3.546875 -4.632812 3.25 -4.796875 2.875 -4.796875 C 2.382812 -4.796875 1.96875 -4.578125 1.625 -4.140625 C 1.351562 -3.804688 1.1875 -3.359375 1.125 -2.796875 L 4.078125 -2.796875 C 4.085938 -2.867188 4.09375 -2.972656 4.09375 -3.109375 Z M 4.09375 -3.109375 "/></g></g></g><g fill="#ffffff" fill-opacity="1"><g transform="translate(84.659215, 92.637915)"><g><path d="M 0.609375 -4.796875 L 0.59375 -4.953125 L 1.9375 -4.953125 L 1.9375 -1.515625 C 1.9375 -1.253906 1.972656 -1.03125 2.046875 -0.84375 C 2.117188 -0.65625 2.195312 -0.515625 2.28125 -0.421875 C 2.375 -0.335938 2.476562 -0.273438 2.59375 -0.234375 C 2.78125 -0.160156 2.9375 -0.132812 3.0625 -0.15625 C 3.46875 -0.15625 3.925781 -0.363281 4.4375 -0.78125 L 4.4375 -4.609375 C 4.414062 -4.691406 4.363281 -4.738281 4.28125 -4.75 L 3.765625 -4.796875 C 3.753906 -4.835938 3.75 -4.890625 3.75 -4.953125 L 5.09375 -4.953125 L 5.09375 -0.453125 C 5.101562 -0.285156 5.15625 -0.203125 5.25 -0.203125 L 5.84375 -0.171875 L 5.828125 -0.03125 C 5.515625 0.0195312 5.1875 0.046875 4.84375 0.046875 C 4.757812 0.046875 4.671875 0.00390625 4.578125 -0.078125 C 4.484375 -0.160156 4.4375 -0.265625 4.4375 -0.390625 L 4.4375 -0.578125 C 3.84375 -0.171875 3.273438 0.03125 2.734375 0.03125 C 2.515625 0.03125 2.25 -0.0234375 1.9375 -0.140625 C 1.738281 -0.210938 1.582031 -0.347656 1.46875 -0.546875 C 1.351562 -0.753906 1.296875 -1.007812 1.296875 -1.3125 L 1.296875 -4.609375 C 1.296875 -4.640625 1.273438 -4.671875 1.234375 -4.703125 C 1.203125 -4.734375 1.164062 -4.75 1.125 -4.75 Z M 0.609375 -4.796875 "/></g></g></g><g fill="#ffffff" fill-opacity="1"><g transform="translate(91.097505, 92.637915)"><g><path d="M 5.1875 -4.953125 C 5.1875 -4.953125 5.191406 -4.90625 5.203125 -4.8125 L 4.765625 -4.765625 L 3.265625 -2.484375 L 4.84375 -0.171875 L 5.375 -0.15625 C 5.375 -0.144531 5.375 -0.09375 5.375 0 L 3.234375 0.015625 C 3.234375 -0.046875 3.238281 -0.09375 3.25 -0.125 L 3.875 -0.203125 C 3.90625 -0.210938 3.929688 -0.234375 3.953125 -0.265625 C 3.972656 -0.296875 3.972656 -0.320312 3.953125 -0.34375 L 2.765625 -2.1875 L 1.359375 0 L 0.40625 0.015625 L 0.390625 -0.140625 L 1.15625 -0.203125 L 2.59375 -2.421875 L 2.484375 -2.625 L 0.9375 -4.90625 L 1.734375 -4.90625 L 1.828125 -4.75 L 1.15625 -4.609375 C 1.082031 -4.703125 1.023438 -4.75 0.984375 -4.75 L 0.59375 -4.796875 C 0.582031 -4.835938 0.578125 -4.890625 0.578125 -4.953125 L 2.671875 -4.953125 C 2.671875 -4.953125 2.671875 -4.90625 2.671875 -4.8125 L 1.828125 -4.75 L 3.109375 -2.71875 L 4.53125 -4.953125 Z M 5.1875 -4.953125 "/></g></g></g></svg>