<svg xmlns="http://www.w3.org/2000/svg" xmlns:xlink="http://www.w3.org/1999/xlink" width="274" zoomAndPan="magnify" viewBox="0 0 205.5 7.5" height="10" preserveAspectRatio="xMidYMid meet" version="1.0"><defs><clipPath id="026b071504"><path d="M 123 2 L 198.84375 2 L 198.84375 5 L 123 5 Z M 123 2 " clip-rule="nonzero"/></clipPath><clipPath id="6b0f3e52ab"><path d="M 112 3 L 117 3 L 117 6.328125 L 112 6.328125 Z M 112 3 " clip-rule="nonzero"/></clipPath><clipPath id="36608312b8"><path d="M 6.1875 2 L 82 2 L 82 5 L 6.1875 5 Z M 6.1875 2 " clip-rule="nonzero"/></clipPath><clipPath id="c870a4598b"><path d="M 88 3 L 93 3 L 93 6.328125 L 88 6.328125 Z M 88 3 " clip-rule="nonzero"/></clipPath></defs><g clip-path="url(#026b071504)"><path fill="#f2be70" d="M 131.960938 3.039062 C 130.855469 3.039062 129.742188 3.089844 128.644531 2.953125 C 128.257812 2.902344 127.851562 2.847656 127.507812 2.660156 C 127.492188 2.648438 127.472656 2.636719 127.457031 2.625 C 127.441406 2.613281 127.421875 2.605469 127.40625 2.597656 L 127.34375 2.5625 L 127.3125 2.542969 L 127.28125 2.527344 L 127.222656 2.492188 L 127.097656 2.429688 C 127.078125 2.417969 127.054688 2.410156 127.03125 2.398438 L 126.96875 2.371094 C 126.882812 2.339844 126.792969 2.304688 126.707031 2.277344 C 126.664062 2.261719 126.617188 2.25 126.570312 2.238281 L 126.5 2.222656 L 126.46875 2.214844 L 126.433594 2.207031 C 126.195312 2.15625 125.949219 2.132812 125.703125 2.140625 C 125.453125 2.148438 125.207031 2.179688 124.96875 2.238281 C 124.488281 2.351562 124.027344 2.566406 123.609375 2.847656 C 123.402344 2.988281 123.207031 3.144531 123.027344 3.320312 L 123.015625 3.332031 L 123.027344 3.34375 C 123.207031 3.515625 123.402344 3.671875 123.609375 3.816406 C 124.027344 4.097656 124.488281 4.308594 124.96875 4.425781 C 125.210938 4.480469 125.453125 4.515625 125.703125 4.519531 C 125.949219 4.527344 126.191406 4.503906 126.433594 4.453125 L 126.46875 4.445312 L 126.5 4.441406 L 126.570312 4.425781 C 126.617188 4.414062 126.660156 4.402344 126.707031 4.386719 C 126.792969 4.359375 126.882812 4.328125 126.96875 4.292969 L 127.03125 4.265625 C 127.054688 4.257812 127.074219 4.246094 127.097656 4.234375 L 127.160156 4.203125 L 127.222656 4.175781 L 127.28125 4.140625 L 127.3125 4.125 L 127.34375 4.105469 L 127.40625 4.070312 C 127.40625 4.070312 127.4375 4.050781 127.457031 4.039062 C 127.476562 4.027344 127.492188 4.011719 127.511719 4 C 127.855469 3.820312 128.261719 3.761719 128.644531 3.710938 C 129.742188 3.578125 130.859375 3.628906 131.960938 3.628906 C 146.414062 3.617188 198.636719 3.628906 198.636719 3.628906 L 198.636719 3.050781 C 198.636719 3.050781 146.414062 3.058594 131.960938 3.050781 Z M 131.960938 3.039062 " fill-opacity="1" fill-rule="nonzero"/></g><g clip-path="url(#6b0f3e52ab)"><path fill="#f2be70" d="M 116.75 4.476562 C 116.734375 4.363281 116.710938 4.25 116.683594 4.140625 C 116.65625 4.027344 116.617188 3.921875 116.574219 3.816406 C 116.570312 3.804688 116.566406 3.796875 116.5625 3.785156 C 116.515625 3.835938 116.460938 3.886719 116.40625 3.929688 C 116.292969 4.023438 116.171875 4.109375 116.039062 4.179688 C 115.910156 4.246094 115.769531 4.304688 115.628906 4.34375 C 115.484375 4.382812 115.34375 4.410156 115.199219 4.425781 C 115.054688 4.4375 114.910156 4.4375 114.765625 4.425781 C 114.625 4.414062 114.484375 4.390625 114.347656 4.359375 C 114.207031 4.328125 114.074219 4.285156 113.941406 4.238281 C 113.8125 4.1875 113.683594 4.136719 113.5625 4.070312 C 113.5 4.039062 113.4375 4.003906 113.378906 3.964844 L 113.335938 3.9375 L 113.292969 3.914062 C 113.265625 3.894531 113.234375 3.875 113.207031 3.855469 C 113.113281 3.792969 113.027344 3.722656 112.9375 3.65625 C 112.882812 3.710938 112.835938 3.773438 112.78125 3.835938 C 112.679688 3.957031 112.585938 4.085938 112.503906 4.21875 C 112.859375 4.550781 113.191406 4.898438 113.515625 5.238281 C 113.6875 5.425781 113.863281 5.605469 114.039062 5.78125 L 114.136719 5.878906 L 114.164062 5.910156 C 114.1875 5.929688 114.207031 5.953125 114.230469 5.972656 L 114.296875 6.027344 C 114.386719 6.105469 114.476562 6.179688 114.570312 6.25 C 114.664062 6.316406 114.757812 6.378906 114.859375 6.433594 C 114.957031 6.488281 115.058594 6.535156 115.160156 6.566406 C 115.257812 6.601562 115.359375 6.625 115.460938 6.636719 L 115.53125 6.636719 C 115.53125 6.636719 115.542969 6.644531 115.550781 6.644531 L 115.640625 6.644531 C 115.640625 6.644531 115.664062 6.640625 115.675781 6.636719 L 115.710938 6.636719 C 115.710938 6.636719 115.722656 6.628906 115.726562 6.628906 L 115.738281 6.628906 C 115.832031 6.605469 115.921875 6.570312 116 6.527344 C 116.003906 6.527344 116.011719 6.523438 116.015625 6.519531 L 116.03125 6.507812 L 116.0625 6.488281 C 116.0625 6.488281 116.074219 6.480469 116.078125 6.476562 L 116.125 6.441406 C 116.125 6.441406 116.136719 6.433594 116.140625 6.429688 L 116.1875 6.394531 L 116.214844 6.367188 L 116.230469 6.355469 L 116.246094 6.339844 L 116.269531 6.3125 L 116.296875 6.285156 L 116.320312 6.253906 L 116.347656 6.222656 L 116.417969 6.128906 L 116.441406 6.09375 C 116.5 6.007812 116.546875 5.910156 116.589844 5.808594 C 116.632812 5.710938 116.667969 5.601562 116.695312 5.496094 C 116.722656 5.386719 116.742188 5.273438 116.753906 5.160156 C 116.765625 5.046875 116.769531 4.933594 116.769531 4.816406 C 116.769531 4.757812 116.765625 4.703125 116.761719 4.644531 C 116.757812 4.585938 116.75 4.527344 116.742188 4.472656 Z M 116.75 4.476562 " fill-opacity="1" fill-rule="nonzero"/></g><path fill="#f2be70" d="M 115.75 2.832031 C 115.660156 2.78125 115.558594 2.742188 115.460938 2.710938 C 115.359375 2.679688 115.25 2.660156 115.144531 2.652344 C 115.035156 2.644531 114.925781 2.644531 114.8125 2.652344 C 114.699219 2.660156 114.589844 2.679688 114.480469 2.703125 C 114.261719 2.753906 114.046875 2.835938 113.84375 2.9375 C 113.792969 2.964844 113.742188 2.992188 113.691406 3.023438 L 113.65625 3.046875 L 113.625 3.070312 C 113.601562 3.085938 113.574219 3.101562 113.550781 3.117188 C 113.496094 3.152344 113.441406 3.191406 113.386719 3.230469 C 113.441406 3.273438 113.496094 3.3125 113.550781 3.347656 C 113.574219 3.363281 113.601562 3.378906 113.625 3.394531 L 113.65625 3.414062 L 113.691406 3.4375 C 113.742188 3.46875 113.792969 3.496094 113.84375 3.523438 C 114.046875 3.628906 114.261719 3.710938 114.480469 3.757812 C 114.59375 3.78125 114.699219 3.800781 114.8125 3.808594 C 114.925781 3.816406 115.03125 3.816406 115.144531 3.808594 C 115.25 3.796875 115.359375 3.777344 115.460938 3.75 C 115.5625 3.722656 115.660156 3.679688 115.75 3.632812 C 115.84375 3.582031 115.933594 3.523438 116.011719 3.453125 C 116.09375 3.386719 116.171875 3.308594 116.242188 3.226562 C 116.171875 3.140625 116.097656 3.066406 116.011719 3 C 115.933594 2.929688 115.84375 2.871094 115.75 2.824219 Z M 115.75 2.832031 " fill-opacity="1" fill-rule="nonzero"/><path fill="#f2be70" d="M 112.9375 2.820312 C 113.027344 2.75 113.113281 2.679688 113.207031 2.617188 C 113.234375 2.601562 113.265625 2.582031 113.292969 2.5625 L 113.378906 2.507812 C 113.4375 2.472656 113.5 2.4375 113.5625 2.402344 C 113.683594 2.339844 113.8125 2.285156 113.941406 2.234375 C 114.074219 2.183594 114.207031 2.144531 114.347656 2.113281 C 114.484375 2.085938 114.625 2.0625 114.765625 2.050781 C 114.910156 2.039062 115.050781 2.039062 115.199219 2.050781 C 115.34375 2.0625 115.484375 2.085938 115.628906 2.128906 C 115.769531 2.167969 115.910156 2.226562 116.039062 2.296875 C 116.171875 2.363281 116.292969 2.449219 116.40625 2.542969 C 116.460938 2.589844 116.515625 2.636719 116.5625 2.6875 C 116.566406 2.675781 116.570312 2.667969 116.574219 2.65625 C 116.617188 2.554688 116.652344 2.441406 116.683594 2.335938 C 116.710938 2.222656 116.734375 2.109375 116.75 1.996094 L 116.757812 1.953125 L 116.757812 1.910156 L 116.765625 1.886719 L 116.765625 1.867188 C 116.765625 1.867188 116.769531 1.839844 116.769531 1.824219 C 116.773438 1.773438 116.773438 1.714844 116.773438 1.660156 C 116.773438 1.550781 116.761719 1.441406 116.742188 1.328125 C 116.703125 1.109375 116.632812 0.898438 116.527344 0.707031 C 116.425781 0.511719 116.289062 0.347656 116.128906 0.226562 C 116.046875 0.164062 115.964844 0.113281 115.871094 0.078125 C 115.777344 0.0429688 115.6875 0.0195312 115.585938 0.0117188 C 115.535156 0.0078125 115.484375 0.0078125 115.4375 0.0117188 C 115.386719 0.0117188 115.335938 0.0195312 115.285156 0.03125 C 115.234375 0.0390625 115.1875 0.0507812 115.132812 0.0664062 C 115.121094 0.0664062 115.105469 0.0742188 115.09375 0.078125 C 115.082031 0.0820312 115.070312 0.0859375 115.054688 0.0898438 C 115.027344 0.101562 115 0.109375 114.972656 0.121094 C 114.761719 0.203125 114.5625 0.3125 114.367188 0.449219 C 114.167969 0.578125 113.984375 0.734375 113.800781 0.894531 C 113.617188 1.054688 113.433594 1.230469 113.25 1.402344 C 113.15625 1.492188 113.066406 1.578125 112.96875 1.664062 C 112.945312 1.6875 112.921875 1.707031 112.894531 1.730469 C 112.871094 1.753906 112.847656 1.773438 112.824219 1.796875 L 112.679688 1.921875 C 112.597656 1.996094 112.515625 2.066406 112.433594 2.136719 C 112.539062 2.3125 112.652344 2.480469 112.78125 2.636719 C 112.832031 2.699219 112.882812 2.761719 112.9375 2.820312 Z M 112.9375 2.820312 " fill-opacity="1" fill-rule="nonzero"/><path fill="#f2be70" d="M 111.96875 2.539062 C 111.707031 2.757812 111.4375 2.976562 111.164062 3.183594 C 111.171875 3.1875 111.179688 3.191406 111.183594 3.195312 C 111.398438 3.339844 111.609375 3.488281 111.816406 3.644531 C 111.867188 3.679688 111.921875 3.722656 111.976562 3.761719 C 112 3.78125 112.023438 3.796875 112.046875 3.816406 C 112.128906 3.6875 112.21875 3.570312 112.316406 3.449219 C 112.375 3.378906 112.4375 3.304688 112.5 3.234375 C 112.433594 3.164062 112.371094 3.09375 112.316406 3.019531 C 112.191406 2.867188 112.074219 2.703125 111.972656 2.539062 Z M 111.96875 2.539062 " fill-opacity="1" fill-rule="nonzero"/><path fill="#f2be70" d="M 120.910156 2.664062 C 120.761719 2.515625 120.621094 2.335938 120.488281 2.117188 C 120.425781 2.011719 120.359375 1.894531 120.296875 1.773438 C 120.238281 1.648438 120.183594 1.519531 120.132812 1.378906 C 120.121094 1.347656 120.109375 1.3125 120.097656 1.285156 L 120.089844 1.285156 L 120.042969 1.277344 C 120.011719 1.273438 119.980469 1.265625 119.945312 1.261719 C 119.820312 1.242188 119.6875 1.226562 119.558594 1.21875 C 119.523438 1.21875 119.492188 1.214844 119.457031 1.210938 C 119.421875 1.210938 119.394531 1.210938 119.359375 1.210938 L 119.15625 1.210938 C 119.023438 1.210938 118.890625 1.21875 118.757812 1.234375 C 118.695312 1.242188 118.632812 1.25 118.574219 1.257812 L 118.519531 1.457031 C 118.433594 1.777344 118.320312 2.074219 118.175781 2.347656 C 118.050781 2.585938 117.90625 2.789062 117.753906 2.960938 C 117.628906 3.101562 117.496094 3.226562 117.351562 3.335938 L 117.359375 3.335938 C 117.359375 3.335938 117.367188 3.347656 117.371094 3.351562 C 117.410156 3.378906 117.445312 3.40625 117.472656 3.429688 C 117.480469 3.4375 117.492188 3.445312 117.5 3.453125 L 117.507812 3.453125 L 117.515625 3.464844 C 117.582031 3.527344 117.671875 3.613281 117.757812 3.710938 C 117.910156 3.886719 118.054688 4.089844 118.179688 4.328125 C 118.324219 4.601562 118.4375 4.898438 118.523438 5.21875 L 118.578125 5.417969 C 118.636719 5.425781 118.699219 5.433594 118.761719 5.441406 C 118.890625 5.457031 119.027344 5.460938 119.160156 5.464844 C 119.296875 5.464844 119.425781 5.464844 119.558594 5.453125 C 119.6875 5.445312 119.820312 5.429688 119.945312 5.410156 C 119.976562 5.40625 120.011719 5.398438 120.042969 5.394531 L 120.089844 5.386719 L 120.097656 5.386719 C 120.109375 5.351562 120.121094 5.320312 120.132812 5.289062 C 120.183594 5.152344 120.238281 5.019531 120.296875 4.898438 C 120.359375 4.773438 120.421875 4.660156 120.488281 4.550781 C 120.625 4.335938 120.765625 4.15625 120.910156 4.003906 C 121.199219 3.703125 121.496094 3.535156 121.746094 3.441406 C 121.953125 3.367188 122.132812 3.34375 122.265625 3.339844 C 122.128906 3.332031 121.953125 3.308594 121.746094 3.230469 C 121.496094 3.140625 121.199219 2.96875 120.910156 2.667969 Z M 120.910156 2.664062 " fill-opacity="1" fill-rule="nonzero"/><g clip-path="url(#36608312b8)"><path fill="#f2be70" d="M 81.207031 2.847656 C 80.792969 2.566406 80.328125 2.351562 79.847656 2.238281 C 79.605469 2.179688 79.359375 2.144531 79.117188 2.140625 C 78.871094 2.132812 78.628906 2.15625 78.390625 2.207031 L 78.25 2.238281 C 78.207031 2.25 78.164062 2.261719 78.117188 2.277344 C 78.027344 2.304688 77.941406 2.335938 77.855469 2.371094 L 77.789062 2.398438 C 77.765625 2.40625 77.746094 2.417969 77.726562 2.429688 L 77.695312 2.445312 L 77.667969 2.460938 L 77.605469 2.492188 L 77.542969 2.527344 L 77.511719 2.542969 L 77.480469 2.5625 L 77.421875 2.597656 C 77.421875 2.597656 77.390625 2.613281 77.371094 2.625 C 77.355469 2.636719 77.339844 2.648438 77.320312 2.660156 C 76.96875 2.847656 76.566406 2.902344 76.179688 2.953125 C 75.082031 3.089844 73.96875 3.039062 72.867188 3.039062 C 58.414062 3.050781 6.191406 3.039062 6.191406 3.039062 L 6.191406 3.617188 C 6.191406 3.617188 58.414062 3.609375 72.867188 3.617188 C 73.972656 3.617188 75.082031 3.566406 76.179688 3.699219 C 76.566406 3.746094 76.964844 3.808594 77.316406 3.988281 C 77.335938 4.003906 77.351562 4.015625 77.371094 4.027344 C 77.386719 4.039062 77.40625 4.050781 77.421875 4.058594 L 77.480469 4.09375 L 77.511719 4.113281 L 77.542969 4.128906 L 77.605469 4.164062 L 77.667969 4.191406 L 77.695312 4.207031 L 77.726562 4.222656 C 77.75 4.234375 77.769531 4.242188 77.789062 4.253906 L 77.855469 4.28125 C 77.941406 4.316406 78.027344 4.351562 78.117188 4.375 C 78.160156 4.390625 78.207031 4.402344 78.25 4.414062 L 78.390625 4.445312 C 78.628906 4.492188 78.875 4.515625 79.121094 4.507812 C 79.367188 4.5 79.613281 4.46875 79.851562 4.414062 C 80.332031 4.296875 80.796875 4.085938 81.210938 3.804688 C 81.417969 3.660156 81.617188 3.503906 81.796875 3.332031 L 81.808594 3.320312 L 81.796875 3.308594 C 81.617188 3.136719 81.417969 2.976562 81.210938 2.835938 Z M 81.207031 2.847656 " fill-opacity="1" fill-rule="nonzero"/></g><g clip-path="url(#c870a4598b)"><path fill="#f2be70" d="M 91.882812 3.65625 C 91.796875 3.722656 91.707031 3.792969 91.613281 3.855469 C 91.589844 3.875 91.558594 3.894531 91.53125 3.914062 L 91.488281 3.9375 L 91.441406 3.964844 C 91.382812 4 91.324219 4.035156 91.261719 4.070312 C 91.136719 4.136719 91.011719 4.1875 90.878906 4.238281 C 90.75 4.289062 90.613281 4.328125 90.476562 4.359375 C 90.335938 4.390625 90.199219 4.414062 90.054688 4.425781 C 89.914062 4.4375 89.769531 4.4375 89.625 4.425781 C 89.480469 4.414062 89.335938 4.386719 89.195312 4.34375 C 89.050781 4.304688 88.914062 4.246094 88.78125 4.179688 C 88.652344 4.109375 88.527344 4.023438 88.417969 3.929688 C 88.363281 3.886719 88.308594 3.835938 88.257812 3.785156 C 88.253906 3.796875 88.25 3.804688 88.246094 3.816406 C 88.203125 3.921875 88.171875 4.03125 88.140625 4.140625 C 88.113281 4.25 88.089844 4.363281 88.074219 4.476562 C 88.066406 4.535156 88.058594 4.59375 88.054688 4.648438 C 88.050781 4.707031 88.046875 4.761719 88.046875 4.820312 C 88.046875 4.9375 88.046875 5.050781 88.0625 5.164062 C 88.074219 5.273438 88.09375 5.386719 88.121094 5.496094 C 88.148438 5.605469 88.183594 5.714844 88.222656 5.8125 C 88.265625 5.914062 88.316406 6.011719 88.375 6.097656 L 88.398438 6.132812 L 88.445312 6.195312 L 88.464844 6.226562 L 88.492188 6.257812 L 88.503906 6.273438 L 88.515625 6.285156 L 88.542969 6.316406 L 88.585938 6.359375 L 88.601562 6.371094 L 88.628906 6.398438 L 88.675781 6.433594 C 88.675781 6.433594 88.6875 6.441406 88.691406 6.445312 L 88.71875 6.46875 L 88.734375 6.480469 C 88.734375 6.480469 88.746094 6.488281 88.75 6.492188 L 88.78125 6.511719 L 88.796875 6.523438 C 88.796875 6.523438 88.808594 6.53125 88.8125 6.53125 C 88.898438 6.574219 88.980469 6.609375 89.074219 6.628906 L 89.089844 6.628906 C 89.089844 6.628906 89.101562 6.632812 89.105469 6.636719 L 89.140625 6.636719 C 89.140625 6.636719 89.164062 6.644531 89.175781 6.644531 L 89.261719 6.644531 C 89.261719 6.644531 89.273438 6.644531 89.28125 6.644531 L 89.355469 6.644531 C 89.457031 6.628906 89.554688 6.605469 89.65625 6.566406 C 89.757812 6.535156 89.855469 6.488281 89.957031 6.433594 C 90.054688 6.378906 90.152344 6.316406 90.246094 6.25 C 90.335938 6.179688 90.429688 6.105469 90.519531 6.027344 L 90.582031 5.972656 C 90.605469 5.953125 90.625 5.933594 90.648438 5.910156 L 90.777344 5.78125 C 90.953125 5.605469 91.125 5.425781 91.300781 5.238281 C 91.625 4.898438 91.953125 4.550781 92.3125 4.21875 C 92.226562 4.085938 92.132812 3.957031 92.035156 3.835938 C 91.984375 3.773438 91.929688 3.710938 91.875 3.65625 Z M 91.882812 3.65625 " fill-opacity="1" fill-rule="nonzero"/></g><path fill="#f2be70" d="M 91.164062 3.046875 L 91.128906 3.023438 C 91.078125 2.992188 91.03125 2.964844 90.980469 2.9375 C 90.777344 2.835938 90.558594 2.75 90.339844 2.703125 C 90.230469 2.679688 90.121094 2.660156 90.011719 2.652344 C 89.898438 2.644531 89.789062 2.644531 89.679688 2.652344 C 89.570312 2.664062 89.464844 2.683594 89.363281 2.710938 C 89.261719 2.738281 89.164062 2.78125 89.070312 2.832031 C 88.976562 2.878906 88.890625 2.9375 88.808594 3.007812 C 88.726562 3.078125 88.652344 3.152344 88.582031 3.234375 C 88.652344 3.320312 88.722656 3.398438 88.808594 3.460938 C 88.890625 3.53125 88.976562 3.589844 89.070312 3.640625 C 89.164062 3.6875 89.261719 3.726562 89.363281 3.757812 C 89.46875 3.789062 89.570312 3.808594 89.679688 3.816406 C 89.785156 3.824219 89.898438 3.824219 90.011719 3.816406 C 90.121094 3.808594 90.234375 3.789062 90.339844 3.765625 C 90.558594 3.714844 90.777344 3.636719 90.980469 3.53125 C 91.03125 3.503906 91.078125 3.476562 91.128906 3.445312 L 91.199219 3.398438 C 91.222656 3.386719 91.25 3.371094 91.273438 3.355469 C 91.328125 3.316406 91.378906 3.277344 91.433594 3.238281 C 91.378906 3.195312 91.328125 3.15625 91.273438 3.125 C 91.25 3.109375 91.222656 3.09375 91.199219 3.078125 L 91.164062 3.054688 Z M 91.164062 3.046875 " fill-opacity="1" fill-rule="nonzero"/><path fill="#f2be70" d="M 88.058594 1.867188 L 88.058594 1.910156 L 88.074219 1.996094 C 88.089844 2.109375 88.113281 2.222656 88.140625 2.335938 C 88.167969 2.445312 88.203125 2.554688 88.246094 2.65625 C 88.25 2.667969 88.253906 2.675781 88.257812 2.6875 C 88.308594 2.636719 88.363281 2.589844 88.417969 2.542969 C 88.527344 2.449219 88.652344 2.363281 88.78125 2.296875 C 88.914062 2.226562 89.050781 2.167969 89.195312 2.128906 C 89.335938 2.089844 89.480469 2.066406 89.625 2.050781 C 89.765625 2.039062 89.914062 2.039062 90.054688 2.050781 C 90.199219 2.0625 90.335938 2.085938 90.476562 2.113281 C 90.613281 2.144531 90.75 2.1875 90.878906 2.234375 C 91.011719 2.285156 91.136719 2.339844 91.261719 2.402344 C 91.324219 2.433594 91.382812 2.46875 91.441406 2.507812 L 91.488281 2.535156 L 91.53125 2.5625 C 91.558594 2.582031 91.589844 2.601562 91.613281 2.617188 C 91.707031 2.679688 91.796875 2.75 91.882812 2.820312 C 91.9375 2.761719 91.988281 2.699219 92.042969 2.636719 C 92.167969 2.480469 92.285156 2.316406 92.390625 2.136719 C 92.308594 2.066406 92.226562 1.996094 92.144531 1.921875 L 92.003906 1.796875 C 91.980469 1.773438 91.953125 1.753906 91.929688 1.730469 C 91.90625 1.707031 91.878906 1.6875 91.859375 1.664062 C 91.761719 1.574219 91.667969 1.488281 91.578125 1.402344 C 91.390625 1.230469 91.210938 1.054688 91.027344 0.894531 C 90.839844 0.734375 90.652344 0.578125 90.460938 0.449219 C 90.265625 0.316406 90.0625 0.203125 89.851562 0.121094 C 89.824219 0.109375 89.796875 0.101562 89.769531 0.0898438 C 89.757812 0.0859375 89.746094 0.0820312 89.734375 0.078125 C 89.722656 0.0742188 89.707031 0.0703125 89.695312 0.0664062 C 89.644531 0.0507812 89.59375 0.0390625 89.539062 0.03125 C 89.492188 0.0234375 89.441406 0.015625 89.390625 0.0117188 C 89.339844 0.0117188 89.289062 0.0117188 89.238281 0.0117188 C 89.144531 0.0195312 89.046875 0.0429688 88.957031 0.078125 C 88.863281 0.113281 88.777344 0.164062 88.699219 0.226562 C 88.535156 0.347656 88.402344 0.511719 88.296875 0.707031 C 88.191406 0.898438 88.125 1.109375 88.085938 1.328125 C 88.066406 1.4375 88.054688 1.550781 88.054688 1.660156 C 88.054688 1.714844 88.054688 1.773438 88.058594 1.824219 C 88.058594 1.839844 88.058594 1.851562 88.058594 1.867188 Z M 88.058594 1.867188 " fill-opacity="1" fill-rule="nonzero"/><path fill="#f2be70" d="M 92.511719 3.019531 C 92.449219 3.09375 92.386719 3.164062 92.328125 3.234375 C 92.390625 3.304688 92.453125 3.378906 92.511719 3.449219 C 92.609375 3.570312 92.695312 3.6875 92.78125 3.816406 C 92.804688 3.796875 92.828125 3.78125 92.851562 3.761719 C 92.90625 3.722656 92.953125 3.679688 93.007812 3.644531 C 93.214844 3.488281 93.429688 3.339844 93.644531 3.195312 L 93.664062 3.183594 C 93.386719 2.976562 93.121094 2.761719 92.859375 2.539062 C 92.753906 2.703125 92.640625 2.867188 92.515625 3.019531 Z M 92.511719 3.019531 " fill-opacity="1" fill-rule="nonzero"/><path fill="#f2be70" d="M 87.070312 2.957031 C 86.914062 2.785156 86.773438 2.578125 86.644531 2.34375 C 86.503906 2.070312 86.386719 1.773438 86.304688 1.453125 L 86.25 1.253906 C 86.1875 1.246094 86.125 1.238281 86.066406 1.230469 C 85.933594 1.214844 85.800781 1.210938 85.664062 1.207031 L 85.464844 1.207031 C 85.429688 1.207031 85.398438 1.207031 85.363281 1.210938 C 85.328125 1.210938 85.296875 1.214844 85.265625 1.21875 C 85.132812 1.226562 85.003906 1.242188 84.875 1.261719 C 84.84375 1.265625 84.808594 1.273438 84.777344 1.277344 L 84.734375 1.285156 L 84.726562 1.285156 C 84.714844 1.316406 84.703125 1.347656 84.691406 1.378906 C 84.640625 1.519531 84.582031 1.648438 84.523438 1.773438 C 84.464844 1.894531 84.402344 2.011719 84.335938 2.117188 C 84.203125 2.335938 84.058594 2.515625 83.917969 2.664062 C 83.628906 2.964844 83.332031 3.136719 83.082031 3.226562 C 82.875 3.304688 82.691406 3.328125 82.5625 3.332031 C 82.695312 3.339844 82.875 3.363281 83.082031 3.4375 C 83.332031 3.527344 83.628906 3.699219 83.917969 4 C 84.0625 4.152344 84.207031 4.332031 84.335938 4.546875 C 84.402344 4.65625 84.46875 4.769531 84.523438 4.894531 C 84.582031 5.015625 84.640625 5.148438 84.691406 5.285156 C 84.703125 5.316406 84.714844 5.351562 84.726562 5.382812 L 84.734375 5.382812 L 84.777344 5.390625 C 84.808594 5.394531 84.84375 5.402344 84.875 5.40625 C 85.003906 5.425781 85.132812 5.441406 85.265625 5.449219 C 85.394531 5.460938 85.53125 5.460938 85.660156 5.460938 C 85.796875 5.457031 85.925781 5.449219 86.0625 5.4375 C 86.121094 5.429688 86.183594 5.421875 86.246094 5.414062 L 86.300781 5.214844 C 86.382812 4.894531 86.5 4.597656 86.640625 4.328125 C 86.769531 4.089844 86.910156 3.882812 87.066406 3.710938 C 87.152344 3.613281 87.242188 3.527344 87.308594 3.464844 L 87.316406 3.457031 L 87.324219 3.457031 C 87.324219 3.457031 87.34375 3.4375 87.351562 3.429688 C 87.378906 3.40625 87.410156 3.378906 87.449219 3.351562 C 87.453125 3.351562 87.457031 3.34375 87.460938 3.34375 L 87.46875 3.34375 C 87.324219 3.230469 87.1875 3.105469 87.070312 2.964844 Z M 87.070312 2.957031 " fill-opacity="1" fill-rule="nonzero"/><path fill="#f2be70" d="M 94.121094 3.179688 L 102.410156 3.523438 L 110.703125 3.179688 L 102.410156 2.835938 Z M 94.121094 3.179688 " fill-opacity="1" fill-rule="nonzero"/></svg>