<svg xmlns="http://www.w3.org/2000/svg" xmlns:xlink="http://www.w3.org/1999/xlink" width="91" zoomAndPan="magnify" viewBox="0 0 68.25 100.499998" height="134" preserveAspectRatio="xMidYMid meet" version="1.0"><defs><g/><clipPath id="e655b5e047"><path d="M 7.292969 0.300781 L 59 0.300781 L 59 65 L 7.292969 65 Z M 7.292969 0.300781 " clip-rule="nonzero"/></clipPath><clipPath id="f68e7adb89"><path d="M 9 0.300781 L 53 0.300781 L 53 61 L 9 61 Z M 9 0.300781 " clip-rule="nonzero"/></clipPath><clipPath id="9e0d96bb45"><path d="M 7.292969 8 L 36 8 L 36 38 L 7.292969 38 Z M 7.292969 8 " clip-rule="nonzero"/></clipPath></defs><g clip-path="url(#e655b5e047)"><path fill="#ed8129" d="M 57.976562 28.914062 C 57.476562 28.253906 56.277344 27.308594 54.761719 26.269531 C 55.214844 24.332031 53.015625 19.445312 51.550781 18.371094 C 50.191406 17.375 47.589844 17.757812 45.367188 18.160156 C 46.136719 16.972656 46.945312 15.589844 46.976562 14.929688 C 47.019531 14.054688 46.113281 10.160156 45.539062 7.796875 C 46.226562 7.117188 47.035156 6.21875 47.15625 5.65625 C 47.367188 4.660156 45.871094 1.628906 42.929688 0.96875 C 39.992188 0.308594 38.140625 2.320312 38.140625 2.320312 C 38.140625 2.320312 38.015625 4.277344 37.992188 5.226562 C 35.625 6.058594 31.566406 7.601562 30.203125 8.808594 C 29.417969 9.503906 29.0625 10.527344 29.515625 11.515625 C 29.617188 11.742188 29.78125 11.960938 29.980469 12.175781 C 29.679688 12.761719 29.519531 13.609375 29.660156 14.890625 C 29.667969 14.9375 29.671875 14.980469 29.675781 15.027344 C 29.671875 15.03125 29.667969 15.03125 29.664062 15.035156 C 29.597656 15.078125 29.570312 15.175781 29.617188 15.242188 C 29.636719 15.273438 29.671875 15.296875 29.703125 15.308594 C 30.011719 18.480469 30.191406 24.355469 32.222656 24.773438 C 33.5 25.039062 35.667969 24.914062 37.433594 24.515625 C 37.058594 24.863281 36.683594 25.210938 36.308594 25.558594 C 36.277344 25.585938 36.265625 25.617188 36.261719 25.648438 C 35.304688 26.367188 34.371094 27.121094 33.464844 27.90625 C 32.328125 28.890625 31.242188 29.933594 30.199219 31.015625 C 30.195312 30.988281 30.191406 30.960938 30.1875 30.933594 C 29.9375 28.863281 29.945312 26.695312 29.4375 24.664062 C 29.117188 24.785156 28.792969 24.910156 28.464844 24.988281 C 28.082031 24.523438 28.488281 23.625 27.988281 23.222656 C 28.089844 23 28.078125 22.742188 28.0625 22.496094 C 28.023438 21.878906 28.097656 20.597656 27.933594 19.445312 C 27.785156 18.417969 27.445312 17.492188 26.660156 17.230469 L 26.660156 12.375 C 26.660156 11.527344 25.976562 10.84375 25.128906 10.84375 L 24.171875 10.84375 L 24.171875 10.574219 C 24.171875 9.609375 23.390625 8.828125 22.425781 8.828125 L 18.484375 8.828125 C 17.648438 8.828125 16.972656 9.503906 16.972656 10.339844 C 16.972656 10.679688 17.25 10.957031 17.59375 10.957031 L 18.378906 10.957031 L 18.378906 12.75 L 15.160156 12.75 C 14.996094 12.164062 14.679688 11.894531 14.660156 11.878906 C 14.59375 11.828125 14.5 11.835938 14.445312 11.902344 C 14.445312 11.902344 14.445312 11.90625 14.445312 11.90625 C 14.195312 11.734375 13.894531 11.628906 13.570312 11.628906 L 9.789062 11.628906 C 9.746094 11.605469 9.695312 11.609375 9.648438 11.628906 L 7.644531 11.628906 C 7.421875 11.628906 7.289062 12.058594 7.421875 12.359375 C 7.597656 12.753906 7.929688 13.175781 8.574219 13.246094 C 8.621094 13.25 8.671875 13.261719 8.71875 13.277344 C 8.320312 13.691406 8.035156 14.804688 8.035156 16.117188 C 8.035156 17.46875 8.335938 18.613281 8.753906 18.996094 C 8.691406 19.015625 8.632812 19.035156 8.574219 19.039062 C 7.929688 19.105469 7.597656 19.515625 7.421875 19.898438 C 7.289062 20.191406 7.421875 20.605469 7.644531 20.605469 L 9.648438 20.605469 C 9.667969 20.617188 9.691406 20.625 9.714844 20.625 C 9.742188 20.625 9.765625 20.617188 9.789062 20.605469 L 13.570312 20.605469 C 14.101562 20.605469 14.566406 20.335938 14.84375 19.925781 L 14.988281 19.925781 C 14.871094 20.128906 14.878906 20.410156 14.972656 20.636719 C 15 20.710938 15.035156 20.777344 15.078125 20.847656 C 15.207031 21.15625 15.398438 21.4375 15.632812 21.683594 C 15.636719 21.6875 15.636719 21.691406 15.640625 21.695312 C 15.632812 21.707031 15.625 21.71875 15.621094 21.734375 C 15.546875 22.105469 15.59375 22.496094 15.75 22.832031 C 15.738281 22.847656 15.730469 22.867188 15.722656 22.890625 C 15.632812 23.339844 15.710938 23.804688 15.9375 24.195312 C 15.941406 24.242188 15.945312 24.292969 15.949219 24.335938 C 16.007812 24.859375 16.253906 25.429688 16.757812 25.65625 C 17.308594 25.898438 17.707031 26.121094 18.015625 26.703125 C 18.164062 26.984375 18.21875 27.28125 18.234375 27.585938 L 17.597656 27.785156 C 17.519531 27.808594 17.472656 27.894531 17.5 27.972656 C 17.519531 28.039062 17.578125 28.082031 17.644531 28.082031 C 17.648438 28.082031 17.648438 28.078125 17.652344 28.078125 C 17.664062 28.332031 17.695312 28.890625 17.738281 29.660156 C 16.496094 31.054688 15.207031 32.457031 14.988281 34.355469 C 14.851562 35.554688 15.246094 36.8125 16.328125 37.453125 C 16.65625 37.644531 17.03125 37.765625 17.414062 37.785156 C 17.675781 37.800781 18.042969 37.792969 18.277344 37.648438 C 18.316406 38.128906 18.359375 38.605469 18.402344 39.070312 C 18.320312 39.078125 18.261719 39.144531 18.265625 39.226562 C 18.289062 39.742188 18.535156 44.289062 19.230469 44.867188 C 19.5 45.09375 20.609375 45.84375 21.847656 46.664062 C 22.488281 47.117188 22.988281 47.457031 22.988281 47.457031 C 22.988281 47.457031 22.554688 49.300781 21.9375 51.464844 C 21.765625 51.445312 21.683594 51.699219 21.855469 51.75 C 21.238281 53.902344 20.449219 56.300781 19.742188 57.476562 C 18.285156 59.898438 20.039062 65.53125 25.648438 64.890625 C 31.257812 64.25 34.132812 62.871094 38.257812 62.941406 C 42.386719 63.007812 49.179688 62.957031 49.59375 59.859375 C 49.929688 57.335938 48.304688 52.675781 47.824219 49.175781 C 47.867188 49.148438 47.898438 49.101562 47.894531 49.039062 C 47.800781 46.421875 47.945312 43.796875 48.324219 41.207031 C 48.515625 39.910156 48.761719 38.621094 49.066406 37.347656 C 49.234375 36.660156 49.421875 35.980469 49.609375 35.296875 C 54.328125 35.742188 59.832031 31.382812 57.976562 28.914062 Z M 16.734375 19.925781 L 18.378906 19.925781 C 18.386719 20.078125 18.414062 20.226562 18.464844 20.363281 C 17.886719 20.21875 17.3125 20.074219 16.734375 19.925781 Z M 17.765625 36.726562 C 16.855469 36.535156 16.421875 35.679688 16.382812 34.808594 C 16.3125 33.304688 16.894531 32.011719 17.804688 30.859375 C 17.902344 32.503906 18.039062 34.644531 18.207031 36.75 C 18.066406 36.726562 17.90625 36.757812 17.765625 36.726562 Z M 17.765625 36.726562 " fill-opacity="1" fill-rule="nonzero"/></g><path fill="#f2be70" d="M 26.660156 19.859375 L 26.660156 17.230469 C 27.445312 17.492188 27.785156 18.417969 27.933594 19.445312 C 28.097656 20.597656 28.023438 21.878906 28.0625 22.496094 C 28.078125 22.742188 28.089844 23 27.988281 23.222656 C 27.984375 23.234375 27.980469 23.246094 27.972656 23.257812 C 27.929688 23.339844 27.871094 23.40625 27.808594 23.46875 C 27.765625 23.488281 27.726562 23.511719 27.683594 23.542969 C 26.859375 24.152344 25.914062 24.574219 24.980469 24.980469 C 24.785156 25.066406 24.566406 25.144531 24.347656 25.230469 C 24.605469 23.949219 24.859375 22.671875 25.113281 21.394531 L 25.128906 21.394531 C 25.363281 21.394531 25.585938 21.339844 25.785156 21.242188 C 25.554688 21.707031 25.449219 22.230469 25.492188 22.75 C 25.5 22.832031 25.550781 22.902344 25.636719 22.90625 C 25.710938 22.910156 25.800781 22.84375 25.796875 22.761719 C 25.746094 22.171875 25.894531 21.585938 26.222656 21.09375 C 26.257812 21.035156 26.25 20.980469 26.21875 20.9375 C 26.492188 20.660156 26.660156 20.28125 26.660156 19.859375 Z M 19.65625 27.136719 L 18.234375 27.585938 C 18.21875 27.28125 18.164062 26.984375 18.015625 26.703125 C 17.707031 26.121094 17.308594 25.898438 16.757812 25.65625 C 16.253906 25.429688 16.007812 24.859375 15.949219 24.335938 C 15.945312 24.289062 15.941406 24.242188 15.9375 24.195312 C 16 24.300781 16.066406 24.398438 16.148438 24.488281 C 16.554688 24.945312 17.164062 25.136719 17.730469 25.304688 C 17.917969 25.359375 17.988281 25.066406 17.804688 25.011719 C 17.308594 24.863281 16.777344 24.707031 16.410156 24.324219 C 16.121094 24.03125 15.976562 23.621094 15.992188 23.214844 C 16.03125 23.265625 16.078125 23.316406 16.125 23.363281 C 16.5625 23.769531 17.15625 23.933594 17.71875 24.082031 C 17.90625 24.128906 17.984375 23.839844 17.796875 23.789062 C 17.308594 23.660156 16.78125 23.527344 16.386719 23.191406 C 16.027344 22.878906 15.84375 22.402344 15.898438 21.929688 C 16.035156 22.042969 16.179688 22.148438 16.332031 22.242188 C 17.148438 22.746094 18.125 22.914062 19.058594 23.074219 C 19.25 23.109375 19.308594 22.808594 19.117188 22.777344 C 18.261719 22.628906 17.378906 22.480469 16.609375 22.058594 C 15.957031 21.695312 15.378906 21.09375 15.226562 20.34375 C 15.191406 20.15625 14.886719 20.171875 14.925781 20.363281 C 14.957031 20.53125 15.011719 20.691406 15.078125 20.847656 C 15.035156 20.777344 15 20.710938 14.972656 20.636719 C 14.878906 20.410156 14.871094 20.128906 14.988281 19.925781 C 15.019531 19.871094 15.0625 19.816406 15.113281 19.777344 C 15.367188 19.574219 15.734375 19.652344 16.046875 19.738281 C 16.273438 19.804688 16.503906 19.863281 16.734375 19.925781 C 17.3125 20.078125 17.886719 20.21875 18.464844 20.363281 C 19.140625 20.535156 19.816406 20.710938 20.484375 20.914062 C 20.808594 21.011719 21.164062 21.105469 21.519531 21.152344 C 21.410156 22.738281 21.019531 24.296875 20.375 25.746094 C 20.359375 25.761719 20.347656 25.777344 20.339844 25.804688 C 20.328125 25.839844 20.3125 25.875 20.300781 25.910156 C 20.105469 26.328125 19.890625 26.738281 19.65625 27.136719 Z M 18.484375 26.015625 C 18.800781 24.71875 19.5 23.523438 20.472656 22.613281 C 20.613281 22.484375 20.441406 22.234375 20.296875 22.367188 C 19.257812 23.339844 18.523438 24.585938 18.1875 25.96875 C 18.140625 26.15625 18.441406 26.203125 18.484375 26.015625 Z M 15.632812 21.683594 C 15.636719 21.6875 15.636719 21.691406 15.640625 21.695312 C 15.640625 21.695312 15.640625 21.691406 15.640625 21.691406 C 15.636719 21.6875 15.636719 21.683594 15.632812 21.683594 Z M 23.933594 25.792969 C 23.933594 25.78125 23.933594 25.765625 23.9375 25.75 C 24.277344 24.035156 24.621094 22.316406 24.960938 20.601562 C 24.988281 20.472656 25.125 20.460938 25.203125 20.519531 C 25.257812 20.257812 25.289062 20.09375 25.289062 20.09375 C 25.351562 19.765625 25.714844 18.414062 25.304688 18.269531 C 25.1875 18.226562 25.054688 18.269531 24.960938 18.34375 C 24.863281 18.417969 24.792969 18.519531 24.722656 18.621094 C 24.175781 19.449219 23.710938 20.800781 22.667969 21.101562 C 22.621094 21.113281 22.574219 21.125 22.527344 21.136719 C 22.207031 22.039062 22.019531 22.996094 21.828125 23.933594 C 21.636719 24.867188 21.433594 25.808594 21.078125 26.691406 Z M 38.292969 23.722656 C 38.003906 23.984375 37.71875 24.25 37.433594 24.515625 C 35.667969 24.914062 33.5 25.039062 32.222656 24.773438 C 30.191406 24.355469 30.011719 18.480469 29.703125 15.308594 C 29.742188 15.320312 29.789062 15.316406 29.824219 15.292969 C 30.132812 15.101562 30.4375 14.910156 30.742188 14.71875 C 30.808594 14.675781 30.839844 14.578125 30.792969 14.507812 C 30.746094 14.441406 30.65625 14.414062 30.582031 14.460938 C 30.28125 14.648438 29.980469 14.839844 29.675781 15.027344 C 29.671875 14.980469 29.667969 14.9375 29.660156 14.890625 C 29.519531 13.609375 29.679688 12.761719 29.980469 12.175781 C 30.328125 11.488281 30.859375 11.15625 31.316406 10.902344 C 32.101562 12.523438 33.59375 13.757812 35.3125 14.28125 C 35.8125 14.433594 36.328125 14.515625 36.851562 14.542969 C 37.046875 14.550781 37.039062 14.246094 36.84375 14.238281 C 34.742188 14.144531 32.78125 12.898438 31.75 11.078125 C 32.511719 12.121094 33.589844 12.890625 34.8125 13.445312 C 35.65625 13.828125 36.585938 14.089844 37.519531 14.078125 C 38.199219 14.074219 39.105469 13.964844 39.65625 13.484375 C 39.78125 13.902344 39.851562 14.34375 39.988281 14.753906 C 40.046875 14.925781 40.039062 15.035156 40.265625 15.054688 C 40.414062 15.0625 40.554688 14.996094 40.601562 14.847656 C 40.648438 14.703125 40.597656 14.460938 40.597656 14.3125 C 40.59375 13.980469 40.589844 13.644531 40.585938 13.3125 C 40.585938 13.3125 41.808594 11.644531 42.859375 13.289062 C 43.910156 14.933594 42.234375 16.675781 42.234375 16.675781 L 43.144531 18.539062 C 43.070312 18.546875 42.996094 18.558594 42.921875 18.566406 C 41.132812 18.761719 39.113281 22.1875 38.292969 23.722656 Z M 30.722656 16.605469 C 30.71875 16.570312 30.691406 16.527344 30.664062 16.507812 C 30.65625 16.503906 30.652344 16.503906 30.644531 16.5 C 30.644531 16.5 30.644531 16.496094 30.644531 16.496094 C 30.613281 16.417969 30.539062 16.34375 30.449219 16.34375 C 30.402344 16.339844 30.363281 16.347656 30.320312 16.367188 C 30.292969 16.378906 30.261719 16.398438 30.238281 16.417969 C 30.203125 16.453125 30.183594 16.484375 30.160156 16.527344 C 30.144531 16.558594 30.136719 16.59375 30.132812 16.625 C 30.125 16.699219 30.144531 16.785156 30.199219 16.839844 C 30.210938 16.851562 30.222656 16.859375 30.234375 16.871094 C 30.25 16.898438 30.269531 16.917969 30.296875 16.933594 C 30.304688 16.941406 30.320312 16.945312 30.332031 16.949219 C 30.351562 16.953125 30.371094 16.957031 30.394531 16.953125 C 30.429688 16.949219 30.472656 16.933594 30.507812 16.914062 C 30.550781 16.902344 30.589844 16.882812 30.621094 16.851562 C 30.65625 16.820312 30.683594 16.785156 30.703125 16.742188 C 30.722656 16.699219 30.726562 16.652344 30.722656 16.605469 Z M 34.175781 14.214844 C 33.601562 14.640625 32.925781 14.914062 32.214844 14.996094 C 32.023438 15.019531 32.035156 15.324219 32.230469 15.300781 C 32.992188 15.210938 33.722656 14.929688 34.339844 14.46875 C 34.496094 14.355469 34.332031 14.097656 34.175781 14.214844 Z M 32.386719 19.671875 C 31.996094 19.804688 31.582031 19.574219 31.378906 19.242188 C 31.160156 18.894531 31.132812 18.464844 31.179688 18.0625 C 31.234375 17.617188 31.359375 17.179688 31.464844 16.742188 C 31.578125 16.273438 31.691406 15.804688 31.804688 15.339844 C 31.847656 15.152344 31.5625 15.042969 31.519531 15.234375 C 31.382812 15.796875 31.246094 16.359375 31.113281 16.925781 C 30.988281 17.441406 30.835938 17.964844 30.863281 18.503906 C 30.882812 18.933594 31.023438 19.375 31.34375 19.675781 C 31.660156 19.976562 32.101562 20.085938 32.515625 19.949219 C 32.699219 19.886719 32.570312 19.613281 32.386719 19.671875 Z M 33 16.929688 C 33.304688 16.859375 33.605469 16.785156 33.910156 16.714844 C 33.988281 16.695312 34.046875 16.613281 34.023438 16.53125 C 34 16.453125 33.921875 16.398438 33.839844 16.417969 C 33.726562 16.445312 33.609375 16.472656 33.496094 16.5 C 33.71875 16.328125 33.941406 16.15625 34.164062 15.984375 C 34.316406 15.867188 34.140625 15.621094 33.988281 15.742188 C 33.582031 16.050781 33.179688 16.363281 32.773438 16.671875 C 32.628906 16.785156 32.785156 17.011719 32.933594 16.929688 C 32.953125 16.933594 32.976562 16.933594 33 16.929688 Z M 35.578125 19.761719 C 35.042969 20.765625 34.140625 21.535156 33.066406 21.90625 C 32.882812 21.972656 33.019531 22.242188 33.199219 22.179688 C 34.320312 21.792969 35.273438 20.972656 35.832031 19.925781 C 35.921875 19.757812 35.667969 19.589844 35.578125 19.761719 Z M 35.578125 19.761719 " fill-opacity="1" fill-rule="nonzero"/><path fill="#d07841" d="M 14.445312 11.90625 C 14.445312 11.90625 14.445312 11.902344 14.445312 11.902344 C 14.5 11.835938 14.59375 11.828125 14.660156 11.878906 C 14.679688 11.894531 14.996094 12.164062 15.160156 12.75 C 15.214844 12.953125 15.253906 13.195312 15.253906 13.480469 L 15.253906 18.105469 C 15.253906 18.1875 15.1875 18.253906 15.101562 18.253906 C 15.019531 18.253906 14.949219 18.1875 14.949219 18.105469 L 14.949219 13.480469 C 14.949219 12.519531 14.472656 12.121094 14.46875 12.117188 C 14.40625 12.0625 14.394531 11.96875 14.445312 11.90625 Z M 20.125 12.625 C 20.054688 12.578125 19.960938 12.59375 19.914062 12.660156 C 19.863281 12.730469 19.878906 12.824219 19.945312 12.871094 C 19.953125 12.875 20.421875 13.222656 20.421875 14.046875 L 20.421875 18.105469 C 20.421875 18.1875 20.488281 18.253906 20.574219 18.253906 C 20.65625 18.253906 20.726562 18.1875 20.726562 18.105469 L 20.726562 14.046875 C 20.726562 13.066406 20.148438 12.644531 20.125 12.625 Z M 19.445312 17.773438 C 19.527344 17.773438 19.597656 17.707031 19.597656 17.621094 C 19.597656 17.539062 19.527344 17.472656 19.445312 17.472656 L 15.828125 17.472656 C 15.742188 17.472656 15.675781 17.539062 15.675781 17.621094 C 15.675781 17.707031 15.742188 17.773438 15.828125 17.773438 Z M 15.828125 16.605469 L 19.445312 16.605469 C 19.527344 16.605469 19.597656 16.539062 19.597656 16.457031 C 19.597656 16.371094 19.527344 16.304688 19.445312 16.304688 L 15.828125 16.304688 C 15.742188 16.304688 15.675781 16.371094 15.675781 16.457031 C 15.675781 16.539062 15.742188 16.605469 15.828125 16.605469 Z M 15.828125 15.441406 L 19.445312 15.441406 C 19.527344 15.441406 19.597656 15.371094 19.597656 15.289062 C 19.597656 15.203125 19.527344 15.136719 19.445312 15.136719 L 15.828125 15.136719 C 15.742188 15.136719 15.675781 15.203125 15.675781 15.289062 C 15.675781 15.371094 15.742188 15.441406 15.828125 15.441406 Z M 22.210938 10.84375 L 22.839844 10.84375 L 22.839844 9.984375 L 22.210938 9.984375 Z M 22.210938 10.84375 " fill-opacity="1" fill-rule="nonzero"/><path fill="#ed8129" d="M 27.972656 23.257812 C 27.980469 23.246094 27.984375 23.234375 27.988281 23.222656 C 28.488281 23.625 28.082031 24.519531 28.464844 24.984375 C 28.792969 24.90625 29.117188 24.785156 29.4375 24.664062 C 29.945312 26.695312 29.9375 28.863281 30.1875 30.933594 C 30.191406 30.960938 30.195312 30.988281 30.199219 31.015625 C 30.109375 31.109375 30.015625 31.203125 29.929688 31.296875 C 28.53125 29.609375 27.347656 28.363281 26.207031 27.382812 L 26.164062 27.347656 L 25.082031 27.34375 L 24.742188 25.714844 C 24.730469 25.671875 24.707031 25.636719 24.667969 25.613281 C 24.632812 25.59375 24.589844 25.589844 24.546875 25.601562 L 24.289062 25.683594 C 24.285156 25.667969 24.277344 25.652344 24.265625 25.640625 C 24.292969 25.503906 24.320312 25.367188 24.347656 25.226562 C 24.566406 25.144531 24.785156 25.066406 24.980469 24.980469 C 25.914062 24.574219 26.859375 24.152344 27.683594 23.542969 C 27.726562 23.511719 27.765625 23.488281 27.808594 23.46875 C 27.871094 23.40625 27.929688 23.339844 27.972656 23.257812 Z M 24.78125 27.390625 L 24.480469 25.941406 L 23.453125 26.261719 L 23.84375 27.667969 Z M 19.230469 27.820312 C 19.292969 27.722656 19.355469 27.628906 19.417969 27.53125 L 17.691406 28.074219 C 17.675781 28.078125 17.664062 28.078125 17.652344 28.078125 C 17.664062 28.332031 17.695312 28.890625 17.738281 29.660156 C 18.273438 29.058594 18.800781 28.457031 19.230469 27.820312 Z M 23.550781 27.75 L 23.164062 26.355469 L 20.914062 27.058594 C 20.835938 27.230469 20.753906 27.398438 20.664062 27.558594 C 20.382812 28.054688 20.03125 28.488281 19.652344 28.894531 Z M 57.976562 28.914062 C 57.476562 28.253906 56.277344 27.308594 54.761719 26.269531 C 55.214844 24.332031 53.015625 19.445312 51.550781 18.371094 C 50.191406 17.375 47.589844 17.757812 45.367188 18.160156 C 44.546875 18.304688 43.78125 18.453125 43.144531 18.539062 C 43.070312 18.546875 42.996094 18.558594 42.921875 18.566406 C 41.132812 18.761719 39.113281 22.1875 38.292969 23.722656 C 38.75 23.300781 39.203125 22.878906 39.660156 22.457031 C 40.152344 22 40.648438 21.542969 41.140625 21.085938 C 41.542969 20.714844 41.957031 20.332031 42.464844 20.105469 C 43.585938 19.609375 44.660156 20.230469 45.613281 20.808594 C 47.929688 22.210938 50.246094 23.613281 52.5625 25.011719 C 52.730469 25.113281 52.578125 25.378906 52.40625 25.277344 L 48.625 22.988281 C 47.515625 22.316406 46.40625 21.644531 45.296875 20.972656 C 44.800781 20.671875 44.28125 20.363281 43.703125 20.253906 C 43.132812 20.148438 42.605469 20.320312 42.140625 20.644531 C 41.660156 20.976562 41.25 21.402344 40.824219 21.796875 C 40.351562 22.234375 39.875 22.675781 39.398438 23.113281 C 38.921875 23.554688 38.445312 23.996094 37.964844 24.4375 C 38.820312 23.882812 39.726562 23.402344 40.703125 23.113281 C 43.15625 22.390625 45.878906 23.191406 47.527344 25.15625 C 47.65625 25.304688 47.410156 25.488281 47.285156 25.339844 C 46.394531 24.277344 45.136719 23.546875 43.78125 23.269531 C 42.511719 23.007812 41.234375 23.179688 40.039062 23.671875 C 38.761719 24.195312 37.625 25.007812 36.523438 25.832031 C 34.230469 27.542969 32.085938 29.457031 30.121094 31.535156 C 30.414062 31.917969 30.613281 32.277344 30.8125 32.777344 C 30.84375 32.855469 30.804688 32.941406 30.726562 32.972656 C 30.707031 32.980469 30.6875 32.984375 30.671875 32.984375 C 30.609375 32.984375 30.554688 32.949219 30.53125 32.886719 C 30.3125 32.339844 30.097656 31.976562 29.738281 31.539062 C 28.347656 29.859375 27.175781 28.625 26.054688 27.652344 L 24.980469 27.648438 L 23.777344 28 L 19.230469 29.335938 C 18.757812 29.816406 18.265625 30.289062 17.839844 30.816406 C 17.828125 30.832031 17.816406 30.847656 17.804688 30.859375 C 17.902344 32.503906 18.039062 34.644531 18.207031 36.75 C 18.21875 36.753906 18.234375 36.753906 18.25 36.757812 C 18.390625 36.796875 18.480469 37.011719 18.496094 37.140625 C 18.53125 37.394531 18.433594 37.550781 18.277344 37.648438 C 18.316406 38.128906 18.359375 38.605469 18.402344 39.070312 C 18.402344 39.070312 18.40625 39.066406 18.40625 39.066406 C 18.492188 39.0625 18.5625 39.128906 18.566406 39.210938 C 18.660156 41.109375 18.980469 44.265625 19.425781 44.636719 C 20.035156 45.144531 25.3125 48.585938 25.996094 49.03125 L 43.023438 40.589844 C 43.097656 40.554688 43.191406 40.582031 43.226562 40.660156 C 43.265625 40.734375 43.234375 40.824219 43.160156 40.863281 L 25.976562 49.378906 L 25.902344 49.332031 C 25.757812 49.234375 23.660156 47.871094 21.847656 46.664062 C 22.488281 47.117188 22.988281 47.457031 22.988281 47.457031 C 22.988281 47.457031 22.554688 49.300781 21.9375 51.460938 C 21.945312 51.464844 21.953125 51.460938 21.957031 51.464844 C 22.804688 51.65625 23.660156 51.796875 24.523438 51.890625 C 27.542969 52.210938 30.609375 51.917969 33.511719 51.035156 C 33.609375 51.003906 33.699219 51.097656 33.695312 51.1875 C 33.660156 52.019531 33.742188 52.84375 33.9375 53.652344 C 34.109375 54.351562 34.367188 55.03125 34.707031 55.667969 C 35.050781 56.324219 35.5 56.890625 35.945312 57.476562 C 36.339844 57.992188 36.699219 58.558594 36.75 59.222656 C 36.792969 59.785156 36.621094 60.382812 36.144531 60.722656 C 35.988281 60.832031 35.78125 60.609375 35.941406 60.496094 C 36.492188 60.105469 36.554688 59.339844 36.34375 58.742188 C 36.105469 58.066406 35.59375 57.539062 35.175781 56.976562 C 34.765625 56.425781 34.417969 55.832031 34.148438 55.207031 C 33.621094 54.003906 33.367188 52.695312 33.390625 51.382812 C 32.957031 51.511719 32.519531 51.628906 32.078125 51.730469 C 31.84375 54.347656 32.730469 57.011719 34.484375 58.96875 C 34.613281 59.113281 34.386719 59.3125 34.253906 59.167969 C 33.855469 58.722656 33.5 58.242188 33.191406 57.734375 C 32.109375 55.96875 31.605469 53.863281 31.769531 51.800781 C 31.527344 51.851562 31.289062 51.902344 31.046875 51.945312 C 28.007812 52.5 24.875 52.433594 21.863281 51.75 C 21.859375 51.75 21.859375 51.75 21.855469 51.746094 C 21.238281 53.902344 20.449219 56.300781 19.742188 57.476562 C 18.285156 59.898438 20.039062 65.53125 25.648438 64.890625 C 31.257812 64.246094 34.132812 62.871094 38.257812 62.941406 C 42.386719 63.007812 49.179688 62.953125 49.59375 59.859375 C 49.929688 57.332031 48.304688 52.675781 47.824219 49.175781 C 47.734375 49.230469 47.601562 49.207031 47.59375 49.074219 C 47.542969 47.609375 47.5625 46.136719 47.65625 44.671875 C 47.824219 42.066406 48.222656 39.480469 48.855469 36.949219 C 49.46875 34.476562 50.414062 31.988281 50.234375 29.398438 C 50.222656 29.203125 50.523438 29.167969 50.535156 29.359375 C 50.636719 30.800781 50.394531 32.230469 50.050781 33.621094 C 49.914062 34.183594 49.761719 34.742188 49.609375 35.296875 C 54.328125 35.742188 59.832031 31.382812 57.976562 28.914062 Z M 40.605469 9.316406 C 39.425781 10.597656 37.6875 11.289062 35.949219 11.183594 C 35.757812 11.171875 35.78125 11.472656 35.972656 11.484375 C 37.785156 11.59375 39.601562 10.851562 40.832031 9.515625 C 40.964844 9.371094 40.738281 9.171875 40.605469 9.316406 Z M 38.648438 5.046875 C 40.597656 4.359375 42.882812 4.945312 44.261719 6.488281 C 44.390625 6.632812 44.609375 6.421875 44.480469 6.277344 C 43.917969 5.648438 43.207031 5.167969 42.429688 4.863281 C 42.882812 4.503906 43.195312 3.980469 43.273438 3.40625 C 43.28125 3.324219 43.238281 3.246094 43.152344 3.226562 C 43.078125 3.210938 42.984375 3.265625 42.976562 3.34375 C 42.902344 3.882812 42.605469 4.375 42.160156 4.6875 C 42.136719 4.707031 42.121094 4.726562 42.109375 4.746094 C 41.460938 4.53125 40.769531 4.433594 40.085938 4.464844 C 39.957031 4.074219 39.960938 3.660156 40.105469 3.269531 C 40.132812 3.195312 40.066406 3.105469 39.992188 3.085938 C 39.90625 3.066406 39.839844 3.121094 39.808594 3.195312 C 39.660156 3.609375 39.648438 4.066406 39.773438 4.484375 C 39.367188 4.527344 38.964844 4.613281 38.574219 4.753906 C 38.390625 4.816406 38.460938 5.109375 38.648438 5.046875 Z M 32.703125 9.933594 C 34.222656 9.761719 35.699219 9.277344 37.023438 8.515625 C 37.191406 8.417969 37.078125 8.136719 36.910156 8.234375 C 35.601562 8.984375 34.160156 9.460938 32.664062 9.636719 C 32.46875 9.65625 32.511719 9.957031 32.703125 9.933594 Z M 43.953125 17.460938 C 43.78125 17.546875 43.9375 17.804688 44.113281 17.722656 C 45.234375 17.175781 46.085938 16.148438 46.4375 14.953125 C 46.492188 14.765625 46.195312 14.699219 46.140625 14.886719 C 45.8125 16.007812 45.003906 16.949219 43.953125 17.460938 Z M 44.109375 16.65625 C 44.15625 16.730469 44.242188 16.746094 44.316406 16.710938 C 44.839844 16.457031 45.242188 16 45.4375 15.457031 C 45.464844 15.378906 45.402344 15.289062 45.328125 15.273438 C 45.242188 15.25 45.171875 15.304688 45.144531 15.382812 C 44.976562 15.847656 44.613281 16.234375 44.164062 16.449219 C 44.089844 16.484375 44.070312 16.589844 44.109375 16.65625 Z M 44.109375 16.65625 " fill-opacity="1" fill-rule="nonzero"/><g clip-path="url(#f68e7adb89)"><path fill="#ac9882" d="M 31.316406 10.902344 C 32.101562 12.523438 33.59375 13.757812 35.3125 14.28125 C 35.8125 14.433594 36.328125 14.515625 36.851562 14.542969 C 37.046875 14.550781 37.039062 14.246094 36.84375 14.238281 C 34.742188 14.140625 32.78125 12.898438 31.75 11.078125 C 32.511719 12.121094 33.589844 12.890625 34.8125 13.445312 C 35.65625 13.828125 36.585938 14.089844 37.519531 14.078125 C 38.199219 14.074219 39.105469 13.964844 39.65625 13.484375 C 39.78125 13.902344 39.851562 14.34375 39.988281 14.753906 C 40.046875 14.925781 40.039062 15.035156 40.265625 15.054688 C 40.414062 15.0625 40.554688 14.996094 40.601562 14.847656 C 40.648438 14.703125 40.597656 14.460938 40.597656 14.3125 C 40.59375 13.980469 40.589844 13.644531 40.585938 13.3125 C 40.585938 13.3125 41.808594 11.644531 42.859375 13.289062 C 43.910156 14.933594 42.234375 16.675781 42.234375 16.675781 L 43.144531 18.539062 C 43.78125 18.453125 44.546875 18.304688 45.367188 18.160156 C 46.136719 16.972656 46.945312 15.589844 46.976562 14.929688 C 47.019531 14.054688 46.113281 10.160156 45.535156 7.796875 C 46.222656 7.117188 47.035156 6.21875 47.152344 5.65625 C 47.367188 4.660156 45.871094 1.628906 42.929688 0.96875 C 39.988281 0.308594 38.140625 2.320312 38.140625 2.320312 C 38.140625 2.320312 38.015625 4.277344 37.992188 5.226562 C 35.625 6.058594 31.566406 7.601562 30.203125 8.808594 C 29.417969 9.503906 29.0625 10.527344 29.515625 11.515625 C 29.617188 11.742188 29.78125 11.960938 29.980469 12.175781 C 30.328125 11.488281 30.859375 11.15625 31.316406 10.902344 Z M 40.832031 9.515625 C 39.601562 10.851562 37.785156 11.59375 35.972656 11.484375 C 35.777344 11.472656 35.757812 11.171875 35.949219 11.183594 C 37.6875 11.289062 39.425781 10.597656 40.605469 9.316406 C 40.738281 9.171875 40.964844 9.371094 40.832031 9.515625 Z M 44.164062 16.449219 C 44.613281 16.234375 44.976562 15.847656 45.144531 15.382812 C 45.171875 15.304688 45.242188 15.25 45.328125 15.273438 C 45.402344 15.289062 45.464844 15.378906 45.4375 15.457031 C 45.242188 16 44.839844 16.457031 44.316406 16.710938 C 44.242188 16.746094 44.15625 16.734375 44.109375 16.65625 C 44.070312 16.589844 44.089844 16.484375 44.164062 16.449219 Z M 46.4375 14.953125 C 46.085938 16.148438 45.234375 17.171875 44.113281 17.722656 C 43.9375 17.804688 43.78125 17.546875 43.953125 17.460938 C 45.003906 16.949219 45.8125 16.007812 46.140625 14.886719 C 46.195312 14.699219 46.492188 14.765625 46.4375 14.953125 Z M 38.574219 4.753906 C 38.964844 4.617188 39.367188 4.527344 39.773438 4.484375 C 39.648438 4.066406 39.660156 3.609375 39.808594 3.195312 C 39.839844 3.121094 39.90625 3.066406 39.992188 3.085938 C 40.066406 3.105469 40.132812 3.195312 40.105469 3.269531 C 39.960938 3.660156 39.957031 4.074219 40.085938 4.464844 C 40.769531 4.433594 41.460938 4.53125 42.109375 4.746094 C 42.121094 4.726562 42.136719 4.707031 42.160156 4.6875 C 42.605469 4.375 42.902344 3.882812 42.976562 3.34375 C 42.984375 3.265625 43.078125 3.210938 43.152344 3.226562 C 43.238281 3.246094 43.28125 3.324219 43.273438 3.40625 C 43.195312 3.980469 42.882812 4.503906 42.429688 4.863281 C 43.207031 5.167969 43.917969 5.648438 44.476562 6.277344 C 44.609375 6.421875 44.390625 6.632812 44.261719 6.488281 C 42.882812 4.945312 40.597656 4.359375 38.648438 5.046875 C 38.460938 5.109375 38.390625 4.816406 38.574219 4.753906 Z M 32.664062 9.636719 C 34.160156 9.460938 35.601562 8.984375 36.910156 8.234375 C 37.078125 8.136719 37.191406 8.417969 37.023438 8.515625 C 35.699219 9.277344 34.222656 9.761719 32.703125 9.933594 C 32.511719 9.957031 32.46875 9.65625 32.664062 9.636719 Z M 49.609375 35.296875 C 49.421875 35.980469 49.234375 36.660156 49.066406 37.347656 C 48.761719 38.621094 48.515625 39.910156 48.324219 41.207031 C 47.945312 43.796875 47.804688 46.421875 47.894531 49.039062 C 47.898438 49.101562 47.867188 49.148438 47.824219 49.175781 C 47.734375 49.230469 47.601562 49.207031 47.59375 49.074219 C 47.542969 47.609375 47.5625 46.136719 47.65625 44.671875 C 47.824219 42.066406 48.226562 39.480469 48.855469 36.949219 C 49.472656 34.476562 50.414062 31.988281 50.234375 29.398438 C 50.222656 29.203125 50.523438 29.167969 50.535156 29.359375 C 50.636719 30.800781 50.394531 32.230469 50.050781 33.621094 C 49.914062 34.183594 49.761719 34.742188 49.609375 35.296875 Z M 25.902344 49.332031 C 25.757812 49.234375 23.660156 47.871094 21.847656 46.664062 C 20.609375 45.84375 19.5 45.09375 19.230469 44.867188 C 18.535156 44.289062 18.289062 39.742188 18.265625 39.226562 C 18.261719 39.144531 18.320312 39.074219 18.402344 39.070312 C 18.402344 39.070312 18.40625 39.066406 18.40625 39.066406 C 18.492188 39.0625 18.5625 39.128906 18.566406 39.210938 C 18.660156 41.109375 18.980469 44.265625 19.425781 44.636719 C 20.035156 45.144531 25.3125 48.585938 25.996094 49.03125 L 43.023438 40.589844 C 43.097656 40.554688 43.191406 40.582031 43.226562 40.660156 C 43.265625 40.734375 43.234375 40.824219 43.160156 40.863281 L 25.972656 49.378906 Z M 21.863281 51.75 C 21.859375 51.75 21.859375 51.75 21.855469 51.746094 C 21.683594 51.699219 21.765625 51.445312 21.9375 51.460938 C 21.945312 51.464844 21.949219 51.460938 21.957031 51.464844 C 22.804688 51.65625 23.660156 51.796875 24.523438 51.890625 C 27.542969 52.210938 30.609375 51.917969 33.511719 51.035156 C 33.609375 51.003906 33.699219 51.097656 33.695312 51.1875 C 33.660156 52.019531 33.742188 52.84375 33.9375 53.652344 C 34.109375 54.351562 34.367188 55.03125 34.707031 55.667969 C 35.050781 56.324219 35.5 56.890625 35.945312 57.476562 C 36.339844 57.992188 36.699219 58.558594 36.75 59.222656 C 36.792969 59.785156 36.621094 60.382812 36.144531 60.722656 C 35.988281 60.832031 35.78125 60.609375 35.941406 60.496094 C 36.492188 60.105469 36.554688 59.339844 36.34375 58.742188 C 36.105469 58.066406 35.59375 57.539062 35.175781 56.976562 C 34.765625 56.425781 34.417969 55.832031 34.144531 55.207031 C 33.621094 54.003906 33.367188 52.695312 33.390625 51.382812 C 32.957031 51.511719 32.519531 51.628906 32.078125 51.730469 C 31.84375 54.347656 32.730469 57.011719 34.484375 58.96875 C 34.613281 59.113281 34.386719 59.3125 34.253906 59.167969 C 33.855469 58.722656 33.5 58.242188 33.191406 57.734375 C 32.109375 55.96875 31.605469 53.863281 31.769531 51.800781 C 31.527344 51.851562 31.289062 51.902344 31.046875 51.945312 C 28.007812 52.503906 24.875 52.433594 21.863281 51.75 Z M 26.207031 27.382812 L 26.164062 27.347656 L 25.082031 27.34375 L 24.742188 25.714844 C 24.730469 25.671875 24.707031 25.636719 24.667969 25.617188 C 24.632812 25.59375 24.589844 25.589844 24.546875 25.601562 L 24.289062 25.683594 C 24.285156 25.667969 24.277344 25.652344 24.265625 25.640625 C 24.292969 25.503906 24.320312 25.367188 24.347656 25.226562 C 24.605469 23.949219 24.859375 22.671875 25.113281 21.390625 C 25.160156 21.148438 25.210938 20.90625 25.257812 20.664062 C 25.273438 20.601562 25.246094 20.550781 25.203125 20.519531 C 25.125 20.460938 24.988281 20.472656 24.960938 20.601562 C 24.621094 22.316406 24.277344 24.035156 23.9375 25.75 C 23.933594 25.765625 23.933594 25.78125 23.933594 25.792969 L 21.078125 26.691406 C 21.027344 26.816406 20.972656 26.9375 20.914062 27.058594 L 23.164062 26.355469 L 23.550781 27.75 L 19.652344 28.894531 C 19.515625 29.042969 19.375 29.191406 19.230469 29.335938 L 23.777344 28 L 24.980469 27.648438 L 26.054688 27.652344 C 27.175781 28.625 28.347656 29.859375 29.738281 31.539062 C 30.097656 31.976562 30.3125 32.339844 30.53125 32.886719 C 30.554688 32.949219 30.609375 32.984375 30.671875 32.984375 C 30.6875 32.984375 30.707031 32.980469 30.726562 32.972656 C 30.804688 32.941406 30.84375 32.855469 30.8125 32.777344 C 30.613281 32.277344 30.414062 31.917969 30.121094 31.535156 C 32.085938 29.457031 34.230469 27.542969 36.523438 25.832031 C 37.625 25.007812 38.761719 24.195312 40.039062 23.671875 C 41.234375 23.179688 42.511719 23.007812 43.78125 23.269531 C 45.136719 23.546875 46.394531 24.277344 47.285156 25.339844 C 47.410156 25.488281 47.65625 25.304688 47.527344 25.15625 C 45.878906 23.191406 43.15625 22.390625 40.703125 23.113281 C 39.726562 23.402344 38.820312 23.882812 37.964844 24.4375 C 38.445312 23.996094 38.921875 23.554688 39.398438 23.113281 C 39.875 22.675781 40.351562 22.234375 40.824219 21.796875 C 41.25 21.402344 41.660156 20.976562 42.140625 20.644531 C 42.605469 20.320312 43.132812 20.148438 43.703125 20.253906 C 44.28125 20.363281 44.800781 20.671875 45.296875 20.972656 C 46.40625 21.644531 47.515625 22.316406 48.625 22.988281 L 52.40625 25.277344 C 52.578125 25.378906 52.730469 25.113281 52.5625 25.011719 C 50.246094 23.613281 47.929688 22.210938 45.613281 20.808594 C 44.660156 20.230469 43.585938 19.609375 42.464844 20.105469 C 41.957031 20.332031 41.542969 20.714844 41.140625 21.085938 C 40.648438 21.542969 40.152344 22 39.660156 22.457031 C 39.203125 22.878906 38.75 23.300781 38.292969 23.722656 C 38.003906 23.984375 37.71875 24.25 37.433594 24.515625 C 37.058594 24.863281 36.683594 25.210938 36.308594 25.558594 C 36.277344 25.585938 36.265625 25.617188 36.261719 25.648438 C 35.304688 26.367188 34.371094 27.121094 33.464844 27.90625 C 32.328125 28.890625 31.242188 29.933594 30.199219 31.015625 C 30.109375 31.109375 30.015625 31.203125 29.929688 31.296875 C 28.53125 29.609375 27.347656 28.363281 26.207031 27.382812 Z M 23.453125 26.261719 L 24.480469 25.941406 L 24.78125 27.390625 L 23.84375 27.667969 Z M 17.691406 28.074219 C 17.675781 28.078125 17.664062 28.078125 17.652344 28.078125 C 17.648438 28.078125 17.648438 28.082031 17.644531 28.082031 C 17.578125 28.082031 17.519531 28.039062 17.5 27.972656 C 17.476562 27.894531 17.519531 27.808594 17.597656 27.785156 L 18.234375 27.585938 L 19.65625 27.136719 C 19.578125 27.269531 19.5 27.402344 19.417969 27.53125 Z M 9.839844 20.5625 C 9.824219 20.582031 9.808594 20.59375 9.789062 20.605469 C 9.765625 20.617188 9.742188 20.625 9.714844 20.625 C 9.691406 20.625 9.667969 20.617188 9.648438 20.605469 C 9.640625 20.601562 9.632812 20.601562 9.628906 20.59375 C 9.558594 20.546875 9.546875 20.453125 9.59375 20.382812 C 9.605469 20.371094 10.605469 18.945312 10.605469 16.066406 C 10.605469 13.1875 9.605469 11.867188 9.597656 11.855469 C 9.546875 11.789062 9.558594 11.695312 9.625 11.644531 C 9.632812 11.636719 9.640625 11.632812 9.648438 11.628906 C 9.695312 11.605469 9.746094 11.605469 9.789062 11.628906 C 9.808594 11.640625 9.824219 11.652344 9.835938 11.667969 C 9.878906 11.726562 10.90625 13.074219 10.90625 16.066406 C 10.90625 19.054688 9.882812 20.5 9.839844 20.5625 Z M 23.671875 12.445312 L 26.339844 12.445312 C 26.425781 12.445312 26.492188 12.515625 26.492188 12.597656 C 26.492188 12.679688 26.425781 12.75 26.339844 12.75 L 24.109375 12.75 C 24.351562 13.117188 24.472656 13.785156 24.472656 14.742188 L 24.472656 18.105469 C 24.472656 18.1875 24.40625 18.253906 24.324219 18.253906 C 24.238281 18.253906 24.171875 18.1875 24.171875 18.105469 L 24.171875 17.316406 L 22.519531 17.316406 L 22.519531 16.457031 L 24.171875 16.457031 L 24.171875 14.742188 C 24.171875 13.390625 23.921875 12.953125 23.773438 12.8125 C 23.726562 12.769531 23.683594 12.75 23.679688 12.75 L 23.667969 12.75 C 23.585938 12.75 23.519531 12.683594 23.515625 12.601562 C 23.515625 12.519531 23.578125 12.453125 23.660156 12.445312 C 23.664062 12.445312 23.667969 12.445312 23.671875 12.445312 Z M 16.148438 24.488281 C 16.066406 24.398438 16 24.300781 15.9375 24.195312 C 15.710938 23.804688 15.632812 23.339844 15.722656 22.890625 C 15.730469 22.867188 15.738281 22.847656 15.75 22.832031 C 15.59375 22.496094 15.546875 22.105469 15.621094 21.734375 C 15.625 21.71875 15.632812 21.707031 15.640625 21.695312 C 15.640625 21.695312 15.640625 21.691406 15.640625 21.691406 C 15.636719 21.6875 15.636719 21.683594 15.632812 21.683594 C 15.398438 21.4375 15.207031 21.15625 15.078125 20.84375 C 15.011719 20.691406 14.960938 20.53125 14.925781 20.363281 C 14.886719 20.171875 15.191406 20.152344 15.226562 20.34375 C 15.378906 21.09375 15.957031 21.695312 16.609375 22.054688 C 17.378906 22.480469 18.261719 22.628906 19.117188 22.777344 C 19.308594 22.808594 19.25 23.105469 19.058594 23.074219 C 18.125 22.914062 17.148438 22.746094 16.332031 22.242188 C 16.179688 22.148438 16.035156 22.042969 15.898438 21.929688 C 15.84375 22.402344 16.027344 22.878906 16.390625 23.191406 C 16.78125 23.527344 17.308594 23.660156 17.796875 23.789062 C 17.988281 23.839844 17.90625 24.128906 17.71875 24.082031 C 17.15625 23.933594 16.5625 23.769531 16.125 23.359375 C 16.078125 23.316406 16.035156 23.265625 15.992188 23.214844 C 15.976562 23.621094 16.125 24.03125 16.410156 24.324219 C 16.78125 24.707031 17.308594 24.863281 17.804688 25.011719 C 17.992188 25.066406 17.917969 25.359375 17.730469 25.304688 C 17.164062 25.136719 16.554688 24.945312 16.148438 24.488281 Z M 18.484375 26.015625 C 18.441406 26.203125 18.140625 26.15625 18.1875 25.96875 C 18.523438 24.585938 19.257812 23.339844 20.296875 22.367188 C 20.441406 22.234375 20.613281 22.480469 20.472656 22.613281 C 19.5 23.523438 18.800781 24.71875 18.484375 26.015625 Z M 25.785156 21.242188 C 25.839844 21.136719 25.898438 21.03125 25.964844 20.933594 C 26.035156 20.828125 26.164062 20.855469 26.21875 20.9375 C 26.25 20.976562 26.257812 21.035156 26.222656 21.089844 C 25.890625 21.585938 25.746094 22.171875 25.792969 22.761719 C 25.800781 22.84375 25.710938 22.910156 25.636719 22.90625 C 25.546875 22.902344 25.5 22.832031 25.492188 22.75 C 25.449219 22.230469 25.554688 21.707031 25.785156 21.242188 Z M 25.785156 21.242188 " fill-opacity="1" fill-rule="nonzero"/></g><g clip-path="url(#9e0d96bb45)"><path fill="#ce6706" d="M 9.628906 20.59375 C 9.632812 20.601562 9.640625 20.601562 9.648438 20.605469 L 7.644531 20.605469 C 7.421875 20.605469 7.289062 20.191406 7.421875 19.898438 C 7.597656 19.515625 7.929688 19.105469 8.574219 19.039062 C 8.632812 19.03125 8.691406 19.015625 8.753906 18.996094 C 8.335938 18.613281 8.035156 17.46875 8.035156 16.117188 C 8.035156 14.804688 8.320312 13.691406 8.71875 13.277344 C 8.671875 13.261719 8.621094 13.25 8.574219 13.246094 C 7.929688 13.175781 7.597656 12.753906 7.421875 12.359375 C 7.289062 12.058594 7.421875 11.628906 7.644531 11.628906 L 9.648438 11.628906 C 9.640625 11.632812 9.632812 11.636719 9.625 11.644531 C 9.558594 11.695312 9.546875 11.789062 9.597656 11.855469 C 9.605469 11.867188 10.605469 13.1875 10.605469 16.066406 C 10.605469 18.945312 9.605469 20.371094 9.59375 20.382812 C 9.546875 20.453125 9.558594 20.546875 9.628906 20.59375 Z M 32.386719 19.671875 C 31.996094 19.804688 31.582031 19.574219 31.378906 19.242188 C 31.160156 18.894531 31.132812 18.464844 31.179688 18.0625 C 31.234375 17.617188 31.359375 17.179688 31.464844 16.742188 C 31.578125 16.273438 31.691406 15.804688 31.804688 15.339844 C 31.847656 15.152344 31.5625 15.042969 31.519531 15.234375 C 31.382812 15.796875 31.246094 16.359375 31.113281 16.925781 C 30.988281 17.441406 30.835938 17.964844 30.863281 18.503906 C 30.882812 18.933594 31.023438 19.375 31.34375 19.675781 C 31.660156 19.976562 32.101562 20.085938 32.515625 19.949219 C 32.699219 19.886719 32.570312 19.613281 32.386719 19.671875 Z M 35.578125 19.761719 C 35.042969 20.765625 34.140625 21.535156 33.066406 21.90625 C 32.882812 21.972656 33.019531 22.242188 33.199219 22.179688 C 34.320312 21.792969 35.273438 20.972656 35.832031 19.925781 C 35.921875 19.757812 35.667969 19.589844 35.578125 19.761719 Z M 33.910156 16.714844 C 33.988281 16.695312 34.046875 16.609375 34.023438 16.53125 C 34 16.453125 33.921875 16.398438 33.839844 16.417969 C 33.726562 16.445312 33.609375 16.472656 33.496094 16.5 C 33.71875 16.328125 33.941406 16.15625 34.164062 15.984375 C 34.316406 15.867188 34.140625 15.621094 33.988281 15.742188 C 33.582031 16.050781 33.179688 16.363281 32.773438 16.671875 C 32.628906 16.785156 32.785156 17.011719 32.933594 16.929688 C 32.953125 16.933594 32.976562 16.9375 33 16.929688 C 33.304688 16.859375 33.605469 16.785156 33.910156 16.714844 Z M 30.664062 16.507812 C 30.65625 16.503906 30.652344 16.503906 30.644531 16.5 C 30.644531 16.5 30.644531 16.496094 30.644531 16.496094 C 30.613281 16.417969 30.539062 16.34375 30.449219 16.34375 C 30.402344 16.339844 30.363281 16.347656 30.320312 16.367188 C 30.292969 16.378906 30.261719 16.398438 30.238281 16.417969 C 30.203125 16.453125 30.183594 16.484375 30.160156 16.527344 C 30.144531 16.558594 30.136719 16.59375 30.132812 16.625 C 30.125 16.699219 30.144531 16.785156 30.199219 16.839844 C 30.210938 16.851562 30.222656 16.859375 30.234375 16.871094 C 30.25 16.898438 30.269531 16.917969 30.296875 16.933594 C 30.304688 16.941406 30.320312 16.945312 30.332031 16.949219 C 30.351562 16.953125 30.371094 16.957031 30.394531 16.953125 C 30.429688 16.949219 30.472656 16.933594 30.507812 16.914062 C 30.550781 16.902344 30.589844 16.882812 30.621094 16.851562 C 30.65625 16.820312 30.683594 16.785156 30.703125 16.742188 C 30.722656 16.699219 30.726562 16.652344 30.722656 16.605469 C 30.71875 16.570312 30.691406 16.527344 30.664062 16.507812 Z M 29.824219 15.292969 C 30.132812 15.101562 30.4375 14.910156 30.742188 14.71875 C 30.808594 14.675781 30.839844 14.578125 30.792969 14.507812 C 30.746094 14.441406 30.65625 14.414062 30.582031 14.460938 C 30.28125 14.648438 29.980469 14.839844 29.675781 15.027344 C 29.671875 15.03125 29.667969 15.03125 29.667969 15.035156 C 29.597656 15.078125 29.570312 15.175781 29.617188 15.242188 C 29.636719 15.273438 29.671875 15.296875 29.703125 15.308594 C 29.742188 15.320312 29.789062 15.316406 29.824219 15.292969 Z M 32.214844 14.996094 C 32.023438 15.019531 32.035156 15.324219 32.230469 15.300781 C 32.992188 15.210938 33.722656 14.929688 34.339844 14.46875 C 34.496094 14.355469 34.332031 14.097656 34.175781 14.214844 C 33.601562 14.640625 32.925781 14.914062 32.214844 14.996094 Z M 18.277344 37.648438 C 18.042969 37.792969 17.675781 37.800781 17.414062 37.785156 C 17.03125 37.765625 16.65625 37.644531 16.328125 37.453125 C 15.246094 36.8125 14.851562 35.554688 14.988281 34.355469 C 15.207031 32.457031 16.496094 31.054688 17.738281 29.660156 C 18.273438 29.058594 18.800781 28.457031 19.230469 27.820312 C 19.292969 27.722656 19.355469 27.628906 19.417969 27.53125 C 19.5 27.402344 19.578125 27.269531 19.65625 27.136719 C 19.890625 26.738281 20.105469 26.328125 20.300781 25.910156 C 20.3125 25.875 20.328125 25.839844 20.339844 25.800781 C 20.347656 25.777344 20.363281 25.761719 20.375 25.746094 C 21.019531 24.296875 21.410156 22.738281 21.519531 21.152344 C 21.164062 21.105469 20.8125 21.011719 20.484375 20.910156 C 19.816406 20.710938 19.140625 20.535156 18.464844 20.363281 C 18.414062 20.226562 18.386719 20.078125 18.378906 19.925781 L 16.734375 19.925781 C 16.503906 19.863281 16.273438 19.804688 16.046875 19.738281 C 15.734375 19.652344 15.367188 19.574219 15.113281 19.777344 C 15.0625 19.816406 15.019531 19.867188 14.988281 19.925781 L 14.84375 19.925781 C 14.566406 20.335938 14.101562 20.605469 13.570312 20.605469 L 9.789062 20.605469 C 9.808594 20.59375 9.824219 20.582031 9.839844 20.5625 C 9.882812 20.5 10.90625 19.054688 10.90625 16.066406 C 10.90625 13.074219 9.878906 11.726562 9.835938 11.667969 C 9.824219 11.652344 9.808594 11.640625 9.789062 11.628906 L 13.570312 11.628906 C 13.894531 11.628906 14.195312 11.730469 14.445312 11.90625 C 14.394531 11.96875 14.40625 12.0625 14.46875 12.113281 C 14.472656 12.117188 14.949219 12.519531 14.949219 13.480469 L 14.949219 18.105469 C 14.949219 18.1875 15.019531 18.253906 15.101562 18.253906 C 15.1875 18.253906 15.253906 18.1875 15.253906 18.105469 L 15.253906 13.480469 C 15.253906 13.195312 15.214844 12.953125 15.160156 12.75 L 18.378906 12.75 L 18.378906 10.957031 L 17.59375 10.957031 C 17.25 10.957031 16.976562 10.679688 16.976562 10.339844 C 16.976562 9.503906 17.652344 8.828125 18.484375 8.828125 L 22.425781 8.828125 C 23.390625 8.828125 24.171875 9.609375 24.171875 10.574219 L 24.171875 10.84375 L 25.128906 10.84375 C 25.976562 10.84375 26.664062 11.527344 26.664062 12.375 L 26.664062 19.859375 C 26.664062 20.28125 26.492188 20.660156 26.21875 20.9375 C 26.164062 20.859375 26.035156 20.828125 25.964844 20.933594 C 25.898438 21.03125 25.839844 21.136719 25.785156 21.242188 C 25.585938 21.339844 25.363281 21.394531 25.128906 21.394531 L 25.113281 21.394531 C 25.164062 21.148438 25.210938 20.90625 25.257812 20.664062 C 25.273438 20.601562 25.246094 20.550781 25.207031 20.519531 C 25.257812 20.257812 25.289062 20.09375 25.289062 20.09375 C 25.351562 19.765625 25.714844 18.414062 25.304688 18.269531 C 25.1875 18.226562 25.058594 18.269531 24.960938 18.34375 C 24.863281 18.417969 24.792969 18.519531 24.726562 18.621094 C 24.175781 19.449219 23.710938 20.800781 22.667969 21.101562 C 22.621094 21.113281 22.574219 21.125 22.527344 21.136719 C 22.207031 22.039062 22.019531 22.996094 21.828125 23.933594 C 21.636719 24.867188 21.433594 25.808594 21.078125 26.691406 C 21.027344 26.816406 20.972656 26.9375 20.914062 27.058594 C 20.835938 27.230469 20.753906 27.398438 20.664062 27.558594 C 20.382812 28.054688 20.03125 28.488281 19.652344 28.894531 C 19.515625 29.042969 19.375 29.191406 19.230469 29.335938 C 18.757812 29.816406 18.265625 30.289062 17.839844 30.816406 C 17.828125 30.832031 17.816406 30.847656 17.804688 30.859375 C 16.894531 32.011719 16.3125 33.304688 16.382812 34.808594 C 16.421875 35.679688 16.855469 36.535156 17.765625 36.726562 C 17.90625 36.757812 18.066406 36.726562 18.207031 36.75 C 18.21875 36.753906 18.234375 36.753906 18.25 36.757812 C 18.394531 36.796875 18.480469 37.011719 18.496094 37.140625 C 18.53125 37.394531 18.433594 37.550781 18.277344 37.648438 Z M 23.671875 12.445312 C 23.667969 12.445312 23.664062 12.445312 23.660156 12.445312 C 23.578125 12.453125 23.515625 12.519531 23.515625 12.601562 C 23.519531 12.683594 23.585938 12.75 23.667969 12.75 L 23.679688 12.75 C 23.683594 12.75 23.726562 12.769531 23.773438 12.8125 C 23.921875 12.953125 24.171875 13.390625 24.171875 14.742188 L 24.171875 16.457031 L 22.519531 16.457031 L 22.519531 17.316406 L 24.171875 17.316406 L 24.171875 18.105469 C 24.171875 18.1875 24.238281 18.253906 24.324219 18.253906 C 24.40625 18.253906 24.472656 18.1875 24.472656 18.105469 L 24.472656 14.742188 C 24.472656 13.785156 24.351562 13.117188 24.109375 12.75 L 26.339844 12.75 C 26.425781 12.75 26.492188 12.679688 26.492188 12.597656 C 26.492188 12.515625 26.425781 12.445312 26.339844 12.445312 Z M 22.210938 9.984375 L 22.210938 10.84375 L 22.839844 10.84375 L 22.839844 9.984375 Z M 20.125 12.625 C 20.054688 12.578125 19.960938 12.59375 19.914062 12.660156 C 19.863281 12.730469 19.878906 12.824219 19.945312 12.871094 C 19.953125 12.875 20.421875 13.222656 20.421875 14.046875 L 20.421875 18.105469 C 20.421875 18.1875 20.488281 18.253906 20.574219 18.253906 C 20.65625 18.253906 20.726562 18.1875 20.726562 18.105469 L 20.726562 14.046875 C 20.726562 13.066406 20.148438 12.644531 20.125 12.625 Z M 15.675781 15.289062 C 15.675781 15.371094 15.742188 15.441406 15.828125 15.441406 L 19.445312 15.441406 C 19.527344 15.441406 19.597656 15.371094 19.597656 15.289062 C 19.597656 15.203125 19.527344 15.136719 19.445312 15.136719 L 15.828125 15.136719 C 15.742188 15.136719 15.675781 15.203125 15.675781 15.289062 Z M 15.675781 16.457031 C 15.675781 16.539062 15.742188 16.605469 15.828125 16.605469 L 19.445312 16.605469 C 19.527344 16.605469 19.597656 16.539062 19.597656 16.457031 C 19.597656 16.371094 19.527344 16.304688 19.445312 16.304688 L 15.828125 16.304688 C 15.742188 16.304688 15.675781 16.371094 15.675781 16.457031 Z M 19.445312 17.773438 C 19.527344 17.773438 19.597656 17.707031 19.597656 17.621094 C 19.597656 17.539062 19.527344 17.472656 19.445312 17.472656 L 15.828125 17.472656 C 15.742188 17.472656 15.675781 17.539062 15.675781 17.621094 C 15.675781 17.707031 15.742188 17.773438 15.828125 17.773438 Z M 19.445312 17.773438 " fill-opacity="1" fill-rule="nonzero"/></g><g fill="#ffffff" fill-opacity="1"><g transform="translate(10.161816, 79.412584)"><g><path d="M 2.96875 -6.546875 L 2.96875 0 L 2.34375 0 L 2.34375 -6.359375 L 0.765625 -6 L 0.765625 -6.1875 L 2.34375 -6.546875 Z M 2.96875 -6.546875 "/></g></g></g><g fill="#ffffff" fill-opacity="1"><g transform="translate(16.569476, 79.412584)"><g><path d="M 3.171875 -3.78125 C 3.648438 -3.707031 4.03125 -3.523438 4.3125 -3.234375 C 4.601562 -2.941406 4.75 -2.503906 4.75 -1.921875 C 4.75 -1.347656 4.550781 -0.875 4.15625 -0.5 C 3.769531 -0.132812 3.273438 0.046875 2.671875 0.046875 C 2.066406 0.046875 1.582031 -0.101562 1.21875 -0.40625 C 0.863281 -0.71875 0.6875 -1.195312 0.6875 -1.84375 C 0.6875 -2.226562 0.75 -2.609375 0.875 -2.984375 C 1 -3.359375 1.15625 -3.6875 1.34375 -3.96875 C 1.53125 -4.257812 1.753906 -4.539062 2.015625 -4.8125 C 2.273438 -5.09375 2.515625 -5.320312 2.734375 -5.5 C 2.953125 -5.6875 3.195312 -5.863281 3.46875 -6.03125 C 3.800781 -6.257812 4.085938 -6.429688 4.328125 -6.546875 L 4.484375 -6.375 L 4.375 -6.296875 C 3.726562 -5.921875 3.144531 -5.445312 2.625 -4.875 C 2.332031 -4.5625 2.085938 -4.21875 1.890625 -3.84375 C 2.546875 -3.832031 2.972656 -3.8125 3.171875 -3.78125 Z M 1.8125 -3.703125 C 1.507812 -3.109375 1.359375 -2.5 1.359375 -1.875 C 1.359375 -1.25 1.484375 -0.796875 1.734375 -0.515625 C 1.992188 -0.242188 2.316406 -0.109375 2.703125 -0.109375 C 3.085938 -0.109375 3.410156 -0.28125 3.671875 -0.625 C 3.941406 -0.96875 4.078125 -1.394531 4.078125 -1.90625 C 4.078125 -2.425781 3.984375 -2.828125 3.796875 -3.109375 C 3.609375 -3.390625 3.363281 -3.5625 3.0625 -3.625 C 2.789062 -3.65625 2.375 -3.679688 1.8125 -3.703125 Z M 1.8125 -3.703125 "/></g></g></g><g fill="#ffffff" fill-opacity="1"><g transform="translate(24.094413, 79.412584)"><g/></g></g><g fill="#ffffff" fill-opacity="1"><g transform="translate(28.633349, 79.412584)"><g><path d="M 6.265625 -6.921875 C 6.265625 -6.910156 6.269531 -6.863281 6.28125 -6.78125 L 5.65625 -6.703125 L 5.65625 -0.1875 L 6.375 -0.140625 C 6.375 -0.140625 6.375 -0.09375 6.375 0 L 4.390625 0.015625 C 4.390625 -0.046875 4.394531 -0.09375 4.40625 -0.125 L 4.921875 -0.203125 C 4.984375 -0.203125 5.019531 -0.242188 5.03125 -0.328125 L 5.03125 -3.328125 L 1.65625 -3.328125 L 1.65625 -0.1875 L 2.390625 -0.140625 C 2.390625 -0.140625 2.390625 -0.09375 2.390625 0 L 0.390625 0.015625 L 0.40625 -0.125 L 0.921875 -0.203125 C 0.984375 -0.203125 1.019531 -0.238281 1.03125 -0.3125 L 1.03125 -6.59375 C 1.019531 -6.664062 0.984375 -6.707031 0.921875 -6.71875 L 0.40625 -6.765625 L 0.390625 -6.90625 L 2.390625 -6.921875 C 2.390625 -6.910156 2.390625 -6.863281 2.390625 -6.78125 L 1.65625 -6.703125 L 1.65625 -3.53125 L 5.03125 -3.53125 L 5.03125 -6.578125 C 5.019531 -6.660156 4.984375 -6.707031 4.921875 -6.71875 L 4.40625 -6.765625 C 4.394531 -6.804688 4.390625 -6.851562 4.390625 -6.90625 Z M 6.265625 -6.921875 "/></g></g></g><g fill="#ffffff" fill-opacity="1"><g transform="translate(36.988823, 79.412584)"><g/></g></g><g fill="#ffffff" fill-opacity="1"><g transform="translate(41.52776, 79.412584)"><g><path d="M 3.46875 -6.65625 C 2.925781 -6.65625 2.460938 -6.359375 2.078125 -5.765625 C 1.703125 -5.171875 1.515625 -4.347656 1.515625 -3.296875 C 1.515625 -2.253906 1.695312 -1.460938 2.0625 -0.921875 C 2.4375 -0.378906 2.894531 -0.109375 3.4375 -0.109375 C 3.988281 -0.109375 4.453125 -0.398438 4.828125 -0.984375 C 5.210938 -1.578125 5.40625 -2.394531 5.40625 -3.4375 C 5.40625 -4.476562 5.21875 -5.273438 4.84375 -5.828125 C 4.476562 -6.378906 4.019531 -6.65625 3.46875 -6.65625 Z M 3.4375 0.046875 C 2.695312 0.046875 2.078125 -0.234375 1.578125 -0.796875 C 1.085938 -1.367188 0.84375 -2.203125 0.84375 -3.296875 C 0.84375 -4.398438 1.09375 -5.257812 1.59375 -5.875 C 2.101562 -6.5 2.726562 -6.8125 3.46875 -6.8125 C 4.21875 -6.8125 4.835938 -6.519531 5.328125 -5.9375 C 5.828125 -5.363281 6.078125 -4.53125 6.078125 -3.4375 C 6.078125 -2.351562 5.820312 -1.5 5.3125 -0.875 C 4.8125 -0.257812 4.1875 0.046875 3.4375 0.046875 Z M 3.4375 0.046875 "/></g></g></g><g fill="#ffffff" fill-opacity="1"><g transform="translate(50.031545, 79.412584)"><g><path d="M 3.46875 -6.65625 C 2.925781 -6.65625 2.460938 -6.359375 2.078125 -5.765625 C 1.703125 -5.171875 1.515625 -4.347656 1.515625 -3.296875 C 1.515625 -2.253906 1.695312 -1.460938 2.0625 -0.921875 C 2.4375 -0.378906 2.894531 -0.109375 3.4375 -0.109375 C 3.988281 -0.109375 4.453125 -0.398438 4.828125 -0.984375 C 5.210938 -1.578125 5.40625 -2.394531 5.40625 -3.4375 C 5.40625 -4.476562 5.21875 -5.273438 4.84375 -5.828125 C 4.476562 -6.378906 4.019531 -6.65625 3.46875 -6.65625 Z M 3.4375 0.046875 C 2.695312 0.046875 2.078125 -0.234375 1.578125 -0.796875 C 1.085938 -1.367188 0.84375 -2.203125 0.84375 -3.296875 C 0.84375 -4.398438 1.09375 -5.257812 1.59375 -5.875 C 2.101562 -6.5 2.726562 -6.8125 3.46875 -6.8125 C 4.21875 -6.8125 4.835938 -6.519531 5.328125 -5.9375 C 5.828125 -5.363281 6.078125 -4.53125 6.078125 -3.4375 C 6.078125 -2.351562 5.820312 -1.5 5.3125 -0.875 C 4.8125 -0.257812 4.1875 0.046875 3.4375 0.046875 Z M 3.4375 0.046875 "/></g></g></g><g fill="#ffffff" fill-opacity="1"><g transform="translate(3.091027, 94.842626)"><g><path d="M 2.359375 -0.1875 C 2.835938 -0.1875 3.257812 -0.328125 3.625 -0.609375 C 4 -0.898438 4.1875 -1.335938 4.1875 -1.921875 C 4.1875 -2.191406 4.125 -2.421875 4 -2.609375 C 3.875 -2.796875 3.703125 -2.9375 3.484375 -3.03125 C 3.273438 -3.132812 3.046875 -3.222656 2.796875 -3.296875 C 2.546875 -3.378906 2.296875 -3.460938 2.046875 -3.546875 C 1.796875 -3.628906 1.5625 -3.726562 1.34375 -3.84375 C 1.132812 -3.96875 0.96875 -4.140625 0.84375 -4.359375 C 0.71875 -4.578125 0.65625 -4.835938 0.65625 -5.140625 C 0.65625 -5.671875 0.832031 -6.101562 1.1875 -6.4375 C 1.550781 -6.769531 2.035156 -6.9375 2.640625 -6.9375 C 3.253906 -6.9375 3.835938 -6.867188 4.390625 -6.734375 L 4.5 -5.5 L 4.3125 -5.421875 L 4.21875 -6.203125 C 3.726562 -6.566406 3.269531 -6.75 2.84375 -6.75 C 2.414062 -6.75 2.054688 -6.617188 1.765625 -6.359375 C 1.472656 -6.097656 1.328125 -5.707031 1.328125 -5.1875 C 1.328125 -4.882812 1.445312 -4.640625 1.6875 -4.453125 C 1.9375 -4.273438 2.234375 -4.132812 2.578125 -4.03125 C 2.921875 -3.9375 3.265625 -3.828125 3.609375 -3.703125 C 3.960938 -3.578125 4.257812 -3.363281 4.5 -3.0625 C 4.738281 -2.769531 4.859375 -2.390625 4.859375 -1.921875 C 4.859375 -1.273438 4.628906 -0.789062 4.171875 -0.46875 C 3.722656 -0.144531 3.125 0.015625 2.375 0.015625 C 1.632812 0.015625 0.988281 -0.1875 0.4375 -0.59375 L 0.453125 -1.640625 L 0.640625 -1.6875 L 0.65625 -1.125 C 0.84375 -0.875 1.085938 -0.65625 1.390625 -0.46875 C 1.703125 -0.28125 2.023438 -0.1875 2.359375 -0.1875 Z M 2.359375 -0.1875 "/></g></g></g><g fill="#ffffff" fill-opacity="1"><g transform="translate(8.301689, 94.842626)"><g><path d="M 1.09375 -2.28125 C 1.09375 -0.851562 1.644531 -0.140625 2.75 -0.140625 C 3.039062 -0.140625 3.347656 -0.171875 3.671875 -0.234375 C 4.003906 -0.296875 4.21875 -0.351562 4.3125 -0.40625 L 4.375 -0.3125 C 4.226562 -0.207031 3.976562 -0.117188 3.625 -0.046875 C 3.28125 0.015625 2.960938 0.046875 2.671875 0.046875 C 2.390625 0.046875 2.132812 0.015625 1.90625 -0.046875 C 1.6875 -0.109375 1.457031 -0.210938 1.21875 -0.359375 C 0.976562 -0.515625 0.785156 -0.753906 0.640625 -1.078125 C 0.503906 -1.398438 0.4375 -1.796875 0.4375 -2.265625 C 0.4375 -3.140625 0.664062 -3.804688 1.125 -4.265625 C 1.582031 -4.742188 2.117188 -4.984375 2.734375 -4.984375 C 3.359375 -4.984375 3.832031 -4.8125 4.15625 -4.46875 C 4.488281 -4.125 4.65625 -3.644531 4.65625 -3.03125 C 4.65625 -2.894531 4.644531 -2.75 4.625 -2.59375 L 1.09375 -2.59375 C 1.09375 -2.53125 1.09375 -2.425781 1.09375 -2.28125 Z M 4.078125 -3.09375 C 4.078125 -3.59375 3.96875 -4 3.75 -4.3125 C 3.53125 -4.625 3.234375 -4.78125 2.859375 -4.78125 C 2.367188 -4.78125 1.957031 -4.566406 1.625 -4.140625 C 1.351562 -3.796875 1.1875 -3.347656 1.125 -2.796875 L 4.0625 -2.796875 C 4.070312 -2.859375 4.078125 -2.957031 4.078125 -3.09375 Z M 4.125 -7.421875 L 4.421875 -7.34375 L 3.25 -5.890625 L 3.09375 -5.96875 Z M 4.125 -7.421875 "/></g></g></g><g fill="#ffffff" fill-opacity="1"><g transform="translate(13.304713, 94.842626)"><g><path d="M 3.5625 -0.375 L 3.53125 -0.375 C 2.9375 -0.09375 2.359375 0.046875 1.796875 0.046875 C 0.921875 0.046875 0.457031 -0.300781 0.40625 -1 C 0.394531 -1.039062 0.390625 -1.082031 0.390625 -1.125 C 0.390625 -1.632812 0.722656 -1.972656 1.390625 -2.140625 C 1.785156 -2.234375 2.5 -2.335938 3.53125 -2.453125 L 3.53125 -3.328125 C 3.53125 -3.597656 3.492188 -3.832031 3.421875 -4.03125 C 3.359375 -4.226562 3.285156 -4.375 3.203125 -4.46875 C 3.128906 -4.570312 3.03125 -4.648438 2.90625 -4.703125 C 2.75 -4.765625 2.570312 -4.796875 2.375 -4.796875 C 2.1875 -4.796875 1.96875 -4.75 1.71875 -4.65625 C 1.351562 -4.5 1.023438 -4.304688 0.734375 -4.078125 L 0.703125 -3.296875 L 0.515625 -3.25 L 0.515625 -4.453125 L 0.609375 -4.484375 C 1.128906 -4.710938 1.523438 -4.847656 1.796875 -4.890625 C 2.066406 -4.941406 2.265625 -4.96875 2.390625 -4.96875 C 2.515625 -4.96875 2.632812 -4.960938 2.75 -4.953125 C 2.863281 -4.953125 3.007812 -4.925781 3.1875 -4.875 C 3.375 -4.820312 3.535156 -4.75 3.671875 -4.65625 C 3.804688 -4.5625 3.921875 -4.414062 4.015625 -4.21875 C 4.117188 -4.03125 4.171875 -3.804688 4.171875 -3.546875 L 4.171875 -0.515625 C 4.171875 -0.304688 4.222656 -0.203125 4.328125 -0.203125 L 4.9375 -0.171875 L 4.921875 -0.03125 C 4.554688 0.0195312 4.226562 0.046875 3.9375 0.046875 C 3.851562 0.046875 3.769531 0.0078125 3.6875 -0.0625 C 3.601562 -0.144531 3.5625 -0.25 3.5625 -0.375 Z M 1.984375 -0.125 C 2.460938 -0.125 2.976562 -0.296875 3.53125 -0.640625 L 3.53125 -2.265625 C 2.539062 -2.234375 1.914062 -2.175781 1.65625 -2.09375 C 1.40625 -2.007812 1.234375 -1.878906 1.140625 -1.703125 C 1.046875 -1.523438 1 -1.351562 1 -1.1875 C 1 -1.15625 1 -1.125 1 -1.09375 C 1.019531 -0.75 1.117188 -0.5 1.296875 -0.34375 C 1.484375 -0.195312 1.710938 -0.125 1.984375 -0.125 Z M 1.984375 -0.125 "/></g></g></g><g fill="#ffffff" fill-opacity="1"><g transform="translate(18.634027, 94.842626)"><g><path d="M 0.546875 0.015625 L 0.546875 -0.125 L 1.0625 -0.203125 C 1.125 -0.203125 1.15625 -0.25 1.15625 -0.34375 L 1.15625 -4.625 C 1.144531 -4.675781 1.125 -4.703125 1.09375 -4.703125 L 0.5 -4.71875 L 0.5 -4.859375 C 0.914062 -4.910156 1.195312 -4.9375 1.34375 -4.9375 C 1.601562 -4.9375 1.753906 -4.820312 1.796875 -4.59375 L 1.796875 -4.390625 C 2.335938 -4.753906 2.859375 -4.945312 3.359375 -4.96875 C 3.835938 -4.96875 4.203125 -4.875 4.453125 -4.6875 C 4.566406 -4.601562 4.664062 -4.46875 4.75 -4.28125 C 4.84375 -4.101562 4.890625 -3.890625 4.890625 -3.640625 L 4.890625 -0.203125 L 5.625 -0.140625 C 5.625 -0.140625 5.625 -0.09375 5.625 0 L 3.640625 0.015625 C 3.640625 -0.046875 3.644531 -0.09375 3.65625 -0.125 L 4.15625 -0.203125 C 4.21875 -0.203125 4.25 -0.25 4.25 -0.34375 L 4.25 -3.390625 C 4.25 -3.648438 4.210938 -3.875 4.140625 -4.0625 C 4.066406 -4.25 3.988281 -4.382812 3.90625 -4.46875 C 3.820312 -4.550781 3.71875 -4.617188 3.59375 -4.671875 C 3.445312 -4.722656 3.296875 -4.75 3.140625 -4.75 C 2.742188 -4.738281 2.296875 -4.582031 1.796875 -4.28125 L 1.796875 -0.203125 L 2.546875 -0.140625 C 2.546875 -0.140625 2.539062 -0.09375 2.53125 0 Z M 0.546875 0.015625 "/></g></g></g><g fill="#ffffff" fill-opacity="1"><g transform="translate(24.863087, 94.842626)"><g><path d="M 2.96875 -4.8125 C 2.40625 -4.8125 1.953125 -4.585938 1.609375 -4.140625 C 1.265625 -3.703125 1.09375 -3.082031 1.09375 -2.28125 C 1.09375 -0.851562 1.632812 -0.140625 2.71875 -0.140625 C 3.144531 -0.140625 3.507812 -0.179688 3.8125 -0.265625 C 4.113281 -0.347656 4.28125 -0.398438 4.3125 -0.421875 L 4.375 -0.3125 C 4.226562 -0.207031 3.976562 -0.117188 3.625 -0.046875 C 3.28125 0.015625 2.960938 0.046875 2.671875 0.046875 C 2.390625 0.046875 2.132812 0.015625 1.90625 -0.046875 C 1.675781 -0.109375 1.441406 -0.210938 1.203125 -0.359375 C 0.972656 -0.515625 0.785156 -0.753906 0.640625 -1.078125 C 0.503906 -1.410156 0.4375 -1.8125 0.4375 -2.28125 C 0.4375 -3.144531 0.660156 -3.796875 1.109375 -4.234375 C 1.597656 -4.742188 2.222656 -5 2.984375 -5 C 3.210938 -5 3.460938 -4.96875 3.734375 -4.90625 C 4.003906 -4.84375 4.210938 -4.742188 4.359375 -4.609375 L 4.359375 -3.3125 L 4.15625 -3.25 L 4.109375 -4.28125 C 3.960938 -4.4375 3.785156 -4.5625 3.578125 -4.65625 C 3.378906 -4.757812 3.175781 -4.8125 2.96875 -4.8125 Z M 2.96875 -4.8125 "/></g></g></g><g fill="#ffffff" fill-opacity="1"><g transform="translate(29.589266, 94.842626)"><g><path d="M 1.09375 -2.28125 C 1.09375 -0.851562 1.644531 -0.140625 2.75 -0.140625 C 3.039062 -0.140625 3.347656 -0.171875 3.671875 -0.234375 C 4.003906 -0.296875 4.21875 -0.351562 4.3125 -0.40625 L 4.375 -0.3125 C 4.226562 -0.207031 3.976562 -0.117188 3.625 -0.046875 C 3.28125 0.015625 2.960938 0.046875 2.671875 0.046875 C 2.390625 0.046875 2.132812 0.015625 1.90625 -0.046875 C 1.6875 -0.109375 1.457031 -0.210938 1.21875 -0.359375 C 0.976562 -0.515625 0.785156 -0.753906 0.640625 -1.078125 C 0.503906 -1.398438 0.4375 -1.796875 0.4375 -2.265625 C 0.4375 -3.140625 0.664062 -3.804688 1.125 -4.265625 C 1.582031 -4.742188 2.117188 -4.984375 2.734375 -4.984375 C 3.359375 -4.984375 3.832031 -4.8125 4.15625 -4.46875 C 4.488281 -4.125 4.65625 -3.644531 4.65625 -3.03125 C 4.65625 -2.894531 4.644531 -2.75 4.625 -2.59375 L 1.09375 -2.59375 C 1.09375 -2.53125 1.09375 -2.425781 1.09375 -2.28125 Z M 4.078125 -3.09375 C 4.078125 -3.59375 3.96875 -4 3.75 -4.3125 C 3.53125 -4.625 3.234375 -4.78125 2.859375 -4.78125 C 2.367188 -4.78125 1.957031 -4.566406 1.625 -4.140625 C 1.351562 -3.796875 1.1875 -3.347656 1.125 -2.796875 L 4.0625 -2.796875 C 4.070312 -2.859375 4.078125 -2.957031 4.078125 -3.09375 Z M 4.078125 -3.09375 "/></g></g></g><g fill="#ffffff" fill-opacity="1"><g transform="translate(34.59229, 94.842626)"><g/></g></g><g fill="#ffffff" fill-opacity="1"><g transform="translate(37.548621, 94.842626)"><g><path d="M 0.640625 2.46875 L 0.65625 2.328125 L 1.171875 2.265625 C 1.222656 2.253906 1.25 2.207031 1.25 2.125 L 1.25 -4.625 C 1.238281 -4.675781 1.222656 -4.703125 1.203125 -4.703125 L 0.59375 -4.71875 L 0.609375 -4.859375 C 1.015625 -4.910156 1.296875 -4.9375 1.453125 -4.9375 C 1.609375 -4.9375 1.71875 -4.898438 1.78125 -4.828125 C 1.84375 -4.753906 1.882812 -4.671875 1.90625 -4.578125 C 2.3125 -4.878906 2.75 -5.03125 3.21875 -5.03125 C 3.664062 -5.03125 4.085938 -4.894531 4.484375 -4.625 C 4.703125 -4.46875 4.875 -4.226562 5 -3.90625 C 5.125 -3.582031 5.1875 -3.191406 5.1875 -2.734375 C 5.1875 -1.859375 4.972656 -1.195312 4.546875 -0.75 C 4.046875 -0.25 3.40625 0 2.625 0 C 2.394531 0 2.15625 -0.015625 1.90625 -0.046875 L 1.90625 2.265625 L 2.734375 2.3125 C 2.734375 2.40625 2.734375 2.457031 2.734375 2.46875 Z M 1.90625 -4.375 L 1.90625 -0.25 C 2.09375 -0.207031 2.296875 -0.1875 2.515625 -0.1875 C 3.160156 -0.1875 3.660156 -0.40625 4.015625 -0.84375 C 4.367188 -1.28125 4.546875 -1.894531 4.546875 -2.6875 C 4.546875 -3.582031 4.367188 -4.179688 4.015625 -4.484375 C 3.734375 -4.734375 3.421875 -4.859375 3.078125 -4.859375 C 2.742188 -4.859375 2.351562 -4.695312 1.90625 -4.375 Z M 1.90625 -4.375 "/></g></g></g><g fill="#ffffff" fill-opacity="1"><g transform="translate(43.184439, 94.842626)"><g><path d="M 1.890625 -7.015625 L 1.890625 -4.328125 C 2.753906 -4.921875 3.535156 -5.109375 4.234375 -4.890625 C 4.390625 -4.835938 4.523438 -4.765625 4.640625 -4.671875 C 4.753906 -4.585938 4.851562 -4.457031 4.9375 -4.28125 C 5.03125 -4.101562 5.078125 -3.890625 5.078125 -3.640625 L 5.078125 -0.203125 L 5.8125 -0.140625 C 5.8125 -0.140625 5.8125 -0.09375 5.8125 0 L 3.828125 0.015625 C 3.828125 -0.046875 3.832031 -0.09375 3.84375 -0.125 L 4.359375 -0.203125 C 4.390625 -0.203125 4.414062 -0.226562 4.4375 -0.28125 L 4.4375 -3.375 C 4.4375 -3.632812 4.398438 -3.859375 4.328125 -4.046875 C 4.253906 -4.234375 4.171875 -4.367188 4.078125 -4.453125 C 3.992188 -4.546875 3.890625 -4.613281 3.765625 -4.65625 C 3.585938 -4.71875 3.429688 -4.742188 3.296875 -4.734375 C 2.867188 -4.722656 2.398438 -4.550781 1.890625 -4.21875 L 1.890625 -0.203125 L 2.625 -0.140625 C 2.625 -0.140625 2.625 -0.09375 2.625 0 L 0.640625 0.015625 C 0.640625 -0.046875 0.644531 -0.09375 0.65625 -0.125 L 1.171875 -0.203125 C 1.222656 -0.203125 1.25 -0.25 1.25 -0.34375 L 1.25 -7.0625 C 1.25 -7.132812 1.226562 -7.171875 1.1875 -7.171875 L 0.59375 -7.1875 L 0.609375 -7.328125 C 0.960938 -7.390625 1.226562 -7.421875 1.40625 -7.421875 C 1.59375 -7.421875 1.71875 -7.375 1.78125 -7.28125 C 1.851562 -7.195312 1.890625 -7.109375 1.890625 -7.015625 Z M 1.890625 -7.015625 "/></g></g></g><g fill="#ffffff" fill-opacity="1"><g transform="translate(49.393724, 94.842626)"><g><path d="M 2.75 0.046875 C 2.0625 0.046875 1.503906 -0.148438 1.078125 -0.546875 C 0.648438 -0.941406 0.4375 -1.546875 0.4375 -2.359375 C 0.4375 -3.179688 0.660156 -3.820312 1.109375 -4.28125 C 1.566406 -4.75 2.140625 -4.984375 2.828125 -4.984375 C 3.515625 -4.984375 4.070312 -4.785156 4.5 -4.390625 C 4.925781 -3.992188 5.140625 -3.390625 5.140625 -2.578125 C 5.140625 -1.765625 4.910156 -1.125 4.453125 -0.65625 C 4.003906 -0.1875 3.4375 0.046875 2.75 0.046875 Z M 2.8125 -4.8125 C 2.320312 -4.8125 1.910156 -4.59375 1.578125 -4.15625 C 1.253906 -3.726562 1.09375 -3.144531 1.09375 -2.40625 C 1.09375 -1.675781 1.25 -1.113281 1.5625 -0.71875 C 1.875 -0.332031 2.273438 -0.140625 2.765625 -0.140625 C 3.265625 -0.140625 3.675781 -0.351562 4 -0.78125 C 4.332031 -1.207031 4.5 -1.785156 4.5 -2.515625 C 4.5 -3.253906 4.34375 -3.820312 4.03125 -4.21875 C 3.71875 -4.613281 3.3125 -4.8125 2.8125 -4.8125 Z M 2.8125 -4.8125 "/></g></g></g><g fill="#ffffff" fill-opacity="1"><g transform="translate(54.980109, 94.842626)"><g><path d="M 2.65625 -0.1875 L 3.03125 -0.203125 L 3.0625 -0.109375 C 3.0625 -0.109375 3.015625 -0.0976562 2.921875 -0.078125 C 2.722656 -0.0351562 2.503906 -0.015625 2.265625 -0.015625 C 2.035156 -0.0234375 1.828125 -0.0625 1.640625 -0.125 C 1.460938 -0.1875 1.296875 -0.316406 1.140625 -0.515625 C 0.984375 -0.722656 0.90625 -0.984375 0.90625 -1.296875 L 0.90625 -4.765625 L 0.390625 -4.765625 L 0.46875 -4.84375 L 0.90625 -4.9375 L 0.984375 -5.890625 L 1.546875 -5.9375 L 1.546875 -4.9375 L 2.734375 -4.9375 L 2.734375 -4.765625 L 1.546875 -4.765625 L 1.546875 -1.46875 C 1.546875 -0.96875 1.648438 -0.628906 1.859375 -0.453125 C 2.066406 -0.273438 2.332031 -0.1875 2.65625 -0.1875 Z M 2.65625 -0.1875 "/></g></g></g><g fill="#ffffff" fill-opacity="1"><g transform="translate(58.440699, 94.842626)"><g><path d="M 2.75 0.046875 C 2.0625 0.046875 1.503906 -0.148438 1.078125 -0.546875 C 0.648438 -0.941406 0.4375 -1.546875 0.4375 -2.359375 C 0.4375 -3.179688 0.660156 -3.820312 1.109375 -4.28125 C 1.566406 -4.75 2.140625 -4.984375 2.828125 -4.984375 C 3.515625 -4.984375 4.070312 -4.785156 4.5 -4.390625 C 4.925781 -3.992188 5.140625 -3.390625 5.140625 -2.578125 C 5.140625 -1.765625 4.910156 -1.125 4.453125 -0.65625 C 4.003906 -0.1875 3.4375 0.046875 2.75 0.046875 Z M 2.8125 -4.8125 C 2.320312 -4.8125 1.910156 -4.59375 1.578125 -4.15625 C 1.253906 -3.726562 1.09375 -3.144531 1.09375 -2.40625 C 1.09375 -1.675781 1.25 -1.113281 1.5625 -0.71875 C 1.875 -0.332031 2.273438 -0.140625 2.765625 -0.140625 C 3.265625 -0.140625 3.675781 -0.351562 4 -0.78125 C 4.332031 -1.207031 4.5 -1.785156 4.5 -2.515625 C 4.5 -3.253906 4.34375 -3.820312 4.03125 -4.21875 C 3.71875 -4.613281 3.3125 -4.8125 2.8125 -4.8125 Z M 2.8125 -4.8125 "/></g></g></g></svg>